<svg width="48" height="49" viewBox="0 0 48 49" fill="none" xmlns="http://www.w3.org/2000/svg">
<path d="M19.8333 2.42003C22.4117 0.931423 25.5883 0.931424 28.1667 2.42003L40.6179 9.60878C43.1963 11.0974 44.7846 13.8484 44.7846 16.8257V31.2032C44.7846 34.1804 43.1963 36.9314 40.6179 38.42L28.1667 45.6088C25.5883 47.0974 22.4117 47.0974 19.8333 45.6088L7.38206 38.42C4.80372 36.9314 3.21539 34.1804 3.21539 31.2032V16.8257C3.21539 13.8484 4.80372 11.0974 7.38206 9.60878L19.8333 2.42003Z" fill="url(#paint0_linear_1342_6110)"/>
<path d="M20.6238 35.9623C21.2377 36.7935 22.53 37.3732 23.9946 37.4826V12.5998V11.5061C21.3723 11.5771 18.7931 12.4904 16.8762 14.049C16.8008 14.1092 16.7362 14.1748 16.6662 14.235L14.41 11.2162C14.5554 10.9537 14.6469 10.6529 14.6469 10.3303C14.6469 9.32949 13.8446 8.51465 12.8592 8.51465C11.8738 8.51465 11.0769 9.33496 11.0769 10.3357C11.0769 11.3365 11.8792 12.1514 12.8646 12.1514C13.1392 12.1514 13.3923 12.0857 13.6292 11.9709L15.8908 14.9951C13.43 17.6803 12.4877 21.8693 13.0154 27.7373C13.0154 27.7646 13.0208 27.792 13.0262 27.8193H11.0823V25.0959H10V31.642H11.0769V28.9185H13.1338C13.4677 31.8115 14.0169 34.1193 14.8515 36.11C16.2354 39.4131 19.4392 43.2576 24.0054 43.5256V42.4264V38.5928C22.18 38.4725 20.5862 37.7396 19.7731 36.624C19.5954 36.3779 19.6438 36.0389 19.8808 35.8584C20.1231 35.6779 20.4623 35.7271 20.6346 35.9732L20.6238 35.9623ZM12.8646 11.0576C12.4715 11.0576 12.1538 10.735 12.1538 10.3357C12.1538 9.93652 12.4715 9.61387 12.8646 9.61387C13.2577 9.61387 13.5754 9.93652 13.5754 10.3357C13.5754 10.735 13.2577 11.0576 12.8646 11.0576ZM17.1615 26.742C17.1615 25.2217 18.3785 23.9803 19.8754 23.9803C21.3723 23.9803 22.5946 25.2217 22.5946 26.742C22.5946 28.2623 21.3777 29.5037 19.8754 29.5037C18.3731 29.5037 17.1615 28.2623 17.1615 26.742Z" fill="#F5F6F8"/>
<path d="M21.5175 26.7417C21.5175 25.8229 20.7798 25.0737 19.8752 25.0737C18.9706 25.0737 18.2383 25.8229 18.2383 26.7417C18.2383 27.6604 18.9706 28.4097 19.8752 28.4097C20.7798 28.4097 21.5175 27.6604 21.5175 26.7417Z" fill="white"/>
<defs>
<linearGradient id="paint0_linear_1342_6110" x1="24" y1="0.0144043" x2="24" y2="48.0144" gradientUnits="userSpaceOnUse">
<stop offset="0.09375" stop-color="#1E1E1E"/>
<stop offset="1" stop-color="#FFF5CC"/>
</linearGradient>
</defs>
</svg>
