<svg width="421" height="245" viewBox="0 0 421 245" fill="none" xmlns="http://www.w3.org/2000/svg">
<g clip-path="url(#clip0_140_9978)">
<rect width="421" height="245" rx="24" fill="white"/>
<g opacity="0.3" filter="url(#filter0_f_140_9978)">
<path d="M150.957 174.387C149.677 162.206 151.051 133.91 166.789 118.172C186.461 98.5001 195.965 96.7625 201.739 75.4558C207.514 54.1491 239.107 48.4422 250.085 75.2597C261.062 102.077 258.129 125.203 237.925 142.3C217.722 159.397 217.679 192.057 196.873 195.777C176.068 199.498 151.239 178.246 150.957 174.387Z" fill="#8D97E3"/>
</g>
<path opacity="0.2" d="M-37.2031 208.5C-37.2031 -20 287.797 105.5 168.797 -71" stroke="#8D97E3"/>
<path opacity="0.2" d="M-46.4023 222.5C-46.4023 -6 278.598 119.5 159.598 -57" stroke="#8D97E3"/>
<path opacity="0.2" d="M-55.6016 236.5C-55.6016 8 269.398 133.5 150.398 -43" stroke="#8D97E3"/>
<path opacity="0.2" d="M-64.8008 250.5C-64.8008 22 260.199 147.5 141.199 -29" stroke="#8D97E3"/>
<path opacity="0.2" d="M-74 264.5C-74 36 251 161.5 132 -15" stroke="#8D97E3"/>
</g>
<defs>
<filter id="filter0_f_140_9978" x="30.5898" y="-62.7578" width="345.801" height="378.969" filterUnits="userSpaceOnUse" color-interpolation-filters="sRGB">
<feFlood flood-opacity="0" result="BackgroundImageFix"/>
<feBlend mode="normal" in="SourceGraphic" in2="BackgroundImageFix" result="shape"/>
<feGaussianBlur stdDeviation="60" result="effect1_foregroundBlur_140_9978"/>
</filter>
<clipPath id="clip0_140_9978">
<rect width="421" height="245" rx="24" fill="white"/>
</clipPath>
</defs>
</svg>
