<svg  viewBox="0 0 120 35" xmlns="http://www.w3.org/2000/svg">
<path d="M11.5223 27.442C12.1361 28.2733 13.4284 28.853 14.8931 28.9624V4.07954V2.98579C12.2707 3.05689 9.69151 3.97017 7.77459 5.52876C7.69921 5.58892 7.63459 5.65454 7.56459 5.7147L5.30844 2.69595C5.45382 2.43345 5.54536 2.13267 5.54536 1.81001C5.54536 0.809228 4.74305 -0.00561523 3.75767 -0.00561523C2.77228 -0.00561523 1.97536 0.814697 1.97536 1.81548C1.97536 2.81626 2.77767 3.6311 3.76305 3.6311C4.03767 3.6311 4.29074 3.56548 4.52767 3.45063L6.78921 6.47485C4.32844 9.16001 3.38613 13.3491 3.91382 19.217C3.91382 19.2444 3.91921 19.2717 3.92459 19.2991H1.98074V16.5756H0.898438V23.1217H1.97536V20.3983H4.03228C4.36613 23.2913 4.91536 25.5991 5.74998 27.5897C7.13382 30.8928 10.3377 34.7374 14.9038 35.0053V33.9061V30.0725C13.0784 29.9522 11.4846 29.2194 10.6715 28.1038C10.4938 27.8577 10.5423 27.5186 10.7792 27.3381C11.0215 27.1577 11.3607 27.2069 11.5331 27.453L11.5223 27.442ZM3.76305 2.53735C3.36998 2.53735 3.05228 2.2147 3.05228 1.81548C3.05228 1.41626 3.36998 1.0936 3.76305 1.0936C4.15613 1.0936 4.47382 1.41626 4.47382 1.81548C4.47382 2.2147 4.15613 2.53735 3.76305 2.53735ZM8.05997 18.2217C8.05997 16.7014 9.2769 15.46 10.7738 15.46C12.2707 15.46 13.4931 16.7014 13.4931 18.2217C13.4931 19.742 12.2761 20.9834 10.7738 20.9834C9.27151 20.9834 8.05997 19.742 8.05997 18.2217Z"/>
<path d="M12.4159 18.2219C12.4159 17.3032 11.6783 16.554 10.7736 16.554C9.86903 16.554 9.13672 17.3032 9.13672 18.2219C9.13672 19.1407 9.86903 19.8899 10.7736 19.8899C11.6783 19.8899 12.4159 19.1407 12.4159 18.2219Z" fill="#FFEFD1"/>
<path d="M111.778 11.8836C114.021 11.8836 115.796 12.6359 117.104 14.138C118.435 15.6169 119.1 17.6274 119.1 20.1694V31.5056H112.233V21.0706C112.233 19.9614 111.942 19.0935 111.355 18.4722C110.771 17.8251 109.988 17.5016 109.007 17.5016C108.026 17.5016 107.174 17.8251 106.59 18.4722C106.006 19.0961 105.713 19.9614 105.713 21.0706V31.5056H98.8458V5.85213H105.713V14.8312C106.32 13.9531 107.138 13.247 108.166 12.7155C109.217 12.1609 110.421 11.8836 111.776 11.8836H111.778ZM88.0699 21.7639C88.0699 20.516 87.7196 19.5352 87.0188 18.8162C86.3415 18.0999 85.5006 17.7429 84.4962 17.7429C83.4918 17.7429 82.6171 18.0999 81.9398 18.8162C81.2624 19.5095 80.9224 20.4903 80.9224 21.7639C80.9224 23.0375 81.2598 24.0055 81.9398 24.7449C82.6171 25.4613 83.471 25.8182 84.4962 25.8182C85.5213 25.8182 86.3415 25.4613 87.0188 24.7449C87.7196 24.0286 88.0699 23.0349 88.0699 21.7639ZM73.915 21.7639C73.915 19.7534 74.2783 17.9971 74.9998 16.4951C75.7473 14.993 76.7517 13.8375 78.013 13.0287C79.2977 12.2199 80.7225 11.8168 82.2875 11.8168C83.6423 11.8168 84.8102 12.0813 85.7912 12.6128C86.7723 13.1443 87.5327 13.8607 88.0699 14.7619V12.0582H94.9372V31.503H88.0699V28.7993C87.5327 29.7005 86.7619 30.4169 85.7575 30.9484C84.7765 31.4799 83.6215 31.7469 82.2901 31.7469C80.7251 31.7469 79.3003 31.3413 78.0156 30.5324C76.7543 29.7236 75.7499 28.5682 75.0024 27.0661C74.2783 25.5409 73.9176 23.7718 73.9176 21.7639H73.915ZM61.7065 25.0916L65.3841 12.0582H72.7081L65.9473 31.503H57.3982L50.6348 12.0582H57.9588L61.7091 25.0916H61.7065ZM48.3716 12.0582V31.503H41.5044V12.0582H48.3716ZM44.9717 10.2557C43.7571 10.2557 42.7761 9.93214 42.0286 9.28509C41.3045 8.61493 40.9438 7.78301 40.9438 6.78933C40.9438 5.79564 41.3045 4.93034 42.0286 4.26018C42.7761 3.59003 43.7571 3.25366 44.9717 3.25366C46.1864 3.25366 47.1207 3.58746 47.8448 4.26018C48.5922 4.93034 48.966 5.77253 48.966 6.78933C48.966 7.80612 48.5922 8.61493 47.8448 9.28509C47.1207 9.93214 46.163 10.2557 44.9717 10.2557ZM30.7233 21.7639C30.7233 20.516 30.373 19.5352 29.6722 18.8162C28.9948 18.0999 28.154 17.7429 27.1496 17.7429C26.1452 17.7429 25.2705 18.0999 24.5931 18.8162C23.9158 19.5095 23.5758 20.4903 23.5758 21.7639C23.5758 23.0375 23.9132 24.0055 24.5931 24.7449C25.2705 25.4613 26.1218 25.8182 27.1496 25.8182C28.1773 25.8182 28.9948 25.4613 29.6722 24.7449C30.373 24.0286 30.7233 23.0349 30.7233 21.7639ZM16.5684 21.7639C16.5684 19.7534 16.9317 17.9971 17.6532 16.4951C18.4007 14.993 19.4051 13.8375 20.6664 13.0287C21.9511 12.2199 23.3759 11.8168 24.9409 11.8168C26.2957 11.8168 27.4636 12.0813 28.4446 12.6128C29.4257 13.1443 30.1861 13.8607 30.7233 14.7619V12.0582H37.5906V31.503H30.7233V28.7993C30.1861 29.7005 29.4153 30.4169 28.4109 30.9484C27.4299 31.4799 26.2749 31.7469 24.9435 31.7469C23.3785 31.7469 21.9537 31.3413 20.669 30.5324C19.4077 29.7236 18.4033 28.5682 17.6558 27.0661C16.9317 25.5409 16.571 23.7718 16.571 21.7639H16.5684Z"/>
</svg>
