<svg width="200" height="200" viewBox="0 0 200 200" stroke="none" xmlns="http://www.w3.org/2000/svg">
<path d="M191.295 85.3409C191.721 85.0216 191.997 84.5136 191.997 83.9422V82.0116C191.997 81.4396 191.72 80.9309 191.294 80.6116C191.294 80.6069 191.295 80.6022 191.295 80.5976V71.3076C191.295 67.9769 188.586 65.2676 185.255 65.2676H175.869C175.685 65.2676 175.536 65.4169 175.536 65.6009H121.341C118.189 65.6009 115.633 68.1562 115.633 71.3082V101.357C114.454 102.312 113.543 103.605 113.062 105.124C111.237 110.884 111.109 119.273 112.855 125.002C113.317 126.521 114.209 127.818 115.372 128.782C115.326 128.84 115.299 128.912 115.299 128.989V142.138H114.907C114.811 142.138 114.719 142.18 114.655 142.253C114.592 142.326 114.563 142.423 114.577 142.518L114.861 144.518L99.4981 157.455C99.2121 157.45 98.9261 157.469 98.6421 157.512L94.7367 147.143C94.8367 147.039 94.9327 146.928 95.0221 146.811C96.1941 145.277 96.0187 143.131 94.6907 141.802L96.8194 134.847C97.2754 134.588 97.6107 134.172 97.7647 133.669C97.9247 133.148 97.8714 132.595 97.6154 132.113C97.3594 131.631 96.9314 131.278 96.4094 131.118C95.8874 130.958 95.3354 131.012 94.8534 131.268C94.7721 131.311 94.6954 131.359 94.6221 131.412L89.4774 128.792C88.9901 128.544 88.3934 128.738 88.1447 129.226C87.8967 129.713 88.0907 130.31 88.5787 130.558L93.7727 133.203C93.7901 133.47 93.8601 133.733 93.9821 133.978L91.9294 140.684C91.0934 140.698 90.2681 140.984 89.5967 141.525L85.2147 138.585C85.1267 138.194 84.9294 137.844 84.6461 137.571L86.0507 131.937C86.1834 131.406 85.8607 130.868 85.3294 130.736C84.7987 130.604 84.2607 130.927 84.1287 131.458L82.7327 137.054C82.2381 137.176 81.8127 137.472 81.5274 137.898C80.9001 138.834 81.1501 140.105 82.0854 140.732C82.4261 140.961 82.8181 141.08 83.2194 141.08C83.3327 141.08 83.4474 141.07 83.5614 141.05L88.1901 144.156C88.1654 144.435 88.1707 144.719 88.2087 145.003C88.3441 146.013 88.8647 146.91 89.6741 147.528C89.9767 147.76 90.3034 147.938 90.6427 148.066L95.0674 159.816C94.9274 160.033 94.8027 160.262 94.6941 160.502C94.1267 161.76 94.0834 163.164 94.5721 164.455C95.0607 165.746 96.0234 166.77 97.2814 167.337C97.9601 167.643 98.6801 167.796 99.4027 167.796C100.021 167.796 100.64 167.684 101.235 167.459C102.526 166.97 103.549 166.008 104.117 164.75C104.311 164.319 104.442 163.871 104.513 163.417L115.298 154.336V182.803C115.298 186.134 118.008 188.844 121.339 188.844H180.953C180.959 188.844 180.966 188.844 180.973 188.844H185.253C188.584 188.844 191.293 186.134 191.293 182.804V113.116C191.719 112.796 191.995 112.288 191.995 111.717V98.4569C191.995 97.8849 191.718 97.3762 191.292 97.0569C191.292 97.0522 191.293 97.0476 191.293 97.0429V91.5616C191.719 91.2422 191.995 90.7342 191.995 90.1629V88.2322C191.995 87.6602 191.718 87.1516 191.292 86.8322C191.292 86.8276 191.293 86.8229 191.293 86.8182V85.3449L191.295 85.3409ZM84.3674 139.801C84.1627 140.106 83.8514 140.313 83.4907 140.384C83.1301 140.455 82.7634 140.382 82.4587 140.177C81.8287 139.754 81.6601 138.898 82.0827 138.268C82.2874 137.963 82.5987 137.756 82.9594 137.685C83.3201 137.614 83.6867 137.688 83.9914 137.892C84.2967 138.097 84.5034 138.408 84.5747 138.769C84.6454 139.13 84.5721 139.496 84.3674 139.801ZM94.4974 132.667C94.6047 132.316 94.8427 132.027 95.1674 131.855C95.3687 131.748 95.5887 131.694 95.8107 131.694C95.9461 131.694 96.0821 131.714 96.2154 131.754C96.5667 131.862 96.8554 132.1 97.0274 132.424C97.2001 132.749 97.2354 133.121 97.1281 133.472C97.0207 133.824 96.7827 134.112 96.4581 134.284C96.1334 134.457 95.7614 134.492 95.4101 134.385C95.0587 134.278 94.7701 134.04 94.5981 133.715C94.4261 133.39 94.3901 133.018 94.4974 132.667ZM90.0801 146.996C89.4121 146.486 88.9821 145.746 88.8707 144.912C88.7594 144.079 88.9787 143.252 89.4894 142.584C90.1081 141.774 91.0467 141.348 91.9947 141.348C92.6614 141.348 93.3327 141.558 93.9021 141.993C95.2814 143.047 95.5467 145.026 94.4927 146.406C93.4387 147.786 91.4594 148.051 90.0794 146.997L90.0801 146.996ZM151.147 69.6889C151.846 69.6889 152.412 70.2556 152.412 70.9536C152.412 71.6516 151.846 72.2182 151.147 72.2182C150.449 72.2182 149.883 71.6522 149.883 70.9536C149.883 70.2549 150.449 69.6889 151.147 69.6889ZM121.341 69.4542H140.968C142.945 69.4542 144.84 70.2389 146.237 71.6362L148.725 74.1249C150.063 75.4622 152.232 75.4622 153.57 74.1249L156.058 71.6362C157.455 70.2389 159.351 69.4542 161.327 69.4542H180.955C181.978 69.4542 182.808 70.2836 182.808 71.3076V158.321L178.359 149.052L179.289 142.518C179.303 142.422 179.274 142.326 179.211 142.252C179.147 142.18 179.055 142.138 178.959 142.138H150.469V138.442C155.786 137.63 160.359 135.912 163.929 133.36C166.702 131.376 168.849 128.9 170.312 126C171.864 122.924 172.651 119.354 172.651 115.388C172.651 111.422 171.867 107.506 170.321 103.852C168.829 100.322 166.692 97.1529 163.97 94.4316C161.249 91.7102 158.079 89.5729 154.55 88.0802C150.896 86.5349 147.015 85.7509 143.014 85.7509C139.013 85.7509 135.132 86.5342 131.478 88.0802C127.949 89.5729 124.779 91.7096 122.058 94.4316C121.132 95.3576 120.275 96.3356 119.487 97.3622V71.3069C119.487 70.2829 120.317 69.4536 121.341 69.4536V69.4542ZM181.535 172.134L171.483 151.186C171.109 150.409 171.061 149.533 171.347 148.719C171.633 147.905 172.219 147.252 172.996 146.879C173.439 146.666 173.913 146.56 174.391 146.56C174.751 146.56 175.113 146.621 175.463 146.744C176.277 147.03 176.931 147.615 177.303 148.392L187.356 169.339L181.535 172.132L181.535 172.134ZM143.014 138.318C134.617 138.318 127.519 136.416 122.487 132.818C121.534 132.136 120.657 131.394 119.859 130.595C120.059 130.61 120.259 130.618 120.461 130.618H140.555C144.727 130.618 148.185 127.396 148.493 123.236C148.896 117.778 148.898 112.163 148.523 106.977C148.221 102.811 144.761 99.5816 140.584 99.5816H120.645C119.925 99.5816 119.222 99.6796 118.55 99.8629C119.684 98.0789 121.013 96.4202 122.529 94.9042C125.19 92.2436 128.288 90.1549 131.738 88.6956C135.309 87.1849 139.103 86.4189 143.014 86.4189C146.925 86.4189 150.719 87.1849 154.29 88.6956C157.739 90.1549 160.838 92.2436 163.499 94.9042C166.159 97.5649 168.248 100.663 169.707 104.113C171.218 107.684 171.984 111.478 171.984 115.389C171.984 119.3 171.221 122.719 169.717 125.701C168.303 128.504 166.225 130.898 163.541 132.818C158.509 136.417 151.412 138.319 143.014 138.319V138.318ZM149.803 138.54V142.138H137.427V138.688C139.217 138.884 141.081 138.985 143.014 138.985C145.383 138.985 147.651 138.834 149.803 138.54ZM131.625 114.992C131.625 111.433 134.27 108.538 137.522 108.538C140.774 108.538 143.419 111.433 143.419 114.992C143.419 115.454 143.045 115.827 142.585 115.827C142.124 115.827 141.75 115.453 141.75 114.992C141.75 112.354 139.853 110.208 137.523 110.208C135.192 110.208 133.295 112.354 133.295 114.992C133.295 115.454 132.921 115.827 132.461 115.827C132 115.827 131.626 115.453 131.626 114.992H131.625ZM114.977 114.992C114.977 111.433 117.622 108.538 120.874 108.538C124.126 108.538 126.771 111.433 126.771 114.992C126.771 115.454 126.397 115.827 125.937 115.827C125.476 115.827 125.102 115.453 125.102 114.992C125.102 112.354 123.205 110.208 120.875 110.208C118.544 110.208 116.647 112.354 116.647 114.992C116.647 115.454 116.273 115.827 115.813 115.827C115.352 115.827 114.978 115.453 114.978 114.992H114.977ZM119.821 131.485C120.526 132.151 121.285 132.777 122.1 133.36C125.935 136.102 130.93 137.881 136.76 138.609V142.137H119.821V131.484L119.821 131.485ZM115.633 142.804H169.783L167.257 160.568H155.131C154.977 160.568 154.843 160.673 154.807 160.823L153.417 166.586H131.657L130.267 160.823C130.231 160.673 130.097 160.568 129.943 160.568H119.477C119.431 160.556 119.381 160.553 119.331 160.562C119.325 160.564 119.32 160.566 119.314 160.568H117.817L117.75 160.092L115.291 142.804H115.633H115.633ZM138.741 184.32C136.952 183.599 135.685 181.846 135.685 179.802V177.902H155.167V179.802C155.167 181.846 153.901 183.599 152.111 184.32H138.741ZM127.739 177.236C124.923 177.236 122.494 175.229 121.961 172.464L119.8 161.234H129.681L131.071 166.998C131.107 167.148 131.241 167.253 131.395 167.253H153.679C153.833 167.253 153.967 167.148 154.003 166.998L155.393 161.234H164.132L161.971 172.464C161.439 175.228 159.009 177.236 156.193 177.236H127.739H127.739ZM103.511 164.473C103.017 165.569 102.125 166.408 101.001 166.833C99.8761 167.259 98.6534 167.221 97.5574 166.727C96.4614 166.233 95.6227 165.342 95.1974 164.217C94.7721 163.092 94.8094 161.87 95.3034 160.774C95.7974 159.678 96.6887 158.839 97.8134 158.414C98.3321 158.218 98.8707 158.12 99.4094 158.12C100.039 158.12 100.666 158.254 101.257 158.52C102.353 159.014 103.192 159.905 103.617 161.03C104.043 162.154 104.005 163.377 103.511 164.473H103.511ZM104.24 160.794C103.751 159.502 102.789 158.479 101.531 157.912C101.169 157.748 100.795 157.63 100.415 157.554L114.972 145.296L116.044 152.834L115.418 153.361C115.418 153.361 115.417 153.362 115.416 153.363L104.575 162.492C104.56 161.918 104.449 161.346 104.241 160.794H104.24ZM119.82 182.8V164.864L121.307 172.59C121.899 175.668 124.604 177.902 127.739 177.902H135.017V179.802C135.017 181.666 135.944 183.316 137.36 184.32H121.339C120.501 184.32 119.819 183.638 119.819 182.8H119.82ZM180.954 184.32H153.491C154.907 183.316 155.833 181.666 155.833 179.802V177.902H156.193C156.829 177.902 157.448 177.809 158.035 177.636L165.395 177.902C168.529 177.902 171.234 175.668 171.827 172.59L174.012 161.234H175.564L181.077 172.722C181.135 172.842 181.254 172.912 181.378 172.912C181.427 172.912 181.475 172.901 181.522 172.879L182.473 172.422V182.8C182.473 183.638 181.791 184.32 180.953 184.32H180.954ZM190.628 182.8C190.628 185.762 188.217 188.173 185.255 188.173H183.711C185.659 187.17 186.994 185.138 186.994 182.799V170.252L187.945 169.796C188.025 169.758 188.085 169.689 188.115 169.606C188.144 169.522 188.139 169.43 188.101 169.351L186.66 166.349V71.3062C186.66 68.8296 185.083 66.7222 182.878 65.9322H185.254C188.217 65.9322 190.627 68.3429 190.627 71.3056V80.3042C190.505 80.2769 190.378 80.2622 190.248 80.2622H189.291C188.327 80.2622 187.543 80.9709 187.543 81.8416V84.1076C187.543 84.9789 188.327 85.6869 189.291 85.6869H190.248C190.378 85.6869 190.505 85.6722 190.627 85.6449V86.5202C190.505 86.4929 190.378 86.4782 190.248 86.4782H189.291C188.327 86.4782 187.543 87.1869 187.543 88.0576V90.3236C187.543 91.1949 188.327 91.9029 189.291 91.9029H190.248C190.378 91.9029 190.505 91.8882 190.627 91.8609V96.7442C190.505 96.7169 190.378 96.7022 190.248 96.7022H189.291C188.327 96.7022 187.543 97.4109 187.543 98.2816V111.877C187.543 112.748 188.327 113.456 189.291 113.456H190.248C190.378 113.456 190.505 113.442 190.627 113.414V182.796L190.628 182.8ZM191.329 98.4529V111.713C191.329 112.309 190.845 112.794 190.249 112.794C190.234 112.794 190.219 112.792 190.205 112.792C190.183 112.791 190.16 112.79 190.139 112.788C190.133 112.788 190.127 112.786 190.122 112.786C189.694 112.735 189.342 112.434 189.217 112.034C189.216 112.03 189.215 112.025 189.214 112.021C189.185 111.924 189.169 111.82 189.169 111.714V98.4536C189.169 98.2676 189.216 98.0922 189.299 97.9389C189.299 97.9382 189.301 97.9369 189.301 97.9362C189.367 97.8149 189.456 97.7076 189.562 97.6202C189.576 97.6089 189.591 97.5989 189.605 97.5882C189.618 97.5782 189.631 97.5676 189.645 97.5582C189.671 97.5409 189.698 97.5249 189.725 97.5096C189.729 97.5076 189.731 97.5056 189.734 97.5042C189.761 97.4896 189.79 97.4762 189.819 97.4636C189.822 97.4622 189.825 97.4602 189.829 97.4589C189.849 97.4502 189.871 97.4429 189.893 97.4356C189.905 97.4316 189.916 97.4262 189.928 97.4229C189.953 97.4149 189.978 97.4096 190.003 97.4036C190.013 97.4016 190.022 97.3982 190.031 97.3962C190.059 97.3909 190.087 97.3869 190.115 97.3836C190.123 97.3822 190.131 97.3809 190.139 97.3796C190.161 97.3776 190.183 97.3769 190.205 97.3762C190.219 97.3762 190.234 97.3742 190.249 97.3742C190.845 97.3742 191.329 97.8589 191.329 98.4549V98.4529ZM191.329 88.2282V90.1589C191.329 90.7549 190.845 91.2396 190.249 91.2396C190.234 91.2396 190.219 91.2382 190.205 91.2376C190.183 91.2369 190.16 91.2362 190.139 91.2342C190.133 91.2342 190.127 91.2322 190.122 91.2316C189.694 91.1809 189.342 90.8802 189.217 90.4802C189.216 90.4756 189.215 90.4709 189.214 90.4669C189.185 90.3696 189.169 90.2662 189.169 90.1596V88.2289C189.169 88.1222 189.185 88.0189 189.214 87.9216C189.215 87.9169 189.216 87.9122 189.217 87.9082C189.342 87.5076 189.695 87.2069 190.122 87.1569C190.128 87.1569 190.133 87.1549 190.139 87.1542C190.161 87.1522 190.183 87.1516 190.205 87.1509C190.219 87.1509 190.234 87.1489 190.249 87.1489C190.845 87.1489 191.329 87.6336 191.329 88.2296V88.2282ZM190.249 85.0229C190.234 85.0229 190.219 85.0216 190.205 85.0209C190.183 85.0202 190.16 85.0196 190.139 85.0176C190.133 85.0176 190.127 85.0156 190.122 85.0149C189.694 84.9642 189.342 84.6636 189.217 84.2636C189.216 84.2589 189.215 84.2542 189.214 84.2502C189.185 84.1529 189.169 84.0496 189.169 83.9429V82.0122C189.169 81.9056 189.185 81.8022 189.214 81.7049C189.215 81.7002 189.216 81.6956 189.217 81.6916C189.342 81.2909 189.695 80.9902 190.122 80.9402C190.128 80.9402 190.133 80.9382 190.139 80.9376C190.161 80.9356 190.183 80.9349 190.205 80.9342C190.219 80.9342 190.234 80.9322 190.249 80.9322C190.845 80.9322 191.329 81.4169 191.329 82.0129V83.9436C191.329 84.5396 190.845 85.0242 190.249 85.0242V85.0229Z" />
<path d="M139.956 161.285H143.979C146.488 161.285 148.523 159.251 148.523 156.741C148.523 154.232 146.488 152.197 143.979 152.197H139.956C137.447 152.197 135.412 154.232 135.412 156.741C135.412 159.251 137.447 161.285 139.956 161.285Z" />
<path d="M100.822 164.442C101.83 163.662 102.014 162.213 101.234 161.206C100.453 160.198 99.0046 160.014 97.9974 160.795C96.9903 161.575 96.8062 163.023 97.5863 164.031C98.3664 165.038 99.8153 165.222 100.822 164.442Z"/>
<path d="M92.8365 143.388C92.2252 142.922 91.3512 143.038 90.8839 143.65C90.4165 144.261 90.5339 145.136 91.1452 145.602C91.7565 146.07 92.6305 145.952 93.0979 145.341C93.5652 144.73 93.4479 143.856 92.8365 143.388ZM168.975 113.266C168.975 105.709 165.352 99.5822 160.883 99.5822C156.413 99.5822 152.79 105.709 152.79 113.266C152.79 120.824 156.413 126.95 160.883 126.95C165.352 126.95 168.975 120.824 168.975 113.266ZM161.089 118.572C160.295 118.572 159.535 118.042 158.951 117.08C158.335 116.067 157.996 114.712 157.996 113.266C157.996 111.82 158.335 110.466 158.951 109.452C159.536 108.49 160.295 107.961 161.09 107.961H161.414C161.059 108.253 160.732 108.636 160.447 109.106C159.768 110.223 159.395 111.7 159.395 113.267C159.395 114.834 159.768 116.311 160.447 117.428C160.732 117.897 161.059 118.28 161.414 118.573H161.09L161.089 118.572ZM163.154 118.572C162.359 118.572 161.6 118.042 161.016 117.08C160.4 116.067 160.061 114.712 160.061 113.266C160.061 111.82 160.4 110.466 161.016 109.452C161.601 108.49 162.36 107.961 163.154 107.961C163.948 107.961 164.708 108.49 165.292 109.452C165.908 110.466 166.247 111.82 166.247 113.266C166.247 114.712 165.908 116.067 165.292 117.08C164.707 118.042 163.948 118.572 163.154 118.572ZM105.583 110.739C105.871 110.983 106.223 111.109 106.581 111.109C106.803 111.109 107.027 111.061 107.239 110.962C107.794 110.705 108.139 110.165 108.139 109.554V88.9875C108.139 87.2042 106.688 85.7535 104.905 85.7535H78.1005C76.3172 85.7535 74.8665 87.2042 74.8665 88.9875V103.784C74.8665 105.567 76.3172 107.018 78.1005 107.018H101.184L105.583 110.739ZM75.5332 103.783V88.9869C75.5332 87.5709 76.6852 86.4195 78.1005 86.4195H104.905C106.321 86.4195 107.472 87.5715 107.472 88.9869V109.553C107.472 109.908 107.28 110.208 106.959 110.357C106.637 110.506 106.283 110.458 106.013 110.23L101.522 106.429C101.462 106.378 101.385 106.35 101.307 106.35H78.1012C76.6852 106.35 75.5339 105.198 75.5339 103.783H75.5332ZM46.5139 47.8902L51.0052 44.0895H99.5099C101.112 44.0895 102.411 42.7909 102.411 41.1889V26.3929C102.411 24.7909 101.112 23.4922 99.5099 23.4922H47.4065C45.8045 23.4922 44.5059 24.7909 44.5059 26.3929V46.9589C44.5059 47.9975 45.7205 48.5609 46.5139 47.8902ZM51.1465 26.2955H95.7705C96.2125 26.2955 96.5705 26.6535 96.5705 27.0955C96.5705 27.5375 96.2125 27.8955 95.7705 27.8955H51.1465C50.7045 27.8955 50.3465 27.5375 50.3465 27.0955C50.3465 26.6535 50.7045 26.2955 51.1465 26.2955ZM50.3465 31.5589C50.3465 31.1169 50.7045 30.7589 51.1465 30.7589H89.0099C89.4519 30.7589 89.8099 31.1169 89.8099 31.5589C89.8099 32.0009 89.4519 32.3589 89.0099 32.3589H51.1465C50.7045 32.3589 50.3465 32.0009 50.3465 31.5589ZM51.1465 35.2222H95.7705C96.2125 35.2222 96.5705 35.5802 96.5705 36.0222C96.5705 36.4642 96.2125 36.8222 95.7705 36.8222H51.1465C50.7045 36.8222 50.3465 36.4642 50.3465 36.0222C50.3465 35.5802 50.7045 35.2222 51.1465 35.2222ZM51.1465 39.6855H89.0099C89.4519 39.6855 89.8099 40.0435 89.8099 40.4855C89.8099 40.9275 89.4519 41.2855 89.0099 41.2855H51.1465C50.7045 41.2855 50.3465 40.9275 50.3465 40.4855C50.3465 40.0435 50.7045 39.6855 51.1465 39.6855Z"/>
<path d="M79.0983 90.8228H103.91C104.534 90.8228 105.043 90.3141 105.043 89.6895C105.043 89.0648 104.534 88.5561 103.91 88.5561H79.0983C78.4736 88.5561 77.965 89.0648 77.965 89.6895C77.965 90.3141 78.4736 90.8228 79.0983 90.8228ZM79.0983 89.2228H103.91C104.167 89.2228 104.376 89.4321 104.376 89.6895C104.376 89.9468 104.167 90.1561 103.91 90.1561H79.0983C78.841 90.1561 78.6316 89.9468 78.6316 89.6895C78.6316 89.4321 78.841 89.2228 79.0983 89.2228ZM103.91 93.0195H85.291C84.6663 93.0195 84.1576 93.5282 84.1576 94.1528C84.1576 94.7775 84.6663 95.2862 85.291 95.2862H103.91C104.534 95.2862 105.043 94.7775 105.043 94.1528C105.043 93.5282 104.534 93.0195 103.91 93.0195ZM103.91 94.6195H85.291C85.0336 94.6195 84.8243 94.4102 84.8243 94.1528C84.8243 93.8955 85.0336 93.6862 85.291 93.6862H103.91C104.167 93.6862 104.376 93.8955 104.376 94.1528C104.376 94.4102 104.167 94.6195 103.91 94.6195ZM105.043 98.6168C105.043 97.9921 104.534 97.4835 103.91 97.4835H79.0983C78.4736 97.4835 77.965 97.9921 77.965 98.6168C77.965 99.2415 78.4736 99.7501 79.0983 99.7501H103.91C104.534 99.7501 105.043 99.2415 105.043 98.6168ZM78.6316 98.6168C78.6316 98.3595 78.841 98.1502 79.0983 98.1502H103.91C104.167 98.1502 104.376 98.3595 104.376 98.6168C104.376 98.8741 104.167 99.0835 103.91 99.0835H79.0983C78.841 99.0835 78.6316 98.8741 78.6316 98.6168ZM105.043 103.08C105.043 102.455 104.534 101.947 103.91 101.947H85.291C84.6663 101.947 84.1576 102.455 84.1576 103.08C84.1576 103.705 84.6663 104.213 85.291 104.213H103.91C104.534 104.213 105.043 103.705 105.043 103.08ZM84.8236 103.08C84.8236 102.823 85.033 102.613 85.2903 102.613H103.909C104.166 102.613 104.376 102.823 104.376 103.08C104.376 103.337 104.166 103.547 103.909 103.547H85.2903C85.033 103.547 84.8236 103.337 84.8236 103.08ZM76.9343 190.048C76.9303 189.532 76.825 189.034 76.6163 188.588C76.2296 187.761 75.529 187.167 74.5916 186.873C74.5796 186.869 74.567 186.866 74.555 186.863C74.271 186.809 73.9703 186.753 73.6583 186.694C70.9436 186.187 67.225 185.493 66.1643 184.043C66.0743 183.92 65.965 183.689 65.8496 183.443C65.5763 182.863 65.273 182.218 64.7996 182.021L64.2456 178.903C64.8403 178.683 65.335 178.426 65.683 178.135C65.2983 156.624 60.367 133.604 56.4796 115.089C57.2576 114.729 57.667 114.485 57.695 114.467C57.8096 114.398 57.8716 114.267 57.853 114.135C57.3236 110.448 56.9683 107.047 56.625 103.759C56.0896 98.6381 55.601 93.9655 54.5696 89.4608L60.4343 89.8108C60.441 89.8108 60.4476 89.8108 60.4543 89.8108C60.6076 89.8108 60.7423 89.7055 60.7783 89.5542C60.9316 88.9068 61.0663 88.2781 61.1823 87.6668L66.875 88.1928C66.9983 88.2042 67.1216 88.2102 67.2443 88.2102C68.4416 88.2102 69.5776 87.6721 70.339 86.7295C71.1776 85.6901 71.4396 84.3088 71.039 83.0348L64.001 60.6608C65.5516 59.3815 66.9116 57.3775 68.117 55.6015C68.3363 55.2788 68.543 54.9735 68.7456 54.6808C68.7856 54.6235 68.8063 54.5548 68.805 54.4855L68.7503 51.3075C68.7496 51.2588 68.7383 51.2115 68.717 51.1675C68.591 50.9075 68.2896 50.6908 67.9496 50.6155C67.9176 50.6081 67.887 50.6028 67.8556 50.5981C67.8616 50.5395 67.8676 50.4788 67.8723 50.4175C67.8943 50.1375 67.925 49.7441 67.7436 49.5415C67.6056 49.2048 67.3116 48.5701 66.7736 48.4161C66.5696 47.8468 66.2736 47.5095 65.891 47.4081C65.7663 46.7828 65.4076 46.1448 64.4643 46.1328C64.463 46.1328 64.4616 46.1328 64.4603 46.1328C64.295 46.1328 64.155 46.2535 64.1303 46.4175L63.3823 51.4835C63.193 51.6668 62.697 52.1495 62.123 52.7281C61.891 52.2988 61.6156 51.9015 61.491 51.7281V49.5315C61.491 49.3408 61.381 49.1655 61.189 49.0515C60.927 48.8961 60.4796 48.8388 60.1296 49.0295C59.933 49.1368 59.6036 49.3161 59.071 52.9868C58.8683 54.3828 59.0596 57.3895 59.0683 57.5168C59.0696 57.5361 59.0723 57.5548 59.077 57.5735C59.031 58.6135 59.171 59.5875 59.177 59.6301C59.1776 59.6355 59.1783 59.6408 59.1796 59.6455L62.8543 78.5315L61.2636 78.3975C61.163 77.9688 61.045 77.5495 60.9103 77.1381C60.8683 77.0101 60.7536 76.9201 60.6196 76.9095L48.9956 75.9988C45.487 75.6435 42.4183 75.3335 38.6116 75.7155C38.6116 75.7155 38.611 75.7155 38.6103 75.7155C38.605 75.7155 38.5996 75.7168 38.5943 75.7175C38.2736 75.7501 37.949 75.7868 37.617 75.8288C37.6136 75.8288 37.611 75.8308 37.6076 75.8308C37.311 75.8688 37.011 75.9108 36.7096 75.9568L36.169 74.2221C38.0523 73.4888 39.4003 72.2055 40.1736 70.4008C41.1696 68.0775 41.217 64.9588 40.3156 61.1315C39.657 58.3355 38.7323 56.2295 38.6723 56.0941C38.3516 55.3215 37.937 54.6088 37.4356 53.9621C38.803 52.6928 38.5823 51.1661 37.835 49.9515C37.189 48.9021 35.4843 48.2315 35.4843 48.2315C35.4843 48.2315 34.3503 45.8715 30.3543 46.2535C26.3583 46.6355 24.7803 49.4508 24.7803 49.4508C24.7803 49.4508 23.4476 49.0641 22.221 50.1821C20.935 51.3541 20.8736 52.4601 20.8736 52.4601C20.8736 52.4601 18.309 53.1801 17.4483 55.2528C16.3903 57.8015 17.119 60.9095 19.4643 64.9588C21.1523 67.8728 23.4223 69.6062 25.1796 71.0208C25.785 71.8928 26.413 72.6361 27.0576 73.2428C27.4836 73.6435 27.981 73.9655 28.5256 74.2181L29.667 77.8815C29.5743 77.9188 29.4823 77.9562 29.391 77.9935C29.3876 77.9948 29.3843 77.9948 29.381 77.9961C25.5363 79.5721 21.737 81.6495 18.683 83.8442C18.683 83.8442 18.6823 83.8442 18.6816 83.8448C18.6756 83.8495 18.671 83.8548 18.665 83.8595C18.6536 83.8688 18.6423 83.8775 18.6316 83.8888C18.6316 83.8888 18.6316 83.8895 18.631 83.8901C15.7483 87.0021 13.5903 91.5248 10.8596 97.2508C10.331 98.3588 9.7843 99.5048 9.20297 100.704C9.13097 100.852 9.1783 101.031 9.31363 101.124C9.56763 101.299 9.8223 101.47 10.0776 101.639L8.41097 105.056C7.56563 106.789 8.0703 108.887 9.61497 110.05L24.759 121.066L26.821 123.003C26.881 123.06 26.957 123.089 27.0343 123.093C26.9256 125.631 26.9716 128.753 27.1836 132.902C27.8696 146.316 26.517 159.621 24.1723 176.993C24.4256 177.229 24.7523 177.453 25.1303 177.663C25.1043 177.757 25.0776 177.853 25.0516 177.947C24.8436 178.699 24.629 179.474 24.4096 180.235C24.2636 180.321 24.1323 180.426 24.019 180.529C23.9603 180.581 23.9223 180.653 23.9116 180.731C23.8503 181.167 23.773 181.731 23.7056 182.305C22.8763 183.147 22.2536 184.242 21.8543 185.56C21.5676 186.507 21.4063 187.549 21.3803 188.613C21.3803 188.615 21.3803 188.615 21.3803 188.617C21.371 188.865 21.3723 189.118 21.3843 189.369C21.3843 189.371 21.3843 189.374 21.3843 189.377C21.3843 189.377 21.3843 189.377 21.3843 189.378C21.3843 189.379 21.3843 189.381 21.3843 189.381C21.3843 189.385 21.3856 189.389 21.3856 189.392C21.3856 189.395 21.3863 189.399 21.387 189.402C21.3876 189.411 21.3883 189.419 21.3903 189.428C21.391 189.432 21.3923 189.436 21.393 189.44C21.3943 189.446 21.3963 189.452 21.3983 189.458C21.401 189.467 21.403 189.475 21.4056 189.483C21.4076 189.488 21.4096 189.493 21.4116 189.497C21.4143 189.503 21.417 189.508 21.4196 189.514C21.423 189.521 21.4263 189.527 21.4296 189.534C21.4316 189.537 21.4343 189.541 21.437 189.545C21.4383 189.547 21.4396 189.549 21.441 189.55C21.4443 189.555 21.4476 189.56 21.451 189.564C21.455 189.569 21.4583 189.575 21.4623 189.579C21.4683 189.586 21.4743 189.592 21.481 189.599C21.4836 189.601 21.4863 189.605 21.4896 189.607C21.503 189.62 21.5176 189.631 21.533 189.641C21.5343 189.642 21.5356 189.643 21.537 189.644C21.5716 189.666 21.6096 189.683 21.6516 189.691C21.701 189.701 21.7496 189.711 21.799 189.721C22.887 189.947 23.8716 190.216 24.9096 190.501C25.3296 190.616 25.7643 190.735 26.219 190.855L26.3216 190.882C27.953 191.312 29.4936 191.718 31.2836 191.859C31.8503 191.904 32.4256 191.921 33.0043 191.921C33.8643 191.921 34.729 191.884 35.577 191.848C37.1516 191.781 38.7796 191.712 40.3263 191.881C40.3343 191.881 40.3416 191.881 40.3496 191.881C40.3543 191.881 40.3583 191.882 40.363 191.882C40.3663 191.882 40.3696 191.882 40.373 191.881C40.381 191.881 40.389 191.881 40.397 191.879C40.4063 191.879 40.4156 191.877 40.425 191.875C40.433 191.874 40.4403 191.872 40.4483 191.87C40.4576 191.867 40.4663 191.865 40.475 191.861C40.4823 191.859 40.4896 191.857 40.4963 191.853C40.5063 191.849 40.5156 191.844 40.5256 191.839C40.531 191.836 40.5363 191.833 40.5416 191.83C40.5556 191.821 40.5696 191.811 40.5823 191.8C40.5856 191.797 40.5883 191.794 40.5916 191.791C40.601 191.783 40.6103 191.773 40.619 191.763C40.623 191.759 40.6263 191.753 40.6303 191.748C40.637 191.739 40.6436 191.73 40.6496 191.72C40.653 191.714 40.6563 191.708 40.6596 191.702C40.663 191.696 40.6663 191.691 40.669 191.684C40.9376 191.079 41.0663 190.558 41.075 190.044C41.075 190.041 41.0743 190.037 41.0743 190.035C41.1123 189.621 41.0863 189.249 40.995 188.906C40.769 188.053 40.1476 187.385 39.095 186.862C39.065 186.847 39.033 186.837 38.9996 186.831C38.7323 186.788 38.4616 186.748 38.1743 186.705C36.0283 186.388 33.631 186.032 32.505 184.355C32.5043 184.353 32.5036 184.352 32.503 184.351C32.4536 184.276 32.4103 184.206 32.3703 184.136C32.2756 183.969 32.191 183.791 32.121 183.599C32.0296 183.349 31.9843 182.951 31.941 182.566C31.865 181.893 31.7856 181.203 31.4283 180.857C31.4283 180.857 31.427 180.856 31.4263 180.855C31.573 180.333 31.7216 179.81 31.873 179.285C32.253 179.271 32.585 179.228 32.847 179.151C38.557 158.997 41.0016 144.033 42.8703 127.549L44.8883 127.359C49.857 142.149 54.2096 160.941 56.1056 179.717C56.4843 179.762 56.885 179.793 57.301 179.811L57.6563 182.559C57.589 182.612 57.5223 182.671 57.4583 182.739C57.3963 182.804 57.363 182.891 57.3663 182.981L57.415 184.287C56.5936 185.165 56.3896 186.635 56.3656 187.736C56.337 189.039 56.543 190.516 56.9163 191.689C56.9603 191.827 57.089 191.921 57.2336 191.921H61.817C61.9096 191.921 61.9976 191.883 62.0603 191.815L62.7363 191.091C63.4963 191.357 65.2903 191.92 66.841 191.92H76.2963C76.4316 191.92 76.553 191.839 76.6043 191.713C76.779 191.29 76.8836 190.855 76.9216 190.427C76.9223 190.422 76.9243 190.417 76.9243 190.411C76.931 190.335 76.935 190.261 76.937 190.192C76.937 190.192 76.937 190.192 76.937 190.191C76.937 190.19 76.937 190.189 76.937 190.188C76.937 190.188 76.937 190.187 76.937 190.186C76.9383 190.145 76.939 190.103 76.939 190.063C76.939 190.057 76.9376 190.051 76.937 190.045L76.9343 190.048ZM61.4063 79.0795L63.2356 79.2335C63.3396 79.2421 63.4416 79.2015 63.5116 79.1241C63.5816 79.0461 63.611 78.9401 63.591 78.8381L59.8336 59.5281C59.821 59.4348 59.6916 58.4728 59.7456 57.5088C59.7483 57.4621 59.741 57.4168 59.7256 57.3741C59.6936 56.8335 59.5563 54.2728 59.729 53.0841C60.139 50.2635 60.411 49.7021 60.475 49.6035C60.5896 49.5575 60.7463 49.5815 60.8223 49.6135V51.8381C60.8223 51.9101 60.8456 51.9801 60.889 52.0381C60.8943 52.0455 61.457 52.7988 61.7196 53.4281C61.763 53.5315 61.8543 53.6061 61.9643 53.6268C62.0743 53.6481 62.187 53.6128 62.265 53.5328C63.1283 52.6515 63.917 51.8935 63.925 51.8855C63.9783 51.8341 64.013 51.7668 64.0236 51.6941L64.741 46.8388C64.989 46.9148 65.1936 47.1315 65.2623 47.7068L64.6643 51.7481L63.5143 53.4521C63.4116 53.6048 63.4516 53.8121 63.6043 53.9148C63.6616 53.9535 63.7263 53.9721 63.7903 53.9721C63.8976 53.9721 64.0023 53.9208 64.067 53.8255L65.259 52.0588C65.287 52.0175 65.305 51.9701 65.3123 51.9215L65.8703 48.1535C65.9876 48.2655 66.0916 48.4648 66.181 48.7495L65.809 52.2055L64.6436 54.0508C64.5456 54.2061 64.5916 54.4121 64.7476 54.5108C64.803 54.5455 64.8643 54.5621 64.9256 54.5621C65.0363 54.5621 65.1443 54.5075 65.2076 54.4068L66.4143 52.4961C66.4416 52.4528 66.4583 52.4041 66.4636 52.3541L66.8016 49.2168C66.909 49.3428 67.019 49.5401 67.1303 49.8075L66.9176 53.3961L65.9416 54.8475C65.839 55.0001 65.8796 55.2075 66.0323 55.3101C66.0896 55.3488 66.1543 55.3668 66.2183 55.3668C66.3256 55.3668 66.431 55.3155 66.495 55.2195L67.5216 53.6928C67.555 53.6435 67.5743 53.5861 67.5776 53.5268L67.7123 51.2561C67.8136 51.2555 68.0003 51.3241 68.0843 51.4155L68.135 54.3915C67.9503 54.6595 67.7616 54.9368 67.5636 55.2288C66.339 57.0328 64.9516 59.0775 63.4083 60.2821C63.299 60.3675 63.2536 60.5121 63.2956 60.6448L70.4023 83.2362C70.7356 84.2968 70.5183 85.4468 69.8196 86.3122C69.121 87.1775 68.0436 87.6328 66.9363 87.5308L61.3003 87.0102C61.813 83.9975 61.8483 81.4048 61.407 79.0808L61.4063 79.0795ZM27.513 72.7575C27.279 72.5375 27.0476 72.2968 26.8183 72.0388C26.2496 70.8535 25.289 68.8095 24.687 67.2908L25.307 67.0975C25.483 67.0428 25.581 66.8561 25.5263 66.6801C25.4716 66.5041 25.285 66.4061 25.109 66.4608L24.1776 66.7508C23.6356 66.9195 23.057 66.6161 22.8883 66.0741L22.6743 65.3868C22.5056 64.8448 22.809 64.2661 23.351 64.0975L23.7623 63.9695C23.921 63.9201 24.0156 63.7621 23.9916 63.6028L24.0203 63.6775L26.1903 67.1081C26.1903 67.1081 24.547 62.9728 25.787 62.2668C27.027 61.5608 27.899 60.7481 28.033 59.7768C28.167 58.8061 28.1216 56.6175 29.997 56.0328C31.7756 55.4788 35.161 55.4875 36.9103 54.3728C37.3763 54.9735 37.761 55.6355 38.0583 56.3535C38.0596 56.3561 38.0603 56.3588 38.0616 56.3615C38.0996 56.4461 41.809 64.8928 39.561 70.1381C38.831 71.8415 37.5336 73.0355 35.705 73.6855C35.693 73.6895 35.681 73.6935 35.669 73.6975C35.665 73.6988 35.661 73.6988 35.657 73.7001C35.6503 73.7021 35.645 73.7055 35.6383 73.7081C34.2636 74.1855 32.711 74.3735 31.257 74.2355C29.6776 74.0855 28.3836 73.5741 27.5143 72.7568L27.513 72.7575ZM30.199 78.3862C30.361 78.3222 30.4463 78.1435 30.3943 77.9775L29.319 74.5275C30.213 74.8148 31.1936 74.9461 32.1783 74.9461C33.3383 74.9461 34.5036 74.7641 35.5376 74.4435L36.157 76.4308C36.2063 76.5888 36.3643 76.6868 36.5276 76.6608C37.1516 76.5608 37.771 76.4775 38.373 76.4115C38.4096 76.7995 38.299 77.2288 38.0463 77.6702C37.447 78.7175 36.1976 79.5888 34.7856 79.9441C31.9343 80.6622 30.0243 79.6875 29.2916 78.7555C29.587 78.6321 29.8903 78.5088 30.199 78.3862ZM25.691 178.125C25.7056 178.073 25.7196 178.021 25.7343 177.969C27.3396 178.703 29.5336 179.201 31.1776 179.28C31.057 179.701 30.9376 180.121 30.8196 180.54C30.4416 180.434 30.147 180.493 29.919 180.571C29.5216 180.647 29.1616 180.813 28.825 180.97C28.4003 181.167 28.0003 181.352 27.5663 181.349C26.8716 181.344 26.401 181.003 25.823 180.417C25.8163 180.411 25.8096 180.405 25.803 180.399C25.5716 180.2 25.3523 180.101 25.147 180.071C25.3323 179.42 25.5136 178.765 25.6903 178.126L25.691 178.125ZM40.399 190.011C40.3656 190.357 40.2783 190.74 40.1396 191.165C40.1363 191.175 40.1336 191.184 40.1303 191.193C38.6156 191.053 37.0563 191.12 35.545 191.184C34.1463 191.243 32.7003 191.305 31.3323 191.197C29.6023 191.06 28.0896 190.661 26.4883 190.239L26.385 190.212C25.9336 190.093 25.501 189.975 25.0823 189.859C24.0816 189.585 23.131 189.325 22.0836 189.102H22.0823C22.077 189.101 22.0716 189.1 22.0663 189.099C22.0576 189.097 22.0496 189.095 22.041 189.093C22.041 189.068 22.0396 189.044 22.0396 189.019C22.0396 189.005 22.0396 188.992 22.0396 188.979C22.0396 188.871 22.0396 188.763 22.0423 188.654C22.059 187.919 22.1436 187.197 22.293 186.513C23.8963 186.82 24.8456 186.84 26.6123 187.541C29.2636 188.593 30.9583 189.793 33.831 189.993C35.817 190.132 38.297 189.843 40.3996 190.011L40.399 190.011ZM31.491 183.83C31.5703 184.047 31.6643 184.248 31.7696 184.437C31.7696 184.437 31.7703 184.439 31.771 184.439C31.773 184.443 31.7756 184.447 31.7776 184.451C31.8036 184.497 31.8296 184.542 31.8563 184.586C31.8576 184.589 31.859 184.591 31.861 184.593C32.815 186.145 34.6223 186.75 36.4176 187.096C35.637 187.388 34.8343 187.669 33.9856 187.534C31.9556 187.21 31.1683 186.518 30.1743 184.735C29.6243 183.748 29.3943 182.665 29.1083 181.572C29.441 181.418 29.749 181.276 30.069 181.221C30.0956 181.216 30.1216 181.213 30.1476 181.209C30.1623 181.207 30.177 181.205 30.191 181.204C30.209 181.202 30.2276 181.201 30.2456 181.2C30.2676 181.199 30.289 181.197 30.311 181.197C30.323 181.197 30.3356 181.197 30.3476 181.197C30.375 181.197 30.4023 181.198 30.4296 181.2C30.4383 181.2 30.447 181.201 30.4556 181.202C30.4863 181.205 30.517 181.208 30.5476 181.212C30.555 181.213 30.5616 181.214 30.569 181.215C30.601 181.22 30.6336 181.227 30.6656 181.234C30.6723 181.235 30.679 181.237 30.6863 181.239C30.7196 181.247 30.7536 181.256 30.7876 181.267C30.7936 181.269 30.7996 181.27 30.8063 181.272C30.8463 181.285 30.887 181.299 30.9276 181.315C30.9323 181.317 30.9376 181.32 30.9423 181.323C30.9476 181.326 30.953 181.33 30.9583 181.335C30.9623 181.339 30.967 181.341 30.971 181.345C31.1463 181.511 31.2256 182.212 31.2743 182.644C31.3243 183.087 31.3716 183.505 31.491 183.831V183.83ZM35.3163 119.204L30.6156 117.463C30.5663 117.445 30.5136 117.439 30.4616 117.445L29.1863 117.591C29.0036 117.613 28.8723 117.777 28.893 117.961C28.9143 118.143 29.079 118.275 29.2623 118.254L30.4583 118.117L35.0156 119.804C34.9243 120.075 34.791 120.281 34.6023 120.443L30.5923 119.277C30.5623 119.268 30.531 119.263 30.499 119.263H28.725C28.541 119.263 28.3916 119.413 28.3916 119.597C28.3916 119.781 28.541 119.93 28.725 119.93H30.451L34.263 121.039C34.1816 121.324 34.1323 121.401 33.931 121.529L30.0203 120.763C29.8736 120.734 29.725 120.807 29.6583 120.941C29.5916 121.075 29.6216 121.237 29.733 121.337L32.255 123.615C32.131 123.795 32.0023 123.925 31.869 124.003L28.477 121.393C28.3496 121.295 28.1703 121.302 28.051 121.409L27.0496 122.309L25.1956 120.567C25.1856 120.557 25.175 120.548 25.1636 120.54L10.007 109.515C8.72163 108.548 8.3003 106.796 9.00563 105.349L10.6356 102.008C12.845 103.43 15.1116 104.641 17.4076 105.626L16.2656 108.121C16.2016 108.261 16.2416 108.426 16.3623 108.521L26.6096 116.583C26.7283 116.677 26.8956 116.679 27.0163 116.587L29.969 114.363L32.207 114.528C32.1156 114.775 32.0143 114.985 31.9443 115.067H30.4983C30.3676 115.067 30.2496 115.143 30.195 115.261L29.7083 116.326C29.6623 116.427 29.669 116.543 29.7263 116.637C29.7836 116.732 29.8836 116.792 29.9936 116.797C30.453 116.821 30.6296 116.835 30.6956 116.841C30.9883 116.881 33.137 117.743 35.2303 118.622C35.237 118.625 35.243 118.628 35.2496 118.63C35.367 118.679 35.4843 118.729 35.601 118.778C35.5316 118.913 35.4356 119.055 35.3136 119.203L35.3163 119.204ZM18.0243 105.884C18.4483 106.058 18.8736 106.224 19.299 106.383C19.337 106.397 19.3763 106.403 19.415 106.403C19.5323 106.403 19.6443 106.341 19.705 106.235C20.5803 104.692 21.5543 103.195 22.4136 101.875C22.9236 101.092 23.4136 100.339 23.8403 99.6422C25.781 105.453 26.2496 107.149 26.2943 107.532C26.4256 108.663 26.3223 112.735 26.2336 115.439L16.9816 108.159L18.0236 105.884H18.0243ZM44.297 117.488C41.449 117.766 38.4683 117.933 35.4363 117.985C33.903 117.342 31.1876 116.221 30.765 116.179C30.7123 116.174 30.631 116.168 30.5183 116.161L30.7136 115.734H32.0103C32.393 115.734 32.7183 115.257 32.977 114.316C33.0036 114.22 32.9856 114.117 32.9276 114.035C32.8696 113.954 32.779 113.903 32.6796 113.895L29.8936 113.69C29.813 113.684 29.733 113.707 29.6683 113.756L26.887 115.851C26.9783 113.149 27.099 108.685 26.9563 107.455C26.883 106.827 26.0103 104.022 24.2903 98.8855C24.3363 98.8055 24.3816 98.7255 24.425 98.6475C24.4303 98.6375 24.4356 98.6268 24.4403 98.6161C24.5016 98.4721 25.9236 95.0288 24.2756 89.6995C24.1996 89.4548 24.1183 89.2135 24.0323 88.9815C23.9683 88.8088 23.777 88.7208 23.6043 88.7848C23.4316 88.8488 23.3436 89.0401 23.4076 89.2128C23.489 89.4335 23.567 89.6628 23.639 89.8961C24.4603 92.5508 24.4676 94.7088 24.329 96.0522C24.1896 97.4055 23.8783 98.2261 23.8323 98.3408C23.3183 99.2641 22.607 100.356 21.855 101.512C21.0363 102.77 20.1143 104.187 19.2663 105.659C16.0856 104.449 12.9456 102.795 9.92497 100.738C10.461 99.6301 10.9676 98.5681 11.459 97.5388C14.159 91.8781 16.2936 87.4035 19.097 84.3668C21.8483 82.3935 25.2103 80.5168 28.6603 79.0228C29.2816 79.9215 30.7163 80.8628 32.8603 80.8628C33.495 80.8628 34.1916 80.7801 34.9476 80.5901C36.5296 80.1921 37.9383 79.1995 38.6243 78.0008C38.9476 77.4361 39.0863 76.8708 39.0356 76.3448C42.6163 76.0235 45.569 76.3221 48.9296 76.6628C48.9316 76.6628 48.933 76.6628 48.935 76.6628C48.9356 76.6628 48.9363 76.6628 48.937 76.6628L60.3416 77.5568C60.4623 77.9461 60.5676 78.3428 60.6576 78.7481C60.6596 78.7661 60.6643 78.7828 60.669 78.8001C61.2983 81.6895 61.141 85.0215 60.193 89.1282L54.4096 88.7828C53.859 86.5081 53.1616 84.2728 52.2396 82.0408C52.1696 81.8708 51.9743 81.7895 51.8043 81.8601C51.6343 81.9301 51.553 82.1255 51.6236 82.2955C54.4196 89.0642 55.1343 95.9055 55.9616 103.827C56.299 107.055 56.6476 110.39 57.161 114.003C56.2076 114.52 51.707 116.765 44.2976 117.489L44.297 117.488ZM64.4996 182.627C64.4996 182.627 64.501 182.627 64.5016 182.627H64.503C64.731 182.632 65.079 183.371 65.2456 183.726C65.381 184.013 65.497 184.261 65.6256 184.436C66.607 185.778 69.2123 186.488 71.7483 187.005C70.8636 187.291 69.861 187.521 69.0563 187.447C67.1783 187.274 65.7696 186.681 64.4596 185.445C63.7683 184.793 63.1736 183.92 62.7656 183.242C62.819 183.211 62.871 183.18 62.9223 183.149C63.4296 182.851 63.8303 182.615 64.4996 182.627ZM63.6063 179.113L64.115 181.979C63.4776 182.049 63.0243 182.316 62.5843 182.575C62.1716 182.817 61.745 183.069 61.123 183.184C60.2556 183.346 59.2236 182.562 59.2136 182.555C59.2063 182.549 59.199 182.543 59.191 182.539C58.8863 182.341 58.581 182.26 58.289 182.292L57.9703 179.83C59.8796 179.844 61.9936 179.592 63.6056 179.113H63.6063ZM76.2676 190.129C76.2676 190.143 76.2676 190.157 76.2676 190.171C76.2663 190.213 76.2643 190.255 76.2616 190.297C76.261 190.308 76.2603 190.32 76.259 190.332C76.2356 190.637 76.1703 190.949 76.063 191.256H66.837C65.2283 191.256 63.3043 190.595 62.7536 190.393C62.7163 190.379 62.677 190.372 62.639 190.372C62.5483 190.372 62.4596 190.409 62.3956 190.478L61.669 191.256H57.4776C57.257 190.488 57.107 189.582 57.051 188.71C58.3363 188.671 60.199 188.592 61.3996 188.683C63.249 188.822 64.6303 189.703 69.207 189.925C71.8383 190.052 74.3836 190.109 76.2683 190.073C76.2683 190.091 76.2683 190.11 76.2683 190.129H76.2676Z"/>
<path d="M37.0586 66.0325C37.0439 66.1045 36.9246 66.3465 36.5079 66.7365C36.1586 67.0632 35.8206 67.2845 35.7112 67.3185C35.5352 67.3732 35.4372 67.5598 35.4919 67.7358C35.5366 67.8785 35.6679 67.9698 35.8099 67.9698C35.8426 67.9698 35.8759 67.9652 35.9092 67.9545C36.3332 67.8225 37.9379 66.6078 37.7012 65.8478C37.5519 65.3685 35.9486 63.6718 35.2666 62.9652C35.1386 62.8325 34.9279 62.8292 34.7952 62.9565C34.6626 63.0845 34.6592 63.2952 34.7866 63.4278C35.7879 64.4658 36.9272 65.7418 37.0586 66.0318V66.0325Z"/>
</svg>
