<svg width="24" height="25" viewBox="0 0 24 25" xmlns="http://www.w3.org/2000/svg">
<path d="M9.41874 5.11693L9.55024 5.18268C10.0817 5.45663 10.5146 5.88948 10.7885 6.42095L10.8543 6.55245C11.1173 7.07296 11.8624 7.07296 12.1309 6.55245L12.1966 6.42095C12.4706 5.88948 12.9034 5.45663 13.4349 5.18268L13.5664 5.11693C14.0869 4.85394 14.0869 4.10878 13.5664 3.84031L13.4349 3.77456C12.9034 3.5006 12.4706 3.06776 12.1966 2.53629L12.1309 2.40479C11.8679 1.88428 11.1227 1.88428 10.8543 2.40479L10.7885 2.53629C10.5146 3.06776 10.0817 3.5006 9.55024 3.77456L9.41874 3.84031C8.89823 4.1033 8.89823 4.84846 9.41874 5.11693Z" stroke="none"/>
<path d="M10.4543 10.2508C10.9912 9.97687 10.9912 9.21528 10.4543 8.94133L9.65434 8.5304C8.94206 8.1633 8.36128 7.58252 7.99418 6.87024L7.58325 6.07029C7.30929 5.53334 6.5477 5.53334 6.27375 6.07029L5.86282 6.87024C5.49572 7.58252 4.91494 8.1633 4.20266 8.5304L3.40271 8.94133C2.86576 9.21528 2.86576 9.97687 3.40271 10.2508L4.20266 10.6618C4.91494 11.0289 5.49572 11.6096 5.86282 12.3219L6.27375 13.1219C6.5477 13.6588 7.30929 13.6588 7.58325 13.1219L7.99418 12.3219C8.36128 11.6096 8.94206 11.0289 9.65434 10.6618L10.4543 10.2508Z" stroke="none"/>
<path d="M20.733 13.5273L19.9221 13.1109C18.9414 12.6123 18.1579 11.8288 17.6593 10.848L17.2429 10.0371C16.8758 9.3139 16.1416 8.86462 15.3307 8.86462C14.5198 8.86462 13.7856 9.3139 13.4185 10.0371L13.0021 10.848C12.5035 11.8288 11.72 12.6123 10.7392 13.1109L9.92829 13.5273C9.20505 13.8944 8.75577 14.6286 8.75577 15.4395C8.75577 16.2504 9.20505 16.9846 9.92829 17.3517L10.7392 17.7681C11.72 18.2667 12.5035 19.0502 13.0021 20.031L13.4185 20.8419C13.7856 21.5651 14.5198 22.0144 15.3307 22.0144C16.1416 22.0144 16.8758 21.5651 17.2429 20.8419L17.6593 20.031C18.1579 19.0502 18.9414 18.2667 19.9221 17.7681L20.733 17.3517C21.4563 16.9846 21.9056 16.2504 21.9056 15.4395C21.9056 14.6286 21.4563 13.8944 20.733 13.5273ZM19.9879 15.8888L19.177 16.3052C17.8839 16.9627 16.8538 17.9928 16.1964 19.2858L15.7799 20.0967C15.6539 20.3433 15.4238 20.3707 15.3307 20.3707C15.2375 20.3707 15.0074 20.3433 14.8814 20.0967L14.465 19.2858C13.8075 17.9928 12.7774 16.9627 11.4844 16.3052L10.6734 15.8888C10.4269 15.7628 10.3995 15.5327 10.3995 15.4395C10.3995 15.3464 10.4269 15.1162 10.6734 14.9902L11.4844 14.5738C12.7774 13.9163 13.8075 12.8863 14.465 11.5932L14.8814 10.7823C15.0074 10.5357 15.2375 10.5083 15.3307 10.5083C15.4238 10.5083 15.6539 10.5357 15.7799 10.7823L16.1964 11.5932C16.8538 12.8863 17.8839 13.9163 19.177 14.5738L19.9879 14.9902C20.2344 15.1162 20.2618 15.3464 20.2618 15.4395C20.2618 15.5327 20.2344 15.7628 19.9879 15.8888Z" stroke="none"/>
</svg>
