<svg width="25" height="24" viewBox="0 0 25 24" fill="none" xmlns="http://www.w3.org/2000/svg">
<path fill-rule="evenodd" clip-rule="evenodd" d="M20.8777 7.62288L20.2553 6.54279C19.7287 5.62887 18.5618 5.31359 17.6466 5.83798C17.2109 6.09461 16.6911 6.16742 16.2018 6.04035C15.7124 5.91329 15.2936 5.59678 15.0379 5.16064C14.8734 4.88342 14.7849 4.56766 14.7816 4.24531C14.7964 3.72849 14.6015 3.22767 14.2411 2.85694C13.8807 2.4862 13.3856 2.27713 12.8685 2.27734H11.6145C11.108 2.27734 10.6224 2.47918 10.265 2.83821C9.90773 3.19724 9.70822 3.68386 9.71065 4.19039C9.69564 5.23619 8.84352 6.07608 7.79761 6.07597C7.47526 6.07262 7.1595 5.98421 6.88228 5.81968C5.96711 5.29528 4.80016 5.61056 4.27358 6.52448L3.60539 7.62288C3.07946 8.53566 3.39044 9.70187 4.30104 10.2316C4.89295 10.5733 5.25758 11.2049 5.25758 11.8883C5.25758 12.5718 4.89295 13.2033 4.30104 13.5451C3.3916 14.0712 3.08027 15.2346 3.60539 16.1446L4.23697 17.2339C4.48369 17.6791 4.89765 18.0076 5.38724 18.1467C5.87683 18.2859 6.40168 18.2242 6.84567 17.9753C7.28212 17.7206 7.80223 17.6508 8.29038 17.7815C8.77854 17.9121 9.19428 18.2323 9.44521 18.6709C9.60974 18.9482 9.69815 19.2639 9.7015 19.5863C9.7015 20.6428 10.558 21.4993 11.6145 21.4993H12.8685C13.9215 21.4993 14.7766 20.6484 14.7816 19.5954C14.7791 19.0873 14.9799 18.5993 15.3392 18.24C15.6985 17.8807 16.1865 17.6799 16.6946 17.6824C17.0162 17.691 17.3307 17.779 17.61 17.9387C18.5227 18.4646 19.689 18.1536 20.2187 17.243L20.8777 16.1446C21.1328 15.7068 21.2028 15.1853 21.0722 14.6956C20.9417 14.206 20.6213 13.7886 20.1821 13.5359C19.7428 13.2832 19.4224 12.8658 19.2919 12.3762C19.1613 11.8866 19.2313 11.3651 19.4864 10.9272C19.6523 10.6376 19.8924 10.3975 20.1821 10.2316C21.0872 9.70216 21.3975 8.54276 20.8777 7.63204V7.62288Z" stroke-width="1.5" stroke-linecap="round" stroke-linejoin="round"/>
<path d="M12.2455 14.5243C13.7014 14.5243 14.8817 13.344 14.8817 11.8881C14.8817 10.4322 13.7014 9.25195 12.2455 9.25195C10.7896 9.25195 9.60938 10.4322 9.60938 11.8881C9.60938 13.344 10.7896 14.5243 12.2455 14.5243Z" stroke-width="1.5" stroke-linecap="round" stroke-linejoin="round"/>
</svg>
