<svg width="21" height="20" viewBox="0 0 21 20" fill="none" xmlns="http://www.w3.org/2000/svg">
<mask id="path-1-inside-1_1093_3114" fill="white">
<path d="M14.5706 7H12.0706C11.6566 7 11.3206 7.336 11.3206 7.75C11.3206 8.164 11.6566 8.5 12.0706 8.5H13.7601L10.8206 11.4395L8.76106 9.38C8.24256 8.8615 7.39856 8.8615 6.88006 9.38L4.54006 11.7195C4.24706 12.0125 4.24706 12.487 4.54006 12.78C4.83306 13.073 5.30756 13.073 5.60056 12.78L7.82006 10.5605L9.87956 12.62C10.1391 12.8795 10.4791 13.009 10.8201 13.009C11.1611 13.009 11.5011 12.879 11.7606 12.62L14.8201 9.5605V11.25C14.8201 11.664 15.1561 12 15.5701 12C15.9841 12 16.3201 11.664 16.3201 11.25V8.75C16.3201 7.785 15.5356 7 14.5706 7Z"/>
</mask>
<path d="M14.5706 7H12.0706C11.6566 7 11.3206 7.336 11.3206 7.75C11.3206 8.164 11.6566 8.5 12.0706 8.5H13.7601L10.8206 11.4395L8.76106 9.38C8.24256 8.8615 7.39856 8.8615 6.88006 9.38L4.54006 11.7195C4.24706 12.0125 4.24706 12.487 4.54006 12.78C4.83306 13.073 5.30756 13.073 5.60056 12.78L7.82006 10.5605L9.87956 12.62C10.1391 12.8795 10.4791 13.009 10.8201 13.009C11.1611 13.009 11.5011 12.879 11.7606 12.62L14.8201 9.5605V11.25C14.8201 11.664 15.1561 12 15.5701 12C15.9841 12 16.3201 11.664 16.3201 11.25V8.75C16.3201 7.785 15.5356 7 14.5706 7Z"/>
<path d="M13.7601 8.5L28.845 23.5849L65.2633 -12.8333H13.7601V8.5ZM10.8206 11.4395L-4.26438 26.5244L10.8206 41.6094L25.9055 26.5244L10.8206 11.4395ZM8.76106 9.38L-6.32388 24.4649L-6.32388 24.4649L8.76106 9.38ZM6.88006 9.38L21.9634 24.4666L21.965 24.4649L6.88006 9.38ZM4.54006 11.7195L-10.5433 -3.36706L-10.5449 -3.36545L4.54006 11.7195ZM5.60056 12.78L-9.48438 -2.30495L-9.48438 -2.30494L5.60056 12.78ZM7.82006 10.5605L22.905 -4.52444L7.82006 -19.6094L-7.26488 -4.52445L7.82006 10.5605ZM11.7606 12.62L26.831 27.7195L26.8382 27.7122L26.8455 27.7049L11.7606 12.62ZM14.8201 9.5605H36.1534V-41.9427L-0.264881 -5.52445L14.8201 9.5605ZM14.5706 -14.3333H12.0706V28.3333H14.5706V-14.3333ZM12.0706 -14.3333C-0.125513 -14.3333 -10.0128 -4.44608 -10.0128 7.75H32.6539C32.6539 19.1181 23.4386 28.3333 12.0706 28.3333V-14.3333ZM-10.0128 7.75C-10.0128 19.9461 -0.125513 29.8333 12.0706 29.8333V-12.8333C23.4386 -12.8333 32.6539 -3.61808 32.6539 7.75H-10.0128ZM12.0706 29.8333H13.7601V-12.8333H12.0706V29.8333ZM-1.32488 -6.58494L-4.26438 -3.64544L25.9055 26.5244L28.845 23.5849L-1.32488 -6.58494ZM25.9055 -3.64545L23.846 -5.70495L-6.32388 24.4649L-4.26438 26.5244L25.9055 -3.64545ZM23.846 -5.70494C14.9963 -14.5546 0.644803 -14.5546 -8.20488 -5.70494L21.965 24.4649C14.1523 32.2776 1.4888 32.2776 -6.32388 24.4649L23.846 -5.70494ZM-8.20327 -5.70656L-10.5433 -3.36706L19.6234 26.8061L21.9634 24.4666L-8.20327 -5.70656ZM-10.5449 -3.36545C-19.1691 5.25874 -19.1691 19.2408 -10.5449 27.8649L19.625 -2.30494C27.6632 5.73324 27.6632 18.7663 19.625 26.8044L-10.5449 -3.36545ZM-10.5449 27.8649C-1.9207 36.4891 12.0613 36.4891 20.6855 27.8649L-9.48438 -2.30494C-1.4462 -10.3431 11.5868 -10.3431 19.625 -2.30494L-10.5449 27.8649ZM20.6855 27.8649L22.905 25.6454L-7.26488 -4.52445L-9.48438 -2.30495L20.6855 27.8649ZM-7.26488 25.6454L-5.20538 27.7049L24.9645 -2.46494L22.905 -4.52444L-7.26488 25.6454ZM-5.20538 27.7049C-0.773512 32.1368 5.06849 34.3423 10.8201 34.3423V-8.32433C15.8896 -8.32433 21.0516 -6.37782 24.9645 -2.46494L-5.20538 27.7049ZM10.8201 34.3423C16.5902 34.3423 22.4176 32.1243 26.831 27.7195L-3.30983 -2.47948C0.5845 -6.36631 5.73195 -8.32433 10.8201 -8.32433V34.3423ZM26.8455 27.7049L29.905 24.6454L-0.264881 -5.52445L-3.32438 -2.46495L26.8455 27.7049ZM-6.51327 9.5605V11.25H36.1534V9.5605H-6.51327ZM-6.51327 11.25C-6.51327 23.4461 3.37399 33.3333 15.5701 33.3333V-9.33333C26.9381 -9.33333 36.1534 -0.118075 36.1534 11.25H-6.51327ZM15.5701 33.3333C27.7661 33.3333 37.6534 23.4461 37.6534 11.25H-5.01327C-5.01327 -0.118075 4.20199 -9.33333 15.5701 -9.33333V33.3333ZM37.6534 11.25V8.75H-5.01327V11.25H37.6534ZM37.6534 8.75C37.6534 -3.98914 27.3256 -14.3333 14.5706 -14.3333V28.3333C3.74556 28.3333 -5.01327 19.5591 -5.01327 8.75H37.6534Z" mask="url(#path-1-inside-1_1093_3114)"/>
<path d="M1.15531 4C1.15531 2.25202 2.57233 0.835 4.32031 0.835H16.3203C18.0683 0.835 19.4853 2.25202 19.4853 4V16C19.4853 17.748 18.0683 19.165 16.3203 19.165H4.32031C2.57233 19.165 1.15531 17.748 1.15531 16V4Z" stroke-width="1.67"/>
</svg>
