<svg width="25" height="24" viewBox="0 0 25 24"  xmlns="http://www.w3.org/2000/svg">
<path d="M7.69531 8.67917H7.70781V8.66667V6.7619C7.70781 5.44795 8.19385 4.32818 9.16643 3.40191C10.139 2.47562 11.3151 2.0125 12.6953 2.0125C14.0755 2.0125 15.2516 2.47562 16.2242 3.40191C17.1968 4.32818 17.6828 5.44795 17.6828 6.7619V8.66667V8.67917H17.6953H18.6953C19.2422 8.67917 19.7099 8.86448 20.0992 9.23524C20.4885 9.60599 20.6828 10.0512 20.6828 10.5714V20.0952C20.6828 20.6155 20.4885 21.0607 20.0992 21.4314C19.7099 21.8022 19.2422 21.9875 18.6953 21.9875H6.69531C6.14846 21.9875 5.68073 21.8022 5.29143 21.4314C4.90215 21.0607 4.70781 20.6155 4.70781 20.0952V10.5714C4.70781 10.0512 4.90215 9.60599 5.29143 9.23524C5.68073 8.86448 6.14846 8.67917 6.69531 8.67917H7.69531ZM6.68281 20.0952V20.1077H6.69531H18.6953H18.7078V20.0952V10.5714V10.5589H18.6953H6.69531H6.68281V10.5714V20.0952ZM9.68281 8.66667V8.67917H9.69531H15.6953H15.7078V8.66667V6.7619C15.7078 5.96478 15.4147 5.28692 14.8289 4.72904C14.2432 4.17119 13.5317 3.89226 12.6953 3.89226C11.8589 3.89226 11.1474 4.17119 10.5617 4.72904C9.97592 5.28692 9.68281 5.96478 9.68281 6.7619V8.66667ZM14.0992 16.6695C13.7099 17.0403 13.2422 17.2256 12.6953 17.2256C12.1485 17.2256 11.6807 17.0403 11.2914 16.6695C10.9022 16.2988 10.7078 15.8536 10.7078 15.3333C10.7078 14.8131 10.9022 14.3679 11.2914 13.9971C11.6807 13.6264 12.1485 13.4411 12.6953 13.4411C13.2422 13.4411 13.7099 13.6264 14.0992 13.9971C14.4885 14.3679 14.6828 14.8131 14.6828 15.3333C14.6828 15.8536 14.4885 16.2988 14.0992 16.6695Z" stroke-width="0.025"/>
</svg>
