<svg width="25" height="24" viewBox="0 0 25 24" fill="none" xmlns="http://www.w3.org/2000/svg">
<path fill-rule="evenodd" clip-rule="evenodd" d="M10.8423 5.63002C11.0661 5.14937 11.7491 5.14937 11.9729 5.63002L13.8906 9.73889C13.9529 9.87121 14.0599 9.97824 14.1922 10.0405L18.3011 11.9573C18.7817 12.182 18.7817 12.8651 18.3011 13.0888L14.1922 15.0066C14.0599 15.0688 13.9529 15.1749 13.8906 15.3082L11.9729 19.4171C11.7491 19.8967 11.0661 19.8967 10.8423 19.4171L8.92455 15.3082C8.86325 15.1749 8.75622 15.0688 8.62292 15.0066L4.51405 13.0888C4.03438 12.8651 4.03438 12.182 4.51405 11.9573L8.62292 10.0405C8.75622 9.97824 8.86325 9.87121 8.92455 9.73889L10.8423 5.63002Z" stroke-width="1.5" stroke-linecap="round" stroke-linejoin="round"/>
<path d="M20.1694 16.7266V20.6982M22.1553 18.7124H18.1836" stroke-width="1.5" stroke-linecap="round" stroke-linejoin="round"/>
<path d="M18.3289 3.30078V5.91808M19.6378 4.6094H17.0195" stroke-width="1.5" stroke-linecap="round" stroke-linejoin="round"/>
</svg>
