<svg width="20" height="20" viewBox="0 0 20 20" fill="none" xmlns="http://www.w3.org/2000/svg">
<path d="M8.33285 15.8333C8.13814 15.8337 7.94944 15.7659 7.79952 15.6417C7.62909 15.5004 7.52189 15.2971 7.50157 15.0766C7.48124 14.8562 7.54947 14.6367 7.69118 14.4667L11.4245 10L7.82452 5.525C7.68471 5.35284 7.61929 5.13205 7.64275 4.91152C7.66621 4.69098 7.77662 4.4889 7.94952 4.35C8.12382 4.19664 8.35421 4.12294 8.58516 4.14667C8.81612 4.1704 9.0267 4.2894 9.16618 4.475L13.1912 9.47501C13.4439 9.78251 13.4439 10.2258 13.1912 10.5333L9.02452 15.5333C8.85496 15.7379 8.59805 15.8493 8.33285 15.8333Z" fill="#212B36"/>
</svg>
