<svg width="24" height="25" viewBox="0 0 24 25" fill="none" xmlns="http://www.w3.org/2000/svg">
<path d="M16.5007 8.3335H14.9506C14.8346 7.74564 14.5275 7.21744 14.0812 6.83792C13.6349 6.4584 13.0766 6.25076 12.5004 6.25L11.5004 6.25C10.9242 6.25076 10.3659 6.4584 9.9196 6.83792C9.47328 7.21744 9.16622 7.74564 9.05016 8.3335H7.50004C7.36742 8.3335 7.24023 8.38837 7.14646 8.48606C7.05268 8.58374 7 8.71623 7 8.85437C7 8.99251 7.05268 9.125 7.14646 9.22268C7.24023 9.32037 7.36742 9.37524 7.50004 9.37524H8.00008V16.1466C8.00087 16.8371 8.26454 17.499 8.73325 17.9873C9.20195 18.4755 9.83742 18.7501 10.5003 18.751H13.5005C14.1634 18.7501 14.7988 18.4755 15.2675 17.9873C15.7362 17.499 15.9999 16.8371 16.0007 16.1466V9.37524H16.5007C16.6334 9.37524 16.7605 9.32037 16.8543 9.22268C16.9481 9.125 17.0008 8.99251 17.0008 8.85437C17.0008 8.71623 16.9481 8.58374 16.8543 8.48606C16.7605 8.38837 16.6334 8.3335 16.5007 8.3335ZM11.5004 7.29175H12.5004C12.8106 7.29214 13.113 7.39247 13.3663 7.57898C13.6196 7.76549 13.8112 8.02904 13.915 8.3335H10.0857C10.1895 8.02904 10.3812 7.76549 10.6345 7.57898C10.8877 7.39247 11.1902 7.29214 11.5004 7.29175ZM15.0006 16.1466C15.0006 16.561 14.8426 16.9585 14.5613 17.2515C14.2799 17.5446 13.8984 17.7092 13.5005 17.7092H10.5003C10.1024 17.7092 9.72086 17.5446 9.43953 17.2515C9.1582 16.9585 9.00016 16.561 9.00016 16.1466V9.37524H15.0006V16.1466Z" fill="#212B36"/>
<path d="M11 15.625C11.1327 15.625 11.2598 15.5701 11.3536 15.4724C11.4474 15.3748 11.5001 15.2423 11.5001 15.1041V11.9789C11.5001 11.8407 11.4474 11.7083 11.3536 11.6106C11.2598 11.5129 11.1327 11.458 11 11.458C10.8674 11.458 10.7402 11.5129 10.6465 11.6106C10.5527 11.7083 10.5 11.8407 10.5 11.9789V15.1041C10.5 15.2423 10.5527 15.3748 10.6465 15.4724C10.7402 15.5701 10.8674 15.625 11 15.625Z" fill="#212B36"/>
<path d="M13 15.625C13.1327 15.625 13.2598 15.5701 13.3536 15.4724C13.4474 15.3748 13.5001 15.2423 13.5001 15.1041V11.9789C13.5001 11.8407 13.4474 11.7083 13.3536 11.6106C13.2598 11.5129 13.1327 11.458 13 11.458C12.8674 11.458 12.7402 11.5129 12.6465 11.6106C12.5527 11.7083 12.5 11.8407 12.5 11.9789V15.1041C12.5 15.2423 12.5527 15.3748 12.6465 15.4724C12.7402 15.5701 12.8674 15.625 13 15.625Z" fill="#212B36"/>
</svg>
