<svg width="24" height="24" viewBox="0 0 24 24" fill="none" xmlns="http://www.w3.org/2000/svg">
<path d="M6.7039 21.5433L7.02497 20.7681L6.7039 21.5433ZM3.45672 18.2961L4.23186 17.975L3.45672 18.2961ZM20.5433 18.2961L19.7681 17.975L20.5433 18.2961ZM17.2961 21.5433L16.975 20.7681L17.2961 21.5433ZM17.2961 4.45672L16.975 5.23186L17.2961 4.45672ZM20.5433 7.7039L19.7681 8.02497L20.5433 7.7039ZM6.7039 4.45672L7.02497 5.23186L6.7039 4.45672ZM3.45672 7.7039L4.23186 8.02497L3.45672 7.7039ZM8.839 2C8.839 1.53663 8.46337 1.161 8 1.161C7.53663 1.161 7.161 1.53663 7.161 2H8.839ZM7.161 6C7.161 6.46337 7.53663 6.839 8 6.839C8.46337 6.839 8.839 6.46337 8.839 6H7.161ZM16.839 2C16.839 1.53663 16.4634 1.161 16 1.161C15.5366 1.161 15.161 1.53663 15.161 2H16.839ZM15.161 6C15.161 6.46337 15.5366 6.839 16 6.839C16.4634 6.839 16.839 6.46337 16.839 6H15.161ZM3.0403 10L2.2024 9.95714L3.0403 10ZM8.01 14.839C8.47337 14.839 8.849 14.4634 8.849 14C8.849 13.5366 8.47337 13.161 8.01 13.161V14.839ZM8 13.161C7.53663 13.161 7.161 13.5366 7.161 14C7.161 14.4634 7.53663 14.839 8 14.839V13.161ZM8.01 18.839C8.47337 18.839 8.849 18.4634 8.849 18C8.849 17.5366 8.47337 17.161 8.01 17.161V18.839ZM8 17.161C7.53663 17.161 7.161 17.5366 7.161 18C7.161 18.4634 7.53663 18.839 8 18.839V17.161ZM12.01 14.839C12.4734 14.839 12.849 14.4634 12.849 14C12.849 13.5366 12.4734 13.161 12.01 13.161V14.839ZM12 13.161C11.5366 13.161 11.161 13.5366 11.161 14C11.161 14.4634 11.5366 14.839 12 14.839V13.161ZM12.01 18.839C12.4734 18.839 12.849 18.4634 12.849 18C12.849 17.5366 12.4734 17.161 12.01 17.161V18.839ZM12 17.161C11.5366 17.161 11.161 17.5366 11.161 18C11.161 18.4634 11.5366 18.839 12 18.839V17.161ZM16.01 14.839C16.4734 14.839 16.849 14.4634 16.849 14C16.849 13.5366 16.4734 13.161 16.01 13.161V14.839ZM16 13.161C15.5366 13.161 15.161 13.5366 15.161 14C15.161 14.4634 15.5366 14.839 16 14.839V13.161ZM16.01 18.839C16.4734 18.839 16.849 18.4634 16.849 18C16.849 17.5366 16.4734 17.161 16.01 17.161V18.839ZM16 17.161C15.5366 17.161 15.161 17.5366 15.161 18C15.161 18.4634 15.5366 18.839 16 18.839V17.161ZM12 21.161C10.5907 21.161 9.57574 21.1605 8.77418 21.1059C7.98016 21.0517 7.45701 20.9471 7.02497 20.7681L6.38283 22.3184C7.05341 22.5962 7.7805 22.72 8.65995 22.78C9.53188 22.8395 10.6137 22.839 12 22.839V21.161ZM2.161 13C2.161 14.3863 2.16055 15.4681 2.22004 16.34C2.28004 17.2195 2.40382 17.9466 2.68159 18.6172L4.23186 17.975C4.0529 17.543 3.94832 17.0198 3.89414 16.2258C3.83945 15.4243 3.839 14.4093 3.839 13H2.161ZM7.02497 20.7681C5.76038 20.2443 4.75567 19.2396 4.23186 17.975L2.68159 18.6172C3.3757 20.2929 4.70708 21.6243 6.38283 22.3184L7.02497 20.7681ZM20.161 13C20.161 14.4093 20.1605 15.4243 20.1059 16.2258C20.0517 17.0198 19.9471 17.543 19.7681 17.975L21.3184 18.6172C21.5962 17.9466 21.72 17.2195 21.78 16.34C21.8395 15.4681 21.839 14.3863 21.839 13H20.161ZM12 22.839C13.3863 22.839 14.4681 22.8395 15.34 22.78C16.2195 22.72 16.9466 22.5962 17.6172 22.3184L16.975 20.7681C16.543 20.9471 16.0198 21.0517 15.2258 21.1059C14.4243 21.1605 13.4093 21.161 12 21.161V22.839ZM19.7681 17.975C19.2443 19.2396 18.2396 20.2443 16.975 20.7681L17.6172 22.3184C19.2929 21.6243 20.6243 20.2929 21.3184 18.6172L19.7681 17.975ZM16.975 5.23186C18.2396 5.75567 19.2443 6.76038 19.7681 8.02497L21.3184 7.38283C20.6243 5.70708 19.2929 4.37571 17.6172 3.68159L16.975 5.23186ZM6.38283 3.68159C4.70708 4.37571 3.3757 5.70708 2.68159 7.38283L4.23186 8.02497C4.75567 6.76038 5.76038 5.75567 7.02497 5.23186L6.38283 3.68159ZM21.839 13C21.839 11.7635 21.8393 10.7712 21.7976 9.95714L20.1218 10.0429C20.1608 10.8044 20.161 11.7473 20.161 13H21.839ZM21.7976 9.95714C21.7456 8.94057 21.6261 8.12577 21.3184 7.38283L19.7681 8.02497C19.9672 8.50551 20.0734 9.09591 20.1218 10.0429L21.7976 9.95714ZM20.9597 9.161L3.0403 9.161L3.0403 10.839H20.9597V9.161ZM3.839 13C3.839 11.7473 3.83925 10.8044 3.87821 10.0429L2.2024 9.95714C2.16075 10.7712 2.161 11.7635 2.161 13H3.839ZM3.87821 10.0429C3.92665 9.09591 4.03281 8.50551 4.23186 8.02497L2.68159 7.38283C2.37385 8.12577 2.2544 8.94057 2.2024 9.95714L3.87821 10.0429ZM7.161 2V4.12777H8.839V2H7.161ZM7.161 4.12777V6H8.839V4.12777H7.161ZM12 3.161C10.1974 3.161 8.89817 3.15912 7.88712 3.2964L8.11288 4.95915C8.98394 4.84088 10.1457 4.839 12 4.839V3.161ZM7.88712 3.2964C7.33754 3.37102 6.8472 3.48924 6.38283 3.68159L7.02497 5.23186C7.32356 5.10818 7.66684 5.01971 8.11288 4.95915L7.88712 3.2964ZM15.161 2V4.12777H16.839V2H15.161ZM15.161 4.12777V6H16.839V4.12777H15.161ZM12 4.839C13.8543 4.839 15.0161 4.84088 15.8871 4.95915L16.1129 3.2964C15.1018 3.15912 13.8026 3.161 12 3.161V4.839ZM15.8871 4.95915C16.3332 5.01971 16.6764 5.10818 16.975 5.23186L17.6172 3.68159C17.1528 3.48924 16.6625 3.37102 16.1129 3.2964L15.8871 4.95915ZM8.01 13.161H8V14.839H8.01V13.161ZM8.01 17.161H8V18.839H8.01V17.161ZM12.01 13.161H12V14.839H12.01V13.161ZM12.01 17.161H12V18.839H12.01V17.161ZM16.01 13.161H16V14.839H16.01V13.161ZM16.01 17.161H16V18.839H16.01V17.161Z" fill="#303A47"/>
</svg>
