<svg width="25" height="24" viewBox="0 0 25 24" fill="none" xmlns="http://www.w3.org/2000/svg">
<mask id="mask0_128_11223" style="mask-type:alpha" maskUnits="userSpaceOnUse" x="0" y="0" width="25" height="24">
<rect x="0.5" width="24" height="24" fill="#D9D9D9"/>
</mask>
<g mask="url(#mask0_128_11223)">
<path d="M12.9412 2C7.20503 2 3.5 5.30697 3.5 10.4205C3.5 15.5341 7.20503 18.841 12.9412 18.841C12.982 18.841 13.0228 18.841 13.0637 18.841C13.0228 19.2595 12.9208 19.7188 12.7575 20.2138C12.5737 20.765 12.7575 21.3519 13.2117 21.7091C13.4617 21.903 13.7526 22 14.0435 22C14.2936 22 14.5436 21.9286 14.7682 21.7857C16.6309 20.6017 17.7843 19.2187 18.2129 17.6673C20.8667 16.2536 22.3773 13.6356 22.3773 10.4256C22.3773 5.31207 18.6722 2.0051 12.9361 2.0051L12.9412 2ZM17.2229 16.4527C17.0034 16.5547 16.8503 16.7589 16.8044 16.9936C16.5799 18.1419 15.7327 19.2544 14.3548 20.224C14.5794 19.4075 14.661 18.6522 14.5947 17.9735C14.5538 17.5805 14.2221 17.2794 13.8343 17.2794C13.8139 17.2794 13.7985 17.2794 13.7781 17.2794C13.5077 17.2998 13.2321 17.31 12.9463 17.31C8.06749 17.31 5.03611 14.6716 5.03611 10.4205C5.03611 6.16943 8.06749 3.531 12.9463 3.531C17.8251 3.531 20.8565 6.16943 20.8565 10.4205C20.8565 13.1916 19.5704 15.3299 17.228 16.4527H17.2229Z" fill="#A0A5A9"/>
<path d="M11.7878 10.1143L11.7215 10.0837C11.4663 9.95101 11.2571 9.74177 11.1244 9.4866L11.0938 9.42026C10.9662 9.1702 10.609 9.1702 10.4814 9.42026L10.4508 9.4866C10.3181 9.74177 10.1088 9.95101 9.85366 10.0837L9.78732 10.1143C9.53725 10.2419 9.53725 10.5991 9.78732 10.7267L9.85366 10.7573C10.1088 10.89 10.3181 11.0993 10.4508 11.3544L10.4814 11.4208C10.609 11.6708 10.9662 11.6708 11.0938 11.4208L11.1244 11.3544C11.2571 11.0993 11.4663 10.89 11.7215 10.7573L11.7878 10.7267C12.0379 10.5991 12.0379 10.2419 11.7878 10.1143Z" fill="#A0A5A9"/>
<path d="M8.85851 9.99183L8.76665 9.9459C8.40942 9.76218 8.11342 9.47129 7.9297 9.10896L7.88377 9.0171C7.70515 8.66497 7.20503 8.66497 7.02641 9.0171L6.98048 9.10896C6.79676 9.46619 6.50587 9.76218 6.14353 9.9459L6.05167 9.99183C5.69954 10.1705 5.69954 10.6706 6.05167 10.8492L6.14353 10.8951C6.50077 11.0788 6.79676 11.3697 6.98048 11.7321L7.02641 11.8239C7.20503 12.1761 7.70515 12.1761 7.88377 11.8239L7.9297 11.7321C8.11342 11.3748 8.40431 11.0788 8.76665 10.8951L8.85851 10.8492C9.21064 10.6706 9.21064 10.1705 8.85851 9.99183Z" fill="#A0A5A9"/>
<path d="M19.3612 8.96096L19.1979 8.87931C18.6875 8.61904 18.2793 8.21077 18.019 7.70043L17.9374 7.53713C17.6567 6.98597 17.0953 6.64404 16.4778 6.64404C15.8603 6.64404 15.2989 6.98597 15.0131 7.53713L14.9315 7.70043C14.6712 8.21077 14.263 8.61904 13.7526 8.87931L13.5893 8.96096C13.0381 9.24164 12.6962 9.80301 12.6962 10.4256C12.6962 11.0482 13.0381 11.6045 13.5893 11.8903L13.7526 11.9719C14.263 12.2322 14.6712 12.6405 14.9315 13.1508L15.0131 13.3141C15.2938 13.8653 15.8552 14.2072 16.4778 14.2072C17.1004 14.2072 17.6567 13.8653 17.9425 13.3141L18.0241 13.1508C18.2844 12.6405 18.6927 12.2322 19.203 11.9719L19.3663 11.8903C19.9175 11.6096 20.2594 11.0482 20.2594 10.4307C20.2594 9.81322 19.9175 9.25185 19.3663 8.96606L19.3612 8.96096ZM18.6671 10.5226L18.5038 10.6042C17.7026 11.0125 17.0647 11.6504 16.6564 12.4516L16.5748 12.615C16.5748 12.615 16.5441 12.6762 16.4778 12.6762C16.4115 12.6762 16.3859 12.6303 16.3808 12.615L16.2992 12.4516C15.8909 11.6504 15.253 11.0125 14.4518 10.6042L14.2885 10.5226C14.2885 10.5226 14.2272 10.492 14.2272 10.4256C14.2272 10.3593 14.2732 10.3338 14.2885 10.3287L14.4518 10.247C15.253 9.83873 15.8909 9.20082 16.2992 8.39959L16.3808 8.23628C16.3808 8.23628 16.4115 8.17505 16.4778 8.17505C16.5441 8.17505 16.5697 8.21587 16.5748 8.23628L16.6564 8.39959C17.0647 9.20082 17.7026 9.83873 18.5038 10.247L18.6671 10.3287C18.6671 10.3287 18.7284 10.3593 18.7284 10.4256C18.7284 10.492 18.6824 10.5175 18.6671 10.5226Z" fill="#A0A5A9"/>
</g>
</svg>
