<svg width="24" height="25" viewBox="0 0 24 25" stroke-width="0" xmlns="http://www.w3.org/2000/svg">
<g id="Chatbots *">
<g id="icon">
<path d="M20.719 11.7598H20.5755C19.9858 9.12437 17.6324 7.14523 14.8226 7.14523H13.0281V6.48894C13.9202 6.17105 14.5663 5.32504 14.5663 4.32522C14.5663 3.05365 13.5305 2.01793 12.259 2.01793C10.9874 2.01793 9.95169 3.05365 9.95169 4.32522C9.95169 5.32504 10.5977 6.17105 11.4899 6.48894V7.14523H9.69533C6.88557 7.14523 4.53214 9.12437 3.9425 11.7598H3.79893C2.95293 11.7598 2.26074 12.452 2.26074 13.298V14.8362C2.26074 15.6822 2.95293 16.3744 3.79893 16.3744H4.08093C4.68596 18.2612 6.21389 19.7276 8.1315 20.2609C7.98794 20.5634 7.90077 20.8915 7.90077 21.2453C7.90077 21.6709 8.2443 22.0144 8.66987 22.0144H15.8481C16.2737 22.0144 16.6172 21.6709 16.6172 21.2453C16.6172 20.8915 16.53 20.5583 16.3865 20.2609C18.3041 19.7328 19.832 18.2612 20.437 16.3744H20.719C21.565 16.3744 22.2572 15.6822 22.2572 14.8362V13.298C22.2572 12.452 21.565 11.7598 20.719 11.7598ZM12.259 3.55612C12.6845 3.55612 13.0281 3.89965 13.0281 4.32522C13.0281 4.75078 12.6845 5.09431 12.259 5.09431C11.8334 5.09431 11.4899 4.75078 11.4899 4.32522C11.4899 3.89965 11.8334 3.55612 12.259 3.55612ZM14.8226 18.938H9.69533C7.29062 18.938 5.33712 16.9845 5.33712 14.5798V13.0416C5.33712 10.6369 7.29062 8.68342 9.69533 8.68342H14.8226C17.2273 8.68342 19.1808 10.6369 19.1808 13.0416V14.5798C19.1808 16.9845 17.2273 18.938 14.8226 18.938Z"/>
<path d="M9.43896 10.7343C8.59296 10.7343 7.90077 11.4265 7.90077 12.2725V13.8107C7.90077 14.6567 8.59296 15.3489 9.43896 15.3489C10.285 15.3489 10.9772 14.6567 10.9772 13.8107V12.2725C10.9772 11.4265 10.285 10.7343 9.43896 10.7343Z"/>
<path d="M15.079 10.7343C14.233 10.7343 13.5408 11.4265 13.5408 12.2725V13.8107C13.5408 14.6567 14.233 15.3489 15.079 15.3489C15.925 15.3489 16.6172 14.6567 16.6172 13.8107V12.2725C16.6172 11.4265 15.925 10.7343 15.079 10.7343Z"/>
<path d="M6.89069 3.5151L8.42888 4.02783C8.51092 4.05347 8.59296 4.06885 8.66987 4.06885C8.99289 4.06885 9.29027 3.86376 9.39794 3.54074C9.53125 3.13568 9.31591 2.69986 8.91085 2.56655L7.37266 2.05382C6.97273 1.92051 6.53691 2.13586 6.39847 2.54092C6.26004 2.94597 6.48051 3.38179 6.88557 3.5151H6.89069Z"/>
<path d="M7.13168 6.6325C7.21371 6.6325 7.29575 6.62225 7.37266 6.59148L8.91085 6.07875C9.31591 5.94544 9.53125 5.50962 9.39794 5.10457C9.26464 4.69951 8.82881 4.48416 8.42376 4.61747L6.88557 5.1302C6.48051 5.26351 6.26516 5.69933 6.39847 6.10439C6.50615 6.42741 6.80353 6.6325 7.12655 6.6325H7.13168Z"/>
<path d="M15.8481 4.06885C15.9301 4.06885 16.0122 4.0586 16.0891 4.02783L17.6273 3.5151C18.0323 3.38179 18.2477 2.94597 18.1144 2.54092C17.981 2.13586 17.5452 1.92051 17.1402 2.05382L15.602 2.56655C15.1969 2.69986 14.9816 3.13568 15.1149 3.54074C15.2226 3.86376 15.5199 4.06885 15.843 4.06885H15.8481Z"/>
<path d="M15.6071 6.07875L17.1453 6.59148C17.2273 6.61712 17.3094 6.6325 17.3863 6.6325C17.7093 6.6325 18.0067 6.42741 18.1144 6.10439C18.2477 5.69933 18.0323 5.26351 17.6273 5.1302L16.0891 4.61747C15.6891 4.48416 15.2482 4.69951 15.1149 5.10457C14.9816 5.50962 15.1969 5.94544 15.602 6.07875H15.6071Z"/>
</g>
</g>
</svg>
