<svg width="24" height="24" viewBox="0 0 24 24" fill="none" xmlns="http://www.w3.org/2000/svg">
<path d="M13.607 6.51881V5.14262C13.607 2.50064 3.16113 2.50064 3.16113 5.14262V13.192C3.16113 14.2306 4.78689 14.878 6.74272 15.1082C6.02733 15.429 5.57173 15.8624 5.57173 16.4117V18.8265C5.57173 20.1475 8.19928 20.8389 10.7947 20.8389C13.3901 20.8389 16.0177 20.1475 16.0177 18.8265V17.6125C18.4755 17.5449 20.8389 16.8596 20.8389 15.6068V8.36239C20.8388 6.69448 16.6769 6.08079 13.607 6.51881ZM8.38411 3.96466C11.2436 3.96466 12.8035 4.76073 12.8035 5.16996C12.8035 5.5792 11.2435 6.37526 8.38411 6.37526C5.52469 6.37526 3.96469 5.5792 3.96469 5.16996C3.96465 4.76076 5.52465 3.96466 8.38411 3.96466ZM3.96465 6.28799C4.93955 6.87474 6.66641 7.17882 8.38407 7.17882C10.1017 7.17882 11.8286 6.87474 12.8035 6.28799V6.68725C11.4073 6.99689 10.3929 7.56237 10.3929 8.38412V8.62183C9.76327 8.72285 9.0836 8.78586 8.38411 8.78586C5.52465 8.78586 3.96469 7.9898 3.96469 7.58056L3.96465 6.28799ZM11.1964 14.3233C11.2729 14.3693 11.3525 14.414 11.4378 14.4565C11.3574 14.4531 11.2772 14.4499 11.1964 14.4478V14.3233ZM3.96465 8.69859C4.93955 9.28534 6.66641 9.58942 8.38407 9.58942C9.07953 9.58942 9.75551 9.52697 10.3929 9.43175V11.4342C9.76324 11.5352 9.08356 11.5982 8.38407 11.5982C5.52461 11.5982 3.96465 10.8022 3.96465 10.3929V8.69859ZM3.96465 13.2053V11.511C4.93955 12.0977 6.66641 12.4018 8.38407 12.4018C9.07953 12.4018 9.75551 12.3393 10.3929 12.2441V14.2466C9.76324 14.3476 9.08356 14.4106 8.38407 14.4106C5.52465 14.4106 3.96465 13.6145 3.96465 13.2053ZM15.2141 18.83C15.2141 19.2393 13.6541 20.0353 10.7947 20.0353C7.93529 20.0353 6.37525 19.2393 6.37525 18.83V17.5374C7.35015 18.1242 9.07701 18.4283 10.7947 18.4283C12.4388 18.4283 14.0937 18.1504 15.0875 17.6121C15.1292 17.6137 15.1722 17.6138 15.2141 17.6151V18.83H15.2141ZM10.7947 17.6247C7.93525 17.6247 6.37529 16.8287 6.37529 16.4194C6.37529 16.0102 7.93529 15.2141 10.7947 15.2141C13.6541 15.2141 15.2141 16.0102 15.2141 16.4194C15.2141 16.8287 13.6541 17.6247 10.7947 17.6247ZM20.0353 15.6159C20.0353 16.0048 18.6117 16.7349 16.0176 16.8073V16.4194C16.0176 15.9175 15.6378 15.5117 15.025 15.2008C15.2215 15.2088 15.4186 15.2141 15.6159 15.2141C17.3335 15.2141 19.0604 14.9101 20.0353 14.3233V15.6159H20.0353ZM20.0353 13.2053C20.0353 13.6146 18.4753 14.4106 15.6159 14.4106C12.7565 14.4106 11.1965 13.6146 11.1965 13.2053V11.9127C12.1713 12.4995 13.8982 12.8035 15.6159 12.8035C17.3336 12.8035 19.0605 12.4995 20.0353 11.9127V13.2053ZM20.0353 10.7947C20.0353 11.204 18.4753 12 15.6159 12C12.7565 12 11.1965 11.204 11.1965 10.7947V9.50211C12.1713 10.0889 13.8982 10.3929 15.6159 10.3929C17.3336 10.3929 19.0605 10.0889 20.0353 9.50211V10.7947ZM15.6159 9.58942C12.7564 9.58942 11.1965 8.79336 11.1965 8.38412C11.1965 7.97488 12.7565 7.17882 15.6159 7.17882C18.4753 7.17882 20.0353 7.97488 20.0353 8.38412C20.0353 8.79336 18.4753 9.58942 15.6159 9.58942Z" fill="black"/>
</svg>
