<svg width="48" height="48" viewBox="0 0 48 48" fill="none" xmlns="http://www.w3.org/2000/svg">
<rect width="48" height="48" rx="24" fill="#4B4C61" fill-opacity="0.6"/>
<path fill-rule="evenodd" clip-rule="evenodd" d="M32.8064 19.6236L32.184 18.5435C31.6574 17.6295 30.4905 17.3143 29.5753 17.8387C29.1397 18.0953 28.6198 18.1681 28.1305 18.041C27.6411 17.914 27.2224 17.5975 26.9666 17.1613C26.8021 16.8841 26.7137 16.5683 26.7103 16.246C26.7251 15.7292 26.5302 15.2283 26.1698 14.8576C25.8094 14.4869 25.3143 14.2778 24.7973 14.278H23.5433C23.0367 14.278 22.5511 14.4799 22.1938 14.8389C21.8364 15.1979 21.6369 15.6845 21.6394 16.1911C21.6244 17.2369 20.7722 18.0768 19.7263 18.0766C19.404 18.0733 19.0882 17.9849 18.811 17.8203C17.8958 17.296 16.7289 17.6112 16.2023 18.5252L15.5341 19.6236C15.0082 20.5363 15.3192 21.7025 16.2298 22.2322C16.8217 22.574 17.1863 23.2055 17.1863 23.889C17.1863 24.5725 16.8217 25.204 16.2298 25.5458C15.3203 26.0719 15.009 27.2353 15.5341 28.1453L16.1657 29.2345C16.4124 29.6797 16.8264 30.0082 17.3159 30.1474C17.8055 30.2865 18.3304 30.2248 18.7744 29.976C19.2108 29.7213 19.7309 29.6515 20.2191 29.7821C20.7072 29.9128 21.123 30.233 21.3739 30.6716C21.5385 30.9488 21.6269 31.2646 21.6302 31.5869C21.6302 32.6435 22.4867 33.5 23.5433 33.5H24.7973C25.8502 33.5 26.7053 32.6491 26.7103 31.5961C26.7079 31.088 26.9086 30.6 27.2679 30.2407C27.6272 29.8814 28.1152 29.6806 28.6233 29.6831C28.9449 29.6917 29.2594 29.7797 29.5387 29.9393C30.4515 30.4653 31.6177 30.1543 32.1474 29.2437L32.8064 28.1453C33.0615 27.7074 33.1315 27.186 33.001 26.6963C32.8704 26.2067 32.55 25.7893 32.1108 25.5366C31.6715 25.2839 31.3511 24.8665 31.2206 24.3769C31.09 23.8872 31.16 23.3658 31.4151 22.9279C31.581 22.6383 31.8211 22.3981 32.1108 22.2322C33.0159 21.7028 33.3262 20.5434 32.8064 19.6327V19.6236Z" stroke="white" stroke-width="1.5" stroke-linecap="round" stroke-linejoin="round"/>
<path d="M24.1752 26.5252C25.6311 26.5252 26.8114 25.3449 26.8114 23.889C26.8114 22.4331 25.6311 21.2529 24.1752 21.2529C22.7193 21.2529 21.5391 22.4331 21.5391 23.889C21.5391 25.3449 22.7193 26.5252 24.1752 26.5252Z" stroke="white" stroke-width="1.5" stroke-linecap="round" stroke-linejoin="round"/>
</svg>
