<svg width="56" height="56" viewBox="0 0 56 56" xmlns="http://www.w3.org/2000/svg">
<path d="M0 28C0 12.536 12.536 0 28 0C43.464 0 56 12.536 56 28C56 43.464 43.464 56 28 56C12.536 56 0 43.464 0 28Z" stroke="none"/>
<path fill-rule="evenodd" clip-rule="evenodd" d="M33.5761 30.9395C31.4971 32.8226 28.899 34.5166 26.04 35.6686C23.607 36.6276 21.569 35.4316 21.27 33.0336C20.906 29.4985 20.914 26.1145 21.27 22.9555C21.596 20.4635 23.841 19.4055 26.04 20.3315C28.855 21.4845 31.3801 23.0495 33.5761 25.0605C35.4521 26.7595 35.4961 29.1745 33.5761 30.9395Z" stroke-width="1.5" stroke-linecap="round" stroke-linejoin="round"/>
</svg>
