<svg width="56" height="56" viewBox="0 0 56 56" fill="none" xmlns="http://www.w3.org/2000/svg">
<path d="M0 28C0 12.536 12.536 0 28 0C43.464 0 56 12.536 56 28C56 43.464 43.464 56 28 56C12.536 56 0 43.464 0 28Z" stroke="none" fill="#1D1D1D"></path>
<path d="M23.8859 22.9424H32.1134C34.8092 22.9424 36.9954 25.1276 36.9954 27.8244V32.1181C36.9954 34.8139 34.8092 37.0001 32.1134 37.0001H23.8859C21.1891 37.0001 19.0039 34.8139 19.0039 32.1181V27.8244C19.0039 25.1276 21.1891 22.9424 23.8859 22.9424Z" stroke="white" stroke-width="1.5" stroke-linecap="round" stroke-linejoin="round"/>
<path d="M32.5725 31.5977H32.5625" stroke="white" stroke-width="1.5" stroke-linecap="round" stroke-linejoin="round"/>
<path d="M30.9397 28.3818H30.9297" stroke="white" stroke-width="1.5" stroke-linecap="round" stroke-linejoin="round"/>
<path d="M25.1624 28.2793V31.6481M26.8822 29.9641H23.4453" stroke="white" stroke-width="1.5" stroke-linecap="round" stroke-linejoin="round"/>
<path d="M24.4648 19C24.4648 19.6662 25.0163 20.2059 25.6951 20.2059H26.6462C27.6946 20.2098 28.5436 21.0423 28.5484 22.0702V22.8072" stroke="white" stroke-width="1.5" stroke-linecap="round" stroke-linejoin="round"/>
</svg>
