<svg width="56" height="56" viewBox="0 0 56 56" xmlns="http://www.w3.org/2000/svg">
<path d="M0 28C0 12.536 12.536 0 28 0C43.464 0 56 12.536 56 28C56 43.464 43.464 56 28 56C12.536 56 0 43.464 0 28Z" stroke="none"/>
<path fill-rule="evenodd" clip-rule="evenodd" d="M36.8067 23.6229L36.1842 22.5428C35.6577 21.6289 34.4907 21.3136 33.5755 21.838C33.1399 22.0946 32.6201 22.1674 32.1307 22.0404C31.6413 21.9133 31.2226 21.5968 30.9668 21.1606C30.8023 20.8834 30.7139 20.5677 30.7105 20.2453C30.7254 19.7285 30.5304 19.2277 30.17 18.8569C29.8096 18.4862 29.3145 18.2771 28.7975 18.2773H27.5435C27.037 18.2773 26.5513 18.4792 26.194 18.8382C25.8367 19.1972 25.6372 19.6839 25.6396 20.1904C25.6246 21.2362 24.7725 22.0761 23.7266 22.076C23.4042 22.0726 23.0885 21.9842 22.8112 21.8197C21.8961 21.2953 20.7291 21.6106 20.2025 22.5245L19.5343 23.6229C19.0084 24.5357 19.3194 25.7019 20.23 26.2316C20.8219 26.5733 21.1865 27.2049 21.1865 27.8883C21.1865 28.5718 20.8219 29.2033 20.23 29.5451C19.3206 30.0712 19.0092 31.2346 19.5343 32.1446L20.1659 33.2339C20.4126 33.6791 20.8266 34.0076 21.3162 34.1467C21.8058 34.2859 22.3306 34.2242 22.7746 33.9753C23.2111 33.7206 23.7312 33.6508 24.2193 33.7815C24.7075 33.9121 25.1232 34.2323 25.3742 34.6709C25.5387 34.9482 25.6271 35.2639 25.6305 35.5863C25.6305 36.6428 26.487 37.4993 27.5435 37.4993H28.7975C29.8505 37.4993 30.7055 36.6484 30.7105 35.5954C30.7081 35.0873 30.9089 34.5993 31.2682 34.24C31.6275 33.8807 32.1155 33.6799 32.6236 33.6824C32.9452 33.691 33.2596 33.779 33.5389 33.9387C34.4517 34.4646 35.6179 34.1536 36.1476 33.243L36.8067 32.1446C37.0618 31.7068 37.1318 31.1853 37.0012 30.6956C36.8706 30.206 36.5502 29.7886 36.111 29.5359C35.6718 29.2832 35.3514 28.8658 35.2208 28.3762C35.0902 27.8866 35.1603 27.3651 35.4154 26.9272C35.5812 26.6376 35.8214 26.3975 36.111 26.2316C37.0161 25.7022 37.3264 24.5428 36.8067 23.632V23.6229Z" stroke-width="1.5" stroke-linecap="round" stroke-linejoin="round"/>
<path d="M28.1751 30.5243C29.631 30.5243 30.8113 29.344 30.8113 27.8881C30.8113 26.4322 29.631 25.252 28.1751 25.252C26.7192 25.252 25.5389 26.4322 25.5389 27.8881C25.5389 29.344 26.7192 30.5243 28.1751 30.5243Z" stroke-width="1.5" stroke-linecap="round" stroke-linejoin="round"/>
</svg>
