<svg width="24" height="24" viewBox="0 0 24 24" fill="none" xmlns="http://www.w3.org/2000/svg">
<path fill-rule="evenodd" clip-rule="evenodd" d="M18.3806 3C19.8722 3 21.0806 4.20842 21.0806 5.69997C21.0806 7.19152 19.8722 8.39994 18.3806 8.39994C16.8891 8.39994 15.6807 7.19152 15.6807 5.69997C15.6807 4.20842 16.8891 3 18.3806 3Z" stroke-width="1.5" stroke-linecap="round" stroke-linejoin="round"/>
<path fill-rule="evenodd" clip-rule="evenodd" d="M7.58083 9.29932C9.07238 9.29932 10.2808 10.5078 10.2808 11.9993C10.2808 13.4909 9.07238 14.6993 7.58083 14.6993C6.08928 14.6993 4.88086 13.4909 4.88086 11.9993C4.88086 10.5078 6.08928 9.29932 7.58083 9.29932Z" stroke-width="1.5" stroke-linecap="round" stroke-linejoin="round"/>
<path fill-rule="evenodd" clip-rule="evenodd" d="M18.3806 15.6001C19.8722 15.6001 21.0806 16.8085 21.0806 18.3C21.0806 19.7906 19.8722 21 18.3806 21C16.8891 21 15.6807 19.7906 15.6807 18.3C15.6807 16.8085 16.8891 15.6001 18.3806 15.6001Z" stroke-width="1.5" stroke-linecap="round" stroke-linejoin="round"/>
<path d="M9.91111 13.3581L16.0583 16.9406M16.0486 7.05859L9.91016 10.6401" stroke-width="1.5" stroke-linecap="round" stroke-linejoin="round"/>
</svg>
