<svg width="48" height="48" viewBox="0 0 48 48" fill="none" xmlns="http://www.w3.org/2000/svg">
<rect width="48" height="48" rx="24" fill="#4B4C61" fill-opacity="0.6"/>
<path d="M18.49 32.2523L18.492 32.2529C18.674 32.302 18.8616 32.3271 19.0502 32.3276H19.0516C19.4255 32.3261 19.7924 32.2266 20.1158 32.039L18.49 32.2523ZM18.49 32.2523C17.9512 32.1092 17.4908 31.759 17.2091 31.2779L17.2 31.2625M18.49 32.2523L17.2 31.2625M17.2 31.2625L17.19 31.2478M17.2 31.2625L17.19 31.2478M17.19 31.2478C16.4271 30.1353 15.8262 28.9202 15.4053 27.6387M17.19 31.2478L15.4053 27.6387M16.4033 25.5993L16.4031 25.5995L16.1768 25.729C16.1767 25.7291 16.1766 25.7292 16.1765 25.7292C15.8519 25.916 15.5995 26.2065 15.46 26.554L16.4033 25.5993ZM16.4033 25.5993C16.8933 25.3183 17.4748 25.243 18.0204 25.3898L16.4033 25.5993ZM15.8808 27.4873L15.8774 27.475C15.809 27.2259 15.8259 26.961 15.9255 26.7226L15.8808 27.4873ZM15.8808 27.4873L15.8848 27.4994M15.8808 27.4873L15.8848 27.4994M15.8848 27.4994C16.296 28.744 16.8827 29.9236 17.627 31.0025L17.627 31.0026M15.8848 27.4994L17.627 31.0026M17.627 31.0026L17.6298 31.0065M17.627 31.0026L17.6298 31.0065M17.6298 31.0065L17.6315 31.0095C17.7388 31.1954 17.8816 31.3581 18.0515 31.4886L18.0517 31.4887C18.2219 31.6194 18.4161 31.715 18.623 31.7706L18.6233 31.7707C18.8305 31.8262 19.0465 31.8403 19.259 31.8123C19.4715 31.7844 19.6766 31.7149 19.8625 31.6076C19.8625 31.6076 19.8625 31.6076 19.8626 31.6076L19.6126 31.1746C19.7415 31.1002 19.8545 31.0011 19.9451 30.8831C20.0357 30.765 20.1022 30.6303 20.1407 30.4865M17.6298 31.0065L20.6236 30.616L20.1407 30.4865M20.1407 30.4865C20.1792 30.3428 20.1891 30.1929 20.1697 30.0453L20.1407 30.4865ZM17.7576 26.3546C17.9013 26.3927 18.0361 26.459 18.1541 26.5496L20.6237 30.6159C20.6792 30.4087 20.6933 30.1927 20.6654 29.9801L20.6654 29.9801C20.6374 29.7675 20.5679 29.5624 20.4606 29.3766L18.8786 26.6344L18.4446 26.8826L18.8777 26.6327L18.8781 26.6335C18.7715 26.4473 18.629 26.2841 18.4589 26.1532L18.4587 26.1531C18.2883 26.0222 18.0937 25.9264 17.886 25.8714M17.7576 26.3546L17.8864 25.8715C17.8862 25.8714 17.8861 25.8714 17.886 25.8714M17.7576 26.3546L17.8857 25.8713C17.8858 25.8713 17.8859 25.8713 17.886 25.8714M17.7576 26.3546L16.6489 26.0328M17.886 25.8714C17.7496 25.835 17.6092 25.8163 17.4681 25.8156V25.8156H17.4656H17.4616C17.1763 25.8156 16.896 25.8906 16.6489 26.0328M16.6489 26.0328L16.4251 26.1606C16.2007 26.287 16.0248 26.4847 15.9255 26.7226L16.6489 26.0328ZM16.6489 26.0328L16.6498 26.0323L16.8976 26.4666L16.6478 26.0334C16.6482 26.0332 16.6485 26.033 16.6489 26.0328ZM15.4053 27.6387C15.3021 27.2813 15.3213 26.8995 15.46 26.5541L15.4053 27.6387ZM18.0204 25.3898C18.5658 25.5367 19.0307 25.8936 19.3135 26.3824C19.3135 26.3824 19.3135 26.3825 19.3135 26.3825C19.3136 26.3826 19.3137 26.3827 19.3137 26.3828L20.8961 29.1258C20.8961 29.1259 20.8962 29.126 20.8963 29.1261C21.0825 29.4503 21.1805 29.8178 21.1803 30.1919C21.1801 30.566 21.0816 30.9335 20.8948 31.2576C20.708 31.5818 20.4394 31.8512 20.1158 32.039L18.0204 25.3898Z" fill="white" stroke="white"/>
<path d="M29.4498 32.8281C28.9877 32.8273 28.534 32.705 28.1341 32.4734C27.7343 32.2418 27.4024 31.9091 27.1718 31.5086C26.9412 31.1082 26.82 30.6542 26.8203 30.1921C26.8207 29.73 26.9426 29.2762 27.1738 28.8761L28.7558 26.1331C29.1061 25.5287 29.6816 25.0877 30.3563 24.9066C31.031 24.7256 31.75 24.8193 32.3558 25.1671L32.5768 25.2941C33.0025 25.5339 33.3336 25.9118 33.5154 26.3652C33.6973 26.8187 33.7189 27.3207 33.5768 27.7881C33.1401 29.1169 32.5172 30.3771 31.7268 31.5311C31.3778 32.1263 30.8077 32.5594 30.1408 32.7361C29.9155 32.797 29.6832 32.8279 29.4498 32.8281ZM31.0388 26.3171C30.8395 26.3167 30.6436 26.3687 30.4709 26.4681C30.2981 26.5675 30.1546 26.7106 30.0548 26.8831L28.4728 29.6271C28.3985 29.756 28.3502 29.8983 28.3309 30.0458C28.3116 30.1933 28.3215 30.3432 28.36 30.4869C28.438 30.7771 28.628 31.0245 28.8883 31.1746C29.1486 31.3247 29.4579 31.3653 29.7481 31.2873C30.0383 31.2094 30.2857 31.0194 30.4358 30.7591C30.4438 30.7461 30.4518 30.7321 30.4608 30.7191C31.1774 29.6792 31.7427 28.5429 32.1398 27.3441C32.1787 27.2015 32.1686 27.05 32.1111 26.9138C32.0536 26.7776 31.9521 26.6647 31.8228 26.5931L31.6038 26.4681C31.4325 26.3696 31.2384 26.3176 31.0408 26.3171H31.0388Z" fill="white"/>
<path d="M32.477 29.3225C32.352 29.3223 32.2291 29.291 32.1193 29.2314C32.0095 29.1717 31.9163 29.0856 31.8481 28.9809C31.78 28.8761 31.7391 28.756 31.7291 28.6314C31.7192 28.5068 31.7404 28.3817 31.791 28.2674C32.2604 27.2156 32.502 26.0763 32.5 24.9245C32.5 22.7364 31.6308 20.638 30.0836 19.0908C28.5365 17.5437 26.4381 16.6745 24.25 16.6745C22.062 16.6745 19.9636 17.5437 18.4164 19.0908C16.8692 20.638 16 22.7364 16 24.9245C15.9975 25.9266 16.1799 26.9205 16.538 27.8565C16.5764 27.949 16.5959 28.0483 16.5952 28.1485C16.5946 28.2487 16.5739 28.3477 16.5344 28.4398C16.4948 28.5318 16.4373 28.6151 16.365 28.6845C16.2928 28.7539 16.2074 28.8082 16.1139 28.8441C16.0203 28.88 15.9205 28.8967 15.8204 28.8934C15.7203 28.8901 15.6218 28.8667 15.5308 28.8247C15.4399 28.7827 15.3583 28.7229 15.2908 28.6489C15.2233 28.5748 15.1714 28.4879 15.138 28.3935C14.7139 27.2862 14.4976 26.1102 14.5 24.9245C14.4996 23.4724 14.8236 22.0386 15.4482 20.7278C16.0728 19.417 16.9823 18.2622 18.1103 17.3478C19.2383 16.4335 20.5562 15.7826 21.9679 15.4427C23.3796 15.1028 24.8494 15.0826 26.2699 15.3834C27.6905 15.6842 29.0259 16.2985 30.1786 17.1815C31.3314 18.0644 32.2724 19.1937 32.9329 20.4868C33.5934 21.7799 33.9567 23.2042 33.9964 24.6557C34.036 26.1072 33.751 27.5492 33.162 28.8765C33.1032 29.0091 33.0072 29.1218 32.8856 29.201C32.764 29.2801 32.6221 29.3223 32.477 29.3225Z" fill="white"/>
</svg>
