<svg width="25" height="25" viewBox="0 0 25 25" fill="none" xmlns="http://www.w3.org/2000/svg">
<path fill-rule="evenodd" clip-rule="evenodd" d="M12.75 4.25C8.19397 4.25 4.5 7.94319 4.5 12.499C4.5 17.0549 8.19408 20.749 12.75 20.749C17.3059 20.749 21 17.0549 21 12.499C21 7.94319 17.306 4.25 12.75 4.25ZM3 12.499C3 7.11454 7.36576 2.75 12.75 2.75C18.1342 2.75 22.5 7.11454 22.5 12.499C22.5 17.8833 18.1343 22.249 12.75 22.249C7.36565 22.249 3 17.8833 3 12.499Z" fill="#111111"/>
<path fill-rule="evenodd" clip-rule="evenodd" d="M9.86554 9.68856C10.2728 9.25194 10.8413 9.02344 11.4723 9.02344H14.0263C14.6579 9.02344 15.2268 9.25171 15.6341 9.68883C16.0358 10.12 16.2252 10.6943 16.2252 11.2953V13.7024C16.2252 14.3033 16.0358 14.8776 15.6341 15.3088C15.2268 15.7459 14.6579 15.9742 14.0263 15.9742H11.4723C10.8404 15.9742 10.2714 15.746 9.86403 15.3087C9.46234 14.8773 9.27344 14.303 9.27344 13.7024V11.2953C9.27344 10.6936 9.46372 10.1194 9.86554 9.68856ZM10.9625 10.7117C10.8624 10.8189 10.7734 11.0056 10.7734 11.2953V13.7024C10.7734 13.9931 10.8623 14.1796 10.9617 14.2864C11.0555 14.3871 11.2109 14.4742 11.4723 14.4742H14.0263C14.287 14.4742 14.4426 14.3872 14.5367 14.2863C14.6363 14.1793 14.7252 13.9927 14.7252 13.7024V11.2953C14.7252 11.0049 14.6363 10.8183 14.5367 10.7114C14.4426 10.6104 14.287 10.5234 14.0263 10.5234H11.4723C11.213 10.5234 11.0571 10.6102 10.9625 10.7117Z" fill="#111111"/>
</svg>
