<svg width="56" height="56" viewBox="0 0 56 56" xmlns="http://www.w3.org/2000/svg">
<path d="M0 28C0 12.536 12.536 0 28 0C43.464 0 56 12.536 56 28C56 43.464 43.464 56 28 56C12.536 56 0 43.464 0 28Z" stroke="none"/>
<path d="M27.492 18.7891H23.753C20.678 18.7891 18.75 20.9661 18.75 24.0481V32.3621C18.75 35.4441 20.669 37.6211 23.753 37.6211H32.577C35.662 37.6211 37.581 35.4441 37.581 32.3621V28.3341" stroke-width="1.5" stroke-linecap="round" stroke-linejoin="round"/>
<path fill-rule="evenodd" clip-rule="evenodd" d="M24.8276 26.9205L32.3006 19.4475C33.2316 18.5175 34.7406 18.5175 35.6716 19.4475L36.8886 20.6645C37.8196 21.5955 37.8196 23.1055 36.8886 24.0355L29.3796 31.5445C28.9726 31.9515 28.4206 32.1805 27.8446 32.1805H24.0986L24.1926 28.4005C24.2066 27.8445 24.4336 27.3145 24.8276 26.9205Z" stroke-width="1.5" stroke-linecap="round" stroke-linejoin="round"/>
<path d="M31.165 20.6016L35.731 25.1676" stroke-width="1.5" stroke-linecap="round" stroke-linejoin="round"/>
</svg>
