<svg width="56" height="56" viewBox="0 0 56 56" xmlns="http://www.w3.org/2000/svg">
  <path d="M0 28C0 12.536 12.536 0 28 0C43.464 0 56 12.536 56 28C56 43.464 43.464 56 28 56C12.536 56 0 43.464 0 28Z" fill="rgba(255,255,255,0.6)"/>
  <path d="M23.0496 36.8276C22.8172 36.8271 22.5859 36.7962 22.3616 36.7356C21.6953 36.5586 21.126 36.1255 20.7776 35.5306C19.9863 34.3767 19.3634 33.1161 18.9276 31.7866C18.7905 31.3194 18.8146 30.8197 18.996 30.3678C19.1774 29.916 19.5055 29.5383 19.9276 29.2956L20.1546 29.1656C20.7594 28.8187 21.4771 28.7258 22.1504 28.907C22.8236 29.0883 23.3976 29.529 23.7466 30.1326L25.3296 32.8766C25.5596 33.2768 25.6805 33.7305 25.6803 34.1922C25.68 34.6538 25.5586 35.1073 25.328 35.5073C25.0975 35.9073 24.766 36.2398 24.3667 36.4715C23.9674 36.7031 23.5143 36.8259 23.0526 36.8276H23.0496ZM21.4616 30.3156C21.2636 30.3156 21.0691 30.3677 20.8976 30.4666L20.6716 30.5956C20.5436 30.6674 20.4434 30.7799 20.3869 30.9153C20.3303 31.0507 20.3207 31.2011 20.3596 31.3426C20.7558 32.542 21.3212 33.6788 22.0386 34.7186C22.048 34.7318 22.0566 34.7455 22.0646 34.7596C22.139 34.8885 22.238 35.0014 22.3561 35.0921C22.4741 35.1827 22.6089 35.2491 22.7526 35.2877C22.8964 35.3262 23.0463 35.336 23.1939 35.3166C23.3414 35.2972 23.4837 35.249 23.6126 35.1746C23.7415 35.1002 23.8545 35.0011 23.9451 34.8831C24.0357 34.765 24.1022 34.6303 24.1407 34.4865C24.1792 34.3428 24.1891 34.1929 24.1697 34.0453C24.1503 33.8978 24.102 33.7555 24.0276 33.6266L22.4446 30.8826C22.3708 30.7535 22.272 30.6403 22.1541 30.5496C22.0361 30.459 21.9013 30.3927 21.7576 30.3546C21.6623 30.3292 21.5642 30.3161 21.4656 30.3156H21.4616Z" fill="#1D1D1D"/>
  <path d="M33.4498 36.8281C32.9877 36.8273 32.534 36.705 32.1341 36.4734C31.7343 36.2418 31.4024 35.9091 31.1718 35.5086C30.9412 35.1082 30.82 34.6542 30.8203 34.1921C30.8207 33.73 30.9426 33.2762 31.1738 32.8761L32.7558 30.1331C33.1061 29.5287 33.6816 29.0877 34.3563 28.9066C35.031 28.7256 35.75 28.8193 36.3558 29.1671L36.5768 29.2941C37.0025 29.5339 37.3336 29.9118 37.5154 30.3652C37.6973 30.8187 37.7189 31.3207 37.5768 31.7881C37.1401 33.1169 36.5172 34.3771 35.7268 35.5311C35.3778 36.1263 34.8077 36.5594 34.1408 36.7361C33.9155 36.797 33.6832 36.8279 33.4498 36.8281Z" fill="#1D1D1D"/>
  <path d="M36.477 33.3225C36.352 33.3223 36.2291 33.291 36.1193 33.2314C36.0095 33.1717 35.9163 33.0856 35.8481 32.9809C35.78 32.8761 35.7391 32.756 35.7291 32.6314C35.7192 32.5068 35.7404 32.3817 35.791 32.2674C36.2604 31.2156 36.502 30.0763 36.5 28.9245C36.5 26.7364 35.6308 24.638 34.0836 23.0908C32.5365 21.5437 30.4381 20.6745 28.25 20.6745C26.062 20.6745 23.9636 21.5437 22.4164 23.0908C20.8692 24.638 20 26.7364 20 28.9245C19.9975 29.9266 20.1799 30.9205 20.538 31.8565C20.5764 31.949 20.5959 32.0483 20.5952 32.1485C20.5946 32.2487 20.5739 32.3477 20.5344 32.4398C20.4948 32.5318 20.4373 32.6151 20.365 32.6845C20.2928 32.7539 20.2074 32.8082 20.1139 32.8441C20.0203 32.88 19.9205 32.8967 19.8204 32.8934C19.7203 32.8901 19.6218 32.8667 19.5308 32.8247C19.4399 32.7827 19.3583 32.7229 19.2908 32.6489C19.2233 32.5748 19.1714 32.4879 19.138 32.3935C18.7139 31.2862 18.4976 30.1102 18.5 28.9245C18.4996 27.4724 18.8236 26.0386 19.4482 24.7278C20.0728 23.417 20.9823 22.2622 22.1103 21.3478C23.2383 20.4335 24.5562 19.7826 25.9679 19.4427C27.3796 19.1028 28.8494 19.0826 30.2699 19.3834C31.6905 19.6842 33.0259 20.2985 34.1786 21.1815C35.3314 22.0644 36.2724 23.1937 36.9329 24.4868C37.5934 25.7799 37.9567 27.2042 37.9964 28.6557C38.036 30.1072 37.751 31.5492 37.162 32.8765C37.1032 33.0091 37.0072 33.1218 36.8856 33.201C36.764 33.2801 36.6221 33.3223 36.477 33.3225Z" fill="#1D1D1D"/>
</svg>

