<svg width="22" height="22" viewBox="0 0 22 22" fill="none" xmlns="http://www.w3.org/2000/svg">
<path fill-rule="evenodd" clip-rule="evenodd" d="M19.0723 6.98827L18.5017 5.99819C18.0191 5.16043 16.9493 4.87142 16.1104 5.35212C15.7111 5.58736 15.2346 5.6541 14.786 5.53762C14.3374 5.42114 13.9536 5.13102 13.7191 4.73122C13.5683 4.4771 13.4873 4.18765 13.4842 3.89216C13.4978 3.41841 13.3191 2.95933 12.9887 2.61949C12.6584 2.27965 12.2045 2.088 11.7306 2.0882H10.5811C10.1168 2.0882 9.67157 2.27321 9.34403 2.60233C9.01649 2.93144 8.83361 3.3775 8.83584 3.84182C8.82208 4.80047 8.04097 5.57037 7.08222 5.57027C6.78673 5.5672 6.49728 5.48616 6.24316 5.33534C5.40426 4.85464 4.33455 5.14365 3.85186 5.98141L3.23935 6.98827C2.75724 7.82499 3.04232 8.89401 3.87703 9.37958C4.41961 9.69283 4.75385 10.2718 4.75385 10.8983C4.75385 11.5248 4.41961 12.1037 3.87703 12.417C3.04338 12.8992 2.75799 13.9657 3.23935 14.7999L3.8183 15.7983C4.04446 16.2064 4.42392 16.5076 4.87271 16.6351C5.3215 16.7627 5.80262 16.7061 6.2096 16.478C6.60969 16.2445 7.08645 16.1806 7.53393 16.3003C7.9814 16.4201 8.3625 16.7136 8.59251 17.1157C8.74334 17.3698 8.82438 17.6592 8.82745 17.9547C8.82745 18.9232 9.61257 19.7083 10.5811 19.7083H11.7306C12.6958 19.7083 13.4796 18.9283 13.4842 17.9631C13.482 17.4973 13.666 17.05 13.9953 16.7206C14.3247 16.3913 14.772 16.2072 15.2378 16.2095C15.5326 16.2174 15.8209 16.2981 16.0769 16.4444C16.9136 16.9265 17.9826 16.6414 18.4682 15.8067L19.0723 14.7999C19.3061 14.3985 19.3703 13.9205 19.2506 13.4716C19.1309 13.0228 18.8373 12.6402 18.4346 12.4086C18.032 12.1769 17.7383 11.7943 17.6186 11.3455C17.4989 10.8967 17.5631 10.4186 17.7969 10.0173C17.949 9.75177 18.1691 9.53164 18.4346 9.37958C19.2643 8.89428 19.5487 7.83149 19.0723 6.99666V6.98827Z" stroke="#111111" stroke-width="1.5" stroke-linecap="round" stroke-linejoin="round"/>
<path d="M11.1596 13.3148C12.4942 13.3148 13.5761 12.2329 13.5761 10.8983C13.5761 9.5637 12.4942 8.48181 11.1596 8.48181C9.82506 8.48181 8.74316 9.5637 8.74316 10.8983C8.74316 12.2329 9.82506 13.3148 11.1596 13.3148Z" stroke="#111111" stroke-width="1.5" stroke-linecap="round" stroke-linejoin="round"/>
</svg>
