<svg width="40" height="24" viewBox="0 0 40 24" xmlns="http://www.w3.org/2000/svg">
<mask id="mask0_1673_182068" style="mask-type:luminance" maskUnits="userSpaceOnUse" x="0" y="0" width="40" height="24">
<path d="M0.5 23.5V0.5H39.5V23.5H0.5Z"/>
</mask>
<g mask="url(#mask0_1673_182068)">
<path d="M20.9031 1.5053L20.7571 0.5H21.4788L21.8066 2.01429H20.977L20.9031 1.5053ZM20.4355 0.5L19.9714 1.334L19.5928 2.01429H18.7164L19.6451 0.5H20.4355Z"/>
<path d="M18.3373 3.69922L18.2293 3.88526L17.7931 4.63636H18.6616H19.9995H20.5774L20.4943 4.06452L20.4413 3.69922H21.3393L21.8331 6.05922H20.8128L20.7429 5.61329L20.6767 5.19067H20.2489H17.8H17.5039L17.3615 5.4503L17.0277 6.05922H15.9903L17.4237 3.69922H18.3373Z"/>
<path d="M28.1065 5.68629L28.1065 5.6863C27.5226 5.92983 26.8198 6.05922 25.986 6.05922H23.7403L24.2181 3.69922H25.2864L25.0648 4.8162L24.9462 5.4135H25.5552H26.3715C27.0041 5.4135 27.5533 5.25199 28.0006 4.89129C28.3902 4.57715 28.6019 4.17153 28.6651 3.69922H29.7765C29.7136 4.06692 29.5792 4.38667 29.3814 4.67908C29.0997 5.09564 28.6805 5.44693 28.1065 5.68629Z"/>
<path d="M26.7578 1.64513H27.5968C28.0276 1.64513 28.3451 1.73656 28.5492 1.89656C28.7079 2.03371 28.8213 2.23942 28.844 2.51371H30.9982C30.9982 2.51371 30.9982 2.51371 30.9982 2.49085C30.9982 1.66799 30.726 1.05085 30.2045 0.616562C29.683 0.205134 28.912 -0.0234375 27.8689 -0.0234375H25.0118L24.4902 2.51371H26.5537L26.7578 1.64513Z"/>
<path d="M34.127 4.45636L35.1701 3.19922H31.542L32.0409 4.36493L31.5873 6.55922H33.6962L34.127 4.45636Z"/>
<path d="M35.8508 2.51429L37.9823 0H35.7147L34.0594 2.08L33.2657 0H31.0889L32.2226 2.51429H35.8508Z"/>
<path d="M5.89606 1.46285H6.80311C7.0979 1.46285 7.32464 1.50857 7.43803 1.57714C7.57409 1.64571 7.61943 1.78286 7.61943 1.96572C7.61943 2.24 7.48337 2.42286 7.21124 2.51429H9.50152C9.56953 2.30857 9.61491 2.08 9.61491 1.82857C9.61491 1.25714 9.4108 0.8 8.97999 0.48C8.54914 0.16 7.98223 0 7.25663 0H4.17271L3.87793 1.46285H5.89606Z"/>
<path d="M16.3497 0H11.0889L10.7715 1.48572H16.0549L16.3497 0Z"/>
<path d="M13.4011 2.74188L13.4691 2.42188H10.6346L10.5666 2.74188L10.3398 3.88474H13.1743L13.4011 2.74188Z"/>
<path d="M14.8523 5.07422H9.50085L9.20605 6.55997H14.5575L14.8523 5.07422Z"/>
<path d="M11.9955 13.3717H9.04759L9.38772 11.7031H7.27889L6.59863 15.0631H11.6553L11.9955 13.3717Z"/>
<path d="M7.95898 11.0162H10.0678L10.5667 8.50195H8.48051L7.95898 11.0162Z"/>
<path d="M15.0343 14.1945H17.4606L17.6194 15.0631H19.6829L18.9573 11.7031H17.0978L17.2339 12.6402H15.8961L16.4176 11.7031H14.3768L12.3359 15.0631H14.5582L15.0343 14.1945Z"/>
<path d="M16.5986 8.50195L15.0566 11.0162H17.0975L17.619 10.0791L17.7778 11.0162H19.6371L19.1156 8.50195H16.5986Z"/>
<path d="M21.293 12.8688L20.8395 15.0631H22.9484L23.3792 12.9602L24.4223 11.7031H20.7715L21.293 12.8688Z"/>
<path d="M24.9667 8.50195L23.3114 10.582L22.5177 8.50195H20.3408L21.4519 11.0162H25.1027L27.2342 8.50195H24.9667Z"/>
<path d="M4.37679 9.87325C4.67157 9.87325 4.89833 9.91895 5.0117 9.98755C5.14776 10.0561 5.1931 10.1704 5.1931 10.3532C5.1931 10.7875 4.87565 10.9932 4.21806 11.0161H7.07519C7.18859 10.7647 7.23392 10.4675 7.23392 10.1475C7.23392 9.55325 7.02986 9.0961 6.64434 8.79895C6.2362 8.5018 5.64662 8.3418 4.85298 8.3418H1.92781L1.61035 9.87325H3.62849H4.37679Z"/>
<path d="M6.41721 11.7031H3.56009C3.53742 11.7031 3.49206 11.7031 3.46939 11.7031H2.97052H2.74376H0.702946L0 15.0631H2.01814L2.40363 13.2574H3.28798C4.30839 13.2574 5.10203 13.0517 5.69162 12.6174C6.03175 12.366 6.25848 12.0688 6.41721 11.7031Z"/>
<path d="M4.62586 4.63864H5.6236L6.39458 6.58148H8.6168L7.5737 4.31864C8.00455 4.13578 8.34468 3.88436 8.57142 3.56436C8.66214 3.45007 8.73015 3.31293 8.77553 3.17578H6.12246C6.0544 3.17578 5.96373 3.17578 5.89567 3.17578H5.21542H4.92064H2.94785L2.26758 6.55863H4.21769L4.62586 4.63864Z"/>
<path d="M33.2423 8.52539H27.9589L27.6641 10.0111H32.9248L33.2423 8.52539Z"/>
<path d="M27.2109 12.5019H30.0454L30.3175 11.0391H27.4831L27.2109 12.5019Z"/>
<path d="M26.0996 15.0853H31.451L31.7458 13.5996H26.3944L26.0996 15.0853Z"/>
<path d="M39.3657 8.98195C38.9349 8.66195 38.368 8.50195 37.6424 8.50195H34.5585L34.2637 9.9648H36.2818H37.1889C37.4837 9.9648 37.7104 10.0105 37.8238 10.0791C37.9599 10.1477 38.0052 10.2848 38.0052 10.4677C38.0052 10.742 37.8691 10.9248 37.597 11.0162H39.8873C39.9553 10.8105 40.0006 10.582 40.0006 10.3305C40.0006 9.7591 39.7739 9.30195 39.3657 8.98195Z"/>
<path d="M38.9572 12.0448C39.0479 11.9305 39.1159 11.7934 39.1613 11.6562H36.5082C36.4402 11.6562 36.3495 11.6562 36.2814 11.6562H35.6011H35.3064H33.3336L32.6533 15.062H34.6034L35.0116 13.1191H36.0093L36.7803 15.062H39.0025L37.9594 12.7991C38.3903 12.6163 38.7304 12.3648 38.9572 12.0448Z"/>
<path d="M14.3984 18.948H19.6592L19.9767 17.4395H14.6932L14.3984 18.948Z"/>
<path d="M17.0521 19.9531H14.2176L13.9229 21.416H16.7573L17.0521 19.9531Z"/>
<path d="M12.835 23.9994H18.1638L18.4812 22.5137H13.1298L12.835 23.9994Z"/>
<path d="M5.60059 19.9538H8.97926L8.38972 17.4395H6.12211L5.60059 19.9538Z"/>
<path d="M13.832 17.4395H11.4283L9.81836 19.9538H13.3331L13.832 17.4395Z"/>
<path d="M8.52597 21.6215L8.29918 20.6387H4.92051L4.24023 23.9987H6.1223L6.71188 21.1644L7.32413 23.9987H8.84343L10.6348 21.0958L10.0452 23.9987H11.9726L12.653 20.6387H9.13817L8.52597 21.6215Z"/>
</g>
</svg>
