<svg width="64" height="64" viewBox="0 0 64 64" fill="none" xmlns="http://www.w3.org/2000/svg">
<g clip-path="url(#clip0_419_54133)">
<path d="M13 56L7.99 51H13V56ZM51 56L56.01 51H51V56Z" fill="#108C57"/>
<path d="M51 13H43.01V5.01001L51 13Z" fill="#B2B2B2"/>
<path d="M43 5H14.59C14.1683 5 13.7639 5.16752 13.4657 5.4657C13.1675 5.76388 13 6.16831 13 6.59V57.59C13 58.0126 13.1672 58.4181 13.4651 58.7178C13.763 59.0176 14.1674 59.1874 14.59 59.19H49.41C49.6235 59.1888 49.8347 59.1448 50.031 59.0607C50.2273 58.9766 50.4047 58.854 50.5529 58.7003C50.7011 58.5465 50.817 58.3646 50.8938 58.1653C50.9706 57.9661 51.0067 57.7534 51 57.54V13H43V5Z" fill="#F1F1F1"/>
<path d="M9 33H55C55.2652 33 55.5196 33.1054 55.7071 33.2929C55.8946 33.4804 56 33.7348 56 34V51H8V34C8 33.7348 8.10536 33.4804 8.29289 33.2929C8.48043 33.1054 8.73478 33 9 33Z" fill="#95CBA3"/>
<path d="M27.36 46L25.63 43.46L24.15 46H21.89L24.5 41.79L21.81 37.79H24.15L25.83 40.26L27.28 37.79H29.53L27 41.94L29.7 46H27.36ZM32.45 44.49H35.08V46H30.47V37.82H32.47L32.45 44.49ZM41.54 44.89C41.2966 45.2696 40.9496 45.5715 40.54 45.76C40.0512 45.9841 39.5176 46.0936 38.98 46.08C38.1731 46.1143 37.3778 45.8785 36.72 45.41C36.4212 45.1957 36.1756 44.9157 36.0023 44.5915C35.8289 44.2672 35.7323 43.9075 35.72 43.54H37.82C37.8353 43.8159 37.953 44.0762 38.15 44.27C38.2471 44.3585 38.3606 44.427 38.4841 44.4716C38.6077 44.5163 38.7388 44.5361 38.87 44.53C38.979 44.5373 39.0884 44.5224 39.1915 44.4863C39.2946 44.4503 39.3893 44.3937 39.47 44.32C39.5441 44.2496 39.6021 44.164 39.6401 44.0691C39.6781 43.9741 39.6951 43.8721 39.69 43.77C39.6946 43.6742 39.6793 43.5785 39.6448 43.4889C39.6104 43.3994 39.5577 43.318 39.49 43.25C39.3478 43.1043 39.1778 42.9887 38.99 42.91C38.79 42.82 38.51 42.71 38.15 42.59C37.7564 42.4403 37.3724 42.2666 37 42.07C36.6594 41.898 36.3673 41.6436 36.15 41.33C35.9027 40.954 35.7802 40.5096 35.8 40.06C35.7909 39.612 35.9201 39.172 36.17 38.8C36.4197 38.4382 36.7663 38.154 37.17 37.98C37.6418 37.784 38.1493 37.6886 38.66 37.7C39.4374 37.6539 40.206 37.8841 40.83 38.35C41.0983 38.5661 41.318 38.8363 41.4748 39.143C41.6316 39.4497 41.722 39.786 41.74 40.13H39.58C39.5519 39.8888 39.4507 39.662 39.29 39.48C39.1113 39.322 38.8783 39.2395 38.64 39.25C38.4377 39.2406 38.2389 39.3045 38.08 39.43C38.0077 39.5013 37.9515 39.5873 37.9153 39.6822C37.8791 39.7771 37.8636 39.8787 37.87 39.98C37.8662 40.162 37.9345 40.3381 38.06 40.47C38.1998 40.6068 38.3622 40.7185 38.54 40.8L39.37 41.12C39.8107 41.2607 40.2389 41.4379 40.65 41.65C40.9937 41.8259 41.289 42.0834 41.51 42.4C41.7638 42.7847 41.8898 43.2396 41.87 43.7C41.8731 44.1197 41.7588 44.5319 41.54 44.89Z" fill="white"/>
<path d="M17.65 17.62H29.16M17.65 17.62V23.02H29.16V17.62M17.65 17.62V12.22H29.16M29.16 17.62V12.22M29.16 17.62H37.36V12.22H29.16M37.36 28.41H29.16V23.01H37.36V28.41Z" stroke="#95CBA3" stroke-linecap="round" stroke-linejoin="round"/>
<path d="M37.36 23.01H29.16V17.61H37.36V23.01ZM17.65 23.02H29.16V28.42H17.65V23.02ZM37.36 17.62H46.09V23.02H37.36V17.62Z" stroke="#95CBA3" stroke-linecap="round" stroke-linejoin="round"/>
<path d="M37.36 23.02H46.09V28.42H37.36V23.02Z" stroke="#95CBA3" stroke-linecap="round" stroke-linejoin="round"/>
</g>
<defs>
<clipPath id="clip0_419_54133">
<rect width="64" height="64" fill="white"/>
</clipPath>
</defs>
</svg>
