<svg width="64" height="64" viewBox="0 0 64 64" fill="none" xmlns="http://www.w3.org/2000/svg">
<g clip-path="url(#clip0_419_54139)">
<path d="M13 56L7.99001 51H13V56ZM51 56L56.01 51H51V56Z" fill="#C14D33"/>
<path d="M51 13H43.01V5.01001L51 13Z" fill="#B2B2B2"/>
<path d="M43 5H14.59C14.1683 5 13.7639 5.16752 13.4657 5.4657C13.1675 5.76388 13 6.16831 13 6.59V57.59C13 58.0126 13.1672 58.4181 13.4651 58.7178C13.763 59.0176 14.1674 59.1874 14.59 59.19H49.41C49.6235 59.1888 49.8347 59.1448 50.031 59.0607C50.2273 58.9766 50.4047 58.854 50.5529 58.7003C50.7011 58.5465 50.817 58.3646 50.8938 58.1653C50.9706 57.9661 51.0067 57.7534 51 57.54V13H43V5Z" fill="#F1F1F1"/>
<path d="M9 33H55C55.2652 33 55.5196 33.1054 55.7071 33.2929C55.8946 33.4804 56 33.7348 56 34V51H8V34C8 33.7348 8.10536 33.4804 8.29289 33.2929C8.48043 33.1054 8.73478 33 9 33Z" fill="#EA6F41"/>
<path d="M24.15 43.13V46H22.15V37.82H25.36C26.1638 37.7649 26.9572 38.027 27.57 38.55C27.8358 38.8075 28.0423 39.1198 28.1753 39.4652C28.3083 39.8106 28.3645 40.1807 28.34 40.55C28.3367 41.0049 28.2199 41.4518 28 41.85C27.7657 42.2544 27.4181 42.5812 27 42.79C26.4951 43.0316 25.9394 43.1482 25.38 43.13H24.15ZM26.35 40.5C26.35 39.78 25.95 39.42 25.15 39.42H24.15V41.55H25.15C25.95 41.55 26.35 41.2 26.35 40.5ZM31.31 43.13V46H29.31V37.82H32.51C33.3166 37.7666 34.1125 38.0283 34.73 38.55C34.9958 38.8075 35.2023 39.1198 35.3353 39.4652C35.4683 39.8106 35.5245 40.1807 35.5 40.55C35.5064 41.0233 35.3856 41.4895 35.15 41.9C34.9196 42.3074 34.5709 42.6352 34.15 42.84C33.6414 43.0813 33.0826 43.1979 32.52 43.18L31.31 43.13ZM33.5 40.5C33.5 39.78 33.11 39.42 32.31 39.42H31.31V41.55H32.31C33.11 41.55 33.5 41.2 33.5 40.5ZM42.36 37.82V39.4H40.14V46H38.14V39.4H36V37.82H42.36Z" fill="white"/>
<path d="M32 13.22V16.35M27.01 25.63L25.02 29.28M36.99 25.63L38.98 29.28M21.91 16.35H42.08V25.63H21.91V16.35Z" stroke="#EA6F41" stroke-linecap="round" stroke-linejoin="round"/>
</g>
<defs>
<clipPath id="clip0_419_54139">
<rect width="64" height="64" fill="white"/>
</clipPath>
</defs>
</svg>
