<svg width="64" height="64" viewBox="0 0 64 64" fill="none" xmlns="http://www.w3.org/2000/svg">
<g clip-path="url(#clip0_419_54130)">
<path d="M13 56L7.99001 51H13V56ZM51 56L56.01 51H51V56Z" fill="#0D725A"/>
<path d="M51 13H43.01V5.01001L51 13Z" fill="#B2B2B2"/>
<path d="M43 5H14.59C14.1683 5 13.7639 5.16752 13.4657 5.4657C13.1675 5.76388 13 6.16831 13 6.59V57.59C13 58.0126 13.1672 58.4181 13.4651 58.7178C13.763 59.0176 14.1674 59.1874 14.59 59.19H49.41C49.6235 59.1888 49.8347 59.1448 50.031 59.0607C50.2273 58.9766 50.4047 58.854 50.5529 58.7003C50.7011 58.5465 50.817 58.3646 50.8938 58.1653C50.9706 57.9661 51.0067 57.7534 51 57.54V13H43V5Z" fill="#F1F1F1"/>
<path d="M32.29 28.01L24.86 20.42L17.43 28.01H32.29Z" stroke="#2A9F85" stroke-linecap="round" stroke-linejoin="round"/>
<path d="M29.08 24.73L36.29 17.39L46.49 28.01H32.29L29.08 24.73Z" stroke="#2A9F85" stroke-linecap="round" stroke-linejoin="round"/>
<path d="M25.52 16.6C26.7903 16.6 27.82 15.5703 27.82 14.3C27.82 13.0297 26.7903 12 25.52 12C24.2497 12 23.22 13.0297 23.22 14.3C23.22 15.5703 24.2497 16.6 25.52 16.6Z" stroke="#2A9F85" stroke-linecap="round" stroke-linejoin="round"/>
<path d="M9 33H55C55.2652 33 55.5196 33.1054 55.7071 33.2929C55.8946 33.4804 56 33.7348 56 34V51H8V34C8 33.7348 8.10536 33.4804 8.29289 33.2929C8.48043 33.1054 8.73478 33 9 33Z" fill="#2A9F85"/>
<path d="M26.57 37.82V43.41C26.5942 43.7733 26.5447 44.1378 26.4244 44.4815C26.3041 44.8252 26.1155 45.141 25.87 45.41C25.6087 45.6481 25.3026 45.8318 24.9695 45.9503C24.6364 46.0688 24.283 46.1197 23.93 46.1C23.5424 46.1202 23.1546 46.0634 22.789 45.933C22.4234 45.8025 22.0873 45.601 21.8 45.34C21.5206 45.0494 21.3051 44.7035 21.1673 44.3246C21.0295 43.9457 20.9725 43.5422 21 43.14H23C23 43.91 23.29 44.29 23.87 44.29C24.45 44.29 24.62 44 24.62 43.41V37.82H26.57ZM29.85 43.13V46H27.85V37.82H31.06C31.8638 37.7649 32.6572 38.027 33.27 38.55C33.5358 38.8075 33.7423 39.1198 33.8753 39.4652C34.0083 39.8105 34.0645 40.1807 34.04 40.55C34.05 41.0224 33.9325 41.4887 33.7 41.9C33.4644 42.3033 33.1171 42.6297 32.7 42.84C32.1911 43.0802 31.6325 43.1967 31.07 43.18L29.85 43.13ZM32.05 40.5C32.05 39.78 31.65 39.42 30.86 39.42H29.86V41.55H30.86C31.65 41.55 32.05 41.2 32.05 40.5ZM41.39 38.5C42.0401 38.987 42.4829 39.7011 42.63 40.5H40.53C40.393 40.2101 40.1739 39.9667 39.9 39.8C39.5952 39.6272 39.2504 39.5376 38.9 39.54C38.6189 39.5274 38.3386 39.5774 38.0792 39.6863C37.8198 39.7953 37.5878 39.9605 37.4 40.17C36.9996 40.6468 36.7958 41.2583 36.83 41.88C36.7877 42.5305 36.9992 43.1721 37.42 43.67C37.6447 43.8859 37.9119 44.0525 38.2046 44.1593C38.4973 44.266 38.8091 44.3106 39.12 44.29C39.5729 44.3049 40.0174 44.1656 40.3807 43.8949C40.7441 43.6242 41.0047 43.2382 41.12 42.8H38.62V41.41H42.77V43.41C42.6111 43.9132 42.352 44.3791 42.0083 44.7795C41.6646 45.18 41.2434 45.5067 40.77 45.74C40.2026 46.0002 39.5841 46.1301 38.96 46.12C38.2059 46.1363 37.4609 45.9535 36.8 45.59C36.1891 45.2513 35.6917 44.74 35.37 44.12C35.0293 43.4517 34.8577 42.71 34.87 41.96C34.8589 41.2069 35.0304 40.4623 35.37 39.79C35.6909 39.1727 36.1842 38.662 36.79 38.32C37.4478 37.9578 38.1893 37.775 38.94 37.79C39.8123 37.7529 40.6727 38.0023 41.39 38.5Z" fill="white"/>
</g>
<defs>
<clipPath id="clip0_419_54130">
<rect width="64" height="64" fill="white"/>
</clipPath>
</defs>
</svg>
