<svg width="64" height="64" viewBox="0 0 64 64" fill="none" xmlns="http://www.w3.org/2000/svg">
<g clip-path="url(#clip0_419_54132)">
<path d="M13 56L7.99 51H13V56ZM51 56L56.01 51H51V56Z" fill="#1D80B2"/>
<path d="M51 13H43.01V5.01001L51 13Z" fill="#B2B2B2"/>
<path d="M43 5H14.59C14.1683 5 13.7639 5.16752 13.4657 5.4657C13.1675 5.76388 13 6.16831 13 6.59V57.59C13 58.0126 13.1672 58.4181 13.4651 58.7178C13.763 59.0176 14.1674 59.1874 14.59 59.19H49.41C49.6235 59.1888 49.8347 59.1448 50.031 59.0607C50.2273 58.9766 50.4047 58.854 50.5529 58.7003C50.7011 58.5465 50.817 58.3646 50.8938 58.1653C50.9706 57.9661 51.0067 57.7534 51 57.54V13H43V5Z" fill="#F1F1F1"/>
<path d="M9 33H55C55.2652 33 55.5196 33.1054 55.7071 33.2929C55.8946 33.4804 56 33.7348 56 34V51H8V34C8 33.7348 8.10536 33.4804 8.29289 33.2929C8.48043 33.1054 8.73478 33 9 33Z" fill="#2598DE"/>
<path d="M26.35 44C26.0053 44.6148 25.4917 45.118 24.87 45.45C24.1654 45.8111 23.3815 45.9898 22.59 45.97H19.51V37.82H22.59C23.3804 37.7996 24.1636 37.9748 24.87 38.33C25.4934 38.6552 26.0079 39.1558 26.35 39.77C26.701 40.4241 26.8767 41.1579 26.86 41.9C26.8689 42.6317 26.6935 43.3539 26.35 44ZM24.22 43.59C24.6338 43.1106 24.8615 42.4984 24.8615 41.865C24.8615 41.2317 24.6338 40.6195 24.22 40.14C23.7237 39.7077 23.0769 39.4885 22.42 39.53H21.48V44.2H22.42C23.0728 44.2498 23.7191 44.0416 24.22 43.62V43.59ZM34 38.24C34.6219 38.5899 35.1343 39.1058 35.48 39.73C35.8392 40.3886 36.0185 41.1301 36 41.88C36.0091 42.6389 35.8195 43.3871 35.45 44.05C35.1065 44.6658 34.6062 45.1798 34 45.54C33.362 45.8937 32.6445 46.0793 31.915 46.0793C31.1855 46.0793 30.468 45.8937 29.83 45.54C29.2054 45.1903 28.6897 44.6746 28.34 44.05C27.9656 43.389 27.7756 42.6396 27.79 41.88C27.7758 41.1268 27.9658 40.3838 28.34 39.73C28.6867 39.1032 29.2031 38.5867 29.83 38.24C30.4713 37.8855 31.1922 37.6995 31.925 37.6995C32.6578 37.6995 33.3787 37.8855 34.02 38.24H34ZM30.35 40.17C29.98 40.6633 29.78 41.2634 29.78 41.88C29.78 42.4967 29.98 43.0967 30.35 43.59C30.5466 43.8025 30.7871 43.9698 31.0547 44.0803C31.3223 44.1908 31.6107 44.2419 31.9 44.23C32.1865 44.2431 32.4723 44.1924 32.7368 44.0818C33.0014 43.9711 33.2381 43.8031 33.43 43.59C33.834 43.1152 34.0383 42.5023 34 41.88C34.0302 41.2588 33.8269 40.6488 33.43 40.17C33.0171 39.7663 32.4625 39.5402 31.885 39.5402C31.3075 39.5402 30.7529 39.7663 30.34 40.17H30.35ZM43.42 38.57C44.1175 39.1246 44.5901 39.9134 44.75 40.79H42.66C42.5168 40.4196 42.2616 40.103 41.93 39.8843C41.5984 39.6656 41.2069 39.5558 40.81 39.57C40.5429 39.5598 40.2771 39.6124 40.0339 39.7236C39.7908 39.8347 39.5771 40.0013 39.41 40.21C39.0296 40.6923 38.8377 41.2966 38.87 41.91C38.8373 42.5204 39.0294 43.1216 39.41 43.6C39.5791 43.8057 39.7935 43.9695 40.0363 44.0788C40.2791 44.1881 40.5439 44.2398 40.81 44.23C41.2075 44.2406 41.5986 44.1281 41.9297 43.9079C42.2609 43.6877 42.5159 43.3706 42.66 43H44.75C44.5819 43.8708 44.1107 44.6538 43.42 45.21C42.6828 45.7785 41.7704 46.072 40.84 46.04C40.1084 46.054 39.3865 45.8709 38.75 45.51C38.1523 45.164 37.6665 44.6538 37.35 44.04C37.0173 43.3692 36.8493 42.6287 36.86 41.88C36.8504 41.1282 37.0183 40.3847 37.35 39.71C37.6665 39.0962 38.1523 38.586 38.75 38.24C39.3865 37.8791 40.1084 37.6961 40.84 37.71C41.774 37.6866 42.6868 37.9908 43.42 38.57Z" fill="white"/>
<path d="M17.99 13H37.09M34.88 19.61H46.44M17.99 19.61H31.25M42.71 26.22H46.44M17.99 26.22H37.94" stroke="#2598DE" stroke-linecap="round" stroke-linejoin="round"/>
</g>
<defs>
<clipPath id="clip0_419_54132">
<rect width="64" height="64" fill="white"/>
</clipPath>
</defs>
</svg>
