<svg width="64" height="64" viewBox="0 0 64 64" fill="none" xmlns="http://www.w3.org/2000/svg">
<g clip-path="url(#clip0_419_54137)">
<path d="M13 56L7.99001 51H13V56ZM51 56L56.01 51H51V56Z" fill="#C1487F"/>
<path d="M51 13H43.01V5.01001L51 13Z" fill="#B2B2B2"/>
<path d="M43 5H14.59C14.1683 5 13.7639 5.16752 13.4657 5.4657C13.1675 5.76388 13 6.16831 13 6.59V57.59C13 58.0126 13.1672 58.4181 13.4651 58.7178C13.763 59.0176 14.1674 59.1874 14.59 59.19H49.41C49.6235 59.1888 49.8347 59.1448 50.031 59.0607C50.2273 58.9766 50.4047 58.854 50.5529 58.7003C50.7011 58.5465 50.817 58.3646 50.8938 58.1653C50.9706 57.9661 51.0067 57.7534 51 57.54V13H43V5Z" fill="#F1F1F1"/>
<path d="M9 33H55C55.2652 33 55.5196 33.1054 55.7071 33.2929C55.8946 33.4804 56 33.7348 56 34V51H8V34C8 33.7348 8.10536 33.4804 8.29289 33.2929C8.48043 33.1054 8.73478 33 9 33Z" fill="#EF73A0"/>
<path d="M26.94 38.56C27.6297 39.124 28.0973 39.914 28.26 40.79H26.17C26.0262 40.4271 25.7794 40.1143 25.46 39.89C25.121 39.6707 24.7236 39.5592 24.32 39.57C24.0529 39.5598 23.7871 39.6124 23.5439 39.7236C23.3008 39.8347 23.0871 40.0013 22.92 40.21C22.5432 40.6937 22.3548 41.2978 22.39 41.91C22.3545 42.5191 22.543 43.1202 22.92 43.6C23.0891 43.8057 23.3035 43.9695 23.5463 44.0788C23.7891 44.1881 24.0539 44.2398 24.32 44.23C24.7236 44.2408 25.121 44.1293 25.46 43.91C25.7764 43.6911 26.0229 43.3855 26.17 43.03H28.26C28.0921 43.8984 27.625 44.6805 26.94 45.24C26.2001 45.8107 25.2838 46.1043 24.35 46.07C23.6184 46.0839 22.8965 45.9009 22.26 45.54C21.6628 45.1966 21.1795 44.6855 20.87 44.07C20.5293 43.4017 20.3577 42.66 20.37 41.91C20.3589 41.1569 20.5304 40.4123 20.87 39.74C21.1795 39.1245 21.6628 38.6134 22.26 38.27C22.9898 37.8779 23.8145 37.6973 24.6413 37.7486C25.4681 37.7998 26.2642 38.0808 26.94 38.56ZM34.91 44.89C34.6693 45.2718 34.3215 45.5744 33.91 45.76C33.4251 45.9853 32.8945 46.0949 32.36 46.08C31.5498 46.1158 30.7509 45.88 30.09 45.41C29.7928 45.1941 29.5485 44.9137 29.3753 44.5898C29.2021 44.2659 29.1045 43.907 29.09 43.54H31.19C31.2098 43.8148 31.3268 44.0736 31.52 44.27C31.7213 44.4466 31.9824 44.5396 32.25 44.53C32.4698 44.5413 32.6852 44.4659 32.85 44.32C32.9221 44.2481 32.9788 44.1622 33.0166 44.0676C33.0544 43.9731 33.0726 43.8718 33.07 43.77C33.0747 43.577 33.0028 43.3901 32.87 43.25C32.7221 43.1065 32.5493 42.9913 32.36 42.91C32.16 42.82 31.88 42.71 31.53 42.59C31.0952 42.4462 30.6708 42.2724 30.26 42.07C29.9226 41.8973 29.6338 41.6429 29.42 41.33C29.1688 40.9558 29.046 40.5101 29.07 40.06C29.0562 39.6113 29.1858 39.1699 29.44 38.8C29.6864 38.4351 30.0339 38.1501 30.44 37.98C30.9341 37.7766 31.466 37.6811 32 37.7C32.7772 37.6556 33.5452 37.8856 34.17 38.35C34.4355 38.5678 34.6527 38.8386 34.8077 39.1451C34.9626 39.4516 35.052 39.787 35.07 40.13H33C32.9731 39.8865 32.8678 39.6584 32.7 39.48C32.525 39.3226 32.2952 39.24 32.06 39.25C31.8577 39.2405 31.6589 39.3045 31.5 39.43C31.4242 39.4991 31.3651 39.5845 31.327 39.6798C31.2889 39.775 31.2728 39.8777 31.28 39.98C31.2803 40.1613 31.348 40.3359 31.47 40.47C31.6098 40.6068 31.7722 40.7184 31.95 40.8C32.15 40.88 32.42 40.99 32.79 41.12C33.23 41.2625 33.658 41.4397 34.07 41.65C34.4105 41.8266 34.7024 42.0841 34.92 42.4C35.1738 42.7847 35.2998 43.2396 35.28 43.7C35.2712 44.1236 35.1429 44.5361 34.91 44.89ZM37.87 37.82L39.87 43.98L41.87 37.82H44L41.14 46H38.59L35.75 37.82H37.87Z" fill="white"/>
<path d="M17.65 17.62H29.16M17.65 17.62V23.02H29.16V17.62M17.65 17.62V12.22H29.16M29.16 17.62V12.22M29.16 17.62H37.36V12.22H29.16M37.36 28.41H29.16V23.01H37.36V28.41Z" stroke="#EF73A0" stroke-linecap="round" stroke-linejoin="round"/>
<path d="M37.36 23.01H29.16V17.61H37.36V23.01ZM17.65 23.02H29.16V28.42H17.65V23.02ZM37.36 17.62H46.09V23.02H37.36V17.62Z" stroke="#EF73A0" stroke-linecap="round" stroke-linejoin="round"/>
<path d="M37.36 23.02H46.09V28.42H37.36V23.02Z" stroke="#EF73A0" stroke-linecap="round" stroke-linejoin="round"/>
</g>
<defs>
<clipPath id="clip0_419_54137">
<rect width="64" height="64" fill="white"/>
</clipPath>
</defs>
</svg>
