<svg width="64" height="64" viewBox="0 0 64 64" fill="none" xmlns="http://www.w3.org/2000/svg">
<g clip-path="url(#clip0_419_55681)">
<path d="M13 56L7.99 51H13V56ZM51 56L56.01 51H51V56Z" fill="#A3313A"/>
<path d="M51 13H43.01V5.01001L51 13Z" fill="#B2B2B2"/>
<path d="M43 5H14.59C14.1683 5 13.7639 5.16752 13.4657 5.4657C13.1675 5.76388 13 6.16831 13 6.59V57.59C13 58.0126 13.1672 58.4181 13.4651 58.7178C13.763 59.0176 14.1674 59.1874 14.59 59.19H49.41C49.6235 59.1888 49.8347 59.1448 50.031 59.0607C50.2273 58.9766 50.4047 58.854 50.5529 58.7003C50.7011 58.5465 50.817 58.3646 50.8938 58.1653C50.9706 57.9661 51.0067 57.7534 51 57.54V13H43V5Z" fill="#F1F1F1"/>
<path d="M9 33H55C55.2652 33 55.5196 33.1054 55.7071 33.2929C55.8946 33.4804 56 33.7348 56 34V51H8V34C8 33.7348 8.10536 33.4804 8.29289 33.2929C8.48043 33.1054 8.73478 33 9 33Z" fill="#C84D52"/>
<path d="M23.67 43.13V46H21.67V37.82H24.87C25.677 37.7633 26.4741 38.0254 27.09 38.55C27.3558 38.8075 27.5623 39.1198 27.6953 39.4652C27.8283 39.8105 27.8845 40.1807 27.86 40.55C27.8652 41.0218 27.7481 41.4869 27.52 41.9C27.2857 42.3043 26.9381 42.6311 26.52 42.84C26.0118 43.0824 25.4527 43.199 24.89 43.18L23.67 43.13ZM25.87 40.5C25.87 39.78 25.47 39.42 24.67 39.42H23.67V41.55H24.67C25.47 41.55 25.87 41.2 25.87 40.5ZM35.69 44C35.348 44.6168 34.8337 45.1207 34.21 45.45C33.5089 45.811 32.7283 45.9898 31.94 45.97H28.85V37.82H31.94C32.7272 37.7992 33.5073 37.9744 34.21 38.33C34.8355 38.6522 35.3507 39.1536 35.69 39.77C36.041 40.4241 36.2167 41.1579 36.2 41.9C36.2089 42.6317 36.0335 43.3539 35.69 44ZM33.56 43.59C33.9738 43.1105 34.2015 42.4983 34.2015 41.865C34.2015 41.2316 33.9738 40.6194 33.56 40.14C33.0637 39.7076 32.4169 39.4884 31.76 39.53H30.83V44.2H31.76C32.4128 44.2498 33.0591 44.0415 33.56 43.62V43.59ZM42.66 37.82V39.4H39.3V41.19H41.89V42.69H39.3V46H37.3V37.82H42.66Z" fill="white"/>
<path d="M32.9 10.53C32.9737 11.2231 32.9057 11.924 32.7 12.59C31.81 15.66 28.83 26.85 26.58 28.44C23.37 30.72 21.7 28.13 23.41 26.29C25.12 24.45 35.44 22 38.73 22C43.01 22 42.46 25.79 40.03 25.56C37.29 25.3 30.44 20.63 30.03 11.75C29.85 8.58997 32.59 7.99997 32.9 10.53Z" stroke="#C84D52" stroke-miterlimit="10"/>
</g>
<defs>
<clipPath id="clip0_419_55681">
<rect width="64" height="64" fill="white"/>
</clipPath>
</defs>
</svg>
