<svg width="64" height="64" viewBox="0 0 64 64" fill="none" xmlns="http://www.w3.org/2000/svg">
<g clip-path="url(#clip0_419_54131)">
<path d="M13 56L7.98999 51H13V56ZM51 56L56.01 51H51V56Z" fill="#BC4226"/>
<path d="M51 13H43.01V5.01001L51 13Z" fill="#B2B2B2"/>
<path d="M43 5H14.59C14.1683 5 13.7639 5.16752 13.4657 5.4657C13.1675 5.76388 13 6.16831 13 6.59V57.59C13 58.0126 13.1672 58.4181 13.4651 58.7178C13.763 59.0176 14.1674 59.1874 14.59 59.19H49.41C49.6235 59.1888 49.8347 59.1448 50.031 59.0607C50.2273 58.9766 50.4047 58.854 50.5529 58.7003C50.7011 58.5465 50.817 58.3646 50.8938 58.1653C50.9706 57.9661 51.0067 57.7534 51 57.54V13H43V5Z" fill="#F1F1F1"/>
<path d="M9 33H55C55.2652 33 55.5196 33.1054 55.7071 33.2929C55.8946 33.4804 56 33.7348 56 34V51H8V34C8 33.7348 8.10536 33.4804 8.29289 33.2929C8.48043 33.1054 8.73478 33 9 33Z" fill="#E86741"/>
<path d="M24.14 37.82V46H22.14V42.59H19.04V46H17.04V37.82H19.04V41H22.14V37.82H24.14ZM31.38 37.82V39.4H29.16V46H27.16V39.4H25V37.82H31.38ZM41.4 37.88V46H39.4V40.92L37.67 46H36L34.23 40.91V46H32.23V37.88H34.64L36.85 43.54L39 37.88H41.4ZM44.74 44.49H47.38V46H42.77V37.82H44.77L44.74 44.49Z" fill="white"/>
<path d="M28 24.19C28.0648 24.3025 28.1216 24.4195 28.17 24.54C28.2188 24.6434 28.2461 24.7557 28.25 24.87C28.2528 24.9824 28.2299 25.0939 28.1831 25.1962C28.1363 25.2984 28.0669 25.3886 27.98 25.46C27.7859 25.6266 27.5354 25.7124 27.28 25.7C27.0887 25.7027 26.8986 25.6687 26.72 25.6C26.4 25.38 26.06 25.13 25.72 24.84L24.59 24L23.11 22.9L21.78 21.9C21.5778 21.7286 21.452 21.4841 21.43 21.22C21.4394 21.0603 21.4871 20.9052 21.5688 20.7678C21.6506 20.6303 21.7642 20.5145 21.9 20.43L22.36 20.08L23.23 19.4L24.29 18.57L25.35 17.73L26.21 17.06C26.3595 16.9371 26.5165 16.8235 26.68 16.72C26.8533 16.6417 27.04 16.5976 27.23 16.59C27.4902 16.5777 27.7449 16.6674 27.94 16.84C28.0217 16.9172 28.0869 17.0102 28.1316 17.1133C28.1763 17.2164 28.1995 17.3276 28.2 17.44C28.2073 17.6886 28.1218 17.9311 27.96 18.12C27.72 18.31 27.42 18.56 27.05 18.84L25.91 19.71L24.86 20.53L24.01 21.2L28.01 24.2L28 24.19ZM36 24.17L40 21.17L39.15 20.5L38.15 19.68L37 18.86C36.63 18.58 36.33 18.33 36.09 18.14C35.9282 17.9511 35.8426 17.7086 35.85 17.46C35.8504 17.3476 35.8737 17.2364 35.9184 17.1333C35.9631 17.0302 36.0283 16.9372 36.11 16.86C36.3051 16.6874 36.5598 16.5977 36.82 16.61C37.01 16.6176 37.1967 16.6617 37.37 16.74C37.5335 16.8435 37.6905 16.9571 37.84 17.08L38.7 17.75L39.76 18.59L40.82 19.42L41.69 20.1L42.15 20.45C42.2858 20.5345 42.3994 20.6503 42.4811 20.7878C42.5629 20.9252 42.6105 21.0803 42.62 21.24C42.598 21.5041 42.4722 21.7486 42.27 21.92L40.94 22.92L39.41 24L38.28 24.85C37.92 25.14 37.58 25.39 37.28 25.61C37.1014 25.6787 36.9113 25.7127 36.72 25.71C36.4646 25.7224 36.2141 25.6366 36.02 25.47C35.9331 25.3986 35.8637 25.3084 35.8169 25.2062C35.7701 25.1039 35.7472 24.9924 35.75 24.88C35.7539 24.7657 35.7811 24.6534 35.83 24.55C35.8784 24.4295 35.9352 24.3125 36 24.2V24.17Z" fill="#E86741"/>
</g>
<defs>
<clipPath id="clip0_419_54131">
<rect width="64" height="64" fill="white"/>
</clipPath>
</defs>
</svg>
