<svg width="64" height="64" viewBox="0 0 64 64" fill="none" xmlns="http://www.w3.org/2000/svg">
<g clip-path="url(#clip0_419_54138)">
<path d="M13 56L7.99 51H13V56ZM51 56L56.01 51H51V56Z" fill="#536363"/>
<path d="M51 13H43.01V5.01001L51 13Z" fill="#B2B2B2"/>
<path d="M43 5H14.59C14.1683 5 13.7639 5.16752 13.4657 5.4657C13.1675 5.76388 13 6.16831 13 6.59V57.59C13 58.0126 13.1672 58.4181 13.4651 58.7178C13.763 59.0176 14.1674 59.1874 14.59 59.19H49.41C49.6235 59.1888 49.8347 59.1448 50.031 59.0607C50.2273 58.9766 50.4047 58.854 50.5529 58.7003C50.7011 58.5465 50.817 58.3646 50.8938 58.1653C50.9706 57.9661 51.0067 57.7534 51 57.54V13H43V5Z" fill="#F1F1F1"/>
<path d="M9 33H55C55.2652 33 55.5196 33.1054 55.7071 33.2929C55.8946 33.4804 56 33.7348 56 34V51H8V34C8 33.7348 8.10536 33.4804 8.29289 33.2929C8.48043 33.1054 8.73478 33 9 33Z" fill="#96A5A5"/>
<path d="M27.81 37.82V39.4H25.59V46H23.59V39.4H21.41V37.82H27.81ZM33.61 46L31.88 43.46L30.4 46H28.14L30.75 41.79L28.06 37.79H30.4L32.08 40.26L33.53 37.79H35.78L33.2 41.94L36 46H33.61ZM42.59 37.82V39.4H40.37V46H38.37V39.4H36.19V37.82H42.59Z" fill="white"/>
<path d="M23.31 13H37.09M17.99 13H20.47M34.88 19.61H46.44M17.99 19.61H31.25M42.71 26.22H46.44M25.43 26.22H39.47M17.99 26.22H21.77" stroke="#96A5A5" stroke-linecap="round" stroke-linejoin="round"/>
</g>
<defs>
<clipPath id="clip0_419_54138">
<rect width="64" height="64" fill="white"/>
</clipPath>
</defs>
</svg>
