<svg width="64" height="64" viewBox="0 0 64 64" fill="none" xmlns="http://www.w3.org/2000/svg">
<g clip-path="url(#clip0_419_54140)">
<path d="M13 56L7.98999 51H13V56ZM51 56L56.01 51H51V56Z" fill="#AD2337"/>
<path d="M51 13H43.01V5.01001L51 13Z" fill="#B2B2B2"/>
<path d="M43 5H14.59C14.1683 5 13.7639 5.16752 13.4657 5.4657C13.1675 5.76388 13 6.16831 13 6.59V57.59C13 58.0126 13.1672 58.4181 13.4651 58.7178C13.763 59.0176 14.1674 59.1874 14.59 59.19H49.41C49.6235 59.1888 49.8347 59.1448 50.031 59.0607C50.2273 58.9766 50.4047 58.854 50.5529 58.7003C50.7011 58.5465 50.817 58.3646 50.8938 58.1653C50.9706 57.9661 51.0067 57.7534 51 57.54V13H43V5Z" fill="#F1F1F1"/>
<path d="M9 33H55C55.2652 33 55.5196 33.1054 55.7071 33.2929C55.8946 33.4804 56 33.7348 56 34V51H8V34C8 33.7348 8.10536 33.4804 8.29289 33.2929C8.48043 33.1054 8.73478 33 9 33Z" fill="#F15668"/>
<path d="M29.13 37.88V46H27.13V40.92L25.4 46H23.69L21.92 40.91V46H19.92V37.88H22.34L24.54 43.54L26.71 37.88H29.13ZM32.47 43.13V46H30.47V37.82H33.67C34.4766 37.7665 35.2725 38.0282 35.89 38.55C36.154 38.8084 36.3587 39.1211 36.4899 39.4664C36.6211 39.8117 36.6758 40.1814 36.65 40.55C36.66 41.0223 36.5426 41.4887 36.31 41.9C36.0772 42.3054 35.7291 42.6326 35.31 42.84C34.8014 43.0813 34.2427 43.1978 33.68 43.18L32.47 43.13ZM34.67 40.5C34.67 39.78 34.27 39.42 33.48 39.42H32.48V41.55H33.48C34.27 41.55 34.67 41.2 34.67 40.5ZM37.48 44.5V42.84L41.22 37.72H43.34V42.77H44.34V44.5H43.34V46H41.34V44.5H37.48ZM41.48 40.01L39.48 42.77H41.48V40.01Z" fill="white"/>
<path d="M25.93 14.44V26.39L38.07 20.42L25.93 14.44Z" stroke="#F15668" stroke-linecap="round" stroke-linejoin="round"/>
</g>
<defs>
<clipPath id="clip0_419_54140">
<rect width="64" height="64" fill="white"/>
</clipPath>
</defs>
</svg>
