<svg width="64" height="64" viewBox="0 0 64 64" fill="none" xmlns="http://www.w3.org/2000/svg">
<g clip-path="url(#clip0_419_54136)">
<path d="M13 56L7.99 51H13V56ZM51 56L56.01 51H51V56Z" fill="#A56423"/>
<path d="M51 13H43.01V5.01001L51 13Z" fill="#B2B2B2"/>
<path d="M43 5H14.59C14.1683 5 13.7639 5.16752 13.4657 5.4657C13.1675 5.76388 13 6.16831 13 6.59V57.59C13 58.0126 13.1672 58.4181 13.4651 58.7178C13.763 59.0176 14.1674 59.1874 14.59 59.19H49.41C49.6235 59.1888 49.8347 59.1448 50.031 59.0607C50.2273 58.9766 50.4047 58.854 50.5529 58.7003C50.7011 58.5465 50.817 58.3646 50.8938 58.1653C50.9706 57.9661 51.0067 57.7534 51 57.54V13H43V5Z" fill="#F1F1F1"/>
<path d="M9 33H55C55.2652 33 55.5196 33.1054 55.7071 33.2929C55.8946 33.4804 56 33.7348 56 34V51H8V34C8 33.7348 8.10536 33.4804 8.29289 33.2929C8.48043 33.1054 8.73478 33 9 33Z" fill="#ECAD5C"/>
<path d="M31.06 37.82V43.41C31.0866 43.7735 31.0382 44.1387 30.9177 44.4827C30.7973 44.8268 30.6075 45.1424 30.36 45.41C30.1012 45.6488 29.7969 45.833 29.4653 45.9516C29.1337 46.0701 28.7816 46.1206 28.43 46.1C28.0422 46.1219 27.654 46.0659 27.2882 45.9354C26.9223 45.8048 26.5863 45.6024 26.3 45.34C26.0234 45.0519 25.8102 44.7091 25.6742 44.3336C25.5381 43.9582 25.4822 43.5584 25.51 43.16H27.51C27.51 43.93 27.8 44.31 28.37 44.31C28.94 44.31 29.13 44.02 29.13 43.43V37.82H31.06ZM37.91 44.89C37.6693 45.2718 37.3215 45.5744 36.91 45.76C36.4251 45.9853 35.8945 46.0949 35.36 46.08C34.5498 46.1158 33.7509 45.88 33.09 45.41C32.7928 45.1941 32.5485 44.9137 32.3753 44.5898C32.202 44.2659 32.1045 43.907 32.09 43.54H34.19C34.2098 43.8148 34.3268 44.0736 34.52 44.27C34.7213 44.4466 34.9824 44.5396 35.25 44.53C35.4698 44.5413 35.6852 44.4659 35.85 44.32C35.9221 44.2481 35.9788 44.1622 36.0166 44.0676C36.0544 43.9731 36.0726 43.8718 36.07 43.77C36.0747 43.577 36.0028 43.3901 35.87 43.25C35.7221 43.1065 35.5493 42.9913 35.36 42.91C35.16 42.82 34.88 42.71 34.53 42.59C34.0952 42.4462 33.6708 42.2724 33.26 42.07C32.9226 41.8973 32.6338 41.6429 32.42 41.33C32.1688 40.9558 32.046 40.5101 32.07 40.06C32.0562 39.6113 32.1858 39.1699 32.44 38.8C32.6863 38.4351 33.0339 38.1501 33.44 37.98C33.9341 37.7766 34.466 37.6811 35 37.7C35.7772 37.6556 36.5452 37.8856 37.17 38.35C37.4355 38.5678 37.6527 38.8386 37.8077 39.1451C37.9626 39.4516 38.052 39.787 38.07 40.13H36C35.9731 39.8865 35.8678 39.6584 35.7 39.48C35.525 39.3226 35.2952 39.24 35.06 39.25C34.8577 39.2405 34.6589 39.3045 34.5 39.43C34.4242 39.4991 34.3651 39.5845 34.327 39.6798C34.2889 39.775 34.2728 39.8777 34.28 39.98C34.2803 40.1613 34.348 40.3359 34.47 40.47C34.6098 40.6068 34.7722 40.7184 34.95 40.8C35.15 40.88 35.42 40.99 35.79 41.12C36.23 41.2625 36.658 41.4397 37.07 41.65C37.4105 41.8266 37.7024 42.0841 37.92 42.4C38.1738 42.7847 38.2998 43.2396 38.28 43.7C38.2712 44.1236 38.1429 44.5361 37.91 44.89Z" fill="white"/>
<path d="M29.54 27.83V28.71H28.15C27.9224 28.7198 27.6951 28.6824 27.4827 28.6C27.2702 28.5177 27.0771 28.3923 26.9155 28.2316C26.7539 28.071 26.6274 27.8786 26.5438 27.6666C26.4603 27.4547 26.4215 27.2277 26.43 27V23.27C26.4388 23.1364 26.419 23.0024 26.3719 22.8771C26.3248 22.7517 26.2514 22.6379 26.1567 22.5432C26.062 22.4486 25.9482 22.3752 25.8229 22.3281C25.6976 22.2809 25.5636 22.2611 25.43 22.27H25.28V21.08H25.43C25.5636 21.0888 25.6976 21.069 25.8229 21.0219C25.9482 20.9747 26.062 20.9014 26.1567 20.8067C26.2514 20.712 26.3248 20.5982 26.3719 20.4729C26.419 20.3475 26.4388 20.2136 26.43 20.08V16.54C26.4143 16.3082 26.4477 16.0757 26.528 15.8577C26.6083 15.6398 26.7338 15.4412 26.8962 15.2751C27.0585 15.1089 27.2541 14.979 27.4702 14.8936C27.6863 14.8083 27.9179 14.7696 28.15 14.78H29.54V15.68H28.65C28.5006 15.6653 28.3498 15.6844 28.2088 15.736C28.0678 15.7875 27.9402 15.8701 27.8355 15.9777C27.7308 16.0853 27.6517 16.2151 27.604 16.3574C27.5563 16.4998 27.5413 16.651 27.56 16.8V20.18C27.5819 20.5498 27.4563 20.9132 27.2108 21.1906C26.9652 21.468 26.6197 21.6368 26.25 21.66C26.4322 21.6689 26.6108 21.7139 26.7755 21.7923C26.9402 21.8707 27.0877 21.9809 27.2096 22.1167C27.3314 22.2525 27.4251 22.411 27.4852 22.5832C27.5454 22.7555 27.5708 22.9379 27.56 23.12V26.7C27.5502 26.8475 27.5713 26.9955 27.6221 27.1343C27.6728 27.2732 27.7521 27.4 27.8547 27.5064C27.9574 27.6128 28.0812 27.6966 28.2181 27.7523C28.3551 27.808 28.5022 27.8345 28.65 27.83H29.54ZM31.21 16.07C31.21 15.8604 31.2932 15.6595 31.4414 15.5114C31.5895 15.3632 31.7905 15.28 32 15.28C32.2095 15.28 32.4105 15.3632 32.5586 15.5114C32.7068 15.6595 32.79 15.8604 32.79 16.07C32.79 16.2795 32.7068 16.4804 32.5586 16.6286C32.4105 16.7767 32.2095 16.86 32 16.86C31.7905 16.86 31.5895 16.7767 31.4414 16.6286C31.2932 16.4804 31.21 16.2795 31.21 16.07ZM32.58 18.28V26H31.42V18.28H32.58ZM34.47 28.71V27.83H35.35C35.4986 27.8359 35.6468 27.8105 35.785 27.7554C35.9231 27.7003 36.0482 27.6168 36.1519 27.5102C36.2557 27.4036 36.3358 27.2764 36.3872 27.1368C36.4385 26.9972 36.4599 26.8484 36.45 26.7V23.15C36.4364 22.9673 36.4599 22.7837 36.519 22.6103C36.5781 22.4369 36.6717 22.2773 36.794 22.1409C36.9163 22.0046 37.065 21.8943 37.231 21.8169C37.397 21.7394 37.5769 21.6962 37.76 21.69C37.576 21.6811 37.3956 21.6355 37.2296 21.5559C37.0635 21.4762 36.915 21.3641 36.7929 21.2262C36.6708 21.0883 36.5776 20.9273 36.5187 20.7528C36.4598 20.5782 36.4364 20.3937 36.45 20.21V16.8C36.4585 16.6524 36.436 16.5046 36.384 16.3662C36.332 16.2279 36.2516 16.1019 36.148 15.9964C36.0444 15.8909 35.9199 15.8083 35.7825 15.7538C35.645 15.6993 35.4977 15.6741 35.35 15.68H34.47V14.78H35.85C36.0821 14.7696 36.3137 14.8083 36.5298 14.8936C36.7459 14.979 36.9415 15.1089 37.1038 15.2751C37.2662 15.4412 37.3917 15.6398 37.472 15.8577C37.5523 16.0757 37.5857 16.3082 37.57 16.54V20.08C37.5595 20.214 37.5781 20.3487 37.6246 20.4748C37.6712 20.6009 37.7445 20.7154 37.8395 20.8104C37.9346 20.9055 38.0491 20.9788 38.1752 21.0253C38.3013 21.0719 38.436 21.0905 38.57 21.08H38.72V22.27H38.57C38.436 22.2594 38.3013 22.2781 38.1752 22.3246C38.0491 22.3711 37.9346 22.4445 37.8395 22.5395C37.7445 22.6345 37.6712 22.7491 37.6246 22.8752C37.5781 23.0013 37.5595 23.136 37.57 23.27V27C37.5842 27.2309 37.5498 27.4623 37.4688 27.6791C37.3878 27.8958 37.2621 28.0932 37.0999 28.2582C36.9377 28.4232 36.7426 28.5523 36.5273 28.637C36.3119 28.7217 36.0812 28.7602 35.85 28.75L34.47 28.71Z" fill="#ECAD5C"/>
</g>
<defs>
<clipPath id="clip0_419_54136">
<rect width="64" height="64" fill="white"/>
</clipPath>
</defs>
</svg>
