<svg width="24" height="24" viewBox="0 0 24 24" fill="none" xmlns="http://www.w3.org/2000/svg">
<g id="copy-alt 1">
<path id="Vector" d="M13.25 18C14.2442 17.9988 15.1973 17.6033 15.9003 16.9003C16.6033 16.1973 16.9988 15.2442 17 14.25V7.68226C17.0012 7.28803 16.9241 6.89749 16.7732 6.53327C16.6223 6.16906 16.4006 5.83842 16.121 5.56051L14.4395 3.87901C14.1616 3.59939 13.8309 3.37771 13.4667 3.22683C13.1025 3.07594 12.712 2.99885 12.3177 3.00001H8.75C7.7558 3.0012 6.80267 3.39667 6.09966 4.09968C5.39666 4.80268 5.00119 5.75581 5 6.75001V14.25C5.00119 15.2442 5.39666 16.1973 6.09966 16.9003C6.80267 17.6033 7.7558 17.9988 8.75 18H13.25ZM6.5 14.25V6.75001C6.5 6.15327 6.73705 5.58098 7.15901 5.15902C7.58096 4.73706 8.15326 4.50001 8.75 4.50001C8.75 4.50001 12.4392 4.51051 12.5 4.51801V6.00001C12.5 6.39784 12.658 6.77937 12.9393 7.06067C13.2206 7.34197 13.6022 7.50001 14 7.50001H15.482C15.4895 7.56076 15.5 14.25 15.5 14.25C15.5 14.8467 15.2629 15.419 14.841 15.841C14.419 16.263 13.8467 16.5 13.25 16.5H8.75C8.15326 16.5 7.58096 16.263 7.15901 15.841C6.73705 15.419 6.5 14.8467 6.5 14.25ZM20 9.00001V17.25C19.9988 18.2442 19.6033 19.1973 18.9003 19.9003C18.1973 20.6033 17.2442 20.9988 16.25 21H9.5C9.30108 21 9.11032 20.921 8.96967 20.7803C8.82902 20.6397 8.75 20.4489 8.75 20.25C8.75 20.0511 8.82902 19.8603 8.96967 19.7197C9.11032 19.579 9.30108 19.5 9.5 19.5H16.25C16.8467 19.5 17.419 19.2629 17.841 18.841C18.2629 18.419 18.5 17.8467 18.5 17.25V9.00001C18.5 8.8011 18.579 8.61033 18.7197 8.46968C18.8603 8.32903 19.0511 8.25001 19.25 8.25001C19.4489 8.25001 19.6397 8.32903 19.7803 8.46968C19.921 8.61033 20 8.8011 20 9.00001Z" fill="#637381"/>
</g>
</svg>
