<?xml version="1.0" encoding="utf-8"?>
<!-- Svg Vector Icons : http://www.onlinewebfonts.com/icon -->
<!DOCTYPE svg PUBLIC "-//W3C//DTD SVG 1.1//EN" "http://www.w3.org/Graphics/SVG/1.1/DTD/svg11.dtd">
<svg version="1.1" xmlns="http://www.w3.org/2000/svg" xmlns:xlink="http://www.w3.org/1999/xlink" x="0px" y="0px" viewBox="0 0 256 256" enable-background="new 0 0 256 256" xml:space="preserve">
<metadata> Svg Vector Icons : http://www.onlinewebfonts.com/icon </metadata>
<g><g><path fill="#000000" d="M128,10C62.8,10,10,62.8,10,128c0,65.2,52.8,118,118,118c65.2,0,118-52.8,118-118C246,62.8,193.2,10,128,10z M196.2,180.4c3.6,3.6,3.6,9.5,0,13.1c-1.8,1.8-4.2,2.7-6.5,2.7c-2.4,0-4.7-0.9-6.6-2.7l-53-53.3l-53,53.3c-1.8,1.8-4.2,2.7-6.5,2.7c-2.4,0-4.7-0.9-6.5-2.7c-3.6-3.6-3.6-9.5,0-13.1l53-53.3l-53-53.3c-3.6-3.6-3.6-9.5,0-13.1c3.6-3.6,9.5-3.6,13.1,0l53,53.3l53-53.3c3.6-3.6,9.5-3.6,13.1,0c3.6,3.7,3.6,9.5,0,13.1l-53,53.3L196.2,180.4z"/></g></g>
</svg>