<svg width="111" height="30" viewBox="0 0 111 30" fill="none" xmlns="http://www.w3.org/2000/svg">
<rect width="111" height="30" rx="15" fill="#4B4C61" fill-opacity="0.6"/>
<path d="M17.0791 13.4473H16.4908C15.2084 13.4473 14.168 14.4877 14.168 15.7701V18.8433C14.1686 20.1257 15.2084 21.1655 16.4908 21.1655H23.5065C24.7896 21.1655 25.8293 20.1257 25.8293 18.8433V15.7642C25.8293 14.4851 24.7928 13.4479 23.5136 13.4473H22.9195" stroke="white" stroke-linecap="round" stroke-linejoin="round"/>
<path d="M19.9971 9.16602V16.7558M19.9971 9.16602L18.1602 11.0114M19.9971 9.16602L21.8361 11.0114" stroke="white" stroke-linecap="round" stroke-linejoin="round"/>
<path d="M38.1836 19.1406C36.0859 19.1406 34.8203 17.875 34.8203 16.0352V10.5449H35.875V15.9648C35.875 17.2656 36.7188 18.168 38.1836 18.168C39.6484 18.168 40.4805 17.2656 40.4805 15.9648V10.5449H41.5352V16.0352C41.5352 17.875 40.2812 19.1406 38.1836 19.1406ZM43.0176 21.0508V12.9062H44.0371V13.9375H44.0605C44.4414 13.2285 45.1211 12.7891 45.9941 12.7891C47.5527 12.7891 48.584 14.0312 48.584 15.9531V15.959C48.584 17.8809 47.541 19.1172 46.0117 19.1172C45.1504 19.1172 44.4414 18.6836 44.0605 17.9805H44.0371V21.0508H43.0176ZM45.7949 18.2148C46.873 18.2148 47.541 17.3477 47.541 15.959V15.9531C47.541 14.5527 46.873 13.6914 45.7949 13.6914C44.7637 13.6914 44.0312 14.5879 44.0312 15.9531V15.959C44.0312 17.3184 44.7695 18.2148 45.7949 18.2148ZM49.668 19V10.5449H50.6875V19H49.668ZM54.5898 19.1172C52.8965 19.1172 51.7656 17.8926 51.7656 15.9531V15.9414C51.7656 14.002 52.9023 12.7891 54.584 12.7891C56.2656 12.7891 57.4082 13.9961 57.4082 15.9414V15.9531C57.4082 17.8984 56.2715 19.1172 54.5898 19.1172ZM54.5957 18.2148C55.668 18.2148 56.3652 17.3828 56.3652 15.9531V15.9414C56.3652 14.5117 55.6621 13.6914 54.584 13.6914C53.5234 13.6914 52.8086 14.5176 52.8086 15.9414V15.9531C52.8086 17.3887 53.5176 18.2148 54.5957 18.2148ZM60.2207 19.1172C59.0078 19.1172 58.1934 18.3848 58.1934 17.2773V17.2656C58.1934 16.2285 59.002 15.5781 60.4023 15.4961L62.1484 15.3965V14.8867C62.1484 14.1426 61.6621 13.6914 60.8125 13.6914C60.0273 13.6914 59.5352 14.0664 59.418 14.6113L59.4062 14.6641H58.4219L58.4277 14.5996C58.5156 13.5977 59.3887 12.7891 60.8242 12.7891C62.2656 12.7891 63.168 13.5684 63.168 14.7871V19H62.1484V18.0098H62.125C61.7676 18.6777 61.0352 19.1172 60.2207 19.1172ZM59.2363 17.2773C59.2363 17.8633 59.7168 18.2324 60.4492 18.2324C61.4102 18.2324 62.1484 17.5703 62.1484 16.6855V16.1875L60.5195 16.2871C59.7051 16.334 59.2363 16.6973 59.2363 17.2656V17.2773ZM66.7539 19.1172C65.1953 19.1172 64.1641 17.875 64.1641 15.9531V15.9473C64.1641 14.0254 65.207 12.7891 66.7363 12.7891C67.5977 12.7891 68.3066 13.2227 68.6875 13.9258H68.7109V10.5449H69.7305V19H68.7109V17.9688H68.6875C68.3066 18.6777 67.627 19.1172 66.7539 19.1172ZM66.9531 18.2148C67.9844 18.2148 68.7168 17.3184 68.7168 15.9531V15.9473C68.7168 14.5879 67.9785 13.6914 66.9531 13.6914C65.875 13.6914 65.207 14.5586 65.207 15.9473V15.9531C65.207 17.3535 65.875 18.2148 66.9531 18.2148ZM73.7266 19V10.5449H74.7812V18.0508H78.8594V19H73.7266ZM82.2109 19.1172C80.5176 19.1172 79.3867 17.8926 79.3867 15.9531V15.9414C79.3867 14.002 80.5234 12.7891 82.2051 12.7891C83.8867 12.7891 85.0293 13.9961 85.0293 15.9414V15.9531C85.0293 17.8984 83.8926 19.1172 82.2109 19.1172ZM82.2168 18.2148C83.2891 18.2148 83.9863 17.3828 83.9863 15.9531V15.9414C83.9863 14.5117 83.2832 13.6914 82.2051 13.6914C81.1445 13.6914 80.4297 14.5176 80.4297 15.9414V15.9531C80.4297 17.3887 81.1387 18.2148 82.2168 18.2148ZM88.6387 21.168C87.1328 21.168 86.1836 20.459 85.9844 19.5566L85.9727 19.5039H86.998L87.0215 19.5566C87.2148 19.9961 87.7949 20.2656 88.627 20.2656C89.6992 20.2656 90.3086 19.6738 90.3086 18.7305V17.9512H90.2852C89.9219 18.625 89.2188 19.0586 88.3457 19.0586C86.8105 19.0586 85.7617 17.8223 85.7617 15.918V15.9121C85.7617 14.0195 86.8223 12.7891 88.3691 12.7891C89.2305 12.7891 89.9102 13.2578 90.2852 13.9375H90.3086V12.9062H91.3281V18.8301C91.3281 20.2422 90.291 21.168 88.6387 21.168ZM88.5684 18.1562C89.6055 18.1562 90.3086 17.2715 90.3086 15.918V15.9121C90.3086 14.5703 89.5996 13.6914 88.5684 13.6914C87.4844 13.6914 86.8047 14.5586 86.8047 15.9121V15.918C86.8047 17.3008 87.4844 18.1562 88.5684 18.1562ZM95.1719 19.1172C93.4785 19.1172 92.3477 17.8926 92.3477 15.9531V15.9414C92.3477 14.002 93.4844 12.7891 95.166 12.7891C96.8477 12.7891 97.9902 13.9961 97.9902 15.9414V15.9531C97.9902 17.8984 96.8535 19.1172 95.1719 19.1172ZM95.1777 18.2148C96.25 18.2148 96.9473 17.3828 96.9473 15.9531V15.9414C96.9473 14.5117 96.2441 13.6914 95.166 13.6914C94.1055 13.6914 93.3906 14.5176 93.3906 15.9414V15.9531C93.3906 17.3887 94.0996 18.2148 95.1777 18.2148Z" fill="white"/>
</svg>
