<svg width="111" height="30" viewBox="0 0 111 30" fill="none" xmlns="http://www.w3.org/2000/svg">
<rect width="111" height="30" rx="15" fill="#4B4C61" fill-opacity="0.6"/>
<path d="M14.125 19.0008C14.125 20.2897 15.1693 21.334 16.4582 21.334C17.7471 21.334 18.7914 20.2897 18.7914 19.0008V11.6672C18.7914 10.3783 17.7471 9.33398 16.4582 9.33398C15.1693 9.33398 14.125 10.3783 14.125 11.6672V19.0008Z" stroke="white" stroke-linecap="round" stroke-linejoin="round"/>
<path d="M18.1055 20.6502L23.8726 14.8837C24.7833 13.9724 24.7833 12.4948 23.8726 11.5834C22.9612 10.6727 21.4836 10.6727 20.5723 11.5834L18.7892 13.3672" stroke="white" stroke-linecap="round" stroke-linejoin="round"/>
<path d="M16.457 21.3326L23.7904 21.3324C25.0793 21.3324 26.1236 20.2881 26.1236 18.9992C26.1236 17.7103 25.0793 16.666 23.7904 16.666H22.0903" stroke="white" stroke-linecap="round" stroke-linejoin="round"/>
<path d="M16.456 19.0283V19.0529M16.5555 19.0336C16.5555 19.0888 16.5107 19.1336 16.4554 19.1336C16.4002 19.1336 16.3555 19.0888 16.3555 19.0336C16.3555 18.9783 16.4002 18.9336 16.4554 18.9336C16.5107 18.9336 16.5555 18.9783 16.5555 19.0336Z" stroke="white" stroke-linecap="round" stroke-linejoin="round"/>
<path d="M34.8203 19V10.5449H37.832C39.4199 10.5449 40.5449 11.6406 40.5449 13.2461V13.2578C40.5449 14.8633 39.4199 15.9824 37.832 15.9824H35.875V19H34.8203ZM37.5625 11.4824H35.875V15.0449H37.5625C38.7695 15.0449 39.4668 14.3828 39.4668 13.2695V13.2578C39.4668 12.1445 38.7695 11.4824 37.5625 11.4824ZM42.1738 11.875C41.8223 11.875 41.5352 11.5879 41.5352 11.2363C41.5352 10.8789 41.8223 10.5977 42.1738 10.5977C42.5312 10.5977 42.8125 10.8789 42.8125 11.2363C42.8125 11.5879 42.5312 11.875 42.1738 11.875ZM41.6641 19V12.9062H42.6836V19H41.6641ZM46.5977 19.1172C44.8691 19.1172 43.7734 17.8867 43.7734 15.9473V15.9414C43.7734 14.0195 44.8926 12.7891 46.5859 12.7891C48.1035 12.7891 49 13.7969 49.1289 14.8398L49.1348 14.8867H48.1387L48.127 14.8398C47.9746 14.2305 47.4824 13.6914 46.5859 13.6914C45.5254 13.6914 44.8164 14.5703 44.8164 15.9531V15.959C44.8164 17.377 45.543 18.2148 46.5977 18.2148C47.4297 18.2148 47.9629 17.7461 48.1328 17.0664L48.1445 17.0195H49.1465L49.1406 17.0605C48.9766 18.2207 47.9746 19.1172 46.5977 19.1172ZM50.166 19V10.5449H51.1855V15.5957H51.209L53.8809 12.9062H55.1172L52.4746 15.5371L55.1992 19H54.0156L51.7539 16.1582L51.1855 16.7031V19H50.166ZM62.0605 19.1406C59.7109 19.1406 58.1992 17.4297 58.1992 14.7695V14.7637C58.1992 12.1035 59.7051 10.4043 62.0605 10.4043C63.8184 10.4043 65.1836 11.4707 65.5059 13.0703L65.5176 13.1289H64.4512L64.4102 13C64.082 11.9746 63.25 11.377 62.0605 11.377C60.373 11.377 59.2832 12.707 59.2832 14.7637V14.7695C59.2832 16.8262 60.3789 18.168 62.0605 18.168C63.2441 18.168 64.0645 17.582 64.4336 16.4688L64.4512 16.416H65.5176L65.5059 16.4746C65.1836 18.0918 63.8301 19.1406 62.0605 19.1406ZM69.1328 19.1172C67.4395 19.1172 66.3086 17.8926 66.3086 15.9531V15.9414C66.3086 14.002 67.4453 12.7891 69.127 12.7891C70.8086 12.7891 71.9512 13.9961 71.9512 15.9414V15.9531C71.9512 17.8984 70.8145 19.1172 69.1328 19.1172ZM69.1387 18.2148C70.2109 18.2148 70.9082 17.3828 70.9082 15.9531V15.9414C70.9082 14.5117 70.2051 13.6914 69.127 13.6914C68.0664 13.6914 67.3516 14.5176 67.3516 15.9414V15.9531C67.3516 17.3887 68.0605 18.2148 69.1387 18.2148ZM73.0352 19V10.5449H74.0547V19H73.0352ZM77.957 19.1172C76.2637 19.1172 75.1328 17.8926 75.1328 15.9531V15.9414C75.1328 14.002 76.2695 12.7891 77.9512 12.7891C79.6328 12.7891 80.7754 13.9961 80.7754 15.9414V15.9531C80.7754 17.8984 79.6387 19.1172 77.957 19.1172ZM77.9629 18.2148C79.0352 18.2148 79.7324 17.3828 79.7324 15.9531V15.9414C79.7324 14.5117 79.0293 13.6914 77.9512 13.6914C76.8906 13.6914 76.1758 14.5176 76.1758 15.9414V15.9531C76.1758 17.3887 76.8848 18.2148 77.9629 18.2148ZM81.8066 19V12.9062H82.8262V13.9375H82.8496C83.0547 13.2344 83.582 12.7891 84.2676 12.7891C84.4434 12.7891 84.5957 12.8184 84.6777 12.8301V13.8203C84.5957 13.791 84.3789 13.7617 84.1328 13.7617C83.3418 13.7617 82.8262 14.3125 82.8262 15.2383V19H81.8066Z" fill="white"/>
</svg>
