<svg width="16" height="16" viewBox="0 0 16 16" fill="none" xmlns="http://www.w3.org/2000/svg">
<path d="M2.12305 12.0008C2.12305 13.2897 3.16737 14.334 4.45623 14.334C5.7451 14.334 6.78941 13.2897 6.78941 12.0008V4.66717C6.78941 3.37831 5.7451 2.33398 4.45623 2.33398C3.16737 2.33398 2.12305 3.37831 2.12305 4.66717V12.0008Z" stroke="#111111" stroke-width="1.5" stroke-linecap="round" stroke-linejoin="round"/>
<path d="M6.10742 13.6502L11.8746 7.88375C12.7852 6.97242 12.7852 5.49477 11.8746 4.58342C10.9632 3.67272 9.48558 3.67272 8.57425 4.58342L6.79112 6.3672" stroke="#111111" stroke-width="1.5" stroke-linecap="round" stroke-linejoin="round"/>
<path d="M4.45703 14.3326L11.7904 14.3324C13.0793 14.3324 14.1236 13.2881 14.1236 11.9992C14.1236 10.7103 13.0793 9.66602 11.7904 9.66602H10.0903" stroke="#111111" stroke-width="1.5" stroke-linecap="round" stroke-linejoin="round"/>
<path d="M4.458 12.0283V12.0529M4.55743 12.0336C4.55743 12.0888 4.51262 12.1336 4.4574 12.1336C4.40217 12.1336 4.35742 12.0888 4.35742 12.0336C4.35742 11.9783 4.40217 11.9336 4.4574 11.9336C4.51262 11.9336 4.55743 11.9783 4.55743 12.0336Z" stroke="#111111" stroke-width="1.5" stroke-linecap="round" stroke-linejoin="round"/>
</svg>
