<svg width="28" height="28" viewBox="0 0 28 28" fill="none" xmlns="http://www.w3.org/2000/svg">
<path d="M0 8C0 3.58172 3.58172 0 8 0H20C24.4183 0 28 3.58172 28 8V20C28 24.4183 24.4183 28 20 28H8C3.58172 28 0 24.4183 0 20V8Z" fill="#4B4C61" fill-opacity="0.6"/>
<path d="M13.5721 8H11.1874C9.22996 8 8.00195 9.38751 8.00195 11.3508V16.6486C8.00195 18.6125 9.22413 20 11.1874 20H16.8107C18.7759 20 19.9967 18.6125 19.9967 16.6486V14.2613" stroke="white" stroke-linecap="round" stroke-linejoin="round"/>
<path d="M13.9282 15.6799L14.7749 15.5379C15.2301 15.4615 15.6457 15.2326 15.953 14.8889L19.6033 10.9054C20.0397 10.434 20.0112 9.69878 19.5398 9.26242L18.7611 8.54144C18.2898 8.10573 17.5538 8.13426 17.1182 8.60498L13.4276 12.6333C13.145 12.9497 12.9686 13.3465 12.9226 13.7685L12.8279 14.6419C12.7604 15.2669 13.3083 15.7837 13.9282 15.6799Z" stroke="white" stroke-linecap="round" stroke-linejoin="round"/>
</svg>
