<svg width="24" height="24" viewBox="0 0 24 24" stroke="none" xmlns="http://www.w3.org/2000/svg">
<path d="M5.82979 13.6449L5.88979 13.5249C6.13979 13.0399 6.53478 12.6449 7.01978 12.3949L7.13978 12.3349C7.61478 12.0949 7.61478 11.4149 7.13978 11.1699L7.01978 11.1099C6.53478 10.8599 6.13979 10.4649 5.88979 9.97988L5.82979 9.85988C5.58979 9.38488 4.90979 9.38488 4.66479 9.85988L4.60479 9.97988C4.35479 10.4649 3.95979 10.8599 3.47479 11.1099L3.35479 11.1699C2.87979 11.4099 2.87979 12.0899 3.35479 12.3349L3.47479 12.3949C3.95979 12.6449 4.35479 13.0399 4.60479 13.5249L4.66479 13.6449C4.90479 14.1199 5.58478 14.1199 5.82979 13.6449Z"/>
<path d="M20.1448 17.6699L20.0248 17.6099C19.5398 17.3599 19.1448 16.9649 18.8948 16.4799L18.8348 16.3599C18.5948 15.8849 17.9148 15.8849 17.6698 16.3599L17.6098 16.4799C17.3598 16.9649 16.9648 17.3599 16.4798 17.6099L16.3598 17.6699C15.8848 17.9099 15.8848 18.5899 16.3598 18.8349L16.4798 18.8949C16.9648 19.1449 17.3598 19.5399 17.6098 20.0249L17.6698 20.1449C17.9098 20.6199 18.5898 20.6199 18.8348 20.1449L18.8948 20.0249C19.1448 19.5399 19.5398 19.1449 20.0248 18.8949L20.1448 18.8349C20.6198 18.5949 20.6198 17.9149 20.1448 17.6699Z"/>
<path d="M6.20979 7.38988L6.36979 7.46988C6.86979 7.72488 7.26979 8.12488 7.52479 8.62488L7.60479 8.78488C7.87979 9.32488 8.42979 9.65988 9.03479 9.65988C9.63979 9.65988 10.1898 9.32488 10.4698 8.78488L10.5498 8.62488C10.8048 8.12488 11.2048 7.72488 11.7048 7.46988L11.8648 7.38988C12.4048 7.11488 12.7398 6.56488 12.7398 5.95988C12.7398 5.35488 12.4048 4.80488 11.8648 4.52488L11.7048 4.44488C11.2048 4.18988 10.8048 3.78988 10.5498 3.28988L10.4698 3.12988C10.1948 2.58988 9.64479 2.25488 9.03479 2.25488C8.42479 2.25488 7.87979 2.58988 7.59979 3.12988L7.51979 3.28988C7.26479 3.78988 6.86478 4.18988 6.36478 4.44488L6.20479 4.52488C5.66479 4.79988 5.32979 5.34988 5.32979 5.95988C5.32979 6.56988 5.66479 7.11488 6.20479 7.39488L6.20979 7.38988ZM6.88979 5.85988L7.04979 5.77988C7.83479 5.37988 8.45978 4.75488 8.85979 3.96988L8.93979 3.80988C8.93979 3.80988 8.96979 3.74988 9.03479 3.74988C9.09979 3.74988 9.12479 3.78988 9.12979 3.80988L9.20979 3.96988C9.60979 4.75488 10.2348 5.37988 11.0198 5.77988L11.1798 5.85988C11.1798 5.85988 11.2398 5.88988 11.2398 5.95488C11.2398 6.01988 11.1948 6.04488 11.1798 6.04988L11.0198 6.12988C10.2348 6.52988 9.60979 7.15488 9.20979 7.93988L9.12979 8.09988C9.12979 8.09988 9.09979 8.15988 9.03479 8.15988C8.96979 8.15988 8.94479 8.11488 8.93979 8.09988L8.85979 7.93988C8.45978 7.15488 7.83479 6.52988 7.04979 6.12988L6.88979 6.04988C6.88979 6.04988 6.82979 6.01988 6.82979 5.95488C6.82979 5.88988 6.87478 5.86488 6.88979 5.85988Z"/>
<path d="M21.1448 6.32488L20.1748 5.35488C19.7848 4.96488 19.2648 4.74988 18.7148 4.74988C18.1648 4.74988 17.6448 4.96488 17.2548 5.35488L6.86979 15.7399C6.86979 15.7399 6.85979 15.7549 6.85479 15.7649C6.79479 15.8299 6.74479 15.8999 6.70979 15.9799V15.9899L5.26479 19.4349C5.03979 19.9699 5.16479 20.5799 5.57979 20.9899C5.84979 21.2549 6.20479 21.3949 6.56979 21.3949C6.75979 21.3949 6.95479 21.3549 7.13979 21.2749L10.5148 19.7949L10.5348 19.7849C10.6148 19.7499 10.6798 19.6999 10.7398 19.6449C10.7448 19.6399 10.7548 19.6349 10.7648 19.6299L21.1498 9.24488C21.5398 8.85488 21.7548 8.33488 21.7548 7.78488C21.7548 7.23488 21.5398 6.71488 21.1498 6.32488H21.1448ZM10.2298 18.0399L8.45979 16.2699L16.2398 8.48988L18.0098 10.2599L10.2298 18.0399ZM20.0848 8.18488L19.0698 9.19988L17.2998 7.42988L18.3148 6.41488C18.5248 6.19988 18.8998 6.19988 19.1148 6.41488L20.0848 7.38488C20.1898 7.48988 20.2498 7.63488 20.2498 7.78488C20.2498 7.93488 20.1898 8.07488 20.0848 8.18488Z"/>
</svg>
