<svg width="56" height="56" viewBox="0 0 56 56" fill="none" xmlns="http://www.w3.org/2000/svg">
<rect width="56" height="56" rx="16" fill="white" fill-opacity="0.5"/>
<path d="M24.9684 37C24.9684 36.0714 24.9684 35.6071 25.0029 35.2156C25.3861 30.8646 28.8595 27.4149 33.2405 27.0342C33.6347 27 34.1022 27 35.0372 27H37.3594M37.3594 27C37.2082 26.4811 36.9015 25.9329 36.3544 24.9547L34.8648 22.2919C34.1946 21.0938 33.8596 20.4947 33.3829 20.0585C32.9613 19.6726 32.4616 19.3806 31.9171 19.2019C31.3017 19 30.6117 19 29.2317 19L26.7463 19C25.3663 19 24.6763 19 24.0609 19.2019C23.5165 19.3806 23.0167 19.6726 22.5951 20.0585C22.1185 20.4947 21.7834 21.0938 21.1132 22.2919L19.6588 24.8919C19.0242 26.0263 18.707 26.5935 18.5826 27.1942C18.4725 27.7258 18.4725 28.2742 18.5826 28.8058C18.707 29.4065 19.0242 29.9737 19.6588 31.1081L21.1132 33.7081C21.7834 34.9062 22.1185 35.5053 22.5951 35.9415C23.0167 36.3274 23.5165 36.6194 24.0609 36.7981C24.6763 37 25.3663 37 26.7463 37H29.2903C30.6501 37 31.33 37 31.9382 36.8031C32.4763 36.629 32.9715 36.3441 33.3913 35.9671C33.8659 35.541 34.2041 34.9552 34.8805 33.7837L35.9104 32L36.4075 31.074C37.0104 29.951 37.3119 29.3895 37.4269 28.7977C37.5288 28.2739 37.5241 27.7352 37.4132 27.2132C37.398 27.142 37.3802 27.0713 37.3594 27ZM24.9684 26C24.4123 26 23.9615 25.5523 23.9615 25C23.9615 24.4477 24.4123 24 24.9684 24C25.5245 24 25.9753 24.4477 25.9753 25C25.9753 25.5523 25.5245 26 24.9684 26Z" stroke="black" stroke-width="2" stroke-linecap="round" stroke-linejoin="round"/>
</svg>
