<svg width="56" height="56" viewBox="0 0 56 56" fill="none" xmlns="http://www.w3.org/2000/svg">
<rect width="56" height="56" rx="16" fill="white" fill-opacity="0.5"/>
<path d="M36.72 27.7454H36.5764C35.9868 25.11 33.6334 23.1308 30.8236 23.1308H29.029V22.4745C29.9212 22.1566 30.5672 21.3106 30.5672 20.3108C30.5672 19.0392 29.5315 18.0035 28.26 18.0035C26.9884 18.0035 25.9527 19.0392 25.9527 20.3108C25.9527 21.3106 26.5987 22.1566 27.4909 22.4745V23.1308H25.6963C22.8865 23.1308 20.5331 25.11 19.9435 27.7454H19.7999C18.9539 27.7454 18.2617 28.4376 18.2617 29.2836V30.8218C18.2617 31.6678 18.9539 32.36 19.7999 32.36H20.0819C20.6869 34.2468 22.2149 35.7132 24.1325 36.2465C23.9889 36.549 23.9017 36.8771 23.9017 37.2309C23.9017 37.6565 24.2453 38 24.6708 38H31.8491C32.2746 38 32.6182 37.6565 32.6182 37.2309C32.6182 36.8771 32.531 36.5438 32.3874 36.2465C34.305 35.7184 35.833 34.2468 36.438 32.36H36.72C37.566 32.36 38.2582 31.6678 38.2582 30.8218V29.2836C38.2582 28.4376 37.566 27.7454 36.72 27.7454ZM28.26 19.5417C28.6855 19.5417 29.029 19.8852 29.029 20.3108C29.029 20.7364 28.6855 21.0799 28.26 21.0799C27.8344 21.0799 27.4909 20.7364 27.4909 20.3108C27.4909 19.8852 27.8344 19.5417 28.26 19.5417ZM30.8236 34.9236H25.6963C23.2916 34.9236 21.3381 32.9701 21.3381 30.5654V29.0272C21.3381 26.6225 23.2916 24.669 25.6963 24.669H30.8236C33.2283 24.669 35.1818 26.6225 35.1818 29.0272V30.5654C35.1818 32.9701 33.2283 34.9236 30.8236 34.9236Z" fill="black"/>
<path d="M25.4399 26.7199C24.5939 26.7199 23.9017 27.4121 23.9017 28.2581V29.7963C23.9017 30.6423 24.5939 31.3345 25.4399 31.3345C26.2859 31.3345 26.9781 30.6423 26.9781 29.7963V28.2581C26.9781 27.4121 26.2859 26.7199 25.4399 26.7199Z" fill="black"/>
<path d="M31.08 26.7199C30.234 26.7199 29.5418 27.4121 29.5418 28.2581V29.7963C29.5418 30.6423 30.234 31.3345 31.08 31.3345C31.926 31.3345 32.6182 30.6423 32.6182 29.7963V28.2581C32.6182 27.4121 31.926 26.7199 31.08 26.7199Z" fill="black"/>
<path d="M22.8917 19.5007L24.4299 20.0134C24.5119 20.0391 24.5939 20.0544 24.6708 20.0544C24.9939 20.0544 25.2912 19.8494 25.3989 19.5263C25.5322 19.1213 25.3169 18.6855 24.9118 18.5521L23.3736 18.0394C22.9737 17.9061 22.5379 18.1215 22.3995 18.5265C22.261 18.9316 22.4815 19.3674 22.8865 19.5007H22.8917Z" fill="black"/>
<path d="M23.1327 22.6181C23.2147 22.6181 23.2967 22.6078 23.3736 22.5771L24.9118 22.0643C25.3169 21.931 25.5322 21.4952 25.3989 21.0902C25.2656 20.6851 24.8298 20.4698 24.4247 20.6031L22.8865 21.1158C22.4815 21.2491 22.2661 21.6849 22.3995 22.09C22.5071 22.413 22.8045 22.6181 23.1275 22.6181H23.1327Z" fill="black"/>
<path d="M31.8491 20.0544C31.9311 20.0544 32.0131 20.0442 32.09 20.0134L33.6282 19.5007C34.0333 19.3674 34.2486 18.9316 34.1153 18.5265C33.982 18.1215 33.5462 17.9061 33.1411 18.0394L31.603 18.5521C31.1979 18.6855 30.9826 19.1213 31.1159 19.5263C31.2235 19.8494 31.5209 20.0544 31.8439 20.0544H31.8491Z" fill="black"/>
<path d="M31.6081 22.0643L33.1463 22.5771C33.2283 22.6027 33.3103 22.6181 33.3873 22.6181C33.7103 22.6181 34.0077 22.413 34.1153 22.09C34.2486 21.6849 34.0333 21.2491 33.6282 21.1158L32.09 20.6031C31.6901 20.4698 31.2492 20.6851 31.1159 21.0902C30.9826 21.4952 31.1979 21.931 31.603 22.0643H31.6081Z" fill="black"/>
</svg>
