<svg width="56" height="56" viewBox="0 0 56 56" fill="none" xmlns="http://www.w3.org/2000/svg">
<rect width="56" height="56" rx="16" fill="white" fill-opacity="0.5"/>
<path d="M27.4141 31.9679L27.291 31.9064C26.7936 31.65 26.3885 31.2449 26.1321 30.7474L26.0705 30.6244C25.8244 30.1372 25.1269 30.1372 24.8756 30.6244L24.8141 30.7474C24.5577 31.2449 24.1526 31.65 23.6551 31.9064L23.5321 31.9679C23.0449 32.2141 23.0449 32.9115 23.5321 33.1628L23.6551 33.2244C24.1526 33.4808 24.5577 33.8859 24.8141 34.3833L24.8756 34.5064C25.1218 34.9936 25.8192 34.9936 26.0705 34.5064L26.1321 34.3833C26.3885 33.8859 26.7936 33.4808 27.291 33.2244L27.4141 33.1628C27.9013 32.9167 27.9013 32.2192 27.4141 31.9679Z" fill="black"/>
<path d="M32.691 26.7833L32.5269 26.7013C32.0141 26.4397 31.6038 26.0295 31.3372 25.5115L31.2551 25.3474C30.9731 24.7936 30.409 24.45 29.7885 24.45C29.1679 24.45 28.6038 24.7936 28.3218 25.3474L28.2397 25.5115C27.9782 26.0244 27.5679 26.4346 27.05 26.7013L26.8859 26.7833C26.3321 27.0654 25.9885 27.6295 25.9885 28.25C25.9885 28.8705 26.3321 29.4346 26.8859 29.7167L27.05 29.7987C27.5628 30.0603 27.9731 30.4705 28.2397 30.9885L28.3218 31.1526C28.6038 31.7064 29.1679 32.05 29.7885 32.05C30.409 32.05 30.9731 31.7064 31.2551 31.1526L31.3372 30.9885C31.5987 30.4756 32.009 30.0654 32.5269 29.7987L32.691 29.7167C33.2449 29.4346 33.5885 28.8705 33.5885 28.25C33.5885 27.6295 33.2449 27.0654 32.691 26.7833ZM31.9936 28.3526L31.8295 28.4346C31.0244 28.8449 30.3833 29.4859 29.9731 30.291L29.891 30.4551C29.891 30.4551 29.8603 30.5167 29.7936 30.5167C29.7269 30.5167 29.7013 30.4705 29.6962 30.4551L29.6141 30.291C29.2038 29.4859 28.5628 28.8449 27.7577 28.4346L27.5936 28.3526C27.5936 28.3526 27.5321 28.3218 27.5321 28.2551C27.5321 28.1885 27.5782 28.1628 27.5936 28.1577L27.7577 28.0756C28.5628 27.6654 29.2038 27.0244 29.6141 26.2192L29.6962 26.0551C29.6962 26.0551 29.7269 25.9936 29.7936 25.9936C29.8603 25.9936 29.8859 26.0397 29.891 26.0551L29.9731 26.2192C30.3833 27.0244 31.0244 27.6654 31.8295 28.0756L31.9936 28.1577C31.9936 28.1577 32.0551 28.1885 32.0551 28.2551C32.0551 28.3218 32.009 28.3474 31.9936 28.3526Z" fill="black"/>
<path d="M32.6756 21.3269H30.4244C29.9731 19.5628 28.3679 18.25 26.4654 18.25H22.8551C20.5987 18.25 18.7628 20.0859 18.7628 22.3423V24.5782C18.4346 25.2859 18.25 26.0705 18.25 26.9013V32.6756C18.25 35.7474 20.7526 38.25 23.8244 38.25H32.6756C35.7474 38.25 38.25 35.7474 38.25 32.6756V26.9013C38.25 23.8295 35.7474 21.3269 32.6756 21.3269ZM22.8551 19.7885H26.4654C27.5115 19.7885 28.4141 20.4244 28.8038 21.3269H23.8192C22.4859 21.3269 21.2603 21.7987 20.2962 22.5833V22.3372C20.2962 20.9269 21.4397 19.7833 22.85 19.7833L22.8551 19.7885ZM36.7115 32.6756C36.7115 34.9013 34.9013 36.7115 32.6756 36.7115H23.8244C21.5987 36.7115 19.7885 34.9013 19.7885 32.6756V26.9013C19.7885 24.6756 21.5987 22.8654 23.8244 22.8654H32.6756C34.9013 22.8654 36.7115 24.6756 36.7115 26.9013V32.6756Z" fill="black"/>
</svg>
