<svg width="24" height="25" viewBox="0 0 24 25" stroke-width="0" fill="none" xmlns="http://www.w3.org/2000/svg">
<g clip-path="url(#clip0_1144_12470)">
<path d="M12.0015 4.23315C11.6128 4.23315 11.2983 3.91867 11.2983 3.53003V0.717529C11.2983 0.328889 11.6128 0.0144043 12.0015 0.0144043C12.3901 0.0144043 12.7046 0.328889 12.7046 0.717529V3.53003C12.7046 3.91867 12.3901 4.23315 12.0015 4.23315Z" fill="#FDBF00"/>
<path d="M8.39496 4.41179L6.40643 3.12638C6.08027 2.91558 5.9869 2.48026 6.19769 2.1541C6.40919 1.82794 6.84316 1.73321 7.16997 1.94536L9.15851 3.23077C9.48466 3.44157 9.57804 3.8769 9.36724 4.20305C9.1564 4.52897 8.72112 4.62225 8.39496 4.41179Z" fill="#FDBF00"/>
<path d="M18.3295 5.68628H12.0014H5.67329C5.53913 5.68628 5.41538 5.73133 5.30518 5.80033L5.69527 10.4763L7.78266 12.0144L11.3203 10.2126L16.2202 12.0144L18.3295 10.3665L18.6976 5.80037C18.5875 5.73133 18.4637 5.68628 18.3295 5.68628Z" fill="#FFD400"/>
<path d="M16.2202 12.0144L18.3296 10.3664L18.6977 5.80033C18.5876 5.73133 18.4637 5.68628 18.3296 5.68628H12.0015V10.4631L16.2202 12.0144Z" fill="#FDBF00"/>
<path d="M14.6352 4.20287C14.4244 3.87672 14.5178 3.44139 14.8439 3.23059L16.8325 1.94519C17.1586 1.73233 17.5932 1.82777 17.8047 2.15392C18.0155 2.48008 17.9222 2.91541 17.596 3.1262L15.6075 4.41161C15.2813 4.62212 14.846 4.52884 14.6352 4.20287Z" fill="#FDBF00"/>
<path d="M22.516 11.6416L18.9253 6.01656C18.868 5.92487 18.7863 5.85606 18.6975 5.80037L16.2199 12.0144L12.0012 5.68628L7.78244 12.0144L5.30496 5.80033C5.21613 5.85601 5.13443 5.92487 5.0771 6.01651L1.49585 11.6415C1.42624 11.7526 1.40669 11.8841 1.41002 12.0144L3.47585 14.1237H19.5891L22.5899 12.0144C22.5914 11.8795 22.5789 11.7419 22.516 11.6416Z" fill="#FDBF00"/>
<path d="M19.5893 14.1238L22.5901 12.0144C22.5917 11.8795 22.5791 11.7419 22.5162 11.6416L18.9256 6.01656C18.8683 5.92487 18.7866 5.85606 18.6977 5.80037L16.2202 12.0144L12.0015 5.68628V14.1238H19.5893Z" fill="#FF9F00"/>
<path d="M16.2202 12.0144H7.78274L6.94775 16.7605L12.0015 24.0144L16.7256 17.7273L16.2202 12.0144Z" fill="#FFD400"/>
<path d="M16.2202 12.0144H12.0015V24.0144L16.7256 17.7273L16.2202 12.0144Z" fill="#FDBF00"/>
<path d="M1.41016 12.0144C1.41512 12.2078 1.48122 12.3979 1.59484 12.5115L11.5042 23.8084C11.6416 23.9457 11.8215 24.0144 12.0013 24.0144L7.78258 12.0144H1.41016Z" fill="#FF9F00"/>
<path d="M16.2202 12.0144L12.0015 24.0144C12.1814 24.0144 12.3613 23.9457 12.4986 23.8084L22.4173 12.5115C22.5428 12.386 22.588 12.2001 22.5901 12.0144H16.2202Z" fill="#FF7816"/>
</g>
<defs>
<clipPath id="clip0_1144_12470">
<rect width="24" height="24" fill="white" transform="translate(0 0.0144043)"/>
</clipPath>
</defs>
</svg>
