<svg width="16" height="16" viewBox="0 0 16 16" xmlns="http://www.w3.org/2000/svg">
<path d="M12.4241 10.2295C12.8043 10.2295 12.9944 10.2295 13.1499 10.1856C13.5407 10.0753 13.8463 9.7698 13.9565 9.37887C14.0004 9.2234 14.0004 9.03333 14.0004 8.6532C14.0004 7.06813 14.0004 5.4211 14.0004 3.83599C14.0004 3.45585 14.0004 3.26579 13.9565 3.11031C13.8463 2.71941 13.5407 2.41391 13.1499 2.30363C12.9944 2.25977 12.8043 2.25977 12.4241 2.25977C12.0438 2.25977 11.8537 2.25977 11.6983 2.30363C11.3073 2.41391 11.0019 2.71941 10.8915 3.11031C10.8477 3.26579 10.8477 3.45585 10.8477 3.83599C10.8477 5.4211 10.8477 7.06813 10.8477 8.6532C10.8477 9.03333 10.8477 9.2234 10.8915 9.37887C11.0019 9.7698 11.3073 10.0753 11.6983 10.1856C11.8537 10.2295 12.0438 10.2295 12.4241 10.2295Z" stroke-linecap="round" stroke-linejoin="round"/>
<path d="M10.8473 9.50819C9.88351 10.7544 8.92738 12.0069 7.95564 13.2469C7.64778 13.6397 7.10871 13.8377 6.62479 13.6969C5.54542 13.3832 5.82096 11.4689 6.10324 10.4537C6.31256 9.70079 6.05806 9.43966 5.44517 9.43966C4.10496 9.43966 3.46815 9.43966 3.01193 9.16552C2.59467 8.91479 2.28829 8.51479 2.15486 8.04666C1.87663 7.07052 1.97246 5.21104 2.44928 3.91504C2.7714 3.03948 3.67998 2.43733 4.46695 2.34999C5.52968 2.23204 7.01298 2.27458 8.13291 2.33677C9.16204 2.39391 10.1204 2.85176 10.8473 3.58256" stroke-linecap="round" stroke-linejoin="round"/>
</svg>
