<svg width="24" height="24" viewBox="0 0 24 24" fill="none" xmlns="http://www.w3.org/2000/svg">
<path d="M9.55037 15.5154L18.1888 6.87692C18.3376 6.72821 18.5142 6.65224 18.7186 6.64902C18.9231 6.64582 19.1029 6.72179 19.258 6.87692C19.4132 7.03204 19.4907 7.21024 19.4907 7.41152C19.4907 7.61279 19.4132 7.79099 19.258 7.94612L10.183 17.0211C10.0023 17.2019 9.79139 17.2922 9.55037 17.2922C9.30936 17.2922 9.09846 17.2019 8.9177 17.0211L4.7427 12.8461C4.59398 12.6974 4.52058 12.5208 4.5225 12.3163C4.52443 12.1118 4.60296 11.932 4.75807 11.7769C4.91321 11.6218 5.09141 11.5442 5.29267 11.5442C5.49396 11.5442 5.67216 11.6218 5.82727 11.7769L9.55037 15.5154Z" fill="black"/>
</svg>
