<svg width="24" height="24" viewBox="0 0 24 24" fill="none" xmlns="http://www.w3.org/2000/svg">
<path d="M15.0015 19.5C12.9082 19.5 11.1346 18.7735 9.68075 17.3207C8.2269 15.8679 7.49998 14.0948 7.49998 12.0015C7.49998 9.90818 8.22639 8.13461 9.67922 6.68078C11.132 5.22693 12.9051 4.5 14.9984 4.5C17.0917 4.5 18.8653 5.22642 20.3192 6.67925C21.773 8.13207 22.4999 9.90513 22.4999 11.9985C22.4999 14.0918 21.7735 15.8653 20.3207 17.3192C18.8679 18.773 17.0948 19.5 15.0015 19.5ZM6.99995 19.2307C5.3615 18.7961 4.03523 17.9086 3.02113 16.5682C2.00704 15.2278 1.5 13.7051 1.5 12C1.5 10.2949 2.00704 8.77211 3.02113 7.43173C4.03523 6.09136 5.3615 5.20387 6.99995 4.76925V6.34998C5.79995 6.76664 4.83328 7.49164 4.09995 8.52498C3.36662 9.55831 2.99995 10.7166 2.99995 12C2.99995 13.2833 3.36662 14.4416 4.09995 15.475C4.83328 16.5083 5.79995 17.2333 6.99995 17.65V19.2307ZM14.9999 18C16.6666 18 18.0833 17.4166 19.25 16.25C20.4166 15.0833 21 13.6666 21 12C21 10.3333 20.4166 8.91664 19.25 7.74998C18.0833 6.58331 16.6666 5.99998 14.9999 5.99998C13.3333 5.99998 11.9166 6.58331 10.7499 7.74998C9.58328 8.91664 8.99995 10.3333 8.99995 12C8.99995 13.6666 9.58328 15.0833 10.7499 16.25C11.9166 17.4166 13.3333 18 14.9999 18Z" fill="#212B36"/>
</svg>
