<svg width="24" height="24" viewBox="0 0 24 24" xmlns="http://www.w3.org/2000/svg">
    <path d="M10.4084 16.5915C10.6174 16.8006 10.8655 16.9664 11.1386 17.0796C11.4116 17.1928 11.7043 17.251 11.9999 17.251C12.2955 17.251 12.5882 17.1928 12.8613 17.0796C13.1344 16.9664 13.3825 16.8006 13.5914 16.5915L15.9997 14.1833C16.1288 14.0404 16.1981 13.8535 16.1931 13.661C16.1882 13.4685 16.1094 13.2853 15.9731 13.1494C15.8368 13.0134 15.6535 12.935 15.461 12.9305C15.2685 12.9259 15.0817 12.9956 14.9392 13.125L12.7447 15.3203L12.7499 3.75C12.7499 3.55109 12.6709 3.36032 12.5303 3.21967C12.3896 3.07902 12.1988 3 11.9999 3C11.801 3 11.6102 3.07902 11.4696 3.21967C11.3289 3.36032 11.2499 3.55109 11.2499 3.75L11.2432 15.306L9.06068 13.125C8.91995 12.9844 8.72911 12.9054 8.53016 12.9055C8.33121 12.9055 8.14043 12.9846 7.9998 13.1254C7.85917 13.2661 7.7802 13.4569 7.78027 13.6559C7.78034 13.8548 7.85944 14.0456 8.00018 14.1863L10.4084 16.5915Z"/>
    <path d="M20.25 15C20.0511 15 19.8603 15.079 19.7197 15.2197C19.579 15.3603 19.5 15.5511 19.5 15.75V18.75C19.5 18.9489 19.421 19.1397 19.2803 19.2803C19.1397 19.421 18.9489 19.5 18.75 19.5H5.25C5.05109 19.5 4.86032 19.421 4.71967 19.2803C4.57902 19.1397 4.5 18.9489 4.5 18.75V15.75C4.5 15.5511 4.42098 15.3603 4.28033 15.2197C4.13968 15.079 3.94891 15 3.75 15C3.55109 15 3.36032 15.079 3.21967 15.2197C3.07902 15.3603 3 15.5511 3 15.75V18.75C3 19.3467 3.23705 19.919 3.65901 20.341C4.08097 20.7629 4.65326 21 5.25 21H18.75C19.3467 21 19.919 20.7629 20.341 20.341C20.7629 19.919 21 19.3467 21 18.75V15.75C21 15.5511 20.921 15.3603 20.7803 15.2197C20.6397 15.079 20.4489 15 20.25 15Z"/>
</svg>
