<svg width="24" height="24" viewBox="0 0 24 24" fill="none" xmlns="http://www.w3.org/2000/svg">
<path d="M7.06201 16.937H7.9375L14.4936 10.3747L13.6181 9.49841L7.06201 16.0607V16.937ZM16.7647 9.60609L14.3751 7.2361L15.3051 6.30527C15.5084 6.10176 15.7589 6 16.0567 6C16.3544 6 16.6049 6.10176 16.8082 6.30527L17.6837 7.18158C17.8871 7.3851 17.9924 7.63222 17.9996 7.92297C18.0069 8.21371 17.9088 8.46083 17.7055 8.66435L16.7647 9.60609ZM6.63993 18C6.45749 18 6.30522 17.9389 6.18313 17.8167C6.06104 17.6945 6 17.5421 6 17.3594V15.8753C6 15.7899 6.01543 15.7086 6.04629 15.6314C6.07715 15.5541 6.12571 15.4824 6.19198 15.416L13.6072 7.99383L15.9968 10.3856L8.58152 17.8078C8.51526 17.8742 8.44355 17.9228 8.3664 17.9537C8.28924 17.9846 8.20799 18 8.12266 18H6.63993ZM14.0524 9.93317L13.6181 9.49841L14.4936 10.3747L14.0524 9.93317Z" fill="#A0A5A9"/>
</svg>
