<svg width="24" height="25" viewBox="0 0 24 25" fill="none" xmlns="http://www.w3.org/2000/svg">
<path d="M4.76 19.3096C4.76 19.3096 4.84 19.3096 4.87 19.3096L7.8 19.0396C8.21 18.9996 8.59 18.8196 8.88 18.5296L19.94 7.46961C20.46 6.94961 20.75 6.25961 20.75 5.52961C20.75 4.79961 20.46 4.10961 19.94 3.58961L19.23 2.87961C18.19 1.83961 16.38 1.83961 15.34 2.87961L13.93 4.28961L4.29 13.9296C4 14.2196 3.82 14.5996 3.79 15.0096L3.52 17.9396C3.49 18.3096 3.62 18.6696 3.88 18.9396C4.12 19.1796 4.43 19.3096 4.76 19.3096ZM17.29 3.56961C17.61 3.56961 17.93 3.68961 18.17 3.93961L18.88 4.64961C19.12 4.88961 19.25 5.19961 19.25 5.52961C19.25 5.85961 19.12 6.17961 18.88 6.40961L18 7.28961L15.53 4.81961L16.41 3.93961C16.65 3.69961 16.97 3.56961 17.29 3.56961ZM5.28 15.1496C5.28 15.0896 5.31 15.0396 5.35 14.9996L14.46 5.87961L16.93 8.34961L7.82 17.4596C7.82 17.4596 7.72 17.5296 7.67 17.5296L5.04 17.7696L5.28 15.1396V15.1496ZM22.75 22.4996C22.75 22.9096 22.41 23.2496 22 23.2496H2C1.59 23.2496 1.25 22.9096 1.25 22.4996C1.25 22.0896 1.59 21.7496 2 21.7496H22C22.41 21.7496 22.75 22.0896 22.75 22.4996Z" fill="black"/>
</svg>
