<svg width="24" height="24" viewBox="0 0 24 24" xmlns="http://www.w3.org/2000/svg">
<path d="M17.0052 18.675C16.6975 18.3975 16.2171 18.4275 15.9469 18.7425C15.5191 19.23 14.9037 19.5075 14.2582 19.5075H6.75274C5.51433 19.5075 4.50109 18.495 4.50109 17.2575V6.75C4.50109 5.5125 5.51433 4.5 6.75274 4.5H10.1377C10.2578 4.5 10.3854 4.5 10.5055 4.515V8.25C10.5055 9.4875 11.5187 10.5 12.7571 10.5H17.1178C17.3505 10.5 17.5681 10.395 17.7107 10.2075C17.8533 10.02 17.8984 9.7875 17.8458 9.5625C17.6132 8.6475 17.1403 7.815 16.4723 7.1475L13.8604 4.5375C12.8697 3.5475 11.5487 3 10.1452 3H6.75274C4.68123 3 3 4.68 3 6.75V17.25C3 19.32 4.68123 21 6.75274 21H14.2582C15.3315 21 16.3597 20.535 17.0728 19.7325C17.3505 19.425 17.3204 18.945 17.0052 18.675ZM12.0066 4.995C12.2918 5.16 12.5545 5.3625 12.7946 5.6025L15.4065 8.2125C15.6392 8.445 15.8419 8.715 16.007 9H12.7496C12.3368 9 11.9991 8.6625 11.9991 8.25V4.995H12.0066ZM20.3602 16.5675L19.1518 17.775C19.0017 17.925 18.814 17.9925 18.6189 17.9925C18.4237 17.9925 18.2361 17.9175 18.086 17.775C17.7933 17.4825 17.7933 17.01 18.086 16.7175L19.0542 15.75H13.5002C13.0874 15.75 12.7496 15.4125 12.7496 15C12.7496 14.5875 13.0874 14.25 13.5002 14.25H19.0542L18.086 13.2825C17.7933 12.99 17.7933 12.5175 18.086 12.225C18.3787 11.9325 18.8516 11.9325 19.1443 12.225L20.3527 13.4325C21.2158 14.295 21.2158 15.705 20.3527 16.575L20.3602 16.5675Z"/>
</svg>
