<svg width="21" height="20" viewBox="0 0 21 20" xmlns="http://www.w3.org/2000/svg">
<g id="Group">
<path id="Vector" fill-rule="evenodd" clip-rule="evenodd" d="M9.125 0H4.125C1.916 0 0.125 1.791 0.125 4V16C0.125 18.209 1.916 20 4.125 20H16.125C18.334 20 20.125 18.209 20.125 16C20.125 13.729 20.125 11 20.125 11C20.125 10.448 19.677 10 19.125 10C18.573 10 18.125 10.448 18.125 11V16C18.125 17.104 17.229 18 16.125 18C12.795 18 7.454 18 4.125 18C3.02 18 2.125 17.104 2.125 16C2.125 12.67 2.125 7.329 2.125 4C2.125 2.895 3.02 2 4.125 2H9.125C9.677 2 10.125 1.552 10.125 1C10.125 0.448 9.677 0 9.125 0ZM16.711 2H13.125C12.573 2 12.125 1.552 12.125 1C12.125 0.448 12.573 0 13.125 0H19.125C19.677 0 20.125 0.448 20.125 1V7C20.125 7.552 19.677 8 19.125 8C18.573 8 18.125 7.552 18.125 7V3.414L10.832 10.707C10.442 11.097 9.808 11.097 9.418 10.707C9.027 10.317 9.027 9.683 9.418 9.293L16.711 2Z"/>
</g>
</svg>
