<svg width="25" height="25" viewBox="0 0 25 25" xmlns="http://www.w3.org/2000/svg">
<mask id="path-1-inside-1_115_6695" fill="white">
<path d="M20.95 10.5652C19.7872 8.67145 17.1422 5.49414 12.4999 5.49414C7.8577 5.49414 5.21269 8.67145 4.04988 10.5652C3.69041 11.1466 3.5 11.8167 3.5 12.5003C3.5 13.1838 3.69041 13.8539 4.04988 14.4353C5.21269 16.3291 7.8577 19.5064 12.4999 19.5064C17.1422 19.5064 19.7872 16.3291 20.95 14.4353C21.3095 13.8539 21.4999 13.1838 21.4999 12.5003C21.4999 11.8167 21.3095 11.1466 20.95 10.5652ZM19.6718 13.6503C18.6731 15.2742 16.4127 18.0069 12.4999 18.0069C8.58717 18.0069 6.32677 15.2742 5.32815 13.6503C5.11458 13.3047 5.00146 12.9065 5.00146 12.5003C5.00146 12.094 5.11458 11.6958 5.32815 11.3502C6.32677 9.7263 8.58717 6.99358 12.4999 6.99358C16.4127 6.99358 18.6731 9.7233 19.6718 11.3502C19.8853 11.6958 19.9984 12.094 19.9984 12.5003C19.9984 12.9065 19.8853 13.3047 19.6718 13.6503Z"/>
</mask>
<path d="M20.95 10.5652C19.7872 8.67145 17.1422 5.49414 12.4999 5.49414C7.8577 5.49414 5.21269 8.67145 4.04988 10.5652C3.69041 11.1466 3.5 11.8167 3.5 12.5003C3.5 13.1838 3.69041 13.8539 4.04988 14.4353C5.21269 16.3291 7.8577 19.5064 12.4999 19.5064C17.1422 19.5064 19.7872 16.3291 20.95 14.4353C21.3095 13.8539 21.4999 13.1838 21.4999 12.5003C21.4999 11.8167 21.3095 11.1466 20.95 10.5652ZM19.6718 13.6503C18.6731 15.2742 16.4127 18.0069 12.4999 18.0069C8.58717 18.0069 6.32677 15.2742 5.32815 13.6503C5.11458 13.3047 5.00146 12.9065 5.00146 12.5003C5.00146 12.094 5.11458 11.6958 5.32815 11.3502C6.32677 9.7263 8.58717 6.99358 12.4999 6.99358C16.4127 6.99358 18.6731 9.7233 19.6718 11.3502C19.8853 11.6958 19.9984 12.094 19.9984 12.5003C19.9984 12.9065 19.8853 13.3047 19.6718 13.6503Z"/>
<path d="M20.95 10.5652L2.7702 21.7279L2.78741 21.7559L2.80471 21.7839L20.95 10.5652ZM4.04988 10.5652L22.1952 21.7839L22.2125 21.7559L22.2297 21.7279L4.04988 10.5652ZM4.04988 14.4353L22.2297 3.27261L22.2125 3.24457L22.1952 3.21659L4.04988 14.4353ZM20.95 14.4353L2.80471 3.21659L2.78741 3.24457L2.7702 3.27261L20.95 14.4353ZM19.6718 13.6503L1.52416 2.43533L1.51185 2.45525L1.49958 2.47519L19.6718 13.6503ZM5.32815 13.6503L23.5003 2.47519L23.488 2.45525L23.4757 2.43533L5.32815 13.6503ZM5.32815 11.3502L23.4757 22.5652L23.488 22.5453L23.5003 22.5253L5.32815 11.3502ZM19.6718 11.3502L1.49039 22.5104L1.50723 22.5378L1.52416 22.5652L19.6718 11.3502ZM39.1298 -0.597437C36.5384 -4.81793 28.2721 -15.8392 12.4999 -15.8392V26.8275C9.57996 26.8275 7.03087 25.7254 5.30189 24.44C3.82637 23.3431 3.08472 22.2402 2.7702 21.7279L39.1298 -0.597437ZM12.4999 -15.8392C-3.27219 -15.8392 -11.5385 -4.81793 -14.1299 -0.597437L22.2297 21.7279C21.9152 22.2402 21.1735 23.3431 19.698 24.44C17.969 25.7254 15.4199 26.8275 12.4999 26.8275V-15.8392ZM-14.0954 -0.653458C-16.539 3.29881 -17.8333 7.8536 -17.8333 12.5003H24.8333C24.8333 15.7798 23.9198 18.9945 22.1952 21.7839L-14.0954 -0.653458ZM-17.8333 12.5003C-17.8333 17.1469 -16.539 21.7017 -14.0954 25.654L22.1952 3.21659C23.9198 6.00603 24.8333 9.22073 24.8333 12.5003H-17.8333ZM-14.1299 25.5979C-11.5385 29.8185 -3.27219 40.8397 12.4999 40.8397V-1.82697C15.4199 -1.82697 17.969 -0.724899 19.698 0.560472C21.1735 1.65742 21.9152 2.76036 22.2297 3.27261L-14.1299 25.5979ZM12.4999 40.8397C28.2721 40.8397 36.5384 29.8185 39.1298 25.5979L2.7702 3.27261C3.08473 2.76036 3.82637 1.65742 5.30189 0.560473C7.03087 -0.724899 9.57996 -1.82697 12.4999 -1.82697V40.8397ZM39.0953 25.654C41.5389 21.7017 42.8332 17.1469 42.8332 12.5003H0.166563C0.166563 9.22072 1.08009 6.00602 2.80471 3.21659L39.0953 25.654ZM42.8332 12.5003C42.8332 7.8536 41.5389 3.2988 39.0953 -0.653458L2.80471 21.7839C1.08009 18.9945 0.166563 15.7798 0.166563 12.5003H42.8332ZM1.49958 2.47519C1.86801 1.87609 2.71726 0.619625 4.3611 -0.6159C6.25414 -2.03873 9.10907 -3.3264 12.4999 -3.3264V39.3403C27.674 39.3403 35.5346 28.5807 37.8439 24.8255L1.49958 2.47519ZM12.4999 -3.3264C15.8908 -3.3264 18.7458 -2.03873 20.6388 -0.6159C22.2826 0.619625 23.1319 1.87609 23.5003 2.47519L-12.844 24.8255C-10.5347 28.5807 -2.67411 39.3403 12.4999 39.3403V-3.3264ZM23.4757 2.43533C25.3448 5.45977 26.3348 8.9449 26.3348 12.5003H-16.3319C-16.3319 16.8681 -15.1156 21.1497 -12.8194 24.8653L23.4757 2.43533ZM26.3348 12.5003C26.3348 16.0556 25.3448 19.5407 23.4757 22.5652L-12.8194 0.1352C-15.1156 3.8508 -16.3319 8.13239 -16.3319 12.5003H26.3348ZM23.5003 22.5253C23.1319 23.1244 22.2826 24.3809 20.6388 25.6164C18.7458 27.0392 15.8908 28.3269 12.4999 28.3269V-14.3398C-2.67412 -14.3398 -10.5347 -3.58017 -12.844 0.175059L23.5003 22.5253ZM12.4999 28.3269C9.11515 28.3269 6.26114 27.0428 4.36456 25.6179C2.71736 24.3804 1.86452 23.1199 1.49039 22.5104L37.8531 0.190018C35.5297 -3.5951 27.6666 -14.3398 12.4999 -14.3398V28.3269ZM1.52416 22.5652C-0.344912 19.5407 -1.33489 16.0556 -1.33489 12.5003H41.3318C41.3318 8.1324 40.1155 3.85081 37.8193 0.1352L1.52416 22.5652ZM-1.33489 12.5003C-1.33489 8.94491 -0.344912 5.45978 1.52416 2.43533L37.8193 24.8653C40.1155 21.1497 41.3318 16.8681 41.3318 12.5003H-1.33489Z" mask="url(#path-1-inside-1_115_6695)"/>
<path d="M12.4996 8.75195C11.7582 8.75195 11.0334 8.9718 10.417 9.3837C9.80051 9.7956 9.32004 10.3811 9.03632 11.066C8.7526 11.751 8.67837 12.5047 8.82301 13.2319C8.96765 13.959 9.32467 14.6269 9.84891 15.1512C10.3732 15.6754 11.0411 16.0325 11.7683 16.1771C12.4954 16.3217 13.2491 16.2475 13.9341 15.9638C14.6191 15.6801 15.2045 15.1996 15.6164 14.5831C16.0283 13.9667 16.2482 13.2419 16.2482 12.5005C16.247 11.5067 15.8516 10.5539 15.1489 9.8512C14.4462 9.14847 13.4934 8.75314 12.4996 8.75195ZM12.4996 14.7497C12.0547 14.7497 11.6199 14.6178 11.25 14.3706C10.8801 14.1235 10.5919 13.7722 10.4216 13.3613C10.2514 12.9503 10.2068 12.498 10.2936 12.0618C10.3804 11.6255 10.5946 11.2247 10.9092 10.9102C11.2237 10.5956 11.6245 10.3814 12.0608 10.2946C12.4971 10.2078 12.9493 10.2524 13.3603 10.4226C13.7713 10.5928 14.1225 10.8811 14.3697 11.251C14.6168 11.6209 14.7487 12.0557 14.7487 12.5005C14.7487 13.0971 14.5118 13.6691 14.09 14.0909C13.6682 14.5127 13.0961 14.7497 12.4996 14.7497Z"/>
</svg>
