<svg width="25" height="25" viewBox="0 0 25 25" xmlns="http://www.w3.org/2000/svg">
<g clip-path="url(#clip0_115_6724)">
<path d="M20.9501 10.6135C20.2733 9.53806 19.4196 8.57745 18.4228 7.76977L20.522 5.73285C20.6586 5.59565 20.7342 5.41189 20.7325 5.22115C20.7307 5.03041 20.6519 4.84795 20.5129 4.71307C20.3739 4.57819 20.1859 4.50168 19.9893 4.50003C19.7927 4.49837 19.6033 4.5717 19.4619 4.70421L17.179 6.92227C15.7638 6.10664 14.146 5.68154 12.5 5.69284C7.85847 5.69284 5.21345 8.77587 4.04988 10.6135C3.69041 11.1776 3.5 11.8278 3.5 12.4911C3.5 13.1543 3.69041 13.8045 4.04988 14.3687C4.7267 15.4441 5.58043 16.4047 6.57719 17.2123L4.47797 19.2493C4.40637 19.3164 4.34925 19.3966 4.30996 19.4854C4.27067 19.5742 4.24998 19.6696 4.24912 19.7662C4.24825 19.8628 4.26722 19.9586 4.30492 20.048C4.34262 20.1374 4.39829 20.2186 4.46868 20.2869C4.53907 20.3552 4.62278 20.4093 4.71492 20.4458C4.80706 20.4824 4.90578 20.5008 5.00533 20.5C5.10488 20.4991 5.20325 20.4791 5.29472 20.4409C5.38619 20.4028 5.46892 20.3474 5.53808 20.2779L7.82623 18.0577C9.23966 18.8732 10.8556 19.299 12.5 19.2893C17.1415 19.2893 19.7866 16.2063 20.9501 14.3687C21.3096 13.8045 21.5 13.1543 21.5 12.4911C21.5 11.8278 21.3096 11.1776 20.9501 10.6135ZM5.32741 13.607C5.11384 13.2717 5.00072 12.8853 5.00072 12.4911C5.00072 12.0969 5.11384 11.7105 5.32741 11.3751C6.32754 9.79942 8.58795 7.14779 12.5 7.14779C13.7447 7.14102 14.972 7.43211 16.0732 7.99529L14.564 9.45969C13.8442 8.996 12.9813 8.78823 12.1216 8.87163C11.2619 8.95504 10.4584 9.32448 9.84748 9.91727C9.23656 10.5101 8.85582 11.2897 8.76987 12.1239C8.68391 12.958 8.89804 13.7954 9.37591 14.4938L7.64405 16.1742C6.72572 15.4538 5.94206 14.5854 5.32741 13.607ZM14.7492 12.4911C14.7492 13.0699 14.5122 13.625 14.0904 14.0343C13.6686 14.4435 13.0965 14.6735 12.5 14.6735C12.166 14.6722 11.8366 14.5976 11.5366 14.4552L14.5243 11.5563C14.671 11.8474 14.7479 12.167 14.7492 12.4911ZM10.2508 12.4911C10.2508 11.9122 10.4878 11.3571 10.9096 10.9479C11.3314 10.5386 11.9035 10.3086 12.5 10.3086C12.834 10.3099 13.1634 10.3845 13.4634 10.5269L10.4758 13.4259C10.329 13.1347 10.2521 12.8151 10.2508 12.4911ZM19.6726 13.607C18.6725 15.1827 16.4121 17.8343 12.5 17.8343C11.2553 17.8411 10.028 17.55 8.92682 16.9868L10.436 15.5224C11.1558 15.9861 12.0187 16.1939 12.8784 16.1105C13.7381 16.0271 14.5416 15.6576 15.1525 15.0649C15.7634 14.4721 16.1442 13.6924 16.2301 12.8583C16.3161 12.0241 16.102 11.1868 15.6241 10.4883L17.356 8.80787C18.2743 9.52828 19.0579 10.3967 19.6726 11.3751C19.8862 11.7105 19.9993 12.0969 19.9993 12.4911C19.9993 12.8853 19.8862 13.2717 19.6726 13.607Z"/>
</g>
<defs>
<clipPath id="clip0_115_6724">
<rect width="24" height="24" fill="white" transform="translate(0.5 0.5)"/>
</clipPath>
</defs>
</svg>
