<svg width="32" height="32" viewBox="0 0 32 32" fill="none" xmlns="http://www.w3.org/2000/svg">
<rect width="32" height="32" rx="8" fill="#FFF9E0"/>
<path d="M21 18C21 18.2652 20.8946 18.5196 20.7071 18.7071C20.5196 18.8947 20.2652 19 20 19H12C11.7348 19 11.4804 18.8947 11.2929 18.7071C11.1054 18.5196 11 18.2652 11 18C11 17.7348 11.1054 17.4805 11.2929 17.2929C11.4804 17.1054 11.7348 17 12 17H20C20.2652 17 20.5196 17.1054 20.7071 17.2929C20.8946 17.4805 21 17.7348 21 18ZM17 21H12C11.7348 21 11.4804 21.1054 11.2929 21.2929C11.1054 21.4805 11 21.7348 11 22C11 22.2652 11.1054 22.5196 11.2929 22.7071C11.4804 22.8947 11.7348 23 12 23H17C17.2652 23 17.5196 22.8947 17.7071 22.7071C17.8946 22.5196 18 22.2652 18 22C18 21.7348 17.8946 21.4805 17.7071 21.2929C17.5196 21.1054 17.2652 21 17 21ZM26 14.485V23C25.9984 24.3256 25.4711 25.5965 24.5338 26.5338C23.5964 27.4711 22.3256 27.9984 21 28H11C9.67441 27.9984 8.40356 27.4711 7.46622 26.5338C6.52888 25.5965 6.00159 24.3256 6 23V9.00002C6.00159 7.67443 6.52888 6.40358 7.46622 5.46624C8.40356 4.5289 9.67441 4.00161 11 4.00002H15.515C16.4346 3.99766 17.3456 4.17761 18.1952 4.52948C19.0449 4.88135 19.8163 5.39816 20.465 6.05002L23.949 9.53602C24.6012 10.1843 25.1184 10.9555 25.4704 11.805C25.8225 12.6545 26.0025 13.5654 26 14.485ZM19.051 7.46402C18.7363 7.15918 18.3829 6.89695 18 6.68402V11C18 11.2652 18.1054 11.5196 18.2929 11.7071C18.4804 11.8947 18.7348 12 19 12H23.316C23.103 11.6172 22.8404 11.2642 22.535 10.95L19.051 7.46402ZM24 14.485C24 14.32 23.968 14.162 23.953 14H19C18.2044 14 17.4413 13.684 16.8787 13.1213C16.3161 12.5587 16 11.7957 16 11V6.04702C15.838 6.03202 15.679 6.00002 15.515 6.00002H11C10.2044 6.00002 9.44129 6.31609 8.87868 6.8787C8.31607 7.44131 8 8.20437 8 9.00002V23C8 23.7957 8.31607 24.5587 8.87868 25.1213C9.44129 25.684 10.2044 26 11 26H21C21.7956 26 22.5587 25.684 23.1213 25.1213C23.6839 24.5587 24 23.7957 24 23V14.485Z" fill="black"/>
</svg>
