<svg width="24" height="24" viewBox="0 0 24 24" fill="none" xmlns="http://www.w3.org/2000/svg">
<path d="M18.36 6.61269L15.572 3.7084C14.5144 2.60669 13.108 2 11.612 2H8C5.7944 1.99917 4 3.86841 4 6.16601V17.8332C4 20.1308 5.7944 22 8 22H16C18.2056 22 20 20.1308 20 17.8332V10.737C20 9.17863 19.4176 7.71524 18.36 6.61269ZM17.2288 7.79107C17.4832 8.05609 17.6984 8.35027 17.8728 8.66611H14.4C13.9592 8.66611 13.6 8.29193 13.6 7.83274V4.21509C13.9032 4.39677 14.1864 4.62094 14.44 4.88595L17.228 7.79024L17.2288 7.79107ZM18.4 17.8332C18.4 19.2116 17.3232 20.3333 16 20.3333H8C6.6768 20.3333 5.6 19.2116 5.6 17.8332V6.16601C5.6 4.78762 6.6768 3.6659 8 3.6659H11.612C11.7424 3.6659 11.872 3.67257 12 3.68507V7.83274C12 9.21113 13.0768 10.3328 14.4 10.3328H18.3816C18.3936 10.4662 18.4 10.6012 18.4 10.737V17.8332ZM14.9656 14.0672C15.2784 14.393 15.2784 14.9197 14.9656 15.2456C14.8096 15.4081 14.6048 15.4897 14.4 15.4897C14.1952 15.4897 13.9904 15.4081 13.8344 15.2456L12.8 14.168V17.8332C12.8 18.2932 12.4416 18.6665 12 18.6665C11.5584 18.6665 11.2 18.2932 11.2 17.8332V14.168L10.1656 15.2456C9.8528 15.5714 9.3472 15.5714 9.0344 15.2456C8.7216 14.9197 8.7216 14.393 9.0344 14.0672L10.3256 12.7221C11.2488 11.7604 12.7512 11.7604 13.6752 12.7221L14.9664 14.0672H14.9656Z" fill="black"/>
</svg>
