<svg width="24" height="24" viewBox="0 0 24 24" xmlns="http://www.w3.org/2000/svg">
<path d="M18.2683 8.625L20.696 5.40225C21.0403 4.9455 21.0958 4.3425 20.84 3.83025C20.5843 3.318 20.0706 3 19.4976 3H5.99997C4.34548 3 3 4.3455 3 6V20.25C3 20.6647 3.336 21 3.74999 21C4.16399 21 4.49998 20.6647 4.49998 20.25V14.25H19.4983C20.0713 14.25 20.585 13.9312 20.8408 13.4198C21.0965 12.9082 21.041 12.3053 20.6968 11.8477L18.2683 8.625ZM4.49998 12.75V6C4.49998 5.17275 5.17273 4.5 5.99997 4.5H19.4983L16.7308 8.1735C16.5298 8.4405 16.5298 8.80875 16.7308 9.07575L19.4983 12.7492H4.49998V12.75Z"/>
</svg>
