<svg width="16" height="16" viewBox="0 0 16 16" fill="none" xmlns="http://www.w3.org/2000/svg">
<rect width="16" height="16"/>
<rect width="390" height="844" transform="translate(-155 -646)"/>
<g clip-path="url(#clip0_60_916)">
<rect x="-139" y="-630" width="358" height="740" rx="24"/>
<rect width="358" height="420" transform="translate(-139 -310)" fill="transparent"/>
<g filter="url(#filter0_b_60_916)">
<path d="M-12 8C-12 -1.38884 -4.38884 -9 5 -9H75C84.3888 -9 92 -1.38884 92 8C92 17.3888 84.3888 25 75 25H5C-4.38884 25 -12 17.3888 -12 8Z" stroke-opacity="0.6" stroke-width="0.3"/>
<mask id="path-3-inside-1_60_916" fill="white">
<path d="M4.69979 13.8847C4.54489 13.8844 4.39069 13.8638 4.24114 13.8234C3.79695 13.7054 3.41739 13.4167 3.18515 13.0201C2.65765 12.2508 2.24237 11.4104 1.95181 10.5241C1.86041 10.2126 1.87648 9.87946 1.99741 9.5782C2.11833 9.277 2.33709 9.0252 2.61848 8.8634L2.76981 8.77673C3.17303 8.54546 3.65149 8.48353 4.10033 8.60433C4.54917 8.7252 4.93183 9.019 5.16448 9.4214L6.21979 11.2507C6.37316 11.5175 6.45378 11.82 6.4536 12.1278C6.45342 12.4355 6.37246 12.7379 6.21878 13.0045C6.0651 13.2712 5.8441 13.4929 5.57789 13.6473C5.31168 13.8017 5.00959 13.8836 4.70181 13.8847H4.69979ZM3.64114 9.5434C3.50915 9.5434 3.37949 9.57813 3.26515 9.64407L3.11447 9.73007C3.02917 9.77793 2.96235 9.85293 2.92465 9.9432C2.88695 10.0335 2.88055 10.1337 2.90646 10.2281C3.17064 11.0277 3.54756 11.7855 4.02581 12.4787C4.03206 12.4875 4.03785 12.4967 4.04314 12.5061C4.09273 12.592 4.15877 12.6673 4.23747 12.7277C4.31618 12.7881 4.40601 12.8324 4.50184 12.8581C4.59767 12.8838 4.69762 12.8903 4.79599 12.8774C4.89435 12.8645 4.98921 12.8323 5.07514 12.7827C5.16107 12.7331 5.23639 12.6671 5.2968 12.5884C5.35721 12.5097 5.40152 12.4199 5.42721 12.324C5.45291 12.2282 5.45946 12.1283 5.44652 12.0299C5.43359 11.9315 5.40141 11.8367 5.35181 11.7507L4.29647 9.9214C4.24725 9.83533 4.18141 9.75986 4.10279 9.6994C4.02417 9.639 3.93431 9.5948 3.83847 9.5694C3.77495 9.55246 3.70953 9.54373 3.64381 9.5434H3.64114Z"/>
</mask>
<path d="M4.69979 13.8847C4.54489 13.8844 4.39069 13.8638 4.24114 13.8234C3.79695 13.7054 3.41739 13.4167 3.18515 13.0201C2.65765 12.2508 2.24237 11.4104 1.95181 10.5241C1.86041 10.2126 1.87648 9.87946 1.99741 9.5782C2.11833 9.277 2.33709 9.0252 2.61848 8.8634L2.76981 8.77673C3.17303 8.54546 3.65149 8.48353 4.10033 8.60433C4.54917 8.7252 4.93183 9.019 5.16448 9.4214L6.21979 11.2507C6.37316 11.5175 6.45378 11.82 6.4536 12.1278C6.45342 12.4355 6.37246 12.7379 6.21878 13.0045C6.0651 13.2712 5.8441 13.4929 5.57789 13.6473C5.31168 13.8017 5.00959 13.8836 4.70181 13.8847H4.69979ZM3.64114 9.5434C3.50915 9.5434 3.37949 9.57813 3.26515 9.64407L3.11447 9.73007C3.02917 9.77793 2.96235 9.85293 2.92465 9.9432C2.88695 10.0335 2.88055 10.1337 2.90646 10.2281C3.17064 11.0277 3.54756 11.7855 4.02581 12.4787C4.03206 12.4875 4.03785 12.4967 4.04314 12.5061C4.09273 12.592 4.15877 12.6673 4.23747 12.7277C4.31618 12.7881 4.40601 12.8324 4.50184 12.8581C4.59767 12.8838 4.69762 12.8903 4.79599 12.8774C4.89435 12.8645 4.98921 12.8323 5.07514 12.7827C5.16107 12.7331 5.23639 12.6671 5.2968 12.5884C5.35721 12.5097 5.40152 12.4199 5.42721 12.324C5.45291 12.2282 5.45946 12.1283 5.44652 12.0299C5.43359 11.9315 5.40141 11.8367 5.35181 11.7507L4.29647 9.9214C4.24725 9.83533 4.18141 9.75986 4.10279 9.6994C4.02417 9.639 3.93431 9.5948 3.83847 9.5694C3.77495 9.55246 3.70953 9.54373 3.64381 9.5434H3.64114Z" stroke="#ffffff" id="left" stroke-width="2" mask="url(#path-3-inside-1_60_916)"/>
<mask id="path-4-inside-2_60_916" fill="white">
<path d="M11.6331 13.8851C11.3251 13.8845 11.0226 13.803 10.756 13.6486C10.4895 13.4942 10.2682 13.2724 10.1145 13.0054C9.96073 12.7385 9.87993 12.4358 9.88013 12.1277C9.88039 11.8197 9.96166 11.5171 10.1158 11.2504L11.1705 9.42174C11.404 9.01881 11.7877 8.72481 12.2375 8.60408C12.6873 8.48341 13.1666 8.54588 13.5705 8.77774L13.7178 8.86241C14.0016 9.02228 14.2223 9.27421 14.3435 9.57648C14.4648 9.87881 14.4792 10.2135 14.3845 10.5251C14.0933 11.4109 13.6781 12.2511 13.1511 13.0204C12.9185 13.4172 12.5384 13.7059 12.0938 13.8237C11.9436 13.8643 11.7887 13.8849 11.6331 13.8851ZM12.6925 9.54441C12.5596 9.54414 12.429 9.57881 12.3139 9.64508C12.1987 9.71134 12.103 9.80674 12.0365 9.92174L10.9818 11.7511C10.9323 11.837 10.9001 11.9319 10.8872 12.0302C10.8743 12.1285 10.8809 12.2285 10.9066 12.3243C10.9586 12.5177 11.0853 12.6827 11.2588 12.7827C11.4323 12.8828 11.6385 12.9099 11.832 12.8579C12.0255 12.8059 12.1904 12.6793 12.2905 12.5057C12.2958 12.4971 12.3011 12.4877 12.3071 12.4791C12.7849 11.7858 13.1617 11.0283 13.4265 10.2291C13.4524 10.134 13.4457 10.033 13.4073 9.94221C13.369 9.85141 13.3013 9.77614 13.2151 9.72841L13.0691 9.64508C12.9549 9.57941 12.8255 9.54474 12.6938 9.54441H12.6925Z"/>
</mask>
<path d="M11.6331 13.8851C11.3251 13.8845 11.0226 13.803 10.756 13.6486C10.4895 13.4942 10.2682 13.2724 10.1145 13.0054C9.96073 12.7385 9.87993 12.4358 9.88013 12.1277C9.88039 11.8197 9.96166 11.5171 10.1158 11.2504L11.1705 9.42174C11.404 9.01881 11.7877 8.72481 12.2375 8.60408C12.6873 8.48341 13.1666 8.54588 13.5705 8.77774L13.7178 8.86241C14.0016 9.02228 14.2223 9.27421 14.3435 9.57648C14.4648 9.87881 14.4792 10.2135 14.3845 10.5251C14.0933 11.4109 13.6781 12.2511 13.1511 13.0204C12.9185 13.4172 12.5384 13.7059 12.0938 13.8237C11.9436 13.8643 11.7887 13.8849 11.6331 13.8851ZM12.6925 9.54441C12.5596 9.54414 12.429 9.57881 12.3139 9.64508C12.1987 9.71134 12.103 9.80674 12.0365 9.92174L10.9818 11.7511C10.9323 11.837 10.9001 11.9319 10.8872 12.0302C10.8743 12.1285 10.8809 12.2285 10.9066 12.3243C10.9586 12.5177 11.0853 12.6827 11.2588 12.7827C11.4323 12.8828 11.6385 12.9099 11.832 12.8579C12.0255 12.8059 12.1904 12.6793 12.2905 12.5057C12.2958 12.4971 12.3011 12.4877 12.3071 12.4791C12.7849 11.7858 13.1617 11.0283 13.4265 10.2291C13.4524 10.134 13.4457 10.033 13.4073 9.94221C13.369 9.85141 13.3013 9.77614 13.2151 9.72841L13.0691 9.64508C12.9549 9.57941 12.8255 9.54474 12.6938 9.54441H12.6925Z" stroke="#ffffff" id="right" stroke-width="2" mask="url(#path-4-inside-2_60_916)"/>
<path d="M13.6514 11.548C13.5681 11.5479 13.4861 11.527 13.4129 11.4873C13.3397 11.4475 13.2776 11.3901 13.2321 11.3203C13.1867 11.2504 13.1595 11.1703 13.1528 11.0873C13.1462 11.0042 13.1603 10.9208 13.1941 10.8446C13.507 10.1434 13.6681 9.38387 13.6667 8.61601C13.6667 7.15727 13.0873 5.75835 12.0558 4.7269C11.0244 3.69545 9.62548 3.11598 8.16675 3.11598C6.70808 3.11598 5.30914 3.69545 4.27768 4.7269C3.24624 5.75835 2.66676 7.15727 2.66676 8.61601C2.66508 9.28407 2.78668 9.94667 3.02542 10.5707C3.05102 10.6323 3.06399 10.6985 3.06358 10.7653C3.06316 10.8321 3.04936 10.8981 3.023 10.9595C2.99664 11.0209 2.95826 11.0764 2.91011 11.1227C2.86195 11.1689 2.80502 11.2051 2.74265 11.2291C2.68029 11.253 2.61377 11.2641 2.54701 11.2619C2.48025 11.2597 2.41461 11.2441 2.35397 11.2161C2.29333 11.1881 2.23892 11.1483 2.19394 11.0989C2.14897 11.0495 2.11433 10.9916 2.0921 10.9287C1.80932 10.1905 1.66513 9.40648 1.66676 8.61601C1.66651 7.64794 1.88247 6.69207 2.29888 5.81821C2.71529 4.94432 3.32162 4.17447 4.0736 3.56489C4.82559 2.95531 5.70422 2.52139 6.64536 2.29481C7.58648 2.06823 8.56635 2.05473 9.51335 2.25528C10.4604 2.45583 11.3507 2.86537 12.1191 3.45399C12.8877 4.04261 13.515 4.79545 13.9553 5.65752C14.3957 6.5196 14.6379 7.46914 14.6643 8.43681C14.6907 9.40447 14.5007 10.3658 14.1081 11.2507C14.0689 11.3391 14.0049 11.4142 13.9238 11.467C13.8427 11.5197 13.7481 11.5479 13.6514 11.548Z" fill="#ffffff"/>
</g>
</g>
<defs>
<filter id="filter0_b_60_916" x="-92.1499" y="-89.1504" width="264.3" height="194.301" filterUnits="userSpaceOnUse" color-interpolation-filters="sRGB">
<feFlood flood-opacity="0" result="BackgroundImageFix"/>
<feGaussianBlur in="BackgroundImageFix" stdDeviation="40"/>
<feComposite in2="SourceAlpha" operator="in" result="effect1_backgroundBlur_60_916"/>
<feBlend mode="normal" in="SourceGraphic" in2="effect1_backgroundBlur_60_916" result="shape"/>
</filter>
<clipPath id="clip0_60_916">
<rect x="-139" y="-630" width="358" height="740" rx="24" fill="white"/>
</clipPath>
</defs>
</svg>
