<svg width="10" height="10" viewBox="0 0 10 10" fill="none" xmlns="http://www.w3.org/2000/svg">
<circle cx="5" cy="5" r="5" fill="#212B36"/>
<path d="M5.57568 2.82397L5.43968 6.47997H4.63968L4.50368 2.82397H5.57568ZM4.47168 7.50397C4.47168 7.34398 4.52768 7.20797 4.63968 7.09597C4.75168 6.98397 4.88768 6.92797 5.04768 6.92797C5.20768 6.92797 5.34368 6.98397 5.45568 7.09597C5.56768 7.20797 5.62368 7.34398 5.62368 7.50397C5.62368 7.66397 5.56768 7.79997 5.45568 7.91197C5.34368 8.02397 5.20768 8.07997 5.04768 8.07997C4.88768 8.07997 4.75168 8.02397 4.63968 7.91197C4.52768 7.79997 4.47168 7.66397 4.47168 7.50397Z" fill="white"/>
</svg>
