<svg width="25" height="24" viewBox="0 0 25 24" fill="none" xmlns="http://www.w3.org/2000/svg">
<path d="M10.7253 14.67L10.6053 14.61C10.1203 14.36 9.72533 13.965 9.47533 13.48L9.41533 13.36C9.17533 12.885 8.49533 12.885 8.25033 13.36L8.19033 13.48C7.94033 13.965 7.54533 14.36 7.06033 14.61L6.94033 14.67C6.46533 14.91 6.46533 15.59 6.94033 15.835L7.06033 15.895C7.54533 16.145 7.94033 16.54 8.19033 17.025L8.25033 17.145C8.49033 17.62 9.17033 17.62 9.41533 17.145L9.47533 17.025C9.72533 16.54 10.1203 16.145 10.6053 15.895L10.7253 15.835C11.2003 15.595 11.2003 14.915 10.7253 14.67Z" fill="#637381"/>
<path d="M15.8753 9.61L15.7153 9.53C15.2153 9.275 14.8153 8.875 14.5603 8.375L14.4803 8.215C14.2053 7.675 13.6553 7.34 13.0453 7.34C12.4353 7.34 11.8903 7.675 11.6103 8.215L11.5303 8.375C11.2753 8.875 10.8753 9.275 10.3753 9.53L10.2153 9.61C9.67533 9.885 9.34033 10.435 9.34033 11.04C9.34033 11.645 9.67533 12.195 10.2153 12.475L10.3753 12.555C10.8753 12.81 11.2753 13.21 11.5303 13.71L11.6103 13.87C11.8853 14.41 12.4353 14.745 13.0403 14.745C13.6453 14.745 14.1953 14.41 14.4753 13.87L14.5553 13.71C14.8103 13.21 15.2103 12.81 15.7103 12.555L15.8703 12.475C16.4103 12.2 16.7453 11.65 16.7453 11.04C16.7453 10.43 16.4103 9.885 15.8703 9.605L15.8753 9.61ZM15.1953 11.14L15.0353 11.22C14.2503 11.62 13.6253 12.245 13.2253 13.03L13.1453 13.19C13.1453 13.19 13.1153 13.25 13.0503 13.25C12.9853 13.25 12.9603 13.205 12.9553 13.19L12.8753 13.03C12.4753 12.245 11.8503 11.62 11.0653 11.22L10.9053 11.14C10.9053 11.14 10.8453 11.11 10.8453 11.045C10.8453 10.98 10.8903 10.955 10.9053 10.95L11.0653 10.87C11.8503 10.47 12.4753 9.845 12.8753 9.06L12.9553 8.9C12.9553 8.9 12.9853 8.84 13.0503 8.84C13.1153 8.84 13.1403 8.88 13.1453 8.9L13.2253 9.06C13.6253 9.845 14.2503 10.47 15.0353 10.87L15.1953 10.95C15.1953 10.95 15.2553 10.98 15.2553 11.045C15.2553 11.11 15.2103 11.135 15.1953 11.14Z" fill="#637381"/>
<path d="M18.0053 8.015C17.0203 5.745 14.7653 4.25 12.2753 4.25C9.15033 4.25 6.53033 6.565 6.09533 9.61C3.85533 10.475 2.48533 12.735 2.79033 15.175C3.12033 17.785 5.42033 19.75 8.15033 19.75H16.1003C19.1553 19.75 21.7753 17.545 22.1853 14.62C22.6053 11.64 20.8253 8.87 18.0003 8.015H18.0053ZM20.7003 14.41C20.3903 16.6 18.4103 18.25 16.1003 18.25H8.15033C6.18033 18.25 4.51533 16.85 4.28033 14.99C4.04533 13.12 5.18533 11.395 6.99533 10.89C7.30533 10.805 7.52533 10.53 7.54533 10.21C7.69533 7.705 9.77533 5.745 12.2803 5.745C14.2753 5.745 16.0703 7.01 16.7453 8.89C16.8303 9.13 17.0303 9.31 17.2803 9.365C19.5653 9.9 21.0353 12.065 20.7053 14.405L20.7003 14.41Z" fill="#637381"/>
</svg>
