<svg width="24" height="25" viewBox="0 0 24 25" fill="none" xmlns="http://www.w3.org/2000/svg">
<path d="M10.2253 15.17L10.1053 15.11C9.62033 14.86 9.22533 14.465 8.97533 13.98L8.91533 13.86C8.67533 13.385 7.99533 13.385 7.75033 13.86L7.69033 13.98C7.44033 14.465 7.04533 14.86 6.56033 15.11L6.44033 15.17C5.96533 15.41 5.96533 16.09 6.44033 16.335L6.56033 16.395C7.04533 16.645 7.44033 17.04 7.69033 17.525L7.75033 17.645C7.99033 18.12 8.67033 18.12 8.91533 17.645L8.97533 17.525C9.22533 17.04 9.62033 16.645 10.1053 16.395L10.2253 16.335C10.7003 16.095 10.7003 15.415 10.2253 15.17Z" fill="#212B36"/>
<path d="M15.3753 10.11L15.2153 10.03C14.7153 9.775 14.3153 9.375 14.0603 8.875L13.9803 8.715C13.7053 8.175 13.1553 7.84 12.5453 7.84C11.9353 7.84 11.3903 8.175 11.1103 8.715L11.0303 8.875C10.7753 9.375 10.3753 9.775 9.87533 10.03L9.71533 10.11C9.17533 10.385 8.84033 10.935 8.84033 11.54C8.84033 12.145 9.17533 12.695 9.71533 12.975L9.87533 13.055C10.3753 13.31 10.7753 13.71 11.0303 14.21L11.1103 14.37C11.3853 14.91 11.9353 15.245 12.5403 15.245C13.1453 15.245 13.6953 14.91 13.9753 14.37L14.0553 14.21C14.3103 13.71 14.7103 13.31 15.2103 13.055L15.3703 12.975C15.9103 12.7 16.2453 12.15 16.2453 11.54C16.2453 10.93 15.9103 10.385 15.3703 10.105L15.3753 10.11ZM14.6953 11.64L14.5353 11.72C13.7503 12.12 13.1253 12.745 12.7253 13.53L12.6453 13.69C12.6453 13.69 12.6153 13.75 12.5503 13.75C12.4853 13.75 12.4603 13.705 12.4553 13.69L12.3753 13.53C11.9753 12.745 11.3503 12.12 10.5653 11.72L10.4053 11.64C10.4053 11.64 10.3453 11.61 10.3453 11.545C10.3453 11.48 10.3903 11.455 10.4053 11.45L10.5653 11.37C11.3503 10.97 11.9753 10.345 12.3753 9.56L12.4553 9.4C12.4553 9.4 12.4853 9.34 12.5503 9.34C12.6153 9.34 12.6403 9.38 12.6453 9.4L12.7253 9.56C13.1253 10.345 13.7503 10.97 14.5353 11.37L14.6953 11.45C14.6953 11.45 14.7553 11.48 14.7553 11.545C14.7553 11.61 14.7103 11.635 14.6953 11.64Z" fill="#212B36"/>
<path d="M17.5053 8.515C16.5203 6.245 14.2653 4.75 11.7753 4.75C8.65033 4.75 6.03033 7.065 5.59533 10.11C3.35533 10.975 1.98533 13.235 2.29033 15.675C2.62033 18.285 4.92033 20.25 7.65033 20.25H15.6003C18.6553 20.25 21.2753 18.045 21.6853 15.12C22.1053 12.14 20.3253 9.37 17.5003 8.515H17.5053ZM20.2003 14.91C19.8903 17.1 17.9103 18.75 15.6003 18.75H7.65033C5.68033 18.75 4.01533 17.35 3.78033 15.49C3.54533 13.62 4.68533 11.895 6.49533 11.39C6.80533 11.305 7.02533 11.03 7.04533 10.71C7.19533 8.205 9.27533 6.245 11.7803 6.245C13.7753 6.245 15.5703 7.51 16.2453 9.39C16.3303 9.63 16.5303 9.81 16.7803 9.865C19.0653 10.4 20.5353 12.565 20.2053 14.905L20.2003 14.91Z" fill="#212B36"/>
</svg>
