<svg width="24" height="24" viewBox="0 0 24 24" fill="none" xmlns="http://www.w3.org/2000/svg">
<path d="M10.2253 14.67L10.1053 14.61C9.62033 14.36 9.22533 13.965 8.97533 13.48L8.91533 13.36C8.67533 12.885 7.99533 12.885 7.75033 13.36L7.69033 13.48C7.44033 13.965 7.04533 14.36 6.56033 14.61L6.44033 14.67C5.96533 14.91 5.96533 15.59 6.44033 15.835L6.56033 15.895C7.04533 16.145 7.44033 16.54 7.69033 17.025L7.75033 17.145C7.99033 17.62 8.67033 17.62 8.91533 17.145L8.97533 17.025C9.22533 16.54 9.62033 16.145 10.1053 15.895L10.2253 15.835C10.7003 15.595 10.7003 14.915 10.2253 14.67Z" fill="#919EAB"/>
<path d="M15.3753 9.61L15.2153 9.53C14.7153 9.275 14.3153 8.875 14.0603 8.375L13.9803 8.215C13.7053 7.675 13.1553 7.34 12.5453 7.34C11.9353 7.34 11.3903 7.675 11.1103 8.215L11.0303 8.375C10.7753 8.875 10.3753 9.275 9.87533 9.53L9.71533 9.61C9.17533 9.885 8.84033 10.435 8.84033 11.04C8.84033 11.645 9.17533 12.195 9.71533 12.475L9.87533 12.555C10.3753 12.81 10.7753 13.21 11.0303 13.71L11.1103 13.87C11.3853 14.41 11.9353 14.745 12.5403 14.745C13.1453 14.745 13.6953 14.41 13.9753 13.87L14.0553 13.71C14.3103 13.21 14.7103 12.81 15.2103 12.555L15.3703 12.475C15.9103 12.2 16.2453 11.65 16.2453 11.04C16.2453 10.43 15.9103 9.885 15.3703 9.605L15.3753 9.61ZM14.6953 11.14L14.5353 11.22C13.7503 11.62 13.1253 12.245 12.7253 13.03L12.6453 13.19C12.6453 13.19 12.6153 13.25 12.5503 13.25C12.4853 13.25 12.4603 13.205 12.4553 13.19L12.3753 13.03C11.9753 12.245 11.3503 11.62 10.5653 11.22L10.4053 11.14C10.4053 11.14 10.3453 11.11 10.3453 11.045C10.3453 10.98 10.3903 10.955 10.4053 10.95L10.5653 10.87C11.3503 10.47 11.9753 9.845 12.3753 9.06L12.4553 8.9C12.4553 8.9 12.4853 8.84 12.5503 8.84C12.6153 8.84 12.6403 8.88 12.6453 8.9L12.7253 9.06C13.1253 9.845 13.7503 10.47 14.5353 10.87L14.6953 10.95C14.6953 10.95 14.7553 10.98 14.7553 11.045C14.7553 11.11 14.7103 11.135 14.6953 11.14Z" fill="#919EAB"/>
<path d="M17.5053 8.015C16.5203 5.745 14.2653 4.25 11.7753 4.25C8.65033 4.25 6.03033 6.565 5.59533 9.61C3.35533 10.475 1.98533 12.735 2.29033 15.175C2.62033 17.785 4.92033 19.75 7.65033 19.75H15.6003C18.6553 19.75 21.2753 17.545 21.6853 14.62C22.1053 11.64 20.3253 8.87 17.5003 8.015H17.5053ZM20.2003 14.41C19.8903 16.6 17.9103 18.25 15.6003 18.25H7.65033C5.68033 18.25 4.01533 16.85 3.78033 14.99C3.54533 13.12 4.68533 11.395 6.49533 10.89C6.80533 10.805 7.02533 10.53 7.04533 10.21C7.19533 7.705 9.27533 5.745 11.7803 5.745C13.7753 5.745 15.5703 7.01 16.2453 8.89C16.3303 9.13 16.5303 9.31 16.7803 9.365C19.0653 9.9 20.5353 12.065 20.2053 14.405L20.2003 14.41Z" fill="#919EAB"/>
</svg>
