<svg width="24" height="24" viewBox="0 0 24 24" fill="none" xmlns="http://www.w3.org/2000/svg">
<path d="M21.2652 19.5298L21.1852 19.4898C20.8602 19.3248 20.6002 19.0598 20.4302 18.7348L20.3902 18.6548C20.2302 18.3398 19.7752 18.3398 19.6152 18.6548L19.5752 18.7348C19.4102 19.0598 19.1452 19.3198 18.8202 19.4898L18.7402 19.5298C18.4252 19.6898 18.4252 20.1448 18.7402 20.3048L18.8202 20.3448C19.1452 20.5098 19.4052 20.7748 19.5752 21.0998L19.6152 21.1798C19.7752 21.4948 20.2302 21.4948 20.3902 21.1798L20.4302 21.0998C20.5952 20.7748 20.8602 20.5148 21.1852 20.3448L21.2652 20.3048C21.5802 20.1448 21.5802 19.6898 21.2652 19.5298Z" fill="#212B36"/>
<path d="M19.6302 17.4748L19.7902 17.3948C20.3302 17.1198 20.6652 16.5698 20.6652 15.9648C20.6652 15.3598 20.3302 14.8098 19.7902 14.5298L19.6302 14.4498C19.1302 14.1948 18.7302 13.7948 18.4752 13.2948L18.3952 13.1348C18.1202 12.5948 17.5702 12.2598 16.9652 12.2598C16.3602 12.2598 15.8102 12.5948 15.5302 13.1348L15.4502 13.2948C15.1952 13.7948 14.7952 14.1948 14.2952 14.4498L14.1352 14.5298C13.5952 14.8048 13.2602 15.3548 13.2602 15.9648C13.2602 16.5748 13.5952 17.1198 14.1352 17.3998L14.2952 17.4798C14.7952 17.7348 15.1952 18.1348 15.4502 18.6348L15.5302 18.7948C15.8052 19.3348 16.3552 19.6698 16.9652 19.6698C17.5752 19.6698 18.1202 19.3348 18.4002 18.7948L18.4802 18.6348C18.7352 18.1348 19.1352 17.7348 19.6352 17.4798L19.6302 17.4748ZM17.1352 17.9498L17.0552 18.1098C17.0552 18.1098 17.0252 18.1698 16.9602 18.1698C16.8952 18.1698 16.8702 18.1248 16.8652 18.1098L16.7852 17.9498C16.3852 17.1648 15.7602 16.5398 14.9752 16.1398L14.8152 16.0598C14.8152 16.0598 14.7552 16.0298 14.7552 15.9648C14.7552 15.8998 14.8002 15.8748 14.8152 15.8698L14.9752 15.7898C15.7602 15.3898 16.3852 14.7648 16.7852 13.9798L16.8652 13.8198C16.8652 13.8198 16.8952 13.7598 16.9602 13.7598C17.0252 13.7598 17.0502 13.7998 17.0552 13.8198L17.1352 13.9798C17.5352 14.7648 18.1602 15.3898 18.9452 15.7898L19.1052 15.8698C19.1052 15.8698 19.1652 15.8998 19.1652 15.9648C19.1652 16.0298 19.1202 16.0548 19.1052 16.0598L18.9452 16.1398C18.1602 16.5398 17.5352 17.1648 17.1352 17.9498Z" fill="#212B36"/>
<path d="M13.3852 18.1848C12.8052 18.5998 12.3202 18.9148 12.0052 19.1198C10.3452 18.0598 3.86523 13.6648 3.86523 9.61477C3.86523 7.04477 5.45523 5.25477 7.72523 5.25477C9.14023 5.25477 10.3702 6.03977 11.3752 7.58977C11.6502 8.01477 12.3552 8.01477 12.6352 7.58977C13.6402 6.03977 14.8702 5.25477 16.2852 5.25477C18.5602 5.25477 20.1452 7.04977 20.1452 9.61477C20.1452 10.5098 19.8102 11.5048 19.1552 12.5648C18.9352 12.9148 19.0452 13.3798 19.3952 13.5998C19.7502 13.8198 20.2102 13.7098 20.4302 13.3598C21.2352 12.0598 21.6452 10.7998 21.6452 9.61977C21.6452 6.22477 19.3902 3.75977 16.2852 3.75977C15.1102 3.75977 13.4802 4.15977 12.0052 5.91977C10.5352 4.15477 8.90023 3.75977 7.72523 3.75977C4.62023 3.75977 2.36523 6.22477 2.36523 9.61977C2.36523 15.0948 11.2452 20.4298 11.6202 20.6548C11.7402 20.7248 11.8702 20.7598 12.0052 20.7598C12.1402 20.7598 12.2702 20.7248 12.3902 20.6548C12.4202 20.6348 13.1802 20.1848 14.2602 19.4148C14.5952 19.1748 14.6752 18.7048 14.4352 18.3698C14.1952 18.0348 13.7252 17.9548 13.3902 18.1948L13.3852 18.1848Z" fill="#212B36"/>
</svg>
