<svg width="25" height="24" viewBox="0 0 25 24" fill="none" xmlns="http://www.w3.org/2000/svg">
<path d="M21.7652 19.5298L21.6852 19.4898C21.3602 19.3248 21.1002 19.0598 20.9302 18.7348L20.8902 18.6548C20.7302 18.3398 20.2752 18.3398 20.1152 18.6548L20.0752 18.7348C19.9102 19.0598 19.6452 19.3198 19.3202 19.4898L19.2402 19.5298C18.9252 19.6898 18.9252 20.1448 19.2402 20.3048L19.3202 20.3448C19.6452 20.5098 19.9052 20.7748 20.0752 21.0998L20.1152 21.1798C20.2752 21.4948 20.7302 21.4948 20.8902 21.1798L20.9302 21.0998C21.0952 20.7748 21.3602 20.5148 21.6852 20.3448L21.7652 20.3048C22.0802 20.1448 22.0802 19.6898 21.7652 19.5298Z" fill="#637381"/>
<path d="M20.1302 17.4748L20.2902 17.3948C20.8302 17.1198 21.1652 16.5698 21.1652 15.9648C21.1652 15.3598 20.8302 14.8098 20.2902 14.5298L20.1302 14.4498C19.6302 14.1948 19.2302 13.7948 18.9752 13.2948L18.8952 13.1348C18.6202 12.5948 18.0702 12.2598 17.4652 12.2598C16.8602 12.2598 16.3102 12.5948 16.0302 13.1348L15.9502 13.2948C15.6952 13.7948 15.2952 14.1948 14.7952 14.4498L14.6352 14.5298C14.0952 14.8048 13.7602 15.3548 13.7602 15.9648C13.7602 16.5748 14.0952 17.1198 14.6352 17.3998L14.7952 17.4798C15.2952 17.7348 15.6952 18.1348 15.9502 18.6348L16.0302 18.7948C16.3052 19.3348 16.8552 19.6698 17.4652 19.6698C18.0752 19.6698 18.6202 19.3348 18.9002 18.7948L18.9802 18.6348C19.2352 18.1348 19.6352 17.7348 20.1352 17.4798L20.1302 17.4748ZM17.6352 17.9498L17.5552 18.1098C17.5552 18.1098 17.5252 18.1698 17.4602 18.1698C17.3952 18.1698 17.3702 18.1248 17.3652 18.1098L17.2852 17.9498C16.8852 17.1648 16.2602 16.5398 15.4752 16.1398L15.3152 16.0598C15.3152 16.0598 15.2552 16.0298 15.2552 15.9648C15.2552 15.8998 15.3002 15.8748 15.3152 15.8698L15.4752 15.7898C16.2602 15.3898 16.8852 14.7648 17.2852 13.9798L17.3652 13.8198C17.3652 13.8198 17.3952 13.7598 17.4602 13.7598C17.5252 13.7598 17.5502 13.7998 17.5552 13.8198L17.6352 13.9798C18.0352 14.7648 18.6602 15.3898 19.4452 15.7898L19.6052 15.8698C19.6052 15.8698 19.6652 15.8998 19.6652 15.9648C19.6652 16.0298 19.6202 16.0548 19.6052 16.0598L19.4452 16.1398C18.6602 16.5398 18.0352 17.1648 17.6352 17.9498Z" fill="#637381"/>
<path d="M13.8852 18.1848C13.3052 18.5998 12.8202 18.9148 12.5052 19.1198C10.8452 18.0598 4.36523 13.6648 4.36523 9.61477C4.36523 7.04477 5.95523 5.25477 8.22523 5.25477C9.64023 5.25477 10.8702 6.03977 11.8752 7.58977C12.1502 8.01477 12.8552 8.01477 13.1352 7.58977C14.1402 6.03977 15.3702 5.25477 16.7852 5.25477C19.0602 5.25477 20.6452 7.04977 20.6452 9.61477C20.6452 10.5098 20.3102 11.5048 19.6552 12.5648C19.4352 12.9148 19.5452 13.3798 19.8952 13.5998C20.2502 13.8198 20.7102 13.7098 20.9302 13.3598C21.7352 12.0598 22.1452 10.7998 22.1452 9.61977C22.1452 6.22477 19.8902 3.75977 16.7852 3.75977C15.6102 3.75977 13.9802 4.15977 12.5052 5.91977C11.0352 4.15477 9.40023 3.75977 8.22523 3.75977C5.12023 3.75977 2.86523 6.22477 2.86523 9.61977C2.86523 15.0948 11.7452 20.4298 12.1202 20.6548C12.2402 20.7248 12.3702 20.7598 12.5052 20.7598C12.6402 20.7598 12.7702 20.7248 12.8902 20.6548C12.9202 20.6348 13.6802 20.1848 14.7602 19.4148C15.0952 19.1748 15.1752 18.7048 14.9352 18.3698C14.6952 18.0348 14.2252 17.9548 13.8902 18.1948L13.8852 18.1848Z" fill="#637381"/>
</svg>
