<svg width="24" height="24" viewBox="0 0 24 24" fill="none" xmlns="http://www.w3.org/2000/svg">
<path d="M12.2942 19.5282C12.5186 19.3822 12.8288 19.1803 13.1974 18.9271L13.2051 18.9425L13.6814 18.6012C13.7896 18.5237 13.9479 18.5481 14.0288 18.661C14.1063 18.7692 14.0819 18.9275 13.969 19.0083L14.2602 19.4147L13.97 19.0076C13.0546 19.6603 12.3983 20.0631 12.184 20.1946C12.1634 20.2072 12.1469 20.2174 12.1346 20.225C12.0916 20.2494 12.0495 20.2598 12.0052 20.2598C11.9604 20.2598 11.9179 20.2491 11.8742 20.2241C11.6731 20.1034 9.40529 18.7371 7.18714 16.7349C6.07163 15.7279 4.98297 14.5728 4.17623 13.3472C3.36753 12.1187 2.86523 10.8547 2.86523 9.61977C2.86523 6.45802 4.9374 4.25977 7.72523 4.25977C8.77492 4.25977 10.2599 4.60546 11.621 6.23975L12.004 6.69962L12.3885 6.24093C13.7557 4.60953 15.237 4.25977 16.2852 4.25977C19.0731 4.25977 21.1452 6.45802 21.1452 9.61977C21.1452 10.6823 20.7759 11.8513 20.0062 13.0948C19.9313 13.2127 19.7787 13.2482 19.66 13.1756C19.5409 13.0997 19.5083 12.9427 19.5786 12.8309L19.5806 12.8276C20.2657 11.7188 20.6452 10.6326 20.6452 9.61477C20.6452 8.23026 20.2167 7.01636 19.4429 6.1416C18.665 5.26232 17.5624 4.75477 16.2852 4.75477C14.6511 4.75477 13.2828 5.67296 12.2171 7.31565C12.1865 7.36114 12.1142 7.40852 12.0034 7.40852C11.8916 7.40852 11.8225 7.36062 11.795 7.31814L11.7948 7.31775C10.7288 5.67374 9.36003 4.75477 7.72523 4.75477C6.45074 4.75477 5.34828 5.2609 4.56978 6.1394C3.79514 7.01353 3.36523 8.22755 3.36523 9.61477C3.36523 10.758 3.82068 11.8861 4.48151 12.9274C5.1446 13.9722 6.03752 14.966 6.96822 15.8509C8.82967 17.6207 10.8955 19.0044 11.7361 19.5412L12.0078 19.7147L12.278 19.5388L12.2942 19.5282ZM20.1652 15.9648C20.1652 16.3822 19.9354 16.759 19.5648 16.9485C19.5643 16.9487 19.5638 16.949 19.5633 16.9492L19.4066 17.0276L18.786 17.3378L18.8476 17.3994C18.5115 17.6732 18.2352 18.0147 18.0348 18.4076L18.033 18.4112L17.9548 18.5676C17.7595 18.9416 17.3856 19.1698 16.9652 19.1698C16.5419 19.1698 16.1656 18.9392 15.9765 18.5694C15.9763 18.5689 15.976 18.5684 15.9758 18.5679L15.8974 18.4112L15.8975 18.4112L15.8957 18.4076C15.5927 17.8137 15.1163 17.3373 14.5224 17.0343L14.5188 17.0326L14.3624 16.9543C13.9884 16.759 13.7602 16.3851 13.7602 15.9648C13.7602 15.5415 13.9908 15.1651 14.3606 14.9761C14.3611 14.9758 14.3616 14.9756 14.3621 14.9753L14.5188 14.897L14.5188 14.897L14.5224 14.8952C15.1163 14.5923 15.5927 14.1159 15.8957 13.5219L15.8974 13.5184L15.9756 13.362C16.1706 12.9887 16.549 12.7598 16.9652 12.7598C17.3827 12.7598 17.7595 12.9896 17.9489 13.3602C17.9492 13.3607 17.9494 13.3612 17.9497 13.3617L18.028 13.5184L18.028 13.5184L18.0298 13.5219C18.3327 14.1159 18.8091 14.5923 19.4031 14.8952L19.4066 14.897L19.5631 14.9752C19.9364 15.1701 20.1652 15.5486 20.1652 15.9648ZM20.0029 18.9961C20.2125 19.3834 20.5275 19.7071 20.9239 19.9174C20.5366 20.1271 20.2129 20.4421 20.0026 20.8385C19.7929 20.4512 19.4779 20.1274 19.0815 19.9171C19.4688 19.7075 19.7926 19.3924 20.0029 18.9961ZM19.1707 15.3435C18.481 14.9917 17.9334 14.444 17.5815 13.7544C17.5813 13.7538 17.581 13.7533 17.5807 13.7528L17.5121 13.6155C17.4317 13.429 17.2399 13.2598 16.9602 13.2598C16.7604 13.2598 16.619 13.3552 16.5421 13.4291C16.5038 13.4658 16.4762 13.5017 16.4576 13.5291C16.448 13.5431 16.4401 13.556 16.4336 13.5672C16.4304 13.5728 16.4275 13.578 16.4249 13.5828L16.4213 13.5898L16.4196 13.5931L16.4188 13.5946L16.4184 13.5954L16.4182 13.5958C16.4181 13.596 16.418 13.5962 16.8652 13.8198L16.418 13.5962L16.3397 13.7528C16.3395 13.7533 16.3392 13.7538 16.3389 13.7544C15.9871 14.444 15.4395 14.9916 14.7499 15.3434C14.7493 15.3437 14.7488 15.344 14.7482 15.3443L14.5916 15.4226L14.5917 15.4227C14.448 15.4937 14.2552 15.6618 14.2552 15.9648C14.2552 16.1646 14.3507 16.306 14.4245 16.3829C14.4613 16.4212 14.4972 16.4488 14.5245 16.4674C14.5386 16.477 14.5515 16.4849 14.5626 16.4914C14.5682 16.4946 14.5735 16.4975 14.5783 16.5001L14.5853 16.5037L14.5885 16.5054L14.5901 16.5062L14.5909 16.5066L14.5912 16.5068C14.5914 16.5069 14.5916 16.507 14.8152 16.0598L14.5916 16.507L14.7482 16.5853C14.7488 16.5855 14.7493 16.5858 14.7499 16.5861C15.4395 16.9379 15.9871 17.4855 16.3389 18.1752C16.3392 18.1757 16.3395 18.1762 16.3397 18.1768L16.418 18.3334L16.4181 18.3333C16.4892 18.477 16.6572 18.6698 16.9602 18.6698C17.1601 18.6698 17.3015 18.5743 17.3784 18.5005C17.4167 18.4637 17.4442 18.4278 17.4629 18.4005C17.4725 18.3864 17.4804 18.3735 17.4868 18.3624C17.4901 18.3568 17.493 18.3515 17.4955 18.3467L17.4992 18.3397L17.5009 18.3365L17.5017 18.3349L17.5021 18.3341L17.5023 18.3338C17.5023 18.3336 17.5024 18.3334 17.0552 18.1098L17.5024 18.3334L17.5024 18.3334L17.5807 18.1768C17.581 18.1762 17.5813 18.1757 17.5815 18.1752C17.9334 17.4855 18.481 16.9379 19.1707 16.5861C19.1712 16.5858 19.1717 16.5855 19.1722 16.5853L19.3288 16.507L19.3288 16.5069C19.4724 16.4358 19.6652 16.2678 19.6652 15.9648C19.6652 15.7649 19.5698 15.6235 19.4959 15.5466C19.4592 15.5083 19.4233 15.4807 19.3959 15.4621C19.3819 15.4525 19.369 15.4446 19.3578 15.4382C19.3556 15.4369 19.3535 15.4357 19.3514 15.4345C19.3482 15.4327 19.3451 15.431 19.3422 15.4295L19.3352 15.4258L19.3319 15.4241L19.3304 15.4233L19.3296 15.4229L19.3292 15.4227C19.329 15.4226 19.3288 15.4226 19.1052 15.8698L19.3288 15.4226L19.1722 15.3443C19.1717 15.344 19.1712 15.3437 19.1707 15.3435Z" fill="#919EAB" stroke="#919EAB"/>
</svg>
