<svg width="30" height="30" viewBox="0 0 30 30" fill="none" xmlns="http://www.w3.org/2000/svg">
<g filter="url(#filter0_d_1046_112394)">
<circle cx="15" cy="15" r="11" fill="#A0A5A9"/>
</g>
<path d="M15 18.6364C13.9939 18.6364 13.1364 18.2818 12.4273 17.5727C11.7182 16.8636 11.3636 16.0061 11.3636 15C11.3636 13.9939 11.7182 13.1364 12.4273 12.4273C13.1364 11.7182 13.9939 11.3636 15 11.3636C16.0061 11.3636 16.8636 11.7182 17.5727 12.4273C18.2818 13.1364 18.6364 13.9939 18.6364 15C18.6364 16.0061 18.2818 16.8636 17.5727 17.5727C16.8636 18.2818 16.0061 18.6364 15 18.6364ZM7.72727 15.7273C7.52121 15.7273 7.34848 15.6576 7.20909 15.5182C7.0697 15.3788 7 15.2061 7 15C7 14.7939 7.0697 14.6212 7.20909 14.4818C7.34848 14.3424 7.52121 14.2727 7.72727 14.2727H9.18182C9.38788 14.2727 9.56061 14.3424 9.7 14.4818C9.83939 14.6212 9.90909 14.7939 9.90909 15C9.90909 15.2061 9.83939 15.3788 9.7 15.5182C9.56061 15.6576 9.38788 15.7273 9.18182 15.7273H7.72727ZM20.8182 15.7273C20.6121 15.7273 20.4394 15.6576 20.3 15.5182C20.1606 15.3788 20.0909 15.2061 20.0909 15C20.0909 14.7939 20.1606 14.6212 20.3 14.4818C20.4394 14.3424 20.6121 14.2727 20.8182 14.2727H22.2727C22.4788 14.2727 22.6515 14.3424 22.7909 14.4818C22.9303 14.6212 23 14.7939 23 15C23 15.2061 22.9303 15.3788 22.7909 15.5182C22.6515 15.6576 22.4788 15.7273 22.2727 15.7273H20.8182ZM15 9.90909C14.7939 9.90909 14.6212 9.83939 14.4818 9.7C14.3424 9.56061 14.2727 9.38788 14.2727 9.18182V7.72727C14.2727 7.52121 14.3424 7.34848 14.4818 7.20909C14.6212 7.0697 14.7939 7 15 7C15.2061 7 15.3788 7.0697 15.5182 7.20909C15.6576 7.34848 15.7273 7.52121 15.7273 7.72727V9.18182C15.7273 9.38788 15.6576 9.56061 15.5182 9.7C15.3788 9.83939 15.2061 9.90909 15 9.90909ZM15 23C14.7939 23 14.6212 22.9303 14.4818 22.7909C14.3424 22.6515 14.2727 22.4788 14.2727 22.2727V20.8182C14.2727 20.6121 14.3424 20.4394 14.4818 20.3C14.6212 20.1606 14.7939 20.0909 15 20.0909C15.2061 20.0909 15.3788 20.1606 15.5182 20.3C15.6576 20.4394 15.7273 20.6121 15.7273 20.8182V22.2727C15.7273 22.4788 15.6576 22.6515 15.5182 22.7909C15.3788 22.9303 15.2061 23 15 23ZM10.3818 11.4L9.6 10.6364C9.45455 10.503 9.38485 10.3333 9.39091 10.1273C9.39697 9.92121 9.46667 9.74545 9.6 9.6C9.74545 9.45455 9.92121 9.38182 10.1273 9.38182C10.3333 9.38182 10.503 9.45455 10.6364 9.6L11.4 10.3818C11.5333 10.5273 11.6 10.697 11.6 10.8909C11.6 11.0848 11.5333 11.2545 11.4 11.4C11.2667 11.5455 11.1 11.6152 10.9 11.6091C10.7 11.603 10.5273 11.5333 10.3818 11.4ZM19.3636 20.4L18.6 19.6182C18.4667 19.4727 18.4 19.3 18.4 19.1C18.4 18.9 18.4667 18.7333 18.6 18.6C18.7333 18.4545 18.9 18.3848 19.1 18.3909C19.3 18.397 19.4727 18.4667 19.6182 18.6L20.4 19.3636C20.5455 19.497 20.6152 19.6667 20.6091 19.8727C20.603 20.0788 20.5333 20.2545 20.4 20.4C20.2545 20.5455 20.0788 20.6182 19.8727 20.6182C19.6667 20.6182 19.497 20.5455 19.3636 20.4ZM18.6 11.4C18.4545 11.2667 18.3848 11.1 18.3909 10.9C18.397 10.7 18.4667 10.5273 18.6 10.3818L19.3636 9.6C19.497 9.45455 19.6667 9.38485 19.8727 9.39091C20.0788 9.39697 20.2545 9.46667 20.4 9.6C20.5455 9.74545 20.6182 9.92121 20.6182 10.1273C20.6182 10.3333 20.5455 10.503 20.4 10.6364L19.6182 11.4C19.4727 11.5333 19.303 11.6 19.1091 11.6C18.9152 11.6 18.7455 11.5333 18.6 11.4ZM9.6 20.4C9.45455 20.2545 9.38182 20.0788 9.38182 19.8727C9.38182 19.6667 9.45455 19.497 9.6 19.3636L10.3818 18.6C10.5273 18.4667 10.7 18.4 10.9 18.4C11.1 18.4 11.2667 18.4667 11.4 18.6C11.5455 18.7333 11.6152 18.9 11.6091 19.1C11.603 19.3 11.5333 19.4727 11.4 19.6182L10.6364 20.4C10.503 20.5455 10.3333 20.6152 10.1273 20.6091C9.92121 20.603 9.74545 20.5333 9.6 20.4Z" fill="#FFF9E0"/>
<defs>
<filter id="filter0_d_1046_112394" x="0" y="0" width="30" height="30" filterUnits="userSpaceOnUse" color-interpolation-filters="sRGB">
<feFlood flood-opacity="0" result="BackgroundImageFix"/>
<feColorMatrix in="SourceAlpha" type="matrix" values="0 0 0 0 0 0 0 0 0 0 0 0 0 0 0 0 0 0 127 0" result="hardAlpha"/>
<feOffset/>
<feGaussianBlur stdDeviation="2"/>
<feComposite in2="hardAlpha" operator="out"/>
<feColorMatrix type="matrix" values="0 0 0 0 0 0 0 0 0 0 0 0 0 0 0 0 0 0 0.16 0"/>
<feBlend mode="normal" in2="BackgroundImageFix" result="effect1_dropShadow_1046_112394"/>
<feBlend mode="normal" in="SourceGraphic" in2="effect1_dropShadow_1046_112394" result="shape"/>
</filter>
</defs>
</svg>
