<svg width="16" height="16" viewBox="0 0 16 16" xmlns="http://www.w3.org/2000/svg">
<path d="M3.57635 5.77051C3.19613 5.77051 3.00602 5.77051 2.85054 5.81437C2.45965 5.92465 2.15415 6.23015 2.04387 6.62105C2 6.77654 2 6.96661 2 7.34674C2 8.93181 2 10.5789 2 12.1639C2 12.5441 2 12.7341 2.04387 12.8896C2.15415 13.2805 2.45965 13.586 2.85054 13.6963C3.00602 13.7401 3.19613 13.7402 3.57635 13.7402C3.95657 13.7402 4.14669 13.7401 4.30217 13.6963C4.69306 13.586 4.99855 13.2805 5.10884 12.8896C5.15271 12.7341 5.15271 12.5441 5.15271 12.1639C5.15271 10.5789 5.15271 8.93181 5.15271 7.34674C5.15271 6.96661 5.15271 6.77654 5.10884 6.62105C4.99855 6.23015 4.69306 5.92465 4.30217 5.81437C4.14669 5.77051 3.95657 5.77051 3.57635 5.77051Z" stroke-linecap="round" stroke-linejoin="round"/>
<path d="M5.15234 6.49178C6.11616 5.24563 7.07226 3.99307 8.044 2.75309C8.35186 2.36023 8.89093 2.16235 9.37486 2.30304C10.4542 2.61682 10.1787 4.53109 9.8964 5.54633C9.68706 6.29918 9.9416 6.56031 10.5545 6.56031C11.8947 6.56031 12.5315 6.56031 12.9877 6.83447C13.405 7.0852 13.7113 7.4852 13.8448 7.95333C14.123 8.92947 14.0272 10.7889 13.5503 12.0849C13.2283 12.9605 12.3197 13.5627 11.5327 13.65C10.47 13.7679 8.98666 13.7254 7.86673 13.6632C6.8376 13.6061 5.87917 13.1482 5.15234 12.4174" stroke-linecap="round" stroke-linejoin="round"/>
</svg>
