<svg width="25" height="24" viewBox="0 0 25 24" fill="none" xmlns="http://www.w3.org/2000/svg">
<g clip-path="url(#clip0_60_13721)">
<path d="M23.5021 21.5839H23.7291L23.2941 20.9259C23.5601 20.9259 23.7011 20.7569 23.7031 20.5499C23.7031 20.5419 23.7031 20.5329 23.7021 20.5249C23.7021 20.2429 23.5321 20.1079 23.1831 20.1079H22.6191V21.5839H22.8311V20.9409H23.0921L23.5021 21.5839ZM23.0771 20.7739H22.8311V20.2749H23.1431C23.3041 20.2749 23.4881 20.3009 23.4881 20.5119C23.4881 20.7539 23.3031 20.7739 23.0771 20.7739Z" fill="#637381"/>
<path d="M17.791 19.0729H14.784V14.3639C14.784 13.2409 14.764 11.7959 13.22 11.7959C11.654 11.7959 11.414 13.0189 11.414 14.2829V19.0729H8.408V9.38888H11.295V10.7119H11.335C11.924 9.70587 13.018 9.10487 14.183 9.14787C17.231 9.14787 17.792 11.1529 17.792 13.7599L17.791 19.0729ZM5.015 8.06487C4.051 8.06487 3.27 7.28388 3.27 6.31988C3.27 5.35588 4.051 4.57487 5.015 4.57487C5.979 4.57487 6.76 5.35588 6.76 6.31988C6.76 7.28388 5.979 8.06487 5.015 8.06487ZM6.518 19.0729H3.508V9.38888H6.518V19.0729ZM19.29 1.78287H1.997C1.18 1.77387 0.51 2.42887 0.5 3.24587V20.6099C0.51 21.4279 1.18 22.0829 1.997 22.0739H19.29C20.109 22.0839 20.782 21.4289 20.793 20.6099V3.24487C20.781 2.42587 20.108 1.77087 19.29 1.78187" fill="#637381"/>
<path d="M23.1035 19.4507C22.3395 19.4577 21.7255 20.0837 21.7335 20.8477C21.7405 21.6117 22.3665 22.2257 23.1305 22.2177C23.8945 22.2107 24.5085 21.5847 24.5005 20.8207C24.4935 20.0667 23.8835 19.4577 23.1305 19.4507H23.1035ZM23.1355 22.0587C22.4655 22.0697 21.8815 21.5367 21.8705 20.8667C21.8595 20.1967 22.3935 19.6447 23.0635 19.6337C23.7335 19.6227 24.2855 20.1567 24.2965 20.8267C24.2965 20.8337 24.2965 20.8397 24.2965 20.8467C24.3105 21.5017 23.7905 22.0447 23.1355 22.0587H23.1045H23.1355Z" fill="#637381"/>
</g>
<defs>
<clipPath id="clip0_60_13721">
<rect width="24" height="24" fill="white" transform="translate(0.5)"/>
</clipPath>
</defs>
</svg>
