<svg width="24" height="24" viewBox="0 0 24 24" fill="none" xmlns="http://www.w3.org/2000/svg">
<path d="M11.6985 14.25C11.4859 14.25 11.282 14.329 11.1317 14.4697C10.9814 14.6103 10.8969 14.8011 10.8969 15V17.25C10.8969 17.8467 10.6436 18.419 10.1926 18.841C9.74167 19.2629 9.13005 19.5 8.4923 19.5H6.50769C5.86995 19.5 5.25833 19.2629 4.80737 18.841C4.35642 18.419 4.10308 17.8467 4.10308 17.25V6.75C4.10308 6.15326 4.35642 5.58097 4.80737 5.15901C5.25833 4.73705 5.86995 4.5 6.50769 4.5H8.4923C9.13005 4.5 9.74167 4.73705 10.1926 5.15901C10.6436 5.58097 10.8969 6.15326 10.8969 6.75V9C10.8969 9.19891 10.9814 9.38968 11.1317 9.53033C11.282 9.67098 11.4859 9.75 11.6985 9.75C11.911 9.75 12.1149 9.67098 12.2652 9.53033C12.4156 9.38968 12.5 9.19891 12.5 9V6.75C12.4987 5.7558 12.0761 4.80267 11.3248 4.09966C10.5735 3.39666 9.55482 3.00119 8.4923 3H6.50769C5.44518 3.00119 4.42655 3.39666 3.67523 4.09966C2.92392 4.80267 2.50127 5.7558 2.5 6.75L2.5 17.25C2.50127 18.2442 2.92392 19.1973 3.67523 19.9003C4.42655 20.6033 5.44518 20.9988 6.50769 21H8.4923C9.55482 20.9988 10.5735 20.6033 11.3248 19.9003C12.0761 19.1973 12.4987 18.2442 12.5 17.25V15C12.5 14.8011 12.4156 14.6103 12.2652 14.4697C12.1149 14.329 11.911 14.25 11.6985 14.25Z" fill="#ED4E4E"/>
<path d="M19.8447 10.4877L16.4195 7.21768C16.3506 7.14958 16.2681 7.09526 16.177 7.05789C16.0859 7.02052 15.9879 7.00085 15.8887 7.00003C15.7896 6.9992 15.6912 7.01725 15.5994 7.0531C15.5076 7.08895 15.4242 7.14189 15.3541 7.20884C15.284 7.27579 15.2285 7.3554 15.191 7.44303C15.1534 7.53066 15.1345 7.62455 15.1354 7.71923C15.1362 7.81391 15.1568 7.90747 15.196 7.99446C15.2351 8.08146 15.292 8.16014 15.3634 8.22591L18.5466 11.2656L7.24689 11.287C7.0488 11.287 6.85883 11.3621 6.71876 11.4958C6.57869 11.6295 6.5 11.8109 6.5 12C6.5 12.1891 6.57869 12.3705 6.71876 12.5042C6.85883 12.6379 7.0488 12.713 7.24689 12.713L18.5907 12.6909L15.3619 15.7741C15.2905 15.8399 15.2336 15.9185 15.1945 16.0055C15.1553 16.0925 15.1347 16.1861 15.1339 16.2808C15.133 16.3754 15.1519 16.4693 15.1895 16.557C15.227 16.6446 15.2825 16.7242 15.3526 16.7912C15.4227 16.8581 15.5061 16.9111 15.5979 16.9469C15.6897 16.9828 15.7881 17.0008 15.8872 17C15.9864 16.9992 16.0844 16.9795 16.1755 16.9421C16.2667 16.9047 16.3491 16.8504 16.418 16.7823L19.8432 13.5123C20.2635 13.1114 20.4997 12.5675 20.5 12.0003C20.5003 11.4331 20.2646 10.889 19.8447 10.4877Z" fill="#ED4E4E"/>
</svg>
