<svg width="91" height="42" viewBox="0 0 91 42" fill="none" xmlns="http://www.w3.org/2000/svg">
<path d="M16.3743 26.9647C16.7426 27.4634 17.518 27.8112 18.3968 27.8769V12.9472V12.2909C16.8234 12.3336 15.2758 12.8816 14.1257 13.8167C14.0805 13.8528 14.0417 13.8922 13.9997 13.9283L12.646 12.117C12.7332 11.9595 12.7882 11.7791 12.7882 11.5855C12.7882 10.985 12.3068 10.4961 11.7155 10.4961C11.1243 10.4961 10.6462 10.9883 10.6462 11.5888C10.6462 12.1892 11.1275 12.6781 11.7188 12.6781C11.8835 12.6781 12.0354 12.6388 12.1775 12.5698L13.5345 14.3844C12.058 15.9955 11.4926 18.5089 11.8092 22.0297C11.8092 22.0461 11.8125 22.0625 11.8157 22.0789H10.6494V20.4448H10V24.3725H10.6462V22.7384H11.8803C12.0806 24.4742 12.4102 25.8589 12.9109 27.0533C13.7412 29.0352 15.6635 31.3419 18.4032 31.5027V30.8431V28.543C17.308 28.4708 16.3517 28.0311 15.8638 27.3617C15.7572 27.2141 15.7863 27.0106 15.9285 26.9023C16.0738 26.7941 16.2774 26.8236 16.3808 26.9713L16.3743 26.9647ZM11.7188 12.0219C11.4829 12.0219 11.2923 11.8283 11.2923 11.5888C11.2923 11.3492 11.4829 11.1556 11.7188 11.1556C11.9546 11.1556 12.1452 11.3492 12.1452 11.5888C12.1452 11.8283 11.9546 12.0219 11.7188 12.0219ZM14.2969 21.4325C14.2969 20.5203 15.0271 19.7755 15.9252 19.7755C16.8234 19.7755 17.5568 20.5203 17.5568 21.4325C17.5568 22.3447 16.8266 23.0895 15.9252 23.0895C15.0238 23.0895 14.2969 22.3447 14.2969 21.4325Z" fill="#F5F6F8"/>
<path d="M16.9109 21.4334C16.9109 20.8821 16.4683 20.4326 15.9255 20.4326C15.3827 20.4326 14.9434 20.8821 14.9434 21.4334C14.9434 21.9846 15.3827 22.4342 15.9255 22.4342C16.4683 22.4342 16.9109 21.9846 16.9109 21.4334Z" fill="#FFEFD1"/>
<path d="M76.5284 17.6301C77.8738 17.6301 78.9389 18.0815 79.7237 18.9827C80.5226 19.8701 80.9212 21.0764 80.9212 22.6016V29.4033H76.8009V23.1423C76.8009 22.4768 76.6265 21.9561 76.2745 21.5832C75.9242 21.195 75.4539 21.0009 74.8653 21.0009C74.2766 21.0009 73.7659 21.195 73.4155 21.5832C73.0651 21.9576 72.8892 22.4768 72.8892 23.1423V29.4033H68.7688V14.0112H72.8892V19.3987C73.2536 18.8718 73.7441 18.4481 74.3607 18.1292C74.9914 17.7965 75.7139 17.6301 76.5268 17.6301H76.5284ZM62.3033 23.5583C62.3033 22.8096 62.0931 22.2211 61.6726 21.7897C61.2662 21.3599 60.7617 21.1457 60.159 21.1457C59.5564 21.1457 59.0316 21.3599 58.6252 21.7897C58.2188 22.2056 58.0148 22.7942 58.0148 23.5583C58.0148 24.3224 58.2172 24.9032 58.6252 25.3469C59.0316 25.7767 59.5439 25.9909 60.159 25.9909C60.7741 25.9909 61.2662 25.7767 61.6726 25.3469C62.0931 24.9171 62.3033 24.3209 62.3033 23.5583ZM53.8103 23.5583C53.8103 22.352 54.0283 21.2982 54.4612 20.397C54.9097 19.4957 55.5123 18.8025 56.2691 18.3172C57.04 17.8319 57.8949 17.59 58.8338 17.59C59.6467 17.59 60.3475 17.7487 60.9361 18.0676C61.5247 18.3865 61.981 18.8163 62.3033 19.3571V17.7348H66.4237V29.4018H62.3033V27.7795C61.981 28.3203 61.5185 28.7501 60.9158 29.069C60.3272 29.3879 59.6343 29.5481 58.8354 29.5481C57.8964 29.5481 57.0415 29.3047 56.2707 28.8194C55.5139 28.3341 54.9113 27.6409 54.4628 26.7396C54.0283 25.8245 53.8119 24.763 53.8119 23.5583H53.8103ZM46.4852 25.5549L48.6918 17.7348H53.0862L49.0297 29.4018H43.9003L39.8422 17.7348H44.2366L46.4868 25.5549H46.4852ZM38.4843 17.7348V29.4018H34.364V17.7348H38.4843ZM36.4444 16.6533C35.7156 16.6533 35.127 16.4592 34.6785 16.071C34.2441 15.6689 34.0276 15.1698 34.0276 14.5735C34.0276 13.9773 34.2441 13.4582 34.6785 13.0561C35.127 12.654 35.7156 12.4521 36.4444 12.4521C37.1731 12.4521 37.7337 12.6524 38.1682 13.0561C38.6167 13.4582 38.8409 13.9635 38.8409 14.5735C38.8409 15.1836 38.6167 15.6689 38.1682 16.071C37.7337 16.4592 37.1591 16.6533 36.4444 16.6533ZM27.8953 23.5583C27.8953 22.8096 27.6851 22.2211 27.2647 21.7897C26.8582 21.3599 26.3537 21.1457 25.7511 21.1457C25.1484 21.1457 24.6236 21.3599 24.2172 21.7897C23.8108 22.2056 23.6068 22.7942 23.6068 23.5583C23.6068 24.3224 23.8092 24.9032 24.2172 25.3469C24.6236 25.7767 25.1344 25.9909 25.7511 25.9909C26.3677 25.9909 26.8582 25.7767 27.2647 25.3469C27.6851 24.9171 27.8953 24.3209 27.8953 23.5583ZM19.4023 23.5583C19.4023 22.352 19.6204 21.2982 20.0533 20.397C20.5017 19.4957 21.1044 18.8025 21.8612 18.3172C22.632 17.8319 23.4869 17.59 24.4259 17.59C25.2387 17.59 25.9395 17.7487 26.5281 18.0676C27.1167 18.3865 27.573 18.8163 27.8953 19.3571V17.7348H32.0157V29.4018H27.8953V27.7795C27.573 28.3203 27.1105 28.7501 26.5079 29.069C25.9192 29.3879 25.2263 29.5481 24.4274 29.5481C23.4884 29.5481 22.6335 29.3047 21.8627 28.8194C21.1059 28.3341 20.5033 27.6409 20.0548 26.7396C19.6204 25.8245 19.4039 24.763 19.4039 23.5583H19.4023Z" fill="#F5F6F8"/>
</svg>
