<svg width="24" height="25" viewBox="0 0 24 25" xmlns="http://www.w3.org/2000/svg">
<mask id="path-1-inside-1_114_6665" fill="white">
<path d="M17.8333 3.44202H6.16667C5.062 3.44332 4.00296 3.87474 3.22185 4.64165C2.44073 5.40856 2.00132 6.44835 2 7.53293L2 17.3511C2.00132 18.4357 2.44073 19.4755 3.22185 20.2424C4.00296 21.0093 5.062 21.4407 6.16667 21.442H17.8333C18.938 21.4407 19.997 21.0093 20.7782 20.2424C21.5593 19.4755 21.9987 18.4357 22 17.3511V7.53293C21.9987 6.44835 21.5593 5.40856 20.7782 4.64165C19.997 3.87474 18.938 3.44332 17.8333 3.44202ZM6.16667 5.07838H17.8333C18.3323 5.07934 18.8196 5.22689 19.2325 5.50204C19.6453 5.77718 19.9649 6.16734 20.15 6.62229L13.7683 12.8887C13.2987 13.348 12.6628 13.6059 12 13.6059C11.3372 13.6059 10.7013 13.348 10.2317 12.8887L3.85 6.62229C4.03512 6.16734 4.35468 5.77718 4.76754 5.50204C5.1804 5.22689 5.66768 5.07934 6.16667 5.07838ZM17.8333 19.8057H6.16667C5.50363 19.8057 4.86774 19.5471 4.3989 19.0867C3.93006 18.6264 3.66667 18.0021 3.66667 17.3511V8.7602L9.05333 14.0457C9.83552 14.8117 10.8952 15.2419 12 15.2419C13.1048 15.2419 14.1645 14.8117 14.9467 14.0457L20.3333 8.7602V17.3511C20.3333 18.0021 20.0699 18.6264 19.6011 19.0867C19.1323 19.5471 18.4964 19.8057 17.8333 19.8057Z"/>
</mask>
<path d="M17.8333 3.44202H6.16667C5.062 3.44332 4.00296 3.87474 3.22185 4.64165C2.44073 5.40856 2.00132 6.44835 2 7.53293L2 17.3511C2.00132 18.4357 2.44073 19.4755 3.22185 20.2424C4.00296 21.0093 5.062 21.4407 6.16667 21.442H17.8333C18.938 21.4407 19.997 21.0093 20.7782 20.2424C21.5593 19.4755 21.9987 18.4357 22 17.3511V7.53293C21.9987 6.44835 21.5593 5.40856 20.7782 4.64165C19.997 3.87474 18.938 3.44332 17.8333 3.44202ZM6.16667 5.07838H17.8333C18.3323 5.07934 18.8196 5.22689 19.2325 5.50204C19.6453 5.77718 19.9649 6.16734 20.15 6.62229L13.7683 12.8887C13.2987 13.348 12.6628 13.6059 12 13.6059C11.3372 13.6059 10.7013 13.348 10.2317 12.8887L3.85 6.62229C4.03512 6.16734 4.35468 5.77718 4.76754 5.50204C5.1804 5.22689 5.66768 5.07934 6.16667 5.07838ZM17.8333 19.8057H6.16667C5.50363 19.8057 4.86774 19.5471 4.3989 19.0867C3.93006 18.6264 3.66667 18.0021 3.66667 17.3511V8.7602L9.05333 14.0457C9.83552 14.8117 10.8952 15.2419 12 15.2419C13.1048 15.2419 14.1645 14.8117 14.9467 14.0457L20.3333 8.7602V17.3511C20.3333 18.0021 20.0699 18.6264 19.6011 19.0867C19.1323 19.5471 18.4964 19.8057 17.8333 19.8057Z" />
<path d="M17.8333 3.44202L17.8584 -17.8913L17.8459 -17.8913H17.8333V3.44202ZM6.16667 3.44202V-17.8913H6.15412L6.14158 -17.8913L6.16667 3.44202ZM2 7.53293L-19.3333 7.5069L-19.3333 7.51991V7.53293H2ZM2 17.3511H-19.3333V17.3641L-19.3333 17.3771L2 17.3511ZM6.16667 21.442L6.14158 42.7753L6.15412 42.7753H6.16667V21.442ZM17.8333 21.442V42.7753H17.8459L17.8584 42.7753L17.8333 21.442ZM22 17.3511L43.3333 17.3771L43.3333 17.3641V17.3511H22ZM22 7.53293H43.3333V7.51991L43.3333 7.5069L22 7.53293ZM6.16667 5.07838V-16.255H6.14607L6.12547 -16.2549L6.16667 5.07838ZM17.8333 5.07838L17.8745 -16.2549L17.8539 -16.255H17.8333V5.07838ZM20.15 6.62229L35.0969 21.844L45.2992 11.8259L39.9101 -1.41825L20.15 6.62229ZM13.7683 12.8887L28.6837 28.1414L28.6995 28.1259L28.7152 28.1105L13.7683 12.8887ZM10.2317 12.8887L-4.71525 28.1105L-4.69949 28.1259L-4.68369 28.1414L10.2317 12.8887ZM3.85 6.62229L-15.9101 -1.41825L-21.2992 11.8259L-11.0969 21.844L3.85 6.62229ZM17.8333 19.8057V41.139V19.8057ZM6.16667 19.8057V41.139V19.8057ZM3.66667 17.3511H-17.6667H3.66667ZM3.66667 8.7602L18.6079 -6.46712L-17.6667 -42.0601V8.7602H3.66667ZM9.05333 14.0457L-5.88788 29.273L-5.8806 29.2801L-5.87332 29.2873L9.05333 14.0457ZM12 15.2419V-6.09147V15.2419ZM14.9467 14.0457L29.8733 29.2873L29.8806 29.2801L29.8879 29.273L14.9467 14.0457ZM20.3333 8.7602H41.6667V-42.0601L5.39212 -6.46712L20.3333 8.7602ZM20.3333 17.3511H41.6667H20.3333ZM17.8333 -17.8913H6.16667V24.7754H17.8333V-17.8913ZM6.14158 -17.8913C-0.487435 -17.8835 -6.91964 -15.2981 -11.7241 -10.581L18.1678 19.8643C14.9256 23.0476 10.6114 24.7701 6.19176 24.7753L6.14158 -17.8913ZM-11.7241 -10.581C-16.5417 -5.85101 -19.3249 0.645887 -19.3333 7.5069L23.3333 7.55895C23.3276 12.2508 21.4232 16.6681 18.1678 19.8643L-11.7241 -10.581ZM-19.3333 7.53293V17.3511H23.3333V7.53293H-19.3333ZM-19.3333 17.3771C-19.3249 24.2381 -16.5417 30.735 -11.7241 35.4651L18.1678 5.01968C21.4232 8.2159 23.3276 12.6332 23.3333 17.3251L-19.3333 17.3771ZM-11.7241 35.4651C-6.91963 40.1822 -0.487425 42.7675 6.14158 42.7753L6.19176 0.108697C10.6114 0.113895 14.9256 1.83642 18.1678 5.01968L-11.7241 35.4651ZM6.16667 42.7753H17.8333V0.108683H6.16667V42.7753ZM17.8584 42.7753C24.4874 42.7675 30.9196 40.1822 35.7241 35.4651L5.83223 5.01968C9.07444 1.83642 13.3886 0.113895 17.8082 0.108697L17.8584 42.7753ZM35.7241 35.4651C40.5417 30.735 43.3249 24.2381 43.3333 17.3771L0.666681 17.3251C0.672406 12.6332 2.57682 8.2159 5.83223 5.01968L35.7241 35.4651ZM43.3333 17.3511V7.53293H0.666666V17.3511H43.3333ZM43.3333 7.5069C43.3249 0.645897 40.5417 -5.851 35.7241 -10.581L5.83223 19.8643C2.57682 16.6681 0.672406 12.2508 0.666681 7.55895L43.3333 7.5069ZM35.7241 -10.581C30.9196 -15.2981 24.4874 -17.8835 17.8584 -17.8913L17.8082 24.7753C13.3886 24.7701 9.07444 23.0476 5.83223 19.8643L35.7241 -10.581ZM6.16667 26.4117H17.8333V-16.255H6.16667V26.4117ZM17.7921 26.4117C14.1202 26.4046 10.5022 25.3206 7.4017 23.2543L31.0632 -12.2503C27.137 -14.8669 22.5444 -16.2459 17.8745 -16.2549L17.7921 26.4117ZM7.4017 23.2543C4.29679 21.1851 1.83281 18.2088 0.389916 14.6628L39.9101 -1.41825C38.0969 -5.87414 34.9939 -9.63075 31.0632 -12.2503L7.4017 23.2543ZM5.20309 -8.59943L-1.17858 -2.33298L28.7152 28.1105L35.0969 21.844L5.20309 -8.59943ZM-1.14703 -2.3639C2.40996 -5.84223 7.1443 -7.72748 12 -7.72748V34.9392C18.1814 34.9392 24.1874 32.5382 28.6837 28.1414L-1.14703 -2.3639ZM12 -7.72748C16.8557 -7.72748 21.59 -5.84223 25.147 -2.3639L-4.68369 28.1414C-0.187419 32.5382 5.81861 34.9392 12 34.9392V-7.72748ZM25.1786 -2.33298L18.7969 -8.59943L-11.0969 21.844L-4.71525 28.1105L25.1786 -2.33298ZM23.6101 14.6628C22.1672 18.2088 19.7032 21.1851 16.5983 23.2543L-7.06322 -12.2503C-10.9939 -9.63075 -14.0969 -5.87414 -15.9101 -1.41825L23.6101 14.6628ZM16.5983 23.2543C13.4978 25.3206 9.87976 26.4046 6.20787 26.4117L6.12547 -16.2549C1.4556 -16.2459 -3.13698 -14.8669 -7.06322 -12.2503L16.5983 23.2543ZM17.8333 -1.52768H6.16667V41.139H17.8333V-1.52768ZM6.16667 -1.52768C11.0365 -1.52768 15.7841 0.368018 19.3448 3.86404L-10.547 34.3094C-6.04858 38.7261 -0.0292976 41.139 6.16667 41.139V-1.52768ZM19.3448 3.86404C22.9189 7.37308 25 12.2165 25 17.3511H-17.6667C-17.6667 23.7877 -15.0587 29.8797 -10.547 34.3094L19.3448 3.86404ZM25 17.3511V8.7602H-17.6667V17.3511H25ZM-11.2745 23.9875L-5.88788 29.273L23.9945 -1.18167L18.6079 -6.46712L-11.2745 23.9875ZM-5.87332 29.2873C-1.06339 33.9978 5.37137 36.5752 12 36.5752V-6.09147C16.4191 -6.09147 20.7344 -4.37443 23.98 -1.19595L-5.87332 29.2873ZM12 36.5752C18.6286 36.5752 25.0634 33.9978 29.8733 29.2873L0.0200185 -1.19595C3.26557 -4.37443 7.58094 -6.09147 12 -6.09147V36.5752ZM29.8879 29.273L35.2745 23.9875L5.39212 -6.46712L0.00545526 -1.18167L29.8879 29.273ZM-1 8.7602V17.3511H41.6667V8.7602H-1ZM-1 17.3511C-1 12.2165 1.08114 7.37309 4.65518 3.86404L34.547 34.3094C39.0587 29.8797 41.6667 23.7877 41.6667 17.3511H-1ZM4.65518 3.86404C8.21594 0.368015 12.9635 -1.52768 17.8333 -1.52768V41.139C24.0293 41.139 30.0486 38.7261 34.547 34.3094L4.65518 3.86404Z" mask="url(#path-1-inside-1_114_6665)"/>
</svg>
