<?xml version="1.0" encoding="UTF-8"?>
<svg version="1.1" xmlns="http://www.w3.org/2000/svg" width="30" height="30" viewBox="0 0 200 200">
<path d="M0 0 C4.07143317 0.41719292 7.12064808 1.89728629 10.6652832 3.80639648 C11.34249924 4.15916153 12.01971527 4.51192657 12.717453 4.87538147 C14.86640995 5.99857613 17.00586339 7.13869363 19.14575195 8.27905273 C20.6028679 9.04250442 22.0605451 9.80488593 23.51879883 10.56616211 C34.1138628 16.12216358 34.1138628 16.12216358 35.33325195 17.34155273 C35.63701113 21.63953465 35.1441971 24.4683959 33.22073364 28.30157471 C32.51828018 29.72318909 32.51828018 29.72318909 31.80163574 31.17352295 C31.28113647 32.19609192 30.76063721 33.21866089 30.22436523 34.2722168 C29.68137787 35.36228027 29.1383905 36.45234375 28.57894897 37.57543945 C27.09171664 40.55488164 25.59400554 43.52858257 24.09108591 46.50011158 C22.51969714 49.6127581 20.96132435 52.73190946 19.40133667 55.85028076 C16.78135214 61.08287301 14.1524018 66.31087718 11.51733398 71.53588867 C8.13406982 78.24459797 4.76571272 84.96067631 1.40199471 91.67920303 C-1.49039795 97.45603182 -4.3895998 103.22943762 -7.2899003 109.00229931 C-8.22203901 110.85837936 -9.15323908 112.71492809 -10.08431625 114.57154083 C-11.81754018 118.02639016 -13.55784223 121.47764504 -15.29907227 124.9284668 C-15.81552307 125.95913269 -16.33197388 126.98979858 -16.86407471 128.05169678 C-17.33801666 128.9881604 -17.81195862 129.92462402 -18.30026245 130.88946533 C-18.71138212 131.70575535 -19.12250179 132.52204536 -19.54607964 133.36307144 C-20.66674805 135.34155273 -20.66674805 135.34155273 -22.66674805 137.34155273 C-27.74479955 137.95805444 -31.33702054 136.42246617 -35.74487305 134.13061523 C-36.72384552 133.63831924 -36.72384552 133.63831924 -37.72259521 133.13607788 C-39.09354779 132.44390881 -40.46162228 131.74601261 -41.8269043 131.04272461 C-43.91841571 129.96569396 -46.01807226 128.90615303 -48.11987305 127.84936523 C-49.45371238 127.17327925 -50.78706353 126.49622909 -52.11987305 125.81811523 C-52.74694153 125.50033112 -53.37401001 125.182547 -54.02008057 124.85513306 C-56.57843368 123.53365868 -58.61681269 122.39148809 -60.66674805 120.34155273 C-61.92285003 113.04419837 -58.09952436 107.39561074 -54.79174805 101.09155273 C-54.25549805 100.04225586 -53.71924805 98.99295898 -53.16674805 97.91186523 C-50.68084413 93.06724319 -48.15253166 88.24650047 -45.58764648 83.44335938 C-40.07026862 73.0845121 -34.77352864 62.6239694 -29.54174805 52.11889648 C-29.18298458 51.39873226 -28.82422112 50.67856804 -28.45458603 49.93658066 C-25.08740047 43.17576293 -21.72546061 36.4123427 -18.36743164 29.64697266 C-16.51136678 25.90812681 -14.65144851 22.17121904 -12.78912354 18.43548775 C-12.08588935 17.02282203 -11.38417299 15.60939965 -10.684021 14.19520378 C-9.71442553 12.23687676 -8.73998518 10.28103406 -7.7644043 8.32568359 C-7.21276611 7.2149498 -6.66112793 6.104216 -6.09277344 4.95982361 C-3.64575268 0.46694205 -3.64575268 0.46694205 0 0 Z " fill="#E30FF7" transform="translate(60.666748046875,42.658447265625)"/>
<path d="M0 0 C1.13695312 0.16991455 1.13695312 0.16991455 2.296875 0.34326172 C3.18375 0.47120117 4.070625 0.59914062 4.984375 0.73095703 C5.995 0.90981445 7.005625 1.08867188 8.046875 1.27294922 C9.779375 1.57604004 9.779375 1.57604004 11.546875 1.88525391 C15.39035624 2.59489667 19.21794025 3.36380174 23.046875 4.14794922 C24.3814815 4.40721268 25.71611675 4.66632822 27.05078125 4.92529297 C28.30761719 5.18181641 29.56445312 5.43833984 30.859375 5.70263672 C32.00019531 5.93192871 33.14101562 6.1612207 34.31640625 6.39746094 C37.046875 7.27294922 37.046875 7.27294922 39.046875 10.27294922 C39.23231432 17.49365039 37.26551937 24.96053596 35.86962891 32.0090332 C35.64996964 33.13708878 35.43031036 34.26514435 35.20399475 35.42738342 C34.48222539 39.12561969 33.75336602 42.82240902 33.0234375 46.51904297 C32.51631066 49.09829718 32.00926228 51.67756683 31.50228882 54.2568512 C30.44194044 59.64637257 29.37672067 65.03491755 28.30957031 70.4230957 C27.07661288 76.64926733 25.85594763 82.87776649 24.64073431 89.10742325 C23.46813503 95.11514935 22.28282289 101.12030117 21.09275436 107.12458992 C20.58900466 109.67520066 20.08907534 112.22656897 19.59300613 114.77868462 C18.90052337 118.33558851 18.19359058 121.88932106 17.48291016 125.44262695 C17.17884499 127.02991104 17.17884499 127.02991104 16.86863708 128.64926147 C16.67243271 129.61497574 16.47622833 130.58069 16.27407837 131.57566833 C16.10853266 132.41533866 15.94298695 133.25500898 15.7724247 134.12012386 C14.94887755 136.56372377 14.06087285 137.68640879 12.046875 139.27294922 C10.09375 139.44824219 10.09375 139.44824219 7.796875 139.14013672 C6.91 139.0212207 6.023125 138.90230469 5.109375 138.77978516 C-0.93908714 137.7787801 -6.9472772 136.62791805 -12.953125 135.39794922 C-14.2877315 135.13868576 -15.62236675 134.87957022 -16.95703125 134.62060547 C-18.21386719 134.36408203 -19.47070312 134.10755859 -20.765625 133.84326172 C-21.90644531 133.61396973 -23.04726562 133.38467773 -24.22265625 133.1484375 C-26.953125 132.27294922 -26.953125 132.27294922 -28.953125 129.27294922 C-28.53283206 122.3031674 -27.12804806 115.507226 -25.77587891 108.66625977 C-25.55621964 107.53995651 -25.33656036 106.41365326 -25.11024475 105.2532196 C-24.387535 101.55454333 -23.6590908 97.85702969 -22.9296875 94.15966797 C-22.42261601 91.58136926 -21.91556678 89.00306618 -21.40853882 86.42475891 C-20.48274966 81.72075525 -19.55429314 77.01728601 -18.62366068 72.31423825 C-17.25576949 65.40145555 -15.89731776 58.48690609 -14.54698431 51.57067269 C-13.37353102 45.5636579 -12.18841059 39.5589996 -10.99900436 33.55512428 C-10.49553868 31.00528421 -9.99560639 28.45474385 -9.49925613 25.90350914 C-8.80587035 22.34450192 -8.0992073 18.788381 -7.38916016 15.23266602 C-7.08509499 13.64841827 -7.08509499 13.64841827 -6.77488708 12.03216553 C-6.57868271 11.06363144 -6.38247833 10.09509735 -6.18032837 9.09721375 C-6.01478266 8.2571664 -5.84923695 7.41711905 -5.6786747 6.55161572 C-4.67815049 3.40936232 -3.48065086 0.48642096 0 0 Z " fill="#9428DB" transform="translate(107.953125,41.72705078125)"/>
<path d="M0 0 C12.21 0 24.42 0 37 0 C37 44.55 37 89.1 37 135 C24.79 135 12.58 135 0 135 C-2.5868352 132.4131648 -2.25114535 131.39833016 -2.25396729 127.79968262 C-2.25960693 126.69756943 -2.26524658 125.59545624 -2.27105713 124.45994568 C-2.26700867 123.24533157 -2.26296021 122.03071747 -2.25878906 120.77929688 C-2.2622937 119.50449966 -2.26579834 118.22970245 -2.26940918 116.91627502 C-2.27854594 113.41426627 -2.27498368 109.91237503 -2.26865101 106.41036415 C-2.26359765 102.75042014 -2.26828061 99.09048639 -2.27142334 95.43054199 C-2.27506493 89.28359159 -2.27025885 83.13668921 -2.26074219 76.98974609 C-2.24985725 69.8767428 -2.25338269 62.76385415 -2.264395 55.65085363 C-2.2734624 49.55061023 -2.27475584 43.45040141 -2.26951766 37.35015345 C-2.26639494 33.70374833 -2.26599686 30.05739716 -2.27259064 26.41099548 C-2.279425 22.34749529 -2.2699603 18.28419366 -2.25878906 14.22070312 C-2.26283752 13.00608902 -2.26688599 11.79147491 -2.27105713 10.54005432 C-2.26541748 9.43794113 -2.25977783 8.33582794 -2.25396729 7.20031738 C-2.25321323 6.23871956 -2.25245918 5.27712173 -2.25168228 4.28638458 C-2 2 -2 2 0 0 Z " fill="#7908D1" transform="translate(153,44)"/>
</svg>
