<svg width="41" height="40" viewBox="0 0 41 40" fill="none" xmlns="http://www.w3.org/2000/svg">
<rect x="0.5" width="40" height="40" rx="8" fill="#FD0000"/>
<mask id="mask0_132_11890" style="mask-type:alpha" maskUnits="userSpaceOnUse" x="8" y="8" width="25" height="24">
<rect x="8.5" y="8" width="24" height="24" fill="#D9D9D9"/>
</mask>
<g mask="url(#mask0_132_11890)">
<path d="M20.0625 23.4375C22.2373 23.4375 24 21.6748 24 19.5V12.9375C24 10.7627 22.2373 9 20.0625 9C17.8877 9 16.125 10.7627 16.125 12.9375V19.5C16.125 21.6748 17.8877 23.4375 20.0625 23.4375Z" fill="white"/>
<path d="M26.625 19.5V16.875H25.3125V19.2952C25.3125 21.8153 23.6299 24.1357 21.1598 24.6384C17.7866 25.3249 14.8125 22.7537 14.8125 19.5V16.875H13.5V19.5C13.5 22.6684 15.7588 25.3196 18.75 25.9299V28.6875H16.125V30H24V28.6875H21.375V25.9299C24.3662 25.3196 26.625 22.6684 26.625 19.5Z" fill="white"/>
</g>
</svg>
