<svg width="24" height="24" viewBox="0 0 24 24" xmlns="http://www.w3.org/2000/svg">
<mask id="mask0_1243_4188" style="mask-type:alpha" maskUnits="userSpaceOnUse" x="0" y="0" width="24" height="24">
<rect x="0.5" y="0.0144043" width="24" height="24" fill="#D9D9D9"/>
</mask>
<g mask="url(#mask0_1243_4188)">
<path d="M12.0625 15.4519C14.2373 15.4519 16 13.6892 16 11.5144V4.9519C16 2.77709 14.2373 1.0144 12.0625 1.0144C9.88769 1.0144 8.125 2.77709 8.125 4.9519V11.5144C8.125 13.6892 9.88769 15.4519 12.0625 15.4519Z"/>
<path d="M18.625 11.5144V8.8894H17.3125V11.3097C17.3125 13.8297 15.6299 16.1502 13.1598 16.6528C9.78663 17.3393 6.8125 14.7681 6.8125 11.5144V8.8894H5.5V11.5144C5.5 14.6828 7.75881 17.334 10.75 17.9443V20.7019H8.125V22.0144H16V20.7019H13.375V17.9443C16.3662 17.334 18.625 14.6828 18.625 11.5144Z"/>
</g>
</svg>
