<svg width="24" height="25" viewBox="0 0 24 25" fill="none" xmlns="http://www.w3.org/2000/svg">
<path d="M12 18.3823C14.6787 16.2208 14.7261 20.5986 18 17.062M6.04411 16.6099C6.05031 16.3611 6.05341 16.2367 6.08379 16.1198C6.11072 16.0161 6.15338 15.9173 6.21029 15.8264C6.27447 15.724 6.36296 15.6359 6.53993 15.4599L15.2417 6.80562C15.5908 6.45846 16.136 6.40029 16.5511 6.6659C17.0433 6.98077 17.4638 7.39454 17.7857 7.88063L17.8082 7.9147C17.8245 7.93932 17.8327 7.95163 17.8396 7.96272C18.0951 8.37032 18.0411 8.8982 17.7081 9.24616C17.6991 9.25563 17.6886 9.26605 17.6676 9.28691L9.01874 17.8886C8.83516 18.0712 8.74336 18.1624 8.63623 18.2277C8.54125 18.2855 8.43769 18.328 8.32937 18.3538C8.20719 18.3828 8.07738 18.3826 7.81777 18.3822L6 18.3793L6.04411 16.6099Z" stroke-width="1.34" stroke-linecap="round" stroke-linejoin="round"/>
</svg>
