<svg width="12" height="12" viewBox="0 0 12 12" fill="none" xmlns="http://www.w3.org/2000/svg">
<path d="M11.2647 3.60609L8.87513 1.2361L9.80509 0.305269C10.0084 0.101756 10.2589 0 10.5567 0C10.8544 0 11.1049 0.101756 11.3082 0.305269L12.1837 1.18158C12.3871 1.3851 12.4924 1.63222 12.4996 1.92297C12.5069 2.21371 12.4089 2.46083 12.2055 2.66435L11.2647 3.60609ZM1.13993 12C0.957486 12 0.805219 11.9389 0.683131 11.8167C0.561044 11.6945 0.5 11.5421 0.5 11.3594V9.87532C0.5 9.78991 0.515429 9.7086 0.546287 9.63137C0.577145 9.55414 0.62571 9.48236 0.691981 9.41604L8.1072 1.99383L10.4968 4.38563L3.08152 11.8078C3.01526 11.8742 2.94355 11.9228 2.8664 11.9537C2.78924 11.9846 2.70799 12 2.62266 12H1.13993Z" fill="black"/>
</svg>
