<svg width="25" height="24" viewBox="0 0 25 24" xmlns="http://www.w3.org/2000/svg">
<path d="M19.1667 10.6667H13.8333V5.33333C13.8333 4.97971 13.6929 4.64057 13.4428 4.39052C13.1928 4.14048 12.8536 4 12.5 4C12.1464 4 11.8072 4.14048 11.5572 4.39052C11.3071 4.64057 11.1667 4.97971 11.1667 5.33333V10.6667H5.83333C5.47971 10.6667 5.14057 10.8071 4.89052 11.0572C4.64048 11.3072 4.5 11.6464 4.5 12C4.5 12.3536 4.64048 12.6928 4.89052 12.9428C5.14057 13.1929 5.47971 13.3333 5.83333 13.3333H11.1667V18.6667C11.1667 19.0203 11.3071 19.3594 11.5572 19.6095C11.8072 19.8595 12.1464 20 12.5 20C12.8536 20 13.1928 19.8595 13.4428 19.6095C13.6929 19.3594 13.8333 19.0203 13.8333 18.6667V13.3333H19.1667C19.5203 13.3333 19.8594 13.1929 20.1095 12.9428C20.3595 12.6928 20.5 12.3536 20.5 12C20.5 11.6464 20.3595 11.3072 20.1095 11.0572C19.8594 10.8071 19.5203 10.6667 19.1667 10.6667Z" />
</svg>
