<svg width="42" height="44" viewBox="0 0 42 44" fill="none" xmlns="http://www.w3.org/2000/svg">
<rect width="42" height="44" rx="8" fill="#FFF9E0"/>
<path d="M30.469 23.9L30.0167 23.644C30.2203 22.5564 30.2203 21.4416 30.0167 20.354L30.469 20.098C30.8169 19.901 31.1218 19.6387 31.3664 19.3261C31.611 19.0134 31.7904 18.6565 31.8945 18.2758C31.9986 17.8951 32.0252 17.498 31.9729 17.1072C31.9206 16.7163 31.7904 16.3394 31.5897 15.998C31.3891 15.6566 31.1218 15.3573 30.8033 15.1172C30.4847 14.8771 30.1211 14.701 29.7332 14.5989C29.3454 14.4967 28.9408 14.4706 28.5426 14.5219C28.1444 14.5732 27.7604 14.701 27.4125 14.898L26.9592 15.155C26.1029 14.4369 25.1188 13.8802 24.0565 13.513V13C24.0565 12.2044 23.7345 11.4413 23.1613 10.8787C22.5881 10.3161 21.8106 10 21 10C20.1894 10 19.4119 10.3161 18.8387 10.8787C18.2655 11.4413 17.9435 12.2044 17.9435 13V13.513C16.8813 13.8816 15.8975 14.4396 15.0419 15.159L14.5865 14.9C13.8839 14.5022 13.0491 14.3946 12.2657 14.6009C11.4824 14.8072 10.8146 15.3104 10.4092 16C10.0039 16.6896 9.89429 17.5089 10.1045 18.2778C10.3146 19.0467 10.8274 19.7022 11.53 20.1L11.9823 20.356C11.7787 21.4436 11.7787 22.5584 11.9823 23.646L11.53 23.902C10.8274 24.2998 10.3146 24.9553 10.1045 25.7242C9.89429 26.4931 10.0039 27.3124 10.4092 28.002C10.8146 28.6916 11.4824 29.1948 12.2657 29.4011C13.0491 29.6074 13.8839 29.4998 14.5865 29.102L15.0398 28.845C15.8964 29.5632 16.8808 30.1199 17.9435 30.487V31C17.9435 31.7956 18.2655 32.5587 18.8387 33.1213C19.4119 33.6839 20.1894 34 21 34C21.8106 34 22.5881 33.6839 23.1613 33.1213C23.7345 32.5587 24.0565 31.7956 24.0565 31V30.487C25.1187 30.1184 26.1025 29.5604 26.9581 28.841L27.4136 29.099C28.1161 29.4968 28.9509 29.6044 29.7343 29.3981C30.5176 29.1918 31.1854 28.6886 31.5908 27.999C31.9961 27.3094 32.1057 26.4901 31.8955 25.7212C31.6854 24.9523 31.1726 24.2968 30.47 23.899L30.469 23.9ZM27.873 20.124C28.2181 21.3511 28.2181 22.6469 27.873 23.874C27.8128 24.0876 27.8265 24.3147 27.9121 24.5198C27.9977 24.7249 28.1502 24.8963 28.3458 25.007L29.4502 25.633C29.6843 25.7656 29.8552 25.9841 29.9252 26.2403C29.9953 26.4966 29.9587 26.7697 29.8236 26.9995C29.6885 27.2293 29.4659 27.397 29.2048 27.4658C28.9437 27.5345 28.6655 27.4986 28.4314 27.366L27.3249 26.738C27.1292 26.6267 26.9013 26.5826 26.6772 26.6124C26.4531 26.6423 26.2454 26.7445 26.087 26.903C25.1802 27.8117 24.0377 28.46 22.783 28.778C22.5639 28.8333 22.3699 28.9585 22.2314 29.1339C22.0928 29.3094 22.0177 29.525 22.0178 29.747V31C22.0178 31.2652 21.9105 31.5196 21.7194 31.7071C21.5283 31.8946 21.2692 32 20.999 32C20.7288 32 20.4696 31.8946 20.2786 31.7071C20.0875 31.5196 19.9801 31.2652 19.9801 31V29.748C19.9803 29.526 19.9051 29.3104 19.7666 29.1349C19.6281 28.9595 19.434 28.8343 19.215 28.779C17.9602 28.4597 16.818 27.81 15.912 26.9C15.7535 26.7415 15.5459 26.6393 15.3218 26.6094C15.0977 26.5796 14.8698 26.6237 14.6741 26.735L13.5697 27.362C13.4537 27.4287 13.3255 27.4722 13.1924 27.4901C13.0593 27.508 12.9239 27.4998 12.794 27.4661C12.6641 27.4324 12.5422 27.3738 12.4355 27.2937C12.3288 27.2136 12.2392 27.1135 12.1721 26.9993C12.1049 26.8851 12.0614 26.759 12.0441 26.6282C12.0267 26.4974 12.0359 26.3646 12.0711 26.2373C12.1064 26.11 12.1669 25.9909 12.2492 25.8866C12.3315 25.7824 12.434 25.6952 12.5508 25.63L13.6552 25.004C13.8508 24.8933 14.0033 24.7219 14.0889 24.5168C14.1745 24.3117 14.1882 24.0846 14.128 23.871C13.783 22.6439 13.783 21.3481 14.128 20.121C14.1871 19.9079 14.1727 19.6815 14.087 19.4773C14.0013 19.273 13.8491 19.1024 13.6542 18.992L12.5498 18.366C12.3157 18.2334 12.1448 18.0149 12.0748 17.7587C12.0047 17.5024 12.0413 17.2293 12.1764 16.9995C12.3115 16.7697 12.5341 16.602 12.7952 16.5332C13.0563 16.4645 13.3345 16.5004 13.5686 16.633L14.6751 17.261C14.8703 17.3725 15.0977 17.4172 15.3216 17.3881C15.5455 17.3589 15.7531 17.2576 15.912 17.1C16.8188 16.1913 17.9613 15.543 19.216 15.225C19.4357 15.1696 19.6303 15.0438 19.7689 14.8675C19.9075 14.6913 19.9822 14.4746 19.9812 14.252V13C19.9812 12.7348 20.0885 12.4804 20.2796 12.2929C20.4706 12.1054 20.7298 12 21 12C21.2702 12 21.5294 12.1054 21.7204 12.2929C21.9115 12.4804 22.0188 12.7348 22.0188 13V14.252C22.0187 14.474 22.0938 14.6896 22.2324 14.8651C22.3709 15.0405 22.565 15.1657 22.784 15.221C24.0392 15.5402 25.1817 16.1899 26.088 17.1C26.2465 17.2585 26.4541 17.3607 26.6782 17.3906C26.9023 17.4204 27.1302 17.3763 27.3259 17.265L28.4303 16.638C28.5463 16.5713 28.6745 16.5278 28.8076 16.5099C28.9407 16.492 29.0761 16.5002 29.206 16.5339C29.3359 16.5676 29.4578 16.6262 29.5645 16.7063C29.6712 16.7864 29.7608 16.8865 29.8279 17.0007C29.8951 17.1149 29.9386 17.241 29.9559 17.3718C29.9733 17.5026 29.9641 17.6354 29.9289 17.7627C29.8936 17.89 29.8331 18.0091 29.7508 18.1134C29.6685 18.2176 29.566 18.3048 29.4492 18.37L28.3448 18.996C28.1502 19.1067 27.9984 19.2775 27.9131 19.4817C27.8278 19.6859 27.8137 19.9121 27.873 20.125V20.124Z" fill="#1D1D1D"/>
<path d="M21 18C20.2076 18 19.4331 18.2346 18.7742 18.6741C18.1154 19.1136 17.6019 19.7384 17.2987 20.4693C16.9955 21.2002 16.9161 22.0044 17.0707 22.7804C17.2253 23.5563 17.6068 24.269 18.1671 24.8284C18.7274 25.3878 19.4413 25.7688 20.2184 25.9231C20.9956 26.0775 21.8011 25.9983 22.5331 25.6955C23.2652 25.3928 23.8909 24.8801 24.3311 24.2223C24.7713 23.5645 25.0063 22.7911 25.0063 22C25.0063 20.9391 24.5842 19.9217 23.8329 19.1716C23.0815 18.4214 22.0625 18 21 18ZM21 24C20.6038 24 20.2165 23.8827 19.8871 23.6629C19.5577 23.4432 19.301 23.1308 19.1493 22.7654C18.9977 22.3999 18.9581 21.9978 19.0354 21.6098C19.1126 21.2219 19.3034 20.8655 19.5836 20.5858C19.8637 20.3061 20.2206 20.1156 20.6092 20.0384C20.9978 19.9613 21.4005 20.0009 21.7666 20.1522C22.1326 20.3036 22.4454 20.56 22.6655 20.8889C22.8857 21.2178 23.0031 21.6044 23.0031 22C23.0031 22.5304 22.7921 23.0391 22.4164 23.4142C22.0408 23.7893 21.5313 24 21 24Z" fill="#1D1D1D"/>
</svg>
