<svg width="25" height="24" viewBox="0 0 25 24" fill="none" xmlns="http://www.w3.org/2000/svg">
<path d="M21.7441 4.68996L21.6591 4.64496C21.3141 4.46996 21.0291 4.18496 20.8541 3.83996L20.8091 3.75496C20.6341 3.41496 20.1541 3.41496 19.9791 3.75496L19.9341 3.83996C19.7591 4.18496 19.4741 4.46996 19.1291 4.64496L19.0441 4.68996C18.7041 4.86496 18.7041 5.34496 19.0441 5.51996L19.1291 5.56496C19.4741 5.73996 19.7591 6.02496 19.9341 6.36996L19.9791 6.45496C20.1541 6.79496 20.6341 6.79496 20.8091 6.45496L20.8541 6.36996C21.0291 6.02496 21.3141 5.73996 21.6591 5.56496L21.7441 5.51996C22.0841 5.34496 22.0841 4.86496 21.7441 4.68996Z" fill="#637381"/>
<path d="M19.6441 12.67L19.5241 12.61C19.0391 12.36 18.6441 11.965 18.3941 11.48L18.3341 11.36C18.0941 10.885 17.4141 10.885 17.1691 11.36L17.1091 11.48C16.8591 11.965 16.4641 12.36 15.9791 12.61L15.8591 12.67C15.3841 12.91 15.3841 13.59 15.8591 13.835L15.9791 13.895C16.4641 14.145 16.8591 14.54 17.1091 15.025L17.1691 15.145C17.4091 15.62 18.0891 15.62 18.3341 15.145L18.3941 15.025C18.6441 14.54 19.0391 14.145 19.5241 13.895L19.6441 13.835C20.1191 13.595 20.1191 12.915 19.6441 12.67Z" fill="#637381"/>
<path d="M16.6291 8.55496L16.7891 8.47496C17.3291 8.19996 17.6641 7.64996 17.6641 7.03996C17.6641 6.42996 17.3291 5.88496 16.7891 5.60496L16.6291 5.52496C16.1291 5.26996 15.7291 4.86996 15.4741 4.36996L15.3941 4.20996C15.1191 3.66996 14.5691 3.33496 13.9641 3.33496C13.3591 3.33496 12.8091 3.66996 12.5291 4.20996L12.4491 4.36996C12.1941 4.86996 11.7941 5.26996 11.2941 5.52496L11.1341 5.60496C10.5941 5.87996 10.2591 6.42996 10.2591 7.03496C10.2591 7.63996 10.5941 8.18996 11.1341 8.46996L11.2941 8.54996C11.7941 8.80496 12.1941 9.20496 12.4491 9.70496L12.5291 9.86496C12.8041 10.405 13.3541 10.74 13.9641 10.74C14.5741 10.74 15.1191 10.405 15.3991 9.86496L15.4791 9.70496C15.7341 9.20496 16.1341 8.80496 16.6341 8.54996L16.6291 8.55496ZM14.1341 9.02996L14.0541 9.18996C14.0541 9.18996 14.0241 9.24996 13.9591 9.24996C13.8941 9.24996 13.8691 9.20496 13.8641 9.18996L13.7841 9.02996C13.3841 8.24496 12.7591 7.61996 11.9741 7.21996L11.8141 7.13996C11.8141 7.13996 11.7541 7.10996 11.7541 7.04496C11.7541 6.97996 11.7991 6.95496 11.8141 6.94996L11.9741 6.86996C12.7591 6.46996 13.3841 5.84496 13.7841 5.05996L13.8641 4.89996C13.8641 4.89996 13.8941 4.83996 13.9591 4.83996C14.0241 4.83996 14.0491 4.87996 14.0541 4.89996L14.1341 5.05996C14.5341 5.84496 15.1591 6.46996 15.9441 6.86996L16.1041 6.94996C16.1041 6.94996 16.1641 6.97996 16.1641 7.04496C16.1641 7.10996 16.1191 7.13496 16.1041 7.13996L15.9441 7.21996C15.1591 7.61996 14.5341 8.24496 14.1341 9.02996Z" fill="#637381"/>
<path d="M9.12406 9.61996C8.57406 9.06996 7.79906 8.86496 7.04406 9.06996C6.29406 9.27496 5.72906 9.84496 5.53406 10.6L4.16906 15.86L3.41906 16.61C2.32906 17.7 2.32906 19.48 3.41906 20.57L3.92906 21.08C4.47406 21.625 5.19406 21.9 5.90906 21.9C6.62406 21.9 7.34406 21.625 7.88906 21.08L8.65406 20.315L13.7891 18.735C14.5141 18.51 15.0541 17.94 15.2391 17.205C15.4241 16.47 15.2091 15.71 14.6741 15.175L9.12406 9.61996ZM6.83406 20.02C6.32906 20.525 5.49906 20.525 4.99406 20.02L4.48406 19.51C3.97906 19.005 3.97906 18.175 4.48406 17.67L4.79406 17.36L7.14406 19.71L6.83406 20.02ZM13.7891 16.845C13.7641 16.95 13.6691 17.21 13.3541 17.305L8.46906 18.805L5.67906 16.015L6.98406 10.975C7.06906 10.65 7.32906 10.545 7.43906 10.515C7.54406 10.485 7.82406 10.445 8.06406 10.68L13.6191 16.235C13.8491 16.465 13.8141 16.74 13.7891 16.845Z" fill="#637381"/>
</svg>
