<svg xmlns="http://www.w3.org/2000/svg" viewBox="0 0 81 48" fill="none" class="injected-svg" data-src="/images/ui/logoText.svg" xmlns:xlink="http://www.w3.org/1999/xlink">
<g clip-path="url(#clip0-3)">
<path d="M41.1433 3.15429L41.4176 5.02857H45.2119L44.1147 0H39.0405L35.9319 5.02857H40.0919L41.1433 3.15429Z" fill="currentColor"></path>
<path d="M45.2566 13.1199L43.8395 6.3999H40.0452L40.3195 8.27419H37.6223L38.7195 6.3999H34.5595L30.4452 13.1199H34.9252L35.8852 11.3828H40.8223L41.0966 13.1199H45.2566Z" fill="currentColor"></path>
<path d="M57.0509 12.297C58.3766 11.7485 59.3823 10.9256 60.068 9.9199C60.7537 8.91419 61.1194 7.77133 61.1194 6.3999H56.7766C56.7766 6.53705 56.8223 6.62847 56.8223 6.76562C56.8223 7.72562 56.5023 8.45705 55.8166 9.00562C55.1309 9.55419 54.2623 9.82847 53.1651 9.82847H51.5194L52.2051 6.3999H47.9994L46.628 13.1199H52.388C54.1709 13.1199 55.7251 12.8456 57.0509 12.297Z" fill="currentColor"></path>
<path d="M53.9434 3.29124H55.6349C56.5034 3.29124 57.1434 3.4741 57.5549 3.7941C57.8749 4.06839 58.1034 4.47982 58.1492 5.02839H62.492C62.492 5.02839 62.492 5.02839 62.492 4.98267C62.492 3.33696 61.9434 2.10267 60.892 1.2341C59.8406 0.411244 58.2863 -0.0458984 56.1834 -0.0458984H50.4234L49.372 5.02839H53.532L53.9434 3.29124Z" fill="currentColor"></path>
<path d="M68.7995 8.91419L70.9024 6.3999H63.5881L64.5938 8.73133L63.6795 13.1199H67.9309L68.7995 8.91419Z" fill="currentColor"></path>
<path d="M72.2747 5.02857L76.5718 0H72.0004L68.6632 4.16L67.0632 0H62.6747L64.9604 5.02857H72.2747Z" fill="currentColor"></path>
<path d="M11.8857 2.92571H13.7143C14.3086 2.92571 14.7657 3.01714 14.9943 3.15429C15.2686 3.29143 15.36 3.56571 15.36 3.93143C15.36 4.48 15.0857 4.84571 14.5371 5.02857H19.1543C19.2914 4.61714 19.3829 4.16 19.3829 3.65714C19.3829 2.51429 18.9714 1.6 18.1029 0.96C17.2343 0.32 16.0914 0 14.6286 0H8.41142L7.81714 2.92571H11.8857Z" fill="currentColor"></path>
<path d="M32.9603 0H22.3546L21.7146 2.97143H32.366L32.9603 0Z" fill="currentColor"></path>
<path d="M27.0176 5.4857L27.1547 4.8457H21.4404L21.3033 5.4857L20.8461 7.77142H26.5604L27.0176 5.4857Z" fill="currentColor"></path>
<path d="M29.9424 10.1484H19.1538L18.5595 13.1199H29.3481L29.9424 10.1484Z" fill="currentColor"></path>
<path d="M24.1827 26.7429H18.2398L18.9255 23.4058H14.6741L13.3027 30.1258H23.497L24.1827 26.7429Z" fill="currentColor"></path>
<path d="M16.0454 22.0339H20.2968L21.3026 17.0054H17.0968L16.0454 22.0339Z" fill="currentColor"></path>
<path d="M30.3084 28.3886H35.1998L35.5198 30.1258H39.6798L38.217 23.4058H34.4684L34.7427 25.28H32.0456L33.097 23.4058H28.9827L24.8684 30.1258H29.3484L30.3084 28.3886Z" fill="currentColor"></path>
<path d="M33.4625 17.0054L30.3539 22.0339H34.4682L35.5197 20.1597L35.8397 22.0339H39.5882L38.5368 17.0054H33.4625Z" fill="currentColor"></path>
<path d="M42.9261 25.7372L42.0118 30.1258H46.2633L47.1318 25.92L49.2347 23.4058H41.8747L42.9261 25.7372Z" fill="currentColor"></path>
<path d="M50.332 17.0054L46.9949 21.1654L45.3949 17.0054H41.0063L43.2463 22.0339H50.6063L54.9034 17.0054H50.332Z" fill="currentColor"></path>
<path d="M8.82342 19.7484C9.4177 19.7484 9.87485 19.8398 10.1034 19.977C10.3777 20.1141 10.4691 20.3427 10.4691 20.7084C10.4691 21.577 9.82913 21.9884 8.50342 22.0341H14.2634C14.492 21.5313 14.5834 20.937 14.5834 20.297C14.5834 19.1084 14.172 18.1941 13.3948 17.5998C12.572 17.0055 11.3834 16.6855 9.78342 16.6855H3.88628L3.24628 19.7484H7.31485H8.82342Z" fill="currentColor"></path>
<path d="M12.9371 23.4058H7.17714C7.13143 23.4058 7.04 23.4058 6.99429 23.4058H5.98857H5.53143H1.41714L0 30.1258H4.06857L4.84571 26.5143H6.62857C8.68571 26.5143 10.2857 26.1029 11.4743 25.2343C12.16 24.7315 12.6171 24.1372 12.9371 23.4058Z" fill="currentColor"></path>
<path d="M9.32515 9.27972H11.3366L12.8909 13.1654H17.3709L15.268 8.63972C16.1366 8.274 16.8223 7.77115 17.2794 7.13115C17.4623 6.90258 17.5994 6.62829 17.6909 6.354H12.3423C12.2051 6.354 12.0223 6.354 11.8851 6.354H10.5137H9.91943H5.94229L4.57086 13.1197H8.50229L9.32515 9.27972Z" fill="currentColor"></path>
<path d="M67.0167 17.0513H56.3652L55.7709 20.0227H66.3766L67.0167 17.0513Z" fill="currentColor"></path>
<path d="M54.8575 25.0053H60.5718L61.1203 22.0796H55.4061L54.8575 25.0053Z" fill="currentColor"></path>
<path d="M52.6171 30.1711H63.4056L63.9999 27.1997H53.2114L52.6171 30.1711Z" fill="currentColor"></path>
<path d="M79.3605 17.9654C78.492 17.3254 77.3491 17.0054 75.8863 17.0054H69.6691L69.0748 19.9311H73.1434H74.972C75.5663 19.9311 76.0234 20.0225 76.252 20.1597C76.5263 20.2968 76.6177 20.5711 76.6177 20.9368C76.6177 21.4854 76.3434 21.8511 75.7948 22.0339H80.412C80.5491 21.6225 80.6405 21.1654 80.6405 20.6625C80.6405 19.5197 80.1834 18.6054 79.3605 17.9654Z" fill="currentColor"></path>
<path d="M78.5371 24.0911C78.7199 23.8625 78.8571 23.5883 78.9485 23.314H73.5999C73.4628 23.314 73.2799 23.314 73.1428 23.314H71.7713H71.1771H67.1999L65.8285 30.1254H69.7599L70.5828 26.2397H72.5942L74.1485 30.1254H78.6285L76.5256 25.5997C77.3942 25.234 78.0799 24.7311 78.5371 24.0911Z" fill="currentColor"></path>
<path d="M29.0282 37.897H39.6339L40.2739 34.8799H29.6225L29.0282 37.897Z" fill="currentColor"></path>
<path d="M34.3771 39.9082H28.6628L28.0685 42.8339H33.7828L34.3771 39.9082Z" fill="currentColor"></path>
<path d="M25.8743 47.9998H36.6172L37.2572 45.0283H26.4686L25.8743 47.9998Z" fill="currentColor"></path>
<path d="M11.2909 39.9085H18.1023L16.9138 34.8799H12.3423L11.2909 39.9085Z" fill="currentColor"></path>
<path d="M27.8854 34.8799H23.0397L19.794 39.9085H26.8797L27.8854 34.8799Z" fill="currentColor"></path>
<path d="M17.1882 43.2455L16.731 41.2798H9.91959L8.54816 47.9998H12.3424L13.531 42.3312L14.7653 47.9998H17.8282L21.4396 42.1941L20.251 47.9998H24.1367L25.5082 41.2798H18.4224L17.1882 43.2455Z" fill="currentColor"></path>
</g>
<defs>
<clipPath id="clip0-3">
<rect width="80.64" height="48" fill="white"></rect>
</clipPath>
</defs>
</svg>