<svg width="52" height="30" viewBox="0 0 52 30" fill="none" xmlns="http://www.w3.org/2000/svg">
<g id="Frame" clip-path="url(#clip0_2059_12799)">
<g id="Clip path group">
<mask id="mask0_2059_12799" style="mask-type:luminance" maskUnits="userSpaceOnUse" x="0" y="0" width="52" height="30">
<g id="clip0-2">
<path id="Vector" d="M51.2733 0H0.5V30H51.2733V0Z" fill="white"/>
</g>
</mask>
<g mask="url(#mask0_2059_12799)">
<g id="Group">
<path id="Vector_2" d="M26.4043 1.97143L26.577 3.14286H28.966L28.2752 0H25.0803L23.123 3.14286H25.7423L26.4043 1.97143Z" fill="#111111"/>
<path id="Vector_3" d="M28.9956 8.2L28.1034 4H25.7144L25.8871 5.17143H24.1888L24.8797 4H22.2604L19.6699 8.2H22.4907L23.0951 7.11431H26.2037L26.3764 8.2H28.9956Z" fill="#111111"/>
<path id="Vector_4" d="M36.42 7.68569C37.2547 7.34288 37.8879 6.82856 38.3196 6.2C38.7514 5.57143 38.9816 4.85714 38.9816 4H36.2473C36.2473 4.08572 36.2761 4.14286 36.2761 4.22858C36.2761 4.82858 36.0746 5.28572 35.6428 5.62858C35.2111 5.97143 34.6642 6.14286 33.9734 6.14286H32.9372L33.3689 4H30.7209L29.8574 8.2H33.4841C34.6067 8.2 35.5852 8.02856 36.42 7.68569Z" fill="#111111"/>
<path id="Vector_5" d="M34.4642 2.05739H35.5292C36.0761 2.05739 36.479 2.17168 36.7381 2.37168C36.9396 2.54311 37.0835 2.80025 37.1123 3.14311H39.8467C39.8467 3.14311 39.8467 3.14311 39.8467 3.11453C39.8467 2.08597 39.5013 1.31454 38.8393 0.771679C38.1773 0.257394 37.1986 -0.0283203 35.8746 -0.0283203H32.2479L31.5859 3.14311H34.2052L34.4642 2.05739Z" fill="#111111"/>
<path id="Vector_6" d="M43.8184 5.57143L45.1424 4H40.5371L41.1703 5.45714L40.5947 8.2H43.2715L43.8184 5.57143Z" fill="#111111"/>
<path id="Vector_7" d="M46.0054 3.14286L48.711 0H45.8327L43.7315 2.6L42.7241 0H39.9609L41.4001 3.14286H46.0054Z" fill="#111111"/>
<path id="Vector_8" d="M7.98356 1.82857H9.1349C9.50909 1.82857 9.79689 1.88571 9.94083 1.97143C10.1135 2.05714 10.1711 2.22857 10.1711 2.45714C10.1711 2.8 9.99838 3.02857 9.65296 3.14286H12.5601C12.6464 2.88571 12.704 2.6 12.704 2.28571C12.704 1.57143 12.4449 1 11.8981 0.6C11.3512 0.2 10.6316 0 9.71057 0H5.79605L5.42188 1.82857H7.98356Z" fill="#111111"/>
<path id="Vector_9" d="M21.2525 0H14.5748L14.1719 1.85714H20.8783L21.2525 0Z" fill="#111111"/>
<path id="Vector_10" d="M17.5108 3.4293L17.5971 3.0293H13.9992L13.9129 3.4293L13.625 4.85787H17.2229L17.5108 3.4293Z" fill="#111111"/>
<path id="Vector_11" d="M19.3526 6.34277H12.5597L12.1855 8.19996H18.9784L19.3526 6.34277Z" fill="#111111"/>
<path id="Vector_12" d="M15.7254 16.7146H11.9835L12.4153 14.6289H9.73847L8.875 18.8289H15.2936L15.7254 16.7146Z" fill="#111111"/>
<path id="Vector_13" d="M10.6035 13.7717H13.2803L13.9136 10.6289H11.2655L10.6035 13.7717Z" fill="#111111"/>
<path id="Vector_14" d="M19.5834 17.7432H22.6632L22.8646 18.8289H25.4839L24.5629 14.6289H22.2026L22.3754 15.8003H20.6772L21.3392 14.6289H18.7487L16.1582 18.8289H18.9789L19.5834 17.7432Z" fill="#111111"/>
<path id="Vector_15" d="M21.5686 10.6289L19.6113 13.7717H22.2018L22.8639 12.6003L23.0653 13.7717H25.4255L24.7635 10.6289H21.5686Z" fill="#111111"/>
<path id="Vector_16" d="M27.5272 16.086L26.9516 18.8289H29.6284L30.1753 16.2003L31.4993 14.6289H26.8652L27.5272 16.086Z" fill="#111111"/>
<path id="Vector_17" d="M32.1901 10.6289L30.089 13.2289L29.0816 10.6289H26.3184L27.7287 13.7717H32.3628L35.0684 10.6289H32.1901Z" fill="#111111"/>
<path id="Vector_18" d="M6.05645 12.343C6.43063 12.343 6.71847 12.4001 6.86237 12.4859C7.03508 12.5716 7.09262 12.7145 7.09262 12.943C7.09262 13.4859 6.68968 13.743 5.85497 13.7716H9.48163C9.62556 13.4573 9.68311 13.0859 9.68311 12.6859C9.68311 11.943 9.42408 11.3716 8.93473 11.0001C8.41667 10.6287 7.66829 10.4287 6.6609 10.4287H2.94788L2.54492 12.343H5.10661H6.05645Z" fill="#111111"/>
<path id="Vector_19" d="M8.64558 14.6289H5.01894C4.99016 14.6289 4.93259 14.6289 4.90381 14.6289H4.27058H3.98275H1.39227L0.5 18.8289H3.06169L3.551 16.5717H4.67354C5.96878 16.5717 6.97618 16.3146 7.72456 15.7717C8.1563 15.4575 8.4441 15.086 8.64558 14.6289Z" fill="#111111"/>
<path id="Vector_20" d="M6.37235 5.80025H7.63882L8.61745 8.2288H11.4382L10.1141 5.40025C10.661 5.17168 11.0928 4.8574 11.3806 4.4574C11.4957 4.31454 11.5821 4.14311 11.6397 3.97168H8.27204C8.18565 3.97168 8.07055 3.97168 7.98417 3.97168H7.12069H6.74652H4.2424L3.37891 8.20024H5.85425L6.37235 5.80025Z" fill="#111111"/>
<path id="Vector_21" d="M42.6959 10.6572H35.9894L35.6152 12.5144H42.2929L42.6959 10.6572Z" fill="#111111"/>
<path id="Vector_22" d="M35.0391 15.6284H38.637L38.9823 13.7998H35.3845L35.0391 15.6284Z" fill="#111111"/>
<path id="Vector_23" d="M33.6289 18.8571H40.4217L40.7959 17H34.0031L33.6289 18.8571Z" fill="#111111"/>
<path id="Vector_24" d="M50.4684 11.2289C49.9215 10.8289 49.2019 10.6289 48.2809 10.6289H44.3664L43.9922 12.4575H46.5539H47.7052C48.0794 12.4575 48.3672 12.5146 48.5112 12.6003C48.6839 12.686 48.7414 12.8575 48.7414 13.086C48.7414 13.4289 48.5687 13.6575 48.2233 13.7717H51.1304C51.2167 13.5146 51.2743 13.2289 51.2743 12.9146C51.2743 12.2003 50.9865 11.6289 50.4684 11.2289Z" fill="#111111"/>
<path id="Vector_25" d="M49.949 15.057C50.0641 14.9141 50.1505 14.7427 50.208 14.5713H46.8404C46.754 14.5713 46.6389 14.5713 46.5526 14.5713H45.689H45.3149H42.8107L41.9473 18.8284H44.4226L44.9407 16.3999H46.2072L47.1858 18.8284H50.0065L48.6825 15.9999C49.2294 15.7713 49.6611 15.457 49.949 15.057Z" fill="#111111"/>
<path id="Vector_26" d="M18.7773 23.6865H25.455L25.858 21.8008H19.1515L18.7773 23.6865Z" fill="#111111"/>
<path id="Vector_27" d="M22.144 24.9434H18.5461L18.1719 26.7719H21.7698L22.144 24.9434Z" fill="#111111"/>
<path id="Vector_28" d="M16.791 29.9998H23.5551L23.958 28.1426H17.1652L16.791 29.9998Z" fill="#111111"/>
<path id="Vector_29" d="M7.60938 24.9437H11.898L11.1497 21.8008H8.27137L7.60938 24.9437Z" fill="#111111"/>
<path id="Vector_30" d="M18.0575 21.8008H15.0065L12.9629 24.9437H17.4243L18.0575 21.8008Z" fill="#111111"/>
<path id="Vector_31" d="M11.3228 27.0284L11.035 25.7998H6.74631L5.88281 29.9998H8.27178L9.02016 26.4569L9.79731 29.9998H11.7258L13.9996 26.3712L13.2513 29.9998H15.6978L16.5614 25.7998H12.0999L11.3228 27.0284Z" fill="#111111"/>
</g>
</g>
</g>
</g>
<defs>
<clipPath id="clip0_2059_12799">
<rect width="51" height="30" fill="white" transform="translate(0.5)"/>
</clipPath>
</defs>
</svg>
