<svg width="20" height="20" viewBox="0 0 20 20" xmlns="http://www.w3.org/2000/svg">
<path fill-rule="evenodd" clip-rule="evenodd" d="M9.5 0.514404C4.25329 0.514404 0 4.7677 0 10.0144C0 15.2611 4.25329 19.5144 9.5 19.5144C11.7631 19.5144 13.8415 18.723 15.4733 17.4019L18.2929 20.2215C18.6834 20.612 19.3166 20.612 19.7071 20.2215C20.0976 19.831 20.0976 19.1978 19.7071 18.8073L16.8875 15.9877C18.2086 14.3559 19 12.2776 19 10.0144C19 4.7677 14.7467 0.514404 9.5 0.514404ZM2 10.0144C2 5.87227 5.35786 2.5144 9.5 2.5144C13.6421 2.5144 17 5.87227 17 10.0144C17 14.1565 13.6421 17.5144 9.5 17.5144C5.35786 17.5144 2 14.1565 2 10.0144Z" />
</svg>
