<svg width="25" height="25" viewBox="0 0 25 25" xmlns="http://www.w3.org/2000/svg">
<path d="M14.78 23.1792C14.3669 23.1728 13.9631 23.0551 13.6112 22.8387C13.2593 22.6222 12.9721 22.315 12.78 21.9492L9.29999 15.5892C9.2242 15.4437 9.1055 15.325 8.95999 15.2492L2.59999 11.8192C2.19588 11.5997 1.86541 11.266 1.64987 10.8597C1.43433 10.4535 1.34328 9.99273 1.38809 9.53503C1.4329 9.07734 1.61158 8.64299 1.90182 8.28625C2.19205 7.92952 2.58097 7.66622 3.01999 7.52924L19.59 1.99924C20.0084 1.85095 20.4603 1.82422 20.8933 1.92214C21.3263 2.02007 21.7228 2.23864 22.0367 2.55256C22.3506 2.86647 22.5692 3.26289 22.6671 3.6959C22.765 4.12891 22.7383 4.5808 22.59 4.99924L17.02 21.5792C16.88 22.0116 16.6156 22.3931 16.2598 22.6759C15.9041 22.9587 15.4728 23.1303 15.02 23.1692L14.78 23.1792ZM20.02 3.42924L3.44999 8.95924C3.29202 9.01003 3.15263 9.10646 3.04941 9.23638C2.94618 9.3663 2.88375 9.52388 2.86999 9.68924C2.85506 9.85263 2.88889 10.0168 2.9672 10.1609C3.04552 10.3051 3.1648 10.4228 3.30999 10.4992L9.66999 13.9292C10.0745 14.1438 10.4054 14.4747 10.62 14.8792L14.02 21.2392C14.0964 21.3844 14.2141 21.5037 14.3583 21.582C14.5025 21.6603 14.6666 21.6942 14.83 21.6792C14.9953 21.6655 15.1529 21.603 15.2828 21.4998C15.4128 21.3966 15.5092 21.2572 15.56 21.0992L21.12 4.52924C21.1847 4.37538 21.2021 4.20572 21.17 4.04191C21.1379 3.8781 21.0577 3.72758 20.9397 3.60955C20.8216 3.49151 20.6711 3.41132 20.5073 3.37921C20.3435 3.3471 20.1739 3.36451 20.02 3.42924Z" />
<path d="M9.68912 15.6091C9.59033 15.6113 9.49216 15.5929 9.4009 15.555C9.30964 15.5171 9.22729 15.4606 9.15912 15.3891C9.08836 15.3201 9.03212 15.2377 8.99373 15.1467C8.95533 15.0557 8.93555 14.9579 8.93555 14.8591C8.93555 14.7603 8.95533 14.6625 8.99373 14.5715C9.03212 14.4805 9.08836 14.398 9.15912 14.3291L20.9191 2.52909C21.065 2.38322 21.2628 2.30127 21.4691 2.30127C21.6754 2.30127 21.8732 2.38322 22.0191 2.52909C22.165 2.67496 22.2469 2.8728 22.2469 3.07909C22.2469 3.28538 22.165 3.48322 22.0191 3.62909L10.2191 15.3891C10.1499 15.4592 10.0673 15.5148 9.97631 15.5526C9.8853 15.5903 9.78766 15.6096 9.68912 15.6091Z"/>
</svg>
