<svg width="25" height="24" viewBox="0 0 25 24" fill="none" xmlns="http://www.w3.org/2000/svg">
<path d="M10.1691 11.855L10.1091 11.975C9.85914 12.46 9.46414 12.855 8.97914 13.105L8.85914 13.165C8.38414 13.405 8.38414 14.085 8.85914 14.33L8.97914 14.39C9.46414 14.64 9.85914 15.035 10.1091 15.52L10.1691 15.64C10.4091 16.115 11.0891 16.115 11.3341 15.64L11.3941 15.52C11.6441 15.035 12.0391 14.64 12.5241 14.39L12.6441 14.33C13.1191 14.09 13.1191 13.41 12.6441 13.165L12.5241 13.105C12.0391 12.855 11.6441 12.46 11.3941 11.975L11.3341 11.855C11.0941 11.38 10.4141 11.38 10.1691 11.855Z" fill="#637381"/>
<path d="M17.9991 11.75C17.5841 11.75 17.2491 12.085 17.2491 12.5V15.42C17.2491 16.155 16.6541 16.75 15.9191 16.75H9.07414C8.33914 16.75 7.74414 16.155 7.74414 15.42V8.575C7.74414 7.84 8.33914 7.245 9.07414 7.245H11.9941C12.4091 7.245 12.7441 6.91 12.7441 6.495C12.7441 6.08 12.4091 5.745 11.9941 5.745H9.07414C7.51414 5.745 6.24414 7.015 6.24414 8.575V15.42C6.24414 16.98 7.51414 18.25 9.07414 18.25H15.9191C17.4791 18.25 18.7491 16.98 18.7491 15.42V12.5C18.7491 12.085 18.4141 11.75 17.9991 11.75Z" fill="#637381"/>
<path d="M21.9991 9.22C22.2741 9.22 22.4991 8.995 22.4991 8.72V8.22C22.4991 7.945 22.2741 7.72 21.9991 7.72H20.6791C20.3491 5.725 18.7741 4.15 16.7791 3.82V2.5C16.7791 2.225 16.5541 2 16.2791 2H15.7791C15.5041 2 15.2791 2.225 15.2791 2.5V3.75H14.4241V2.5C14.4241 2.225 14.1991 2 13.9241 2H13.4241C13.1491 2 12.9241 2.225 12.9241 2.5V3.75H12.0691V2.5C12.0691 2.225 11.8441 2 11.5691 2H11.0691C10.7941 2 10.5691 2.225 10.5691 2.5V3.75H9.71414V2.5C9.71414 2.225 9.48914 2 9.21414 2H8.71414C8.43914 2 8.21414 2.225 8.21414 2.5V3.82C6.21914 4.15 4.64414 5.725 4.31414 7.72H2.99414C2.71914 7.72 2.49414 7.945 2.49414 8.22V8.72C2.49414 8.995 2.71914 9.22 2.99414 9.22H4.24414V10.075H2.99414C2.71914 10.075 2.49414 10.3 2.49414 10.575V11.075C2.49414 11.35 2.71914 11.575 2.99414 11.575H4.24414V12.43H2.99414C2.71914 12.43 2.49414 12.655 2.49414 12.93V13.43C2.49414 13.705 2.71914 13.93 2.99414 13.93H4.24414V14.785H2.99414C2.71914 14.785 2.49414 15.01 2.49414 15.285V15.785C2.49414 16.06 2.71914 16.285 2.99414 16.285H4.31414C4.64414 18.28 6.21914 19.855 8.21414 20.185V21.505C8.21414 21.78 8.43914 22.005 8.71414 22.005H9.21414C9.48914 22.005 9.71414 21.78 9.71414 21.505V20.255H10.5691V21.505C10.5691 21.78 10.7941 22.005 11.0691 22.005H11.5691C11.8441 22.005 12.0691 21.78 12.0691 21.505V20.255H12.9241V21.505C12.9241 21.78 13.1491 22.005 13.4241 22.005H13.9241C14.1991 22.005 14.4241 21.78 14.4241 21.505V20.255H15.2791V21.505C15.2791 21.78 15.5041 22.005 15.7791 22.005H16.2791C16.5541 22.005 16.7791 21.78 16.7791 21.505V20.185C18.7741 19.855 20.3491 18.28 20.6791 16.285H21.9991C22.2741 16.285 22.4991 16.06 22.4991 15.785V15.285C22.4991 15.01 22.2741 14.785 21.9991 14.785H20.7491V13.93H21.9991C22.2741 13.93 22.4991 13.705 22.4991 13.43V12.93C22.4991 12.655 22.2741 12.43 21.9991 12.43H20.7491V11.575H21.9991C22.2741 11.575 22.4991 11.35 22.4991 11.075V10.575C22.4991 10.3 22.2741 10.075 21.9991 10.075H20.7491V9.22H21.9991ZM19.2491 15.5C19.2491 17.29 17.7891 18.75 15.9991 18.75H8.99914C7.20914 18.75 5.74914 17.29 5.74914 15.5V8.5C5.74914 6.71 7.20914 5.25 8.99914 5.25H15.9991C17.7891 5.25 19.2491 6.71 19.2491 8.5V15.5Z" fill="#637381"/>
<path d="M17.7891 8.11L17.6291 8.03C17.1291 7.775 16.7291 7.375 16.4741 6.875L16.3941 6.715C16.1191 6.175 15.5691 5.84 14.9641 5.84C14.3591 5.84 13.8091 6.175 13.5291 6.715L13.4491 6.875C13.1941 7.375 12.7941 7.775 12.2941 8.03L12.1341 8.11C11.5941 8.385 11.2591 8.935 11.2591 9.54C11.2591 10.145 11.5941 10.695 12.1341 10.975L12.2941 11.055C12.7941 11.31 13.1941 11.71 13.4491 12.21L13.5291 12.37C13.8041 12.91 14.3541 13.245 14.9641 13.245C15.5741 13.245 16.1191 12.91 16.3991 12.37L16.4791 12.21C16.7341 11.71 17.1341 11.31 17.6341 11.055L17.7941 10.975C18.3341 10.7 18.6691 10.15 18.6691 9.54C18.6691 8.93 18.3341 8.385 17.7941 8.105L17.7891 8.11ZM17.1091 9.64L16.9491 9.72C16.1641 10.12 15.5391 10.745 15.1391 11.53L15.0591 11.69C15.0591 11.69 15.0291 11.75 14.9641 11.75C14.8991 11.75 14.8741 11.705 14.8691 11.69L14.7891 11.53C14.3891 10.745 13.7641 10.12 12.9791 9.72L12.8191 9.64C12.8191 9.64 12.7591 9.61 12.7591 9.545C12.7591 9.48 12.8041 9.455 12.8191 9.45L12.9791 9.37C13.7641 8.97 14.3891 8.345 14.7891 7.56L14.8691 7.4C14.8691 7.4 14.8991 7.34 14.9641 7.34C15.0291 7.34 15.0541 7.38 15.0591 7.4L15.1391 7.56C15.5391 8.345 16.1641 8.97 16.9491 9.37L17.1091 9.45C17.1091 9.45 17.1691 9.48 17.1691 9.545C17.1691 9.61 17.1241 9.635 17.1091 9.64Z" fill="#637381"/>
</svg>
