<svg width="24" height="24" viewBox="0 0 24 24" fill="none" xmlns="http://www.w3.org/2000/svg">
<mask id="path-1-inside-1_1188_38633" fill="white">
<path fill-rule="evenodd" clip-rule="evenodd" d="M13.9959 4.50592L12.1486 5.32729C11.544 5.5905 10.8549 5.58284 10.2557 5.26897L10.2538 5.26794L9.60598 4.92619C9.5286 4.88754 9.45233 4.8933 9.37572 4.94591C9.29352 5.00236 9.21805 5.11403 9.21805 5.27595V17.8205C9.21805 18.5059 9.0125 19.1432 8.65964 19.6742H18.0012C18.8648 19.6742 19.4526 19.3905 19.8359 18.948C20.2324 18.4902 20.4912 17.7678 20.4912 16.7522L20.5 5.27595C20.5 5.27582 20.5 5.27608 20.5 5.27595C20.4999 5.1079 20.423 4.99768 20.344 4.94374C20.2697 4.89305 20.1927 4.88587 20.1121 4.92617L19.4643 5.26794L19.4616 5.26933C18.8621 5.58259 18.1743 5.59061 17.5695 5.32727L17.5642 5.32496L15.7222 4.50594C15.1645 4.26365 14.5536 4.26365 13.9959 4.50592ZM5.86341 19.6742C6.8884 19.6742 7.71805 18.8441 7.71805 17.8205V10.2728L6.9311 10.6239C6.32696 10.8876 5.63762 10.8796 5.03864 10.5658L5.03669 10.5648L4.38888 10.223C4.30795 10.1826 4.23049 10.1898 4.1561 10.2405C4.07707 10.2944 4 10.4042 4 10.5728V17.8205C4 18.3272 4.20603 18.792 4.54898 19.1349C4.88034 19.4663 5.34403 19.6742 5.86341 19.6742ZM7.71805 8.64582C7.66973 8.65748 7.61942 8.67405 7.56836 8.69713L6.32874 9.25012C6.12249 9.33938 5.91211 9.32973 5.73548 9.23752C5.73521 9.23738 5.73576 9.23767 5.73548 9.23752L5.08375 8.89368L5.07596 8.88964C3.8041 8.23754 2.5 9.27827 2.5 10.5728V17.8205C2.5 18.744 2.87776 19.585 3.48832 20.1956C4.09296 20.8002 4.93499 21.1742 5.86341 21.1742H18.0012C19.2218 21.1742 20.254 20.7563 20.9697 19.9301C21.672 19.1192 21.9911 18.0058 21.9912 16.7527M21.9912 16.7527L22 5.27652C22 3.98431 20.698 2.94009 19.425 3.59277L18.767 3.93987C18.7666 3.94005 18.7663 3.94024 18.7659 3.94043C18.5879 4.03302 18.378 4.04255 18.1705 3.95294L16.3289 3.13409L16.3238 3.13186C15.3826 2.72167 14.3355 2.72167 13.3943 3.13186L11.5475 3.95296C11.3396 4.04272 11.129 4.03276 10.9525 3.94065C10.9523 3.94051 10.9528 3.94079 10.9525 3.94065L10.3008 3.59682L10.293 3.59277C9.01572 2.93787 7.71805 3.99767 7.71805 5.27595V8.64582M11.348 9.86434C11.348 9.45012 11.6838 9.11434 12.098 9.11434H17.497C17.9112 9.11434 18.247 9.45012 18.247 9.86434C18.247 10.2786 17.9112 10.6143 17.497 10.6143H12.098C11.6838 10.6143 11.348 10.2786 11.348 9.86434ZM11.348 14.0584C11.348 13.6442 11.6838 13.3084 12.098 13.3084H17.497C17.9112 13.3084 18.247 13.6442 18.247 14.0584C18.247 14.4726 17.9112 14.8084 17.497 14.8084H12.098C11.6838 14.8084 11.348 14.4726 11.348 14.0584Z"/>
</mask>
<path fill-rule="evenodd" clip-rule="evenodd" d="M13.9959 4.50592L12.1486 5.32729C11.544 5.5905 10.8549 5.58284 10.2557 5.26897L10.2538 5.26794L9.60598 4.92619C9.5286 4.88754 9.45233 4.8933 9.37572 4.94591C9.29352 5.00236 9.21805 5.11403 9.21805 5.27595V17.8205C9.21805 18.5059 9.0125 19.1432 8.65964 19.6742H18.0012C18.8648 19.6742 19.4526 19.3905 19.8359 18.948C20.2324 18.4902 20.4912 17.7678 20.4912 16.7522L20.5 5.27595C20.5 5.27582 20.5 5.27608 20.5 5.27595C20.4999 5.1079 20.423 4.99768 20.344 4.94374C20.2697 4.89305 20.1927 4.88587 20.1121 4.92617L19.4643 5.26794L19.4616 5.26933C18.8621 5.58259 18.1743 5.59061 17.5695 5.32727L17.5642 5.32496L15.7222 4.50594C15.1645 4.26365 14.5536 4.26365 13.9959 4.50592ZM5.86341 19.6742C6.8884 19.6742 7.71805 18.8441 7.71805 17.8205V10.2728L6.9311 10.6239C6.32696 10.8876 5.63762 10.8796 5.03864 10.5658L5.03669 10.5648L4.38888 10.223C4.30795 10.1826 4.23049 10.1898 4.1561 10.2405C4.07707 10.2944 4 10.4042 4 10.5728V17.8205C4 18.3272 4.20603 18.792 4.54898 19.1349C4.88034 19.4663 5.34403 19.6742 5.86341 19.6742ZM7.71805 8.64582C7.66973 8.65748 7.61942 8.67405 7.56836 8.69713L6.32874 9.25012C6.12249 9.33938 5.91211 9.32973 5.73548 9.23752C5.73521 9.23738 5.73576 9.23767 5.73548 9.23752L5.08375 8.89368L5.07596 8.88964C3.8041 8.23754 2.5 9.27827 2.5 10.5728V17.8205C2.5 18.744 2.87776 19.585 3.48832 20.1956C4.09296 20.8002 4.93499 21.1742 5.86341 21.1742H18.0012C19.2218 21.1742 20.254 20.7563 20.9697 19.9301C21.672 19.1192 21.9911 18.0058 21.9912 16.7527M21.9912 16.7527L22 5.27652C22 3.98431 20.698 2.94009 19.425 3.59277L18.767 3.93987C18.7666 3.94005 18.7663 3.94024 18.7659 3.94043C18.5879 4.03302 18.378 4.04255 18.1705 3.95294L16.3289 3.13409L16.3238 3.13186C15.3826 2.72167 14.3355 2.72167 13.3943 3.13186L11.5475 3.95296C11.3396 4.04272 11.129 4.03276 10.9525 3.94065C10.9523 3.94051 10.9528 3.94079 10.9525 3.94065L10.3008 3.59682L10.293 3.59277C9.01572 2.93787 7.71805 3.99767 7.71805 5.27595V8.64582M11.348 9.86434C11.348 9.45012 11.6838 9.11434 12.098 9.11434H17.497C17.9112 9.11434 18.247 9.45012 18.247 9.86434C18.247 10.2786 17.9112 10.6143 17.497 10.6143H12.098C11.6838 10.6143 11.348 10.2786 11.348 9.86434ZM11.348 14.0584C11.348 13.6442 11.6838 13.3084 12.098 13.3084H17.497C17.9112 13.3084 18.247 13.6442 18.247 14.0584C18.247 14.4726 17.9112 14.8084 17.497 14.8084H12.098C11.6838 14.8084 11.348 14.4726 11.348 14.0584Z" fill="black"/>
<path d="M13.9959 4.50592L13.5974 3.58869L13.5896 3.59217L13.9959 4.50592ZM12.1486 5.32729L12.5478 6.2442L12.5549 6.24104L12.1486 5.32729ZM10.2557 5.26897L9.77908 6.14808L9.78536 6.15148L9.79169 6.1548L10.2557 5.26897ZM10.2538 5.26794L10.7305 4.38878L10.7204 4.38347L10.2538 5.26794ZM9.60598 4.92619L10.0726 4.04172L10.0628 4.03654L10.0528 4.03158L9.60598 4.92619ZM9.37572 4.94591L8.80963 4.12157L8.80962 4.12158L9.37572 4.94591ZM8.65964 19.6742L7.82677 19.1207L6.79446 20.6742H8.65964V19.6742ZM19.8359 18.948L20.5918 19.6027L20.5918 19.6027L19.8359 18.948ZM20.4912 16.7522L19.4912 16.7514V16.7522H20.4912ZM20.344 4.94374L20.9079 4.11789L20.9076 4.11767L20.344 4.94374ZM20.1121 4.92617L19.6649 4.03174L19.6551 4.03662L19.6455 4.04172L20.1121 4.92617ZM19.4643 5.26794L19.9219 6.15714L19.9309 6.1524L19.4643 5.26794ZM19.4616 5.26933L19.004 4.38016L18.9985 4.38304L19.4616 5.26933ZM17.5695 5.32727L17.17 6.24401L17.1703 6.24413L17.5695 5.32727ZM17.5642 5.32496L17.1579 6.23873L17.1647 6.2417L17.5642 5.32496ZM15.7222 4.50594L16.1285 3.59216L16.1207 3.58876L15.7222 4.50594ZM7.71805 10.2728H8.71805V8.73164L7.31061 9.35957L7.71805 10.2728ZM6.9311 10.6239L7.33115 11.5404L7.33854 11.5371L6.9311 10.6239ZM5.03864 10.5658L5.50272 9.67996L5.4948 9.6759L5.03864 10.5658ZM5.03669 10.5648L4.57 11.4493L4.58053 11.4547L5.03669 10.5648ZM4.38888 10.223L4.85553 9.33856L4.84558 9.33331L4.83552 9.32829L4.38888 10.223ZM4.1561 10.2405L3.59292 9.41417L3.59265 9.41435L4.1561 10.2405ZM4.54898 19.1349L5.25613 18.4278L5.25604 18.4277L4.54898 19.1349ZM7.71805 8.64582L7.95262 9.61792L8.71805 9.43322V8.64582H7.71805ZM7.56836 8.69713L7.97576 9.61039L7.98025 9.60836L7.56836 8.69713ZM6.32874 9.25012L6.72594 10.1679L6.73614 10.1634L6.32874 9.25012ZM5.08375 8.89368L5.55038 8.0092L5.54413 8.00596L5.08375 8.89368ZM5.07596 8.88964L5.53635 8.00191L5.5322 7.99979L5.07596 8.88964ZM3.48832 20.1956L2.78119 20.9027L2.78124 20.9027L3.48832 20.1956ZM20.9697 19.9301L21.7255 20.5849L21.7256 20.5848L20.9697 19.9301ZM21.9912 16.7527L20.9912 16.7519V16.7526L21.9912 16.7527ZM22 5.27652L23 5.27729V5.27652H22ZM19.425 3.59277L18.9687 2.70285L18.9584 2.70829L19.425 3.59277ZM18.767 3.93987L19.1774 4.85179L19.2059 4.83895L19.2336 4.82435L18.767 3.93987ZM18.7659 3.94043L18.3368 3.03715L18.3205 3.04492L18.3044 3.05328L18.7659 3.94043ZM18.1705 3.95294L17.7642 4.86674L17.774 4.87099L18.1705 3.95294ZM16.3289 3.13409L16.7352 2.22033L16.7295 2.21784L16.3289 3.13409ZM16.3238 3.13186L16.7244 2.21561L16.7233 2.21514L16.3238 3.13186ZM13.3943 3.13186L12.9948 2.21511L12.988 2.2181L13.3943 3.13186ZM11.5475 3.95296L11.9439 4.8711L11.9538 4.86672L11.5475 3.95296ZM10.9525 3.94065L10.4859 4.82511L10.4898 4.82719L10.9525 3.94065ZM10.3008 3.59682L10.7674 2.71235L10.7616 2.70932L10.3008 3.59682ZM10.293 3.59277L10.7538 2.70526L10.7493 2.70292L10.293 3.59277ZM13.5896 3.59217L11.7423 4.41354L12.5549 6.24104L14.4022 5.41967L13.5896 3.59217ZM11.7494 4.41041C11.4082 4.55898 11.0372 4.54947 10.7197 4.38314L9.79169 6.1548C10.6726 6.61621 11.6798 6.62202 12.5478 6.24417L11.7494 4.41041ZM10.7323 4.38986L10.7304 4.38883L9.77718 6.14705L9.77908 6.14808L10.7323 4.38986ZM10.7204 4.38347L10.0726 4.04172L9.13939 5.81066L9.78721 6.15241L10.7204 4.38347ZM10.0528 4.03158C9.87403 3.94228 9.6534 3.88484 9.40772 3.90527C9.16494 3.92545 8.96312 4.01616 8.80963 4.12157L9.94181 5.77025C9.86493 5.82305 9.73955 5.88458 9.5734 5.89839C9.40435 5.91244 9.26055 5.87146 9.15914 5.8208L10.0528 4.03158ZM8.80962 4.12158C8.45723 4.36358 8.21805 4.78284 8.21805 5.27595H10.2181C10.2181 5.44522 10.1298 5.64115 9.94182 5.77025L8.80962 4.12158ZM8.21805 5.27595V17.8205H10.2181V5.27595H8.21805ZM8.21805 17.8205C8.21805 18.303 8.074 18.7487 7.82677 19.1207L9.49252 20.2277C9.951 19.5377 10.2181 18.7088 10.2181 17.8205H8.21805ZM8.65964 20.6742H18.0012V18.6742H8.65964V20.6742ZM18.0012 20.6742C19.104 20.6742 19.9875 20.3003 20.5918 19.6027L19.08 18.2933C18.9177 18.4807 18.6256 18.6742 18.0012 18.6742V20.6742ZM20.5918 19.6027C21.1918 18.9099 21.4912 17.927 21.4912 16.7522H19.4912C19.4912 17.6086 19.273 18.0705 19.08 18.2933L20.5918 19.6027ZM21.4912 16.753L21.5 5.27672L19.5 5.27518L19.4912 16.7514L21.4912 16.753ZM21.5 5.27595C21.5 5.27595 21.5 5.27595 21.5 5.27595C21.5 5.27595 21.5 5.27595 21.5 5.27595C21.5 5.27595 21.5 5.27595 21.5 5.27595C21.5 5.27595 21.5 5.27595 21.5 5.27595C21.5 5.27595 21.5 5.27595 21.5 5.27595C21.5 5.27595 21.5 5.27595 21.5 5.27595C21.5 5.27595 21.5 5.27595 21.5 5.27595C21.5 5.27595 21.5 5.27595 21.5 5.27595C21.5 5.27595 21.5 5.27594 21.5 5.27594C21.5 5.27594 21.5 5.27594 21.5 5.27594C21.5 5.27594 21.5 5.27594 21.5 5.27594C21.5 5.27594 21.5 5.27594 21.5 5.27594C21.5 5.27594 21.5 5.27594 21.5 5.27594C21.5 5.27594 21.5 5.27594 21.5 5.27594C21.5 5.27594 21.5 5.27594 21.5 5.27594C21.5 5.27594 21.5 5.27594 21.5 5.27594C21.5 5.27594 21.5 5.27594 21.5 5.27594C21.5 5.27594 21.5 5.27594 21.5 5.27594C21.5 5.27594 21.5 5.27594 21.5 5.27594C21.5 5.27594 21.5 5.27594 21.5 5.27594C21.5 5.27594 21.5 5.27594 21.5 5.27594C21.5 5.27594 21.5 5.27594 21.5 5.27594C21.5 5.27594 21.5 5.27594 21.5 5.27594C21.5 5.27594 21.5 5.27594 21.5 5.27594C21.5 5.27594 21.5 5.27593 21.5 5.27593C21.5 5.27593 21.5 5.27593 21.5 5.27593C21.5 5.27593 21.5 5.27593 21.5 5.27593C21.5 5.27593 21.5 5.27593 21.5 5.27593C21.5 5.27593 21.5 5.27593 21.5 5.27593C21.5 5.27593 21.5 5.27593 21.5 5.27593C21.5 5.27593 21.5 5.27593 21.5 5.27593C21.5 5.27593 21.5 5.27593 21.5 5.27593C21.5 5.27593 21.5 5.27593 21.5 5.27593C21.5 5.27593 21.5 5.27593 21.5 5.27593C21.5 5.27593 21.5 5.27593 21.5 5.27593C21.5 5.27593 21.5 5.27593 21.5 5.27593C21.5 5.27593 21.5 5.27593 21.5 5.27593C21.5 5.27593 21.5 5.27593 21.5 5.27593C21.5 5.27593 21.5 5.27593 21.5 5.27593V5.27593C21.5 5.27593 21.5 5.27593 21.5 5.27593C21.5 5.27593 21.5 5.27593 21.5 5.27593C21.5 5.27593 21.5 5.27593 21.5 5.27593V5.27593C21.5 5.27593 21.5 5.27593 21.5 5.27593C21.5 5.27593 21.5 5.27593 21.5 5.27592V5.27592C21.5 5.27592 21.5 5.27592 21.5 5.27592V5.27592C21.5 5.27592 21.5 5.27592 21.5 5.27592V5.27592C21.5 5.27592 21.5 5.27592 21.5 5.27592V5.27592C21.5 5.27592 21.5 5.27592 21.5 5.27592V5.27592C21.5 5.27592 21.5 5.27592 21.5 5.27592C21.5 5.27592 21.5 5.27592 21.5 5.27592V5.27592C21.5 5.27592 21.5 5.27592 21.5 5.27592C21.5 5.27592 21.5 5.27592 21.5 5.27592C21.5 5.27592 21.5 5.27592 21.5 5.27592V5.27592V5.27592V5.27592C21.5 5.27592 21.5 5.27592 21.5 5.27592C21.5 5.27592 21.5 5.27592 21.5 5.27592C21.5 5.27592 21.5 5.27592 21.5 5.27592C21.5 5.27592 21.5 5.27592 21.5 5.27592C21.5 5.27592 21.5 5.27592 21.5 5.27592C21.5 5.27592 21.5 5.27592 21.5 5.27592C21.5 5.27592 21.5 5.27592 21.5 5.27592V5.27592V5.27592V5.27592C21.5 5.27592 21.5 5.27592 21.5 5.27592C21.5 5.27592 21.5 5.27592 21.5 5.27592V5.27592C21.5 5.27592 21.5 5.27592 21.5 5.27592V5.27592C21.5 5.27592 21.5 5.27592 21.5 5.27592V5.27592V5.27591V5.27591V5.27591C21.5 5.27591 21.5 5.27591 21.5 5.27591C21.5 5.27591 21.5 5.27591 21.5 5.27591C21.5 5.27591 21.5 5.27591 21.5 5.27591C20.5 5.27591 19.5 5.27591 19.5 5.27591V5.27591C19.5 5.27591 19.5 5.27591 19.5 5.27591C19.5 5.27591 19.5 5.27591 19.5 5.27591V5.27591C19.5 5.27591 19.5 5.27591 19.5 5.27591C19.5 5.27592 19.5 5.27592 19.5 5.27592C19.5 5.27592 19.5 5.27592 19.5 5.27592C19.5 5.27592 19.5 5.27592 19.5 5.27592C19.5 5.27592 19.5 5.27592 19.5 5.27592V5.27592C19.5 5.27592 19.5 5.27592 19.5 5.27592C19.5 5.27592 19.5 5.27592 19.5 5.27592C19.5 5.27592 19.5 5.27592 19.5 5.27592C19.5 5.27592 19.5 5.27592 19.5 5.27592C19.5 5.27592 19.5 5.27592 19.5 5.27592V5.27592C19.5 5.27592 19.5 5.27592 19.5 5.27592C19.5 5.27592 19.5 5.27592 19.5 5.27592C19.5 5.27592 19.5 5.27592 19.5 5.27592V5.27592C19.5 5.27592 19.5 5.27592 19.5 5.27592C19.5 5.27592 19.5 5.27592 19.5 5.27592C19.5 5.27592 19.5 5.27592 19.5 5.27592C19.5 5.27592 19.5 5.27592 19.5 5.27592C19.5 5.27592 19.5 5.27592 19.5 5.27592C19.5 5.27592 19.5 5.27592 19.5 5.27592V5.27592V5.27592V5.27592V5.27592V5.27592V5.27592V5.27592V5.27592V5.27592V5.27592C19.5 5.27592 19.5 5.27592 19.5 5.27592C19.5 5.27592 19.5 5.27592 19.5 5.27592C19.5 5.27592 19.5 5.27592 19.5 5.27592C19.5 5.27592 19.5 5.27592 19.5 5.27592C19.5 5.27592 19.5 5.27592 19.5 5.27592C19.5 5.27592 19.5 5.27592 19.5 5.27592V5.27592V5.27592C19.5 5.27592 19.5 5.27592 19.5 5.27592C19.5 5.27592 19.5 5.27592 19.5 5.27592C19.5 5.27593 19.5 5.27593 19.5 5.27593C19.5 5.27593 19.5 5.27593 19.5 5.27593V5.27593V5.27593C19.5 5.27593 19.5 5.27593 19.5 5.27593C19.5 5.27593 19.5 5.27593 19.5 5.27593V5.27593V5.27593C19.5 5.27593 19.5 5.27593 19.5 5.27593C19.5 5.27593 19.5 5.27593 19.5 5.27593V5.27593C19.5 5.27593 19.5 5.27593 19.5 5.27593C19.5 5.27593 19.5 5.27593 19.5 5.27593V5.27593C19.5 5.27593 19.5 5.27593 19.5 5.27593C19.5 5.27593 19.5 5.27593 19.5 5.27593V5.27593C19.5 5.27593 19.5 5.27593 19.5 5.27593C19.5 5.27593 19.5 5.27593 19.5 5.27593V5.27593C19.5 5.27593 19.5 5.27593 19.5 5.27593V5.27593V5.27593C19.5 5.27593 19.5 5.27593 19.5 5.27593V5.27593C19.5 5.27593 19.5 5.27593 19.5 5.27593V5.27593V5.27593C19.5 5.27593 19.5 5.27593 19.5 5.27593V5.27593C19.5 5.27593 19.5 5.27593 19.5 5.27593V5.27594C19.5 5.27594 19.5 5.27594 19.5 5.27594V5.27594C19.5 5.27594 19.5 5.27594 19.5 5.27594V5.27594C19.5 5.27594 19.5 5.27594 19.5 5.27594V5.27594C19.5 5.27594 19.5 5.27594 19.5 5.27594V5.27594C19.5 5.27594 19.5 5.27594 19.5 5.27594V5.27594C19.5 5.27594 19.5 5.27594 19.5 5.27594V5.27594C19.5 5.27594 19.5 5.27594 19.5 5.27594V5.27594C19.5 5.27594 19.5 5.27594 19.5 5.27594V5.27594C19.5 5.27594 19.5 5.27594 19.5 5.27594V5.27594C19.5 5.27594 19.5 5.27594 19.5 5.27594C19.5 5.27594 19.5 5.27594 19.5 5.27594V5.27594C19.5 5.27594 19.5 5.27594 19.5 5.27594V5.27594C19.5 5.27594 19.5 5.27594 19.5 5.27594V5.27594C19.5 5.27594 19.5 5.27594 19.5 5.27594C19.5 5.27594 19.5 5.27594 19.5 5.27595V5.27595C19.5 5.27595 19.5 5.27595 19.5 5.27595V5.27595C19.5 5.27595 19.5 5.27595 19.5 5.27595V5.27595C19.5 5.27595 19.5 5.27595 19.5 5.27595C19.5 5.27595 19.5 5.27595 19.5 5.27595V5.27595C19.5 5.27595 19.5 5.27595 19.5 5.27595V5.27595C19.5 5.27595 19.5 5.27595 19.5 5.27595C19.5 5.27595 19.5 5.27595 19.5 5.27595V5.27595C19.5 5.27595 19.5 5.27595 19.5 5.27595V5.27595C19.5 5.27595 19.5 5.27595 19.5 5.27595C19.5 5.27595 19.5 5.27595 19.5 5.27595V5.27595C19.5 5.27595 19.5 5.27595 19.5 5.27595V5.27595C19.5 5.27595 19.5 5.27595 19.5 5.27595C19.5 5.27595 19.5 5.27595 19.5 5.27595V5.27595C19.5 5.27595 19.5 5.27595 19.5 5.27595V5.27595C19.5 5.27595 19.5 5.27595 19.5 5.27595C19.5 5.27595 19.5 5.27596 19.5 5.27596V5.27596C19.5 5.27596 19.5 5.27596 19.5 5.27596V5.27596C19.5 5.27596 19.5 5.27596 19.5 5.27596V5.27596C19.5 5.27596 19.5 5.27596 19.5 5.27596C19.5 5.27596 19.5 5.27596 19.5 5.27596V5.27596C19.5 5.27596 19.5 5.27596 19.5 5.27596V5.27596C19.5 5.27596 19.5 5.27596 19.5 5.27596V5.27596C19.5 5.27596 19.5 5.27596 19.5 5.27596C19.5 5.27596 19.5 5.27596 19.5 5.27596V5.27596C19.5 5.27596 19.5 5.27596 19.5 5.27596V5.27596C19.5 5.27596 19.5 5.27596 19.5 5.27596V5.27596C19.5 5.27596 19.5 5.27596 19.5 5.27596V5.27596C19.5 5.27596 19.5 5.27596 19.5 5.27596V5.27596C19.5 5.27596 19.5 5.27596 19.5 5.27596V5.27596C19.5 5.27596 19.5 5.27596 19.5 5.27596V5.27597C19.5 5.27597 19.5 5.27597 19.5 5.27597V5.27597C19.5 5.27597 19.5 5.27597 19.5 5.27597V5.27597C19.5 5.27597 19.5 5.27597 19.5 5.27597V5.27597C19.5 5.27597 19.5 5.27597 19.5 5.27597V5.27597C19.5 5.27597 19.5 5.27597 19.5 5.27597V5.27597V5.27597C19.5 5.27597 19.5 5.27597 19.5 5.27597V5.27597C19.5 5.27597 19.5 5.27597 19.5 5.27597V5.27597V5.27597C19.5 5.27597 19.5 5.27597 19.5 5.27597V5.27597C19.5 5.27597 19.5 5.27597 19.5 5.27597C19.5 5.27597 19.5 5.27597 19.5 5.27597V5.27597C19.5 5.27597 19.5 5.27597 19.5 5.27597C19.5 5.27597 19.5 5.27597 19.5 5.27597V5.27597C19.5 5.27597 19.5 5.27597 19.5 5.27597C19.5 5.27597 19.5 5.27597 19.5 5.27597V5.27597C19.5 5.27597 19.5 5.27597 19.5 5.27597C19.5 5.27597 19.5 5.27597 19.5 5.27597V5.27598V5.27598C19.5 5.27598 19.5 5.27598 19.5 5.27598C19.5 5.27598 19.5 5.27598 19.5 5.27598V5.27598V5.27598C19.5 5.27598 19.5 5.27598 19.5 5.27598C19.5 5.27598 19.5 5.27598 19.5 5.27598C19.5 5.27598 19.5 5.27598 19.5 5.27598C19.5 5.27598 19.5 5.27598 19.5 5.27598V5.27598V5.27598C19.5 5.27598 19.5 5.27598 19.5 5.27598C19.5 5.27598 19.5 5.27598 19.5 5.27598C19.5 5.27598 19.5 5.27598 19.5 5.27598C19.5 5.27598 19.5 5.27598 19.5 5.27598C19.5 5.27598 19.5 5.27598 19.5 5.27598C19.5 5.27598 19.5 5.27598 19.5 5.27598V5.27598V5.27598V5.27598V5.27598V5.27598V5.27598V5.27598V5.27598V5.27598V5.27598C19.5 5.27598 19.5 5.27598 19.5 5.27598C19.5 5.27598 19.5 5.27598 19.5 5.27598C19.5 5.27598 19.5 5.27598 19.5 5.27598C19.5 5.27598 19.5 5.27598 19.5 5.27598C19.5 5.27598 19.5 5.27598 19.5 5.27598C19.5 5.27598 19.5 5.27598 19.5 5.27598V5.27598C19.5 5.27598 19.5 5.27598 19.5 5.27598C19.5 5.27598 19.5 5.27598 19.5 5.27598C19.5 5.27598 19.5 5.27598 19.5 5.27598V5.27599C19.5 5.27599 19.5 5.27599 19.5 5.27599C19.5 5.27599 19.5 5.27599 19.5 5.27599C19.5 5.27599 19.5 5.27599 19.5 5.27599C19.5 5.27599 19.5 5.27599 19.5 5.27599C19.5 5.27599 19.5 5.27599 19.5 5.27599V5.27599C19.5 5.27599 19.5 5.27599 19.5 5.27599C19.5 5.27599 19.5 5.27599 19.5 5.27599C19.5 5.27599 19.5 5.27599 19.5 5.27599C19.5 5.27599 19.5 5.27599 19.5 5.27599C19.5 5.27599 19.5 5.27599 19.5 5.27599V5.27599C19.5 5.27599 19.5 5.27599 19.5 5.27599C19.5 5.27599 19.5 5.27599 19.5 5.27599V5.27599C19.5 5.27599 20.5 5.27599 21.5 5.27599C21.5 5.27599 21.5 5.27599 21.5 5.27599C21.5 5.27599 21.5 5.27599 21.5 5.27599C21.5 5.27599 21.5 5.27599 21.5 5.27599V5.27599V5.27599V5.27599V5.27599C21.5 5.27599 21.5 5.27599 21.5 5.27599V5.27599C21.5 5.27599 21.5 5.27599 21.5 5.27599V5.27599C21.5 5.27599 21.5 5.27599 21.5 5.27599C21.5 5.27599 21.5 5.27599 21.5 5.27599V5.27599V5.27599V5.27598C21.5 5.27598 21.5 5.27598 21.5 5.27598C21.5 5.27598 21.5 5.27598 21.5 5.27598C21.5 5.27598 21.5 5.27598 21.5 5.27598C21.5 5.27598 21.5 5.27598 21.5 5.27598C21.5 5.27598 21.5 5.27598 21.5 5.27598C21.5 5.27598 21.5 5.27598 21.5 5.27598C21.5 5.27598 21.5 5.27598 21.5 5.27598V5.27598V5.27598V5.27598C21.5 5.27598 21.5 5.27598 21.5 5.27598C21.5 5.27598 21.5 5.27598 21.5 5.27598C21.5 5.27598 21.5 5.27598 21.5 5.27598V5.27598C21.5 5.27598 21.5 5.27598 21.5 5.27598C21.5 5.27598 21.5 5.27598 21.5 5.27598V5.27598C21.5 5.27598 21.5 5.27598 21.5 5.27598V5.27598C21.5 5.27598 21.5 5.27598 21.5 5.27598V5.27598C21.5 5.27598 21.5 5.27598 21.5 5.27598V5.27598C21.5 5.27598 21.5 5.27598 21.5 5.27598V5.27598C21.5 5.27598 21.5 5.27598 21.5 5.27598C21.5 5.27598 21.5 5.27598 21.5 5.27598V5.27598C21.5 5.27598 21.5 5.27598 21.5 5.27598C21.5 5.27598 21.5 5.27598 21.5 5.27598C21.5 5.27598 21.5 5.27597 21.5 5.27597V5.27597C21.5 5.27597 21.5 5.27597 21.5 5.27597C21.5 5.27597 21.5 5.27597 21.5 5.27597C21.5 5.27597 21.5 5.27597 21.5 5.27597C21.5 5.27597 21.5 5.27597 21.5 5.27597C21.5 5.27597 21.5 5.27597 21.5 5.27597C21.5 5.27597 21.5 5.27597 21.5 5.27597C21.5 5.27597 21.5 5.27597 21.5 5.27597C21.5 5.27597 21.5 5.27597 21.5 5.27597C21.5 5.27597 21.5 5.27597 21.5 5.27597C21.5 5.27597 21.5 5.27597 21.5 5.27597C21.5 5.27597 21.5 5.27597 21.5 5.27597C21.5 5.27597 21.5 5.27597 21.5 5.27597C21.5 5.27597 21.5 5.27597 21.5 5.27597C21.5 5.27597 21.5 5.27597 21.5 5.27597C21.5 5.27597 21.5 5.27597 21.5 5.27597C21.5 5.27597 21.5 5.27597 21.5 5.27597C21.5 5.27597 21.5 5.27597 21.5 5.27597C21.5 5.27597 21.5 5.27597 21.5 5.27597C21.5 5.27596 21.5 5.27596 21.5 5.27596C21.5 5.27596 21.5 5.27596 21.5 5.27596C21.5 5.27596 21.5 5.27596 21.5 5.27596C21.5 5.27596 21.5 5.27596 21.5 5.27596C21.5 5.27596 21.5 5.27596 21.5 5.27596C21.5 5.27596 21.5 5.27596 21.5 5.27596C21.5 5.27596 21.5 5.27596 21.5 5.27596C21.5 5.27596 21.5 5.27596 21.5 5.27596C21.5 5.27596 21.5 5.27596 21.5 5.27596C21.5 5.27596 21.5 5.27596 21.5 5.27596C21.5 5.27596 21.5 5.27596 21.5 5.27596C21.5 5.27596 21.5 5.27596 21.5 5.27596C21.5 5.27596 21.5 5.27596 21.5 5.27596C21.5 5.27596 21.5 5.27596 21.5 5.27596C21.5 5.27596 21.5 5.27596 21.5 5.27596C21.5 5.27596 21.5 5.27596 21.5 5.27595C21.5 5.27595 21.5 5.27595 21.5 5.27595C21.5 5.27595 21.5 5.27595 21.5 5.27595C21.5 5.27595 21.5 5.27595 21.5 5.27595C21.5 5.27595 21.5 5.27595 21.5 5.27595C21.5 5.27595 21.5 5.27595 21.5 5.27595H19.5C19.5 5.27595 19.5 5.27595 19.5 5.27595C19.5 5.27595 19.5 5.27595 19.5 5.27595C19.5 5.27595 19.5 5.27595 19.5 5.27595C19.5 5.27595 19.5 5.27595 19.5 5.27595C19.5 5.27595 19.5 5.27595 19.5 5.27595C19.5 5.27596 19.5 5.27596 19.5 5.27596C19.5 5.27596 19.5 5.27596 19.5 5.27596C19.5 5.27596 19.5 5.27596 19.5 5.27596C19.5 5.27596 19.5 5.27596 19.5 5.27596C19.5 5.27596 19.5 5.27596 19.5 5.27596C19.5 5.27596 19.5 5.27596 19.5 5.27596C19.5 5.27596 19.5 5.27596 19.5 5.27596C19.5 5.27596 19.5 5.27596 19.5 5.27596C19.5 5.27596 19.5 5.27596 19.5 5.27596C19.5 5.27596 19.5 5.27596 19.5 5.27596C19.5 5.27596 19.5 5.27596 19.5 5.27596C19.5 5.27596 19.5 5.27596 19.5 5.27596C19.5 5.27596 19.5 5.27596 19.5 5.27596C19.5 5.27596 19.5 5.27596 19.5 5.27596C19.5 5.27596 19.5 5.27596 19.5 5.27596C19.5 5.27596 19.5 5.27596 19.5 5.27597C19.5 5.27597 19.5 5.27597 19.5 5.27597C19.5 5.27597 19.5 5.27597 19.5 5.27597C19.5 5.27597 19.5 5.27597 19.5 5.27597C19.5 5.27597 19.5 5.27597 19.5 5.27597C19.5 5.27597 19.5 5.27597 19.5 5.27597C19.5 5.27597 19.5 5.27597 19.5 5.27597C19.5 5.27597 19.5 5.27597 19.5 5.27597C19.5 5.27597 19.5 5.27597 19.5 5.27597C19.5 5.27597 19.5 5.27597 19.5 5.27597C19.5 5.27597 19.5 5.27597 19.5 5.27597C19.5 5.27597 19.5 5.27597 19.5 5.27597C19.5 5.27597 19.5 5.27597 19.5 5.27597C19.5 5.27597 19.5 5.27597 19.5 5.27597C19.5 5.27597 19.5 5.27597 19.5 5.27597C19.5 5.27597 19.5 5.27597 19.5 5.27597C19.5 5.27597 19.5 5.27597 19.5 5.27597C19.5 5.27597 19.5 5.27597 19.5 5.27597C19.5 5.27597 19.5 5.27597 19.5 5.27597V5.27597C19.5 5.27597 19.5 5.27598 19.5 5.27598C19.5 5.27598 19.5 5.27598 19.5 5.27598C19.5 5.27598 19.5 5.27598 19.5 5.27598V5.27598C19.5 5.27598 19.5 5.27598 19.5 5.27598C19.5 5.27598 19.5 5.27598 19.5 5.27598V5.27598C19.5 5.27598 19.5 5.27598 19.5 5.27598V5.27598C19.5 5.27598 19.5 5.27598 19.5 5.27598V5.27598C19.5 5.27598 19.5 5.27598 19.5 5.27598V5.27598C19.5 5.27598 19.5 5.27598 19.5 5.27598V5.27598C19.5 5.27598 19.5 5.27598 19.5 5.27598C19.5 5.27598 19.5 5.27598 19.5 5.27598V5.27598C19.5 5.27598 19.5 5.27598 19.5 5.27598C19.5 5.27598 19.5 5.27598 19.5 5.27598C19.5 5.27598 19.5 5.27598 19.5 5.27598V5.27598V5.27598V5.27598C19.5 5.27598 19.5 5.27598 19.5 5.27598C19.5 5.27598 19.5 5.27598 19.5 5.27598C19.5 5.27598 19.5 5.27598 19.5 5.27598C19.5 5.27598 19.5 5.27598 19.5 5.27598C19.5 5.27598 19.5 5.27598 19.5 5.27598C19.5 5.27598 19.5 5.27598 19.5 5.27598C19.5 5.27598 19.5 5.27598 19.5 5.27598V5.27599V5.27599V5.27599C19.5 5.27599 19.5 5.27599 19.5 5.27599C19.5 5.27599 19.5 5.27599 19.5 5.27599V5.27599C19.5 5.27599 19.5 5.27599 19.5 5.27599V5.27599C19.5 5.27599 19.5 5.27599 19.5 5.27599V5.27599V5.27599V5.27599V5.27599C19.5 5.27599 19.5 5.27599 19.5 5.27599C19.5 5.27599 19.5 5.27599 19.5 5.27599C19.5 5.27599 19.5 5.27599 19.5 5.27599C20.5 5.27599 21.5 5.27599 21.5 5.27599V5.27599C21.5 5.27599 21.5 5.27599 21.5 5.27599C21.5 5.27599 21.5 5.27599 21.5 5.27599V5.27599C21.5 5.27599 21.5 5.27599 21.5 5.27599C21.5 5.27599 21.5 5.27599 21.5 5.27599C21.5 5.27599 21.5 5.27599 21.5 5.27599C21.5 5.27599 21.5 5.27599 21.5 5.27599C21.5 5.27599 21.5 5.27599 21.5 5.27599V5.27599C21.5 5.27599 21.5 5.27599 21.5 5.27599C21.5 5.27599 21.5 5.27599 21.5 5.27599C21.5 5.27599 21.5 5.27599 21.5 5.27599C21.5 5.27599 21.5 5.27599 21.5 5.27599C21.5 5.27599 21.5 5.27599 21.5 5.27599V5.27598C21.5 5.27598 21.5 5.27598 21.5 5.27598C21.5 5.27598 21.5 5.27598 21.5 5.27598C21.5 5.27598 21.5 5.27598 21.5 5.27598V5.27598C21.5 5.27598 21.5 5.27598 21.5 5.27598C21.5 5.27598 21.5 5.27598 21.5 5.27598C21.5 5.27598 21.5 5.27598 21.5 5.27598C21.5 5.27598 21.5 5.27598 21.5 5.27598C21.5 5.27598 21.5 5.27598 21.5 5.27598C21.5 5.27598 21.5 5.27598 21.5 5.27598V5.27598V5.27598V5.27598V5.27598V5.27598V5.27598V5.27598V5.27598V5.27598V5.27598C21.5 5.27598 21.5 5.27598 21.5 5.27598C21.5 5.27598 21.5 5.27598 21.5 5.27598C21.5 5.27598 21.5 5.27598 21.5 5.27598C21.5 5.27598 21.5 5.27598 21.5 5.27598C21.5 5.27598 21.5 5.27598 21.5 5.27598C21.5 5.27598 21.5 5.27598 21.5 5.27598V5.27598V5.27598C21.5 5.27598 21.5 5.27598 21.5 5.27598C21.5 5.27598 21.5 5.27598 21.5 5.27598C21.5 5.27598 21.5 5.27598 21.5 5.27598C21.5 5.27598 21.5 5.27598 21.5 5.27598V5.27598V5.27598C21.5 5.27598 21.5 5.27598 21.5 5.27598C21.5 5.27598 21.5 5.27598 21.5 5.27598V5.27598V5.27597C21.5 5.27597 21.5 5.27597 21.5 5.27597C21.5 5.27597 21.5 5.27597 21.5 5.27597V5.27597C21.5 5.27597 21.5 5.27597 21.5 5.27597C21.5 5.27597 21.5 5.27597 21.5 5.27597V5.27597C21.5 5.27597 21.5 5.27597 21.5 5.27597C21.5 5.27597 21.5 5.27597 21.5 5.27597V5.27597C21.5 5.27597 21.5 5.27597 21.5 5.27597C21.5 5.27597 21.5 5.27597 21.5 5.27597V5.27597C21.5 5.27597 21.5 5.27597 21.5 5.27597V5.27597V5.27597C21.5 5.27597 21.5 5.27597 21.5 5.27597V5.27597C21.5 5.27597 21.5 5.27597 21.5 5.27597V5.27597V5.27597C21.5 5.27597 21.5 5.27597 21.5 5.27597V5.27597C21.5 5.27597 21.5 5.27597 21.5 5.27597V5.27597C21.5 5.27597 21.5 5.27597 21.5 5.27597V5.27597C21.5 5.27597 21.5 5.27597 21.5 5.27597V5.27597C21.5 5.27597 21.5 5.27597 21.5 5.27597V5.27596C21.5 5.27596 21.5 5.27596 21.5 5.27596V5.27596C21.5 5.27596 21.5 5.27596 21.5 5.27596V5.27596C21.5 5.27596 21.5 5.27596 21.5 5.27596V5.27596C21.5 5.27596 21.5 5.27596 21.5 5.27596V5.27596C21.5 5.27596 21.5 5.27596 21.5 5.27596V5.27596C21.5 5.27596 21.5 5.27596 21.5 5.27596V5.27596C21.5 5.27596 21.5 5.27596 21.5 5.27596C21.5 5.27596 21.5 5.27596 21.5 5.27596V5.27596C21.5 5.27596 21.5 5.27596 21.5 5.27596V5.27596C21.5 5.27596 21.5 5.27596 21.5 5.27596V5.27596C21.5 5.27596 21.5 5.27596 21.5 5.27596C21.5 5.27596 21.5 5.27596 21.5 5.27596V5.27596C21.5 5.27596 21.5 5.27596 21.5 5.27596V5.27596C21.5 5.27596 21.5 5.27596 21.5 5.27596V5.27596C21.5 5.27596 21.5 5.27595 21.5 5.27595C21.5 5.27595 21.5 5.27595 21.5 5.27595V5.27595C21.5 5.27595 21.5 5.27595 21.5 5.27595V5.27595C21.5 5.27595 21.5 5.27595 21.5 5.27595C21.5 5.27595 21.5 5.27595 21.5 5.27595V5.27595C21.5 5.27595 21.5 5.27595 21.5 5.27595V5.27595C21.5 5.27595 21.5 5.27595 21.5 5.27595C21.5 5.27595 21.5 5.27595 21.5 5.27595V5.27595C21.5 5.27595 21.5 5.27595 21.5 5.27595V5.27595C21.5 5.27595 21.5 5.27595 21.5 5.27595C21.5 5.27595 21.5 5.27595 21.5 5.27595V5.27595C21.5 5.27595 21.5 5.27595 21.5 5.27595V5.27595C21.5 5.27595 21.5 5.27595 21.5 5.27595C21.5 5.27595 21.5 5.27595 21.5 5.27595V5.27595C21.5 5.27595 21.5 5.27595 21.5 5.27595V5.27595C21.5 5.27595 21.5 5.27595 21.5 5.27595V5.27595C21.5 5.27594 21.5 5.27594 21.5 5.27594C21.5 5.27594 21.5 5.27594 21.5 5.27594V5.27594C21.5 5.27594 21.5 5.27594 21.5 5.27594V5.27594C21.5 5.27594 21.5 5.27594 21.5 5.27594V5.27594C21.5 5.27594 21.5 5.27594 21.5 5.27594C21.5 5.27594 21.5 5.27594 21.5 5.27594V5.27594C21.5 5.27594 21.5 5.27594 21.5 5.27594V5.27594C21.5 5.27594 21.5 5.27594 21.5 5.27594V5.27594C21.5 5.27594 21.5 5.27594 21.5 5.27594V5.27594C21.5 5.27594 21.5 5.27594 21.5 5.27594V5.27594C21.5 5.27594 21.5 5.27594 21.5 5.27594V5.27594C21.5 5.27594 21.5 5.27594 21.5 5.27594V5.27594C21.5 5.27594 21.5 5.27594 21.5 5.27594V5.27594C21.5 5.27594 21.5 5.27594 21.5 5.27594V5.27594C21.5 5.27594 21.5 5.27594 21.5 5.27594V5.27593C21.5 5.27593 21.5 5.27593 21.5 5.27593V5.27593C21.5 5.27593 21.5 5.27593 21.5 5.27593V5.27593V5.27593C21.5 5.27593 21.5 5.27593 21.5 5.27593V5.27593C21.5 5.27593 21.5 5.27593 21.5 5.27593V5.27593V5.27593C21.5 5.27593 21.5 5.27593 21.5 5.27593V5.27593C21.5 5.27593 21.5 5.27593 21.5 5.27593C21.5 5.27593 21.5 5.27593 21.5 5.27593V5.27593C21.5 5.27593 21.5 5.27593 21.5 5.27593C21.5 5.27593 21.5 5.27593 21.5 5.27593V5.27593C21.5 5.27593 21.5 5.27593 21.5 5.27593C21.5 5.27593 21.5 5.27593 21.5 5.27593V5.27593C21.5 5.27593 21.5 5.27593 21.5 5.27593C21.5 5.27593 21.5 5.27593 21.5 5.27593V5.27593V5.27593C21.5 5.27593 21.5 5.27593 21.5 5.27593C21.5 5.27593 21.5 5.27593 21.5 5.27593V5.27593V5.27593C21.5 5.27593 21.5 5.27593 21.5 5.27593C21.5 5.27593 21.5 5.27593 21.5 5.27592C21.5 5.27592 21.5 5.27592 21.5 5.27592C21.5 5.27592 21.5 5.27592 21.5 5.27592V5.27592V5.27592C21.5 5.27592 21.5 5.27592 21.5 5.27592C21.5 5.27592 21.5 5.27592 21.5 5.27592C21.5 5.27592 21.5 5.27592 21.5 5.27592C21.5 5.27592 21.5 5.27592 21.5 5.27592C21.5 5.27592 21.5 5.27592 21.5 5.27592C21.5 5.27592 21.5 5.27592 21.5 5.27592V5.27592V5.27592V5.27592V5.27592V5.27592V5.27592V5.27592V5.27592V5.27592V5.27592C21.5 5.27592 21.5 5.27592 21.5 5.27592C21.5 5.27592 21.5 5.27592 21.5 5.27592C21.5 5.27592 21.5 5.27592 21.5 5.27592C21.5 5.27592 21.5 5.27592 21.5 5.27592C21.5 5.27592 21.5 5.27592 21.5 5.27592C21.5 5.27592 21.5 5.27592 21.5 5.27592V5.27592C21.5 5.27592 21.5 5.27592 21.5 5.27592C21.5 5.27592 21.5 5.27592 21.5 5.27592C21.5 5.27592 21.5 5.27592 21.5 5.27592V5.27592C21.5 5.27592 21.5 5.27592 21.5 5.27592C21.5 5.27592 21.5 5.27592 21.5 5.27592C21.5 5.27592 21.5 5.27592 21.5 5.27592C21.5 5.27592 21.5 5.27592 21.5 5.27592C21.5 5.27592 21.5 5.27592 21.5 5.27592V5.27592C21.5 5.27592 21.5 5.27592 21.5 5.27592C21.5 5.27592 21.5 5.27592 21.5 5.27592C21.5 5.27592 21.5 5.27592 21.5 5.27592C21.5 5.27592 21.5 5.27592 21.5 5.27591C21.5 5.27591 21.5 5.27591 21.5 5.27591V5.27591C21.5 5.27591 21.5 5.27591 21.5 5.27591C21.5 5.27591 21.5 5.27591 21.5 5.27591V5.27591C21.5 5.27591 20.5 5.27591 19.5 5.27591C19.5 5.27591 19.5 5.27591 19.5 5.27591C19.5 5.27591 19.5 5.27591 19.5 5.27591C19.5 5.27591 19.5 5.27591 19.5 5.27591V5.27591V5.27591V5.27592V5.27592C19.5 5.27592 19.5 5.27592 19.5 5.27592V5.27592C19.5 5.27592 19.5 5.27592 19.5 5.27592V5.27592C19.5 5.27592 19.5 5.27592 19.5 5.27592C19.5 5.27592 19.5 5.27592 19.5 5.27592V5.27592V5.27592V5.27592C19.5 5.27592 19.5 5.27592 19.5 5.27592C19.5 5.27592 19.5 5.27592 19.5 5.27592C19.5 5.27592 19.5 5.27592 19.5 5.27592C19.5 5.27592 19.5 5.27592 19.5 5.27592C19.5 5.27592 19.5 5.27592 19.5 5.27592C19.5 5.27592 19.5 5.27592 19.5 5.27592C19.5 5.27592 19.5 5.27592 19.5 5.27592V5.27592V5.27592V5.27592C19.5 5.27592 19.5 5.27592 19.5 5.27592C19.5 5.27592 19.5 5.27592 19.5 5.27592C19.5 5.27592 19.5 5.27592 19.5 5.27592V5.27592C19.5 5.27592 19.5 5.27592 19.5 5.27592C19.5 5.27592 19.5 5.27592 19.5 5.27592V5.27592C19.5 5.27592 19.5 5.27592 19.5 5.27592V5.27592C19.5 5.27592 19.5 5.27592 19.5 5.27592V5.27592C19.5 5.27592 19.5 5.27592 19.5 5.27592V5.27592C19.5 5.27592 19.5 5.27592 19.5 5.27592V5.27592C19.5 5.27593 19.5 5.27593 19.5 5.27593C19.5 5.27593 19.5 5.27593 19.5 5.27593V5.27593C19.5 5.27593 19.5 5.27593 19.5 5.27593C19.5 5.27593 19.5 5.27593 19.5 5.27593C19.5 5.27593 19.5 5.27593 19.5 5.27593V5.27593C19.5 5.27593 19.5 5.27593 19.5 5.27593C19.5 5.27593 19.5 5.27593 19.5 5.27593C19.5 5.27593 19.5 5.27593 19.5 5.27593C19.5 5.27593 19.5 5.27593 19.5 5.27593C19.5 5.27593 19.5 5.27593 19.5 5.27593C19.5 5.27593 19.5 5.27593 19.5 5.27593C19.5 5.27593 19.5 5.27593 19.5 5.27593C19.5 5.27593 19.5 5.27593 19.5 5.27593C19.5 5.27593 19.5 5.27593 19.5 5.27593C19.5 5.27593 19.5 5.27593 19.5 5.27593C19.5 5.27593 19.5 5.27593 19.5 5.27593C19.5 5.27593 19.5 5.27593 19.5 5.27593C19.5 5.27593 19.5 5.27593 19.5 5.27593C19.5 5.27593 19.5 5.27593 19.5 5.27593C19.5 5.27593 19.5 5.27594 19.5 5.27594C19.5 5.27594 19.5 5.27594 19.5 5.27594C19.5 5.27594 19.5 5.27594 19.5 5.27594C19.5 5.27594 19.5 5.27594 19.5 5.27594C19.5 5.27594 19.5 5.27594 19.5 5.27594C19.5 5.27594 19.5 5.27594 19.5 5.27594C19.5 5.27594 19.5 5.27594 19.5 5.27594C19.5 5.27594 19.5 5.27594 19.5 5.27594C19.5 5.27594 19.5 5.27594 19.5 5.27594C19.5 5.27594 19.5 5.27594 19.5 5.27594C19.5 5.27594 19.5 5.27594 19.5 5.27594C19.5 5.27594 19.5 5.27594 19.5 5.27594C19.5 5.27594 19.5 5.27594 19.5 5.27594C19.5 5.27594 19.5 5.27594 19.5 5.27594C19.5 5.27594 19.5 5.27594 19.5 5.27594C19.5 5.27594 19.5 5.27594 19.5 5.27594C19.5 5.27594 19.5 5.27595 19.5 5.27595C19.5 5.27595 19.5 5.27595 19.5 5.27595C19.5 5.27595 19.5 5.27595 19.5 5.27595C19.5 5.27595 19.5 5.27595 19.5 5.27595C19.5 5.27595 19.5 5.27595 19.5 5.27595C19.5 5.27595 19.5 5.27595 19.5 5.27595C19.5 5.27595 19.5 5.27595 19.5 5.27595C19.5 5.27595 19.5 5.27595 19.5 5.27595C19.5 5.27595 19.5 5.27595 19.5 5.27595H21.5ZM21.5 5.27536C21.4997 4.77951 21.2616 4.35939 20.9079 4.11789L19.7801 5.7696C19.5844 5.63597 19.5001 5.4363 19.5 5.27655L21.5 5.27536ZM20.9076 4.11767C20.754 4.01288 20.5523 3.92342 20.3103 3.90403C20.0657 3.88443 19.845 3.94166 19.6649 4.03174L20.5593 5.8206C20.4598 5.87038 20.3179 5.91105 20.1505 5.89764C19.9857 5.88443 19.8597 5.82391 19.7804 5.76981L20.9076 4.11767ZM19.6455 4.04172L18.9977 4.38349L19.9309 6.1524L20.5787 5.81063L19.6455 4.04172ZM19.0067 4.37879L19.004 4.38018L19.9192 6.15849L19.9219 6.1571L19.0067 4.37879ZM18.9985 4.38304C18.6798 4.54956 18.3097 4.5589 17.9687 4.41041L17.1703 6.24413C18.0389 6.62232 19.0444 6.61563 19.9247 6.15563L18.9985 4.38304ZM17.969 4.41053L17.9637 4.40822L17.1647 6.2417L17.17 6.24401L17.969 4.41053ZM17.9705 4.41122L16.1285 3.59219L15.3159 5.41969L17.1579 6.23871L17.9705 4.41122ZM16.1207 3.58876C15.3088 3.23605 14.4093 3.23605 13.5975 3.58873L14.3943 5.42312C14.6979 5.29125 15.0202 5.29126 15.3237 5.42312L16.1207 3.58876ZM5.86341 20.6742C7.44051 20.6742 8.71805 19.3966 8.71805 17.8205H6.71805C6.71805 18.2916 6.33629 18.6742 5.86341 18.6742V20.6742ZM8.71805 17.8205V10.2728H6.71805V17.8205H8.71805ZM7.31061 9.35957L6.52366 9.71067L7.33854 11.5371L8.12549 11.186L7.31061 9.35957ZM6.53106 9.7074C6.19115 9.85577 5.82034 9.84641 5.5027 9.68L4.57458 11.4516C5.4549 11.9128 6.46277 11.9194 7.33114 11.5404L6.53106 9.7074ZM5.4948 9.6759L5.49285 9.6749L4.58053 11.4547L4.58248 11.4557L5.4948 9.6759ZM5.50334 9.68036L4.85553 9.33856L3.92223 11.1074L4.57004 11.4492L5.50334 9.68036ZM4.83552 9.32829C4.65511 9.23823 4.43467 9.18132 4.19067 9.20074C3.94906 9.21998 3.74723 9.309 3.59292 9.41417L4.71928 11.0668C4.63936 11.1213 4.51346 11.1814 4.34941 11.1944C4.18296 11.2077 4.04172 11.1674 3.94224 11.1177L4.83552 9.32829ZM3.59265 9.41435C3.23951 9.6552 3 10.0748 3 10.5728H5C5 10.7336 4.91463 10.9336 4.71955 11.0667L3.59265 9.41435ZM3 10.5728V17.8205H5V10.5728H3ZM3 17.8205C3 18.6047 3.32026 19.3205 3.84193 19.8421L5.25604 18.4277C5.0918 18.2635 5 18.0497 5 17.8205H3ZM3.84183 19.842C4.35551 20.3557 5.0715 20.6742 5.86341 20.6742V18.6742C5.61656 18.6742 5.40517 18.5769 5.25613 18.4278L3.84183 19.842ZM7.48348 7.67372C7.37885 7.69897 7.26873 7.73515 7.15647 7.7859L7.98025 9.60836C7.97011 9.61295 7.96061 9.61599 7.95262 9.61792L7.48348 7.67372ZM7.16096 7.78388L5.92134 8.33687L6.73614 10.1634L7.97576 9.61038L7.16096 7.78388ZM5.93156 8.33238C5.95563 8.32196 5.99606 8.3108 6.04868 8.31226C6.10133 8.31371 6.15323 8.32754 6.19826 8.35105L5.2727 10.124C5.72785 10.3616 6.25481 10.3717 6.72592 10.1679L5.93156 8.33238ZM6.1958 8.34977C6.19532 8.34952 6.19453 8.34911 6.19356 8.34861C6.19285 8.34824 6.19079 8.34718 6.18814 8.34584C6.18693 8.34522 6.18415 8.34382 6.18061 8.34206C6.17885 8.34118 6.17578 8.33966 6.17193 8.33779C6.16997 8.33684 6.16723 8.33552 6.16395 8.33396C6.16087 8.3325 6.1559 8.33016 6.14973 8.32735C6.14656 8.32591 6.14238 8.32403 6.13745 8.32186C6.1327 8.31978 6.12576 8.31677 6.11731 8.31328C6.1137 8.3118 6.1058 8.30861 6.10151 8.30691C6.09632 8.30488 6.08474 8.30048 6.07834 8.29813C6.07027 8.29522 6.05169 8.28882 6.04118 8.28538C6.02699 8.28094 5.99263 8.27113 5.97241 8.26598C5.94171 8.25899 5.85945 8.24521 5.80776 8.2401C5.70868 8.23784 5.39623 8.29676 5.19897 8.39354C4.91228 8.66962 4.73889 9.32092 4.80318 9.59937C4.85683 9.71508 4.96336 9.87306 5.00505 9.92055C5.03066 9.94695 5.07484 9.98825 5.09281 10.0037C5.10559 10.0142 5.12814 10.032 5.13783 10.0393C5.14533 10.0448 5.15885 10.0545 5.16486 10.0587C5.16976 10.0621 5.17874 10.0682 5.18281 10.0709C5.19222 10.0772 5.20003 10.0821 5.20514 10.0853C5.21051 10.0887 5.21507 10.0915 5.21845 10.0935C5.22503 10.0975 5.23039 10.1006 5.23358 10.1024C5.23702 10.1044 5.2399 10.1061 5.24194 10.1072C5.24405 10.1084 5.24586 10.1095 5.24725 10.1102C5.24998 10.1118 5.25221 10.113 5.25363 10.1138C5.25514 10.1146 5.25641 10.1153 5.25734 10.1158C5.25916 10.1168 5.26063 10.1176 5.26152 10.1181C5.26329 10.119 5.2647 10.1198 5.26542 10.1202C5.26695 10.121 5.26822 10.1216 5.26907 10.1221C5.26992 10.1225 5.27123 10.1232 5.27284 10.1241C5.27357 10.1245 5.27513 10.1253 5.2771 10.1263C5.27807 10.1268 5.27981 10.1277 5.28199 10.1288C5.2831 10.1294 5.28471 10.1302 5.28664 10.1311C5.28841 10.132 5.29151 10.1336 5.2954 10.1355C5.2974 10.1365 5.3002 10.1378 5.30356 10.1394C5.30669 10.1409 5.31187 10.1434 5.31831 10.1464C5.32162 10.1479 5.32605 10.1499 5.33131 10.1522C5.33634 10.1544 5.3439 10.1577 5.35315 10.1616C5.35713 10.1632 5.36594 10.1667 5.37076 10.1687C5.37664 10.1709 5.38993 10.1759 5.39735 10.1786C5.40687 10.182 5.42919 10.1895 5.44202 10.1935C5.45986 10.1988 5.50457 10.2105 5.53152 10.2165C5.57516 10.2246 5.70069 10.237 5.78249 10.2365C5.95859 10.2124 6.43897 9.94835 6.65135 9.63923C6.73317 9.30663 6.64441 8.82044 6.56901 8.68497C6.52656 8.62575 6.45203 8.53995 6.42296 8.51128C6.4041 8.49389 6.37131 8.46567 6.35761 8.45459C6.34758 8.44672 6.32967 8.43318 6.32184 8.42746C6.31569 8.42304 6.30449 8.41518 6.29945 8.41171C6.29531 8.4089 6.28766 8.40378 6.28415 8.40147C6.27599 8.39612 6.2692 8.39183 6.26462 8.38898C6.25984 8.386 6.25576 8.38351 6.2527 8.38166C6.24672 8.37805 6.24185 8.3752 6.23888 8.37347C6.23299 8.37004 6.22832 8.36739 6.22614 8.36617C6.22358 8.36473 6.22148 8.36356 6.22013 8.36281C6.21747 8.36134 6.21536 8.36018 6.2143 8.35961C6.21211 8.35841 6.21038 8.35748 6.20971 8.35712C6.20885 8.35666 6.20814 8.35628 6.2077 8.35604L5.26326 10.119C5.26285 10.1188 5.26217 10.1184 5.26133 10.118C5.26069 10.1176 5.25898 10.1167 5.25679 10.1155C5.25575 10.1149 5.25364 10.1138 5.25099 10.1123C5.24964 10.1116 5.24754 10.1104 5.24497 10.109C5.2428 10.1077 5.23813 10.1051 5.23224 10.1017C5.22927 10.0999 5.2244 10.0971 5.21843 10.0935C5.21536 10.0916 5.21128 10.0891 5.2065 10.0862C5.20192 10.0833 5.19513 10.079 5.18697 10.0737C5.18347 10.0713 5.17582 10.0662 5.17167 10.0634C5.16664 10.06 5.15543 10.0521 5.14928 10.0477C5.14145 10.0419 5.12355 10.0284 5.11351 10.0205C5.09981 10.0095 5.06702 9.98124 5.04817 9.96385C5.01909 9.93519 4.94456 9.84938 4.90211 9.79016C4.82671 9.6547 4.73795 9.1685 4.81978 8.8359C5.03215 8.52678 5.51253 8.26275 5.68864 8.23867C5.77044 8.23817 5.89596 8.25051 5.93961 8.2586C5.96655 8.26461 6.01126 8.27632 6.0291 8.28162C6.04193 8.28565 6.06425 8.29313 6.07377 8.29649C6.08119 8.2992 6.09449 8.3042 6.10037 8.30648C6.10519 8.30839 6.11399 8.31193 6.11797 8.31357C6.12723 8.3174 6.13478 8.32069 6.13981 8.32292C6.14507 8.32524 6.1495 8.32725 6.15281 8.32877C6.15925 8.33173 6.16443 8.33419 6.16756 8.33569C6.17092 8.3373 6.17372 8.33867 6.17572 8.33964C6.17961 8.34155 6.18271 8.34311 6.18448 8.34399C6.18641 8.34496 6.18801 8.34577 6.18912 8.34634C6.1913 8.34745 6.19303 8.34834 6.194 8.34884C6.19596 8.34985 6.19751 8.35066 6.19823 8.35103C6.1998 8.35186 6.20108 8.35253 6.20189 8.35296C6.20272 8.35339 6.20395 8.35404 6.20545 8.35484C6.20615 8.35522 6.20755 8.35596 6.20931 8.35691C6.21019 8.35738 6.21166 8.35818 6.21348 8.35916C6.21441 8.35967 6.21568 8.36036 6.21718 8.36119C6.21861 8.36197 6.22083 8.3632 6.22356 8.36473C6.22495 8.36551 6.22676 8.36652 6.22887 8.36772C6.23091 8.36887 6.23379 8.37052 6.23723 8.37252C6.24042 8.37437 6.24578 8.37749 6.25236 8.38147C6.25573 8.38351 6.2603 8.38629 6.26567 8.38965C6.27077 8.39284 6.27858 8.39779 6.28799 8.40403C6.29207 8.40675 6.30105 8.41283 6.30595 8.41622C6.31196 8.42042 6.32548 8.43014 6.33298 8.43567C6.34266 8.44298 6.36521 8.46073 6.37799 8.47127C6.39597 8.48671 6.44014 8.52802 6.46576 8.55442C6.50744 8.60191 6.61398 8.75988 6.66762 8.87559C6.73192 9.15405 6.55852 9.80535 6.27183 10.0814C6.07457 10.1782 5.76212 10.2371 5.66304 10.2349C5.61136 10.2298 5.5291 10.216 5.49839 10.209C5.47818 10.2038 5.44382 10.194 5.42962 10.1896C5.41911 10.1861 5.40054 10.1797 5.39246 10.1768C5.38607 10.1745 5.37449 10.1701 5.36929 10.1681C5.365 10.1664 5.35711 10.1632 5.35349 10.1617C5.34505 10.1582 5.33811 10.1552 5.33336 10.1531C5.32842 10.1509 5.32424 10.1491 5.32108 10.1476C5.31491 10.1448 5.30993 10.1425 5.30686 10.141C5.30358 10.1394 5.30084 10.1381 5.29888 10.1372C5.29504 10.1353 5.29197 10.1338 5.2902 10.1329C5.28666 10.1312 5.28389 10.1298 5.28268 10.1291C5.28005 10.1278 5.27801 10.1267 5.27732 10.1264C5.27637 10.1259 5.27561 10.1255 5.27516 10.1253L6.1958 8.34977ZM6.2021 8.35307L5.55037 8.00922L4.61713 9.77814L5.26886 10.122L6.2021 8.35307ZM5.54413 8.00596L5.53634 8.00192L4.61558 9.77736L4.62337 9.7814L5.54413 8.00596ZM5.5322 7.99979C4.54243 7.49232 3.50286 7.64475 2.73646 8.18278C1.9923 8.7052 1.5 9.59062 1.5 10.5728H3.5C3.5 10.2605 3.65975 9.97824 3.88561 9.81969C4.08922 9.67675 4.33763 9.63487 4.61972 9.7795L5.5322 7.99979ZM1.5 10.5728V17.8205H3.5V10.5728H1.5ZM1.5 17.8205C1.5 19.022 1.99238 20.1138 2.78119 20.9027L4.19545 19.4885C3.76314 19.0562 3.5 18.466 3.5 17.8205H1.5ZM2.78124 20.9027C3.56795 21.6894 4.66216 22.1742 5.86341 22.1742V20.1742C5.20782 20.1742 4.61797 19.911 4.1954 19.4885L2.78124 20.9027ZM5.86341 22.1742H18.0012V20.1742H5.86341V22.1742ZM18.0012 22.1742C19.4591 22.1742 20.7878 21.6673 21.7255 20.5849L20.2139 19.2753C19.7202 19.8453 18.9845 20.1742 18.0012 20.1742V22.1742ZM21.7256 20.5848C22.632 19.5382 22.9911 18.1638 22.9912 16.7528L20.9912 16.7526C20.9911 17.8478 20.712 18.7002 20.2138 19.2754L21.7256 20.5848ZM22.9912 16.7535L23 5.27729L21 5.27575L20.9912 16.7519L22.9912 16.7535ZM23 5.27652C23 4.29583 22.5086 3.41044 21.7653 2.88748C20.9994 2.34857 19.9597 2.19486 18.9688 2.70291L19.8812 4.48263C20.1633 4.338 20.4111 4.38007 20.6144 4.52315C20.8404 4.68217 21 4.965 21 5.27652H23ZM18.9584 2.70829L18.3004 3.05539L19.2336 4.82435L19.8916 4.47725L18.9584 2.70829ZM18.3566 3.02795C18.3391 3.03582 18.3246 3.04299 18.3137 3.0485C18.3036 3.05362 18.2957 3.05787 18.2947 3.05841C18.2945 3.05854 18.2939 3.05882 18.2943 3.05863C18.2944 3.05857 18.295 3.05828 18.2957 3.0579C18.2971 3.05716 18.2999 3.05565 18.3035 3.05377C18.3109 3.04991 18.3225 3.04399 18.3368 3.03715L19.195 4.84371C19.2095 4.83678 19.2213 4.83076 19.2289 4.82681C19.2326 4.82488 19.2355 4.82333 19.237 4.82253C19.2377 4.82214 19.2383 4.82182 19.2385 4.82174C19.2389 4.82152 19.2384 4.82178 19.2382 4.82188C19.2374 4.82233 19.2296 4.82648 19.2197 4.83151C19.2091 4.83694 19.1947 4.84401 19.1774 4.85179L18.3566 3.02795ZM18.3044 3.05328C18.3476 3.03082 18.3988 3.01684 18.4519 3.01539C18.5049 3.01394 18.5447 3.02527 18.567 3.03489L17.774 4.87099C18.2458 5.07473 18.7714 5.06478 19.2274 4.82759L18.3044 3.05328ZM18.5768 3.0392L16.7352 2.22035L15.9226 4.04784L17.7642 4.86669L18.5768 3.0392ZM16.7295 2.21784L16.7244 2.21561L15.9232 4.04811L15.9283 4.05034L16.7295 2.21784ZM16.7233 2.21514C15.5273 1.69391 14.1908 1.69391 12.9948 2.21514L13.7938 4.04858C14.4802 3.74943 15.2379 3.74943 15.9243 4.04858L16.7233 2.21514ZM12.988 2.2181L11.1412 3.0392L11.9538 4.86672L13.8006 4.04562L12.988 2.2181ZM11.1511 3.03487C11.1738 3.0251 11.2134 3.01394 11.2659 3.01539C11.3184 3.01684 11.3702 3.03065 11.4152 3.05411L10.4898 4.82719C10.9451 5.06477 11.4719 5.07482 11.9439 4.87105L11.1511 3.03487ZM11.526 3.12142C11.5327 3.12616 11.5455 3.1352 11.5611 3.14715C11.569 3.15325 11.5807 3.16243 11.5946 3.17404C11.607 3.18439 11.6301 3.20424 11.6573 3.23123C11.6712 3.24505 11.6912 3.26569 11.7137 3.29211C11.7344 3.31639 11.7695 3.35992 11.8058 3.41935C11.8246 3.45001 11.8482 3.49231 11.8708 3.54482C11.893 3.59624 11.9199 3.67047 11.9366 3.76311C11.9534 3.85618 11.9626 3.98376 11.9342 4.13056C11.9199 4.20461 11.8964 4.28136 11.8612 4.35786C11.826 4.43457 11.7814 4.50606 11.7289 4.57082C11.6228 4.70156 11.5002 4.78556 11.394 4.83784C11.2905 4.88878 11.1966 4.91279 11.129 4.9249C11.0604 4.93721 11.0017 4.94031 10.959 4.94059C10.9154 4.94088 10.8783 4.93826 10.8499 4.93534C10.7947 4.92965 10.7507 4.92043 10.724 4.91416C10.6954 4.90746 10.672 4.90062 10.6554 4.89547C10.6231 4.88542 10.5978 4.87572 10.5836 4.87009C10.568 4.86389 10.5551 4.85834 10.5462 4.85436C10.5286 4.84655 10.5147 4.83973 10.5063 4.83554C10.4892 4.82703 10.4748 4.81927 10.4639 4.81316C10.4543 4.80777 10.4363 4.7975 10.4144 4.78348C10.4055 4.77785 10.3802 4.76156 10.3494 4.7383C10.3356 4.72786 10.3023 4.70227 10.2636 4.66541C10.2442 4.64705 10.2103 4.61343 10.173 4.56696C10.1538 4.54303 10.1283 4.50906 10.1017 4.46604C10.0761 4.42457 10.0407 4.36051 10.0109 4.27703C9.98161 4.19514 9.94773 4.06659 9.95318 3.90668C9.95597 3.82469 9.96916 3.73455 9.99861 3.64086C10.0283 3.54648 10.0721 3.45613 10.1292 3.37318C10.245 3.20523 10.3898 3.10361 10.508 3.04496C10.6222 2.98827 10.7246 2.96467 10.7915 2.95375C10.8607 2.94245 10.9189 2.94045 10.959 2.94071C11.0004 2.94098 11.0354 2.94378 11.0613 2.94662C11.1117 2.95212 11.1517 2.96041 11.175 2.96574C11.2215 2.97635 11.2571 2.98805 11.2726 2.99327C11.2913 2.99961 11.3064 3.00532 11.3158 3.00899C11.3344 3.01625 11.3489 3.02256 11.356 3.02569C11.3643 3.02931 11.371 3.0324 11.3754 3.03447L10.5296 4.84683C10.5341 4.84892 10.5408 4.85202 10.5491 4.85565C10.5562 4.85879 10.5707 4.86511 10.5893 4.87238C10.5988 4.87606 10.6138 4.88177 10.6326 4.8881C10.6481 4.89333 10.6837 4.90503 10.7302 4.91564C10.7535 4.92097 10.7935 4.92926 10.8439 4.93477C10.8698 4.9376 10.9048 4.9404 10.9462 4.94067C10.9862 4.94093 11.0445 4.93893 11.1137 4.92763C11.1806 4.91672 11.283 4.89311 11.3972 4.83643C11.5154 4.77777 11.6602 4.67615 11.776 4.50821C11.8331 4.42525 11.8769 4.3349 11.9066 4.24052C11.936 4.14683 11.9492 4.05669 11.952 3.97471C11.9575 3.81479 11.9236 3.68624 11.8943 3.60435C11.8645 3.52088 11.8291 3.45681 11.8035 3.41534C11.7769 3.37232 11.7514 3.33835 11.7322 3.31442C11.6949 3.26795 11.6609 3.23432 11.6416 3.21597C11.6029 3.1791 11.5696 3.15351 11.5558 3.14307C11.525 3.1198 11.4996 3.10351 11.4908 3.09787C11.4688 3.08384 11.4508 3.07355 11.4411 3.06815C11.4302 3.06202 11.4158 3.05424 11.3987 3.04571C11.3903 3.04152 11.3763 3.03469 11.3588 3.02687C11.3498 3.02289 11.337 3.01734 11.3214 3.01114C11.3071 3.0055 11.2818 2.99581 11.2495 2.98576C11.233 2.9806 11.2095 2.97376 11.181 2.96707C11.1542 2.9608 11.1102 2.95158 11.055 2.94589C11.0266 2.94296 10.9895 2.94035 10.9459 2.94063C10.9032 2.94091 10.8445 2.94401 10.7759 2.95632C10.7083 2.96844 10.6144 2.99244 10.5109 3.04338C10.4047 3.09566 10.2821 3.17966 10.176 3.3104C10.1235 3.37516 10.0789 3.44665 10.0437 3.52336C10.0085 3.59987 9.98498 3.67661 9.97066 3.75067C9.94226 3.89746 9.95154 4.02504 9.96833 4.11811C9.98504 4.21075 10.012 4.28499 10.0341 4.3364C10.0567 4.38892 10.0803 4.43121 10.0991 4.46188C10.1354 4.5213 10.1706 4.56484 10.1912 4.58912C10.2138 4.61554 10.2337 4.63619 10.2476 4.65001C10.2748 4.677 10.298 4.69685 10.3103 4.70721C10.3242 4.71882 10.3359 4.72801 10.3439 4.73411C10.3595 4.74607 10.3722 4.75512 10.379 4.75988L11.526 3.12142ZM11.4191 3.0562L10.7674 2.71237L9.83417 4.48127L10.4859 4.8251L11.4191 3.0562ZM10.7616 2.70932L10.7538 2.70527L9.83219 4.48027L9.83999 4.48432L10.7616 2.70932ZM10.7493 2.70292C9.75322 2.19222 8.71227 2.35244 7.94855 2.89338C7.20904 3.41718 6.71805 4.30128 6.71805 5.27595H8.71805C8.71805 4.97234 8.8759 4.68741 9.10454 4.52546C9.30898 4.38066 9.5555 4.33842 9.83675 4.48262L10.7493 2.70292ZM6.71805 5.27595V8.64582H8.71805V5.27595H6.71805ZM12.348 9.86434C12.348 10.0024 12.2361 10.1143 12.098 10.1143V8.11434C11.1315 8.11434 10.348 8.89782 10.348 9.86434H12.348ZM12.098 10.1143H17.497V8.11434H12.098V10.1143ZM17.497 10.1143C17.3589 10.1143 17.247 10.0024 17.247 9.86434H19.247C19.247 8.89782 18.4635 8.11434 17.497 8.11434V10.1143ZM17.247 9.86434C17.247 9.72619 17.359 9.6143 17.497 9.6143V11.6143C18.4634 11.6143 19.247 10.831 19.247 9.86434H17.247ZM17.497 9.6143H12.098V11.6143H17.497V9.6143ZM12.098 9.6143C12.236 9.6143 12.348 9.72619 12.348 9.86434H10.348C10.348 10.831 11.1316 11.6143 12.098 11.6143V9.6143ZM12.348 14.0584C12.348 14.1965 12.2361 14.3084 12.098 14.3084V12.3084C11.1315 12.3084 10.348 13.0919 10.348 14.0584H12.348ZM12.098 14.3084H17.497V12.3084H12.098V14.3084ZM17.497 14.3084C17.3589 14.3084 17.247 14.1965 17.247 14.0584H19.247C19.247 13.0919 18.4635 12.3084 17.497 12.3084V14.3084ZM17.247 14.0584C17.247 13.9203 17.3589 13.8084 17.497 13.8084V15.8084C18.4635 15.8084 19.247 15.0249 19.247 14.0584H17.247ZM17.497 13.8084H12.098V15.8084H17.497V13.8084ZM12.098 13.8084C12.2361 13.8084 12.348 13.9203 12.348 14.0584H10.348C10.348 15.0249 11.1315 15.8084 12.098 15.8084V13.8084Z" fill="#111111" mask="url(#path-1-inside-1_1188_38633)"/>
</svg>
