<svg width="24" height="25" viewBox="0 0 24 25" fill="none" xmlns="http://www.w3.org/2000/svg">
<g id="Settings">
<g id="Vector">
<path d="M10.2008 4.13422C10.8318 3.51614 11.1473 3.2071 11.5097 3.09101C11.8286 2.98887 12.1714 2.98887 12.4903 3.09101C12.8527 3.2071 13.1682 3.51614 13.7992 4.13422L14.1026 4.43141C14.3755 4.69864 14.5119 4.83226 14.6702 4.92834C14.8105 5.01353 14.963 5.07672 15.1225 5.11571C15.3024 5.15967 15.4933 5.16166 15.8752 5.16562L16.2999 5.17003C17.1831 5.17919 17.6248 5.18378 17.9631 5.35794C18.2608 5.51119 18.5032 5.75359 18.6565 6.05128C18.8306 6.38962 18.8352 6.83126 18.8444 7.71452L18.8488 8.13921C18.8527 8.5211 18.8547 8.71205 18.8987 8.89189C18.9377 9.05136 19.0009 9.20391 19.0861 9.34424C19.1821 9.5025 19.3158 9.63892 19.583 9.91176L19.8802 10.2152C20.4983 10.8462 20.8073 11.1617 20.9234 11.5241C21.0255 11.843 21.0255 12.1858 20.9234 12.5047C20.8073 12.8671 20.4983 13.1826 19.8802 13.8136L19.583 14.1171C19.3158 14.3899 19.1821 14.5263 19.0861 14.6846C19.0009 14.8249 18.9377 14.9775 18.8987 15.1369C18.8547 15.3168 18.8527 15.5077 18.8488 15.8896L18.8444 16.3143C18.8352 17.1976 18.8306 17.6392 18.6565 17.9775C18.5032 18.2752 18.2608 18.5176 17.9631 18.6709C17.6248 18.845 17.1831 18.8496 16.2999 18.8588L15.8752 18.8632C15.4933 18.8672 15.3024 18.8691 15.1225 18.9131C14.963 18.9521 14.8105 19.0153 14.6702 19.1005C14.5119 19.1965 14.3755 19.3302 14.1026 19.5974L13.7992 19.8946C13.1682 20.5127 12.8527 20.8217 12.4903 20.9378C12.1714 21.0399 11.8286 21.0399 11.5097 20.9378C11.1473 20.8217 10.8318 20.5127 10.2008 19.8946L9.89735 19.5974C9.62451 19.3302 9.48809 19.1965 9.32984 19.1005C9.18951 19.0153 9.03695 18.9521 8.87749 18.9131C8.69764 18.8691 8.5067 18.8672 8.12481 18.8632L7.70012 18.8588C6.81685 18.8496 6.37522 18.845 6.03688 18.6709C5.73918 18.5176 5.49678 18.2752 5.34354 17.9775C5.16937 17.6392 5.16479 17.1976 5.15562 16.3143L5.15122 15.8896C5.14725 15.5077 5.14527 15.3168 5.1013 15.1369C5.06232 14.9775 4.99913 14.8249 4.91393 14.6846C4.81786 14.5263 4.68424 14.3899 4.417 14.1171L4.11982 13.8136C3.50174 13.1826 3.1927 12.8671 3.07661 12.5047C2.97446 12.1858 2.97446 11.843 3.07661 11.5241C3.1927 11.1617 3.50174 10.8462 4.11982 10.2152L4.417 9.91176C4.68424 9.63892 4.81786 9.5025 4.91393 9.34424C4.99913 9.20391 5.06232 9.05136 5.1013 8.89189C5.14527 8.71205 5.14725 8.5211 5.15122 8.13921L5.15562 7.71452C5.16479 6.83126 5.16937 6.38962 5.34354 6.05128C5.49678 5.75359 5.73918 5.51119 6.03688 5.35794C6.37522 5.18378 6.81685 5.17919 7.70012 5.17003L8.12481 5.16562C8.5067 5.16166 8.69764 5.15967 8.87749 5.11571C9.03695 5.07672 9.18951 5.01353 9.32984 4.92834C9.48809 4.83226 9.62451 4.69864 9.89735 4.43141L10.2008 4.13422Z" fill="none" stroke-width="2" stroke-linecap="round" stroke-linejoin="round"/>
<path d="M10.991 12.0144C10.991 11.4621 11.4479 11.0144 12.0002 11.0144C12.5525 11.0144 13.0094 11.4621 13.0094 12.0144C13.0094 12.5667 12.5525 13.0144 12.0002 13.0144C11.4479 13.0144 10.991 12.5667 10.991 12.0144Z" fill="none" stroke-width="2" stroke-linecap="round" stroke-linejoin="round"/>
</g>
</g>
</svg>
