<svg width="24" height="24" viewBox="0 0 24 24" fill="none" xmlns="http://www.w3.org/2000/svg">
<path d="M9.67012 11.855L9.61012 11.975C9.36012 12.46 8.96512 12.855 8.48012 13.105L8.36012 13.165C7.88512 13.405 7.88512 14.085 8.36012 14.33L8.48012 14.39C8.96512 14.64 9.36012 15.035 9.61012 15.52L9.67012 15.64C9.91012 16.115 10.5901 16.115 10.8351 15.64L10.8951 15.52C11.1451 15.035 11.5401 14.64 12.0251 14.39L12.1451 14.33C12.6201 14.09 12.6201 13.41 12.1451 13.165L12.0251 13.105C11.5401 12.855 11.1451 12.46 10.8951 11.975L10.8351 11.855C10.5951 11.38 9.91512 11.38 9.67012 11.855Z" fill="#919EAB"/>
<path d="M17.5001 11.75C17.0851 11.75 16.7501 12.085 16.7501 12.5V15.42C16.7501 16.155 16.1551 16.75 15.4201 16.75H8.57512C7.84012 16.75 7.24512 16.155 7.24512 15.42V8.575C7.24512 7.84 7.84012 7.245 8.57512 7.245H11.4951C11.9101 7.245 12.2451 6.91 12.2451 6.495C12.2451 6.08 11.9101 5.745 11.4951 5.745H8.57512C7.01512 5.745 5.74512 7.015 5.74512 8.575V15.42C5.74512 16.98 7.01512 18.25 8.57512 18.25H15.4201C16.9801 18.25 18.2501 16.98 18.2501 15.42V12.5C18.2501 12.085 17.9151 11.75 17.5001 11.75Z" fill="#919EAB"/>
<path d="M21.5001 9.22C21.7751 9.22 22.0001 8.995 22.0001 8.72V8.22C22.0001 7.945 21.7751 7.72 21.5001 7.72H20.1801C19.8501 5.725 18.2751 4.15 16.2801 3.82V2.5C16.2801 2.225 16.0551 2 15.7801 2H15.2801C15.0051 2 14.7801 2.225 14.7801 2.5V3.75H13.9251V2.5C13.9251 2.225 13.7001 2 13.4251 2H12.9251C12.6501 2 12.4251 2.225 12.4251 2.5V3.75H11.5701V2.5C11.5701 2.225 11.3451 2 11.0701 2H10.5701C10.2951 2 10.0701 2.225 10.0701 2.5V3.75H9.21512V2.5C9.21512 2.225 8.99012 2 8.71512 2H8.21512C7.94012 2 7.71512 2.225 7.71512 2.5V3.82C5.72012 4.15 4.14512 5.725 3.81512 7.72H2.49512C2.22012 7.72 1.99512 7.945 1.99512 8.22V8.72C1.99512 8.995 2.22012 9.22 2.49512 9.22H3.74512V10.075H2.49512C2.22012 10.075 1.99512 10.3 1.99512 10.575V11.075C1.99512 11.35 2.22012 11.575 2.49512 11.575H3.74512V12.43H2.49512C2.22012 12.43 1.99512 12.655 1.99512 12.93V13.43C1.99512 13.705 2.22012 13.93 2.49512 13.93H3.74512V14.785H2.49512C2.22012 14.785 1.99512 15.01 1.99512 15.285V15.785C1.99512 16.06 2.22012 16.285 2.49512 16.285H3.81512C4.14512 18.28 5.72012 19.855 7.71512 20.185V21.505C7.71512 21.78 7.94012 22.005 8.21512 22.005H8.71512C8.99012 22.005 9.21512 21.78 9.21512 21.505V20.255H10.0701V21.505C10.0701 21.78 10.2951 22.005 10.5701 22.005H11.0701C11.3451 22.005 11.5701 21.78 11.5701 21.505V20.255H12.4251V21.505C12.4251 21.78 12.6501 22.005 12.9251 22.005H13.4251C13.7001 22.005 13.9251 21.78 13.9251 21.505V20.255H14.7801V21.505C14.7801 21.78 15.0051 22.005 15.2801 22.005H15.7801C16.0551 22.005 16.2801 21.78 16.2801 21.505V20.185C18.2751 19.855 19.8501 18.28 20.1801 16.285H21.5001C21.7751 16.285 22.0001 16.06 22.0001 15.785V15.285C22.0001 15.01 21.7751 14.785 21.5001 14.785H20.2501V13.93H21.5001C21.7751 13.93 22.0001 13.705 22.0001 13.43V12.93C22.0001 12.655 21.7751 12.43 21.5001 12.43H20.2501V11.575H21.5001C21.7751 11.575 22.0001 11.35 22.0001 11.075V10.575C22.0001 10.3 21.7751 10.075 21.5001 10.075H20.2501V9.22H21.5001ZM18.7501 15.5C18.7501 17.29 17.2901 18.75 15.5001 18.75H8.50012C6.71012 18.75 5.25012 17.29 5.25012 15.5V8.5C5.25012 6.71 6.71012 5.25 8.50012 5.25H15.5001C17.2901 5.25 18.7501 6.71 18.7501 8.5V15.5Z" fill="#919EAB"/>
<path d="M17.2901 8.11L17.1301 8.03C16.6301 7.775 16.2301 7.375 15.9751 6.875L15.8951 6.715C15.6201 6.175 15.0701 5.84 14.4651 5.84C13.8601 5.84 13.3101 6.175 13.0301 6.715L12.9501 6.875C12.6951 7.375 12.2951 7.775 11.7951 8.03L11.6351 8.11C11.0951 8.385 10.7601 8.935 10.7601 9.54C10.7601 10.145 11.0951 10.695 11.6351 10.975L11.7951 11.055C12.2951 11.31 12.6951 11.71 12.9501 12.21L13.0301 12.37C13.3051 12.91 13.8551 13.245 14.4651 13.245C15.0751 13.245 15.6201 12.91 15.9001 12.37L15.9801 12.21C16.2351 11.71 16.6351 11.31 17.1351 11.055L17.2951 10.975C17.8351 10.7 18.1701 10.15 18.1701 9.54C18.1701 8.93 17.8351 8.385 17.2951 8.105L17.2901 8.11ZM16.6101 9.64L16.4501 9.72C15.6651 10.12 15.0401 10.745 14.6401 11.53L14.5601 11.69C14.5601 11.69 14.5301 11.75 14.4651 11.75C14.4001 11.75 14.3751 11.705 14.3701 11.69L14.2901 11.53C13.8901 10.745 13.2651 10.12 12.4801 9.72L12.3201 9.64C12.3201 9.64 12.2601 9.61 12.2601 9.545C12.2601 9.48 12.3051 9.455 12.3201 9.45L12.4801 9.37C13.2651 8.97 13.8901 8.345 14.2901 7.56L14.3701 7.4C14.3701 7.4 14.4001 7.34 14.4651 7.34C14.5301 7.34 14.5551 7.38 14.5601 7.4L14.6401 7.56C15.0401 8.345 15.6651 8.97 16.4501 9.37L16.6101 9.45C16.6101 9.45 16.6701 9.48 16.6701 9.545C16.6701 9.61 16.6251 9.635 16.6101 9.64Z" fill="#919EAB"/>
</svg>
