<svg width="24" height="24" viewBox="0 0 24 24" fill="none" xmlns="http://www.w3.org/2000/svg">
<path fill-rule="evenodd" clip-rule="evenodd" d="M16.3689 13.3819L12.2065 16.4164C11.9711 16.6047 11.6895 16.845 11.4896 17.018C11.3209 17.164 11.1112 17.2544 10.8891 17.2742L9.90611 17.3617C9.59801 17.3891 9.29359 17.2785 9.07486 17.0598L7.33525 15.3202C7.13791 15.1229 7.02774 14.8548 7.02931 14.5757L7.03551 13.4775C7.03693 13.2261 7.12896 12.9841 7.29271 12.7934C7.46775 12.5896 7.70008 12.3156 7.88034 12.0902L10.9148 7.92777C12.9779 5.34889 16.1014 3.84766 19.404 3.84766C19.9812 3.84766 20.449 4.31553 20.449 4.89268C20.449 8.19525 18.9478 11.3188 16.3689 13.3819Z" stroke-width="1.5" stroke-linecap="round" stroke-linejoin="round"/>
<path d="M16.8696 12.9844V17.5637C16.8696 17.9595 16.646 18.3214 16.2919 18.4984L13.7673 19.7608C13.4963 19.8962 13.1799 19.9075 12.9 19.7915C12.6201 19.6756 12.4043 19.4439 12.3085 19.1565L11.6445 17.1645" stroke-width="1.5" stroke-linecap="round" stroke-linejoin="round"/>
<path d="M7.14012 12.6625L5.14815 11.9985C4.86075 11.9027 4.62907 11.6869 4.51314 11.4071C4.39721 11.1272 4.40844 10.8108 4.54392 10.5398L5.8063 8.01517C5.9833 7.66116 6.34512 7.4375 6.74092 7.4375H11.3202" stroke-width="1.5" stroke-linecap="round" stroke-linejoin="round"/>
<path d="M8.20697 18.8758C7.88776 21.0003 5.40083 20.604 3.7793 20.8476C4.0229 19.2261 3.6403 16.7528 5.76476 16.4336" stroke-width="1.5" stroke-linecap="round" stroke-linejoin="round"/>
<path d="M15.3789 7.73122C16.198 7.48408 16.8442 8.159 16.6967 9.04901" stroke-width="1.5" stroke-linecap="round" stroke-linejoin="round"/>
</svg>
