<svg width="24" height="24" viewBox="0 0 24 24" stroke="none" xmlns="http://www.w3.org/2000/svg">
<path d="M8.74983 12.7749L8.68983 12.8949C8.43983 13.3799 8.04483 13.7749 7.55983 14.0249L7.43983 14.0849C6.96483 14.3249 6.96483 15.0049 7.43983 15.2499L7.55983 15.3099C8.04483 15.5599 8.43983 15.9549 8.68983 16.4399L8.74983 16.5599C8.98983 17.0349 9.66983 17.0349 9.91483 16.5599L9.97483 16.4399C10.2248 15.9549 10.6198 15.5599 11.1048 15.3099L11.2248 15.2499C11.6998 15.0099 11.6998 14.3299 11.2248 14.0849L11.1048 14.0249C10.6198 13.7749 10.2248 13.3799 9.97483 12.8949L9.91483 12.7749C9.67483 12.2999 8.99483 12.2999 8.74983 12.7749Z"/>
<path d="M10.7098 11.8899L10.8698 11.9699C11.3698 12.2249 11.7698 12.6249 12.0248 13.1249L12.1048 13.2849C12.3798 13.8249 12.9298 14.1599 13.5348 14.1599C14.1398 14.1599 14.6898 13.8249 14.9698 13.2849L15.0498 13.1249C15.3048 12.6249 15.7048 12.2249 16.2048 11.9699L16.3648 11.8899C16.9048 11.6149 17.2398 11.0649 17.2398 10.4599C17.2398 9.85494 16.9048 9.30494 16.3648 9.02494L16.2048 8.94494C15.7048 8.68994 15.3048 8.28994 15.0498 7.78994L14.9698 7.62994C14.6948 7.08994 14.1448 6.75494 13.5348 6.75494C12.9248 6.75494 12.3798 7.08994 12.0998 7.62994L12.0198 7.78994C11.7648 8.28994 11.3648 8.68994 10.8648 8.94494L10.7048 9.02494C10.1648 9.29994 9.82983 9.84994 9.82983 10.4599C9.82983 11.0699 10.1648 11.6149 10.7048 11.8949L10.7098 11.8899ZM11.3898 10.3599L11.5498 10.2799C12.3348 9.87994 12.9598 9.25494 13.3598 8.46994L13.4398 8.30994C13.4398 8.30994 13.4698 8.24994 13.5348 8.24994C13.5998 8.24994 13.6248 8.28994 13.6298 8.30994L13.7098 8.46994C14.1098 9.25494 14.7348 9.87994 15.5198 10.2799L15.6798 10.3599C15.6798 10.3599 15.7398 10.3899 15.7398 10.4549C15.7398 10.5199 15.6948 10.5449 15.6798 10.5499L15.5198 10.6299C14.7348 11.0299 14.1098 11.6549 13.7098 12.4399L13.6298 12.5999C13.6298 12.5999 13.5998 12.6599 13.5348 12.6599C13.4698 12.6599 13.4448 12.6149 13.4398 12.5999L13.3598 12.4399C12.9598 11.6549 12.3348 11.0299 11.5498 10.6299L11.3898 10.5499C11.3898 10.5499 11.3298 10.5199 11.3298 10.4549C11.3298 10.3899 11.3748 10.3649 11.3898 10.3599Z"/>
<path d="M17.5748 16.9749L14.8098 17.2799C14.2448 17.3399 13.9598 17.9899 14.2948 18.4499L14.5398 18.7799C13.7298 19.0849 12.8648 19.2499 11.9998 19.2499C11.2748 19.2499 10.5698 19.1399 9.90983 18.9399C9.78483 18.9049 9.66483 18.8549 9.54483 18.8149C9.43483 18.7749 9.32483 18.7399 9.21983 18.6949C9.14483 18.6649 9.07483 18.6299 9.00483 18.5949C8.85483 18.5249 8.69983 18.4549 8.55483 18.3749C8.54483 18.3699 8.53483 18.3649 8.52983 18.3599C6.28483 17.1249 4.75483 14.7399 4.75483 11.9999C4.75483 11.9899 4.75483 11.9799 4.75483 11.9649C4.75483 11.7949 4.76483 11.6299 4.77483 11.4599C4.77983 11.3699 4.78983 11.2849 4.79983 11.1949C4.81483 11.0699 4.82983 10.9449 4.84983 10.8199C4.86483 10.7399 4.87483 10.6599 4.88983 10.5749C4.92483 10.3999 4.96983 10.2249 5.01483 10.0499C5.18483 9.44494 5.42983 8.85994 5.75483 8.30994C5.96483 7.95494 5.84483 7.49494 5.48983 7.28494C5.13483 7.07494 4.67483 7.19494 4.46483 7.54994C4.11483 8.14494 3.83983 8.77994 3.63483 9.43494C3.62483 9.46494 3.60983 9.48994 3.59983 9.51994C3.58983 9.55994 3.57983 9.59994 3.56983 9.63994C3.50983 9.85494 3.45483 10.0699 3.41483 10.2849C3.39483 10.3799 3.38483 10.4749 3.36483 10.5699C3.33983 10.7199 3.31983 10.8749 3.29983 11.0299C3.28983 11.1349 3.27483 11.2399 3.26983 11.3449C3.25483 11.5449 3.24483 11.7399 3.24483 11.9399C3.23483 13.4049 3.58983 14.8599 4.30983 16.1849C5.12483 17.6799 6.33483 18.8749 7.79483 19.6699C7.80483 19.6749 7.81983 19.6849 7.82983 19.6899C8.00483 19.7849 8.18983 19.8699 8.37483 19.9499C8.46483 19.9899 8.54983 20.0349 8.63983 20.0699C8.76983 20.1249 8.89983 20.1649 9.02983 20.2149C9.17483 20.2699 9.31983 20.3249 9.46983 20.3699C9.48983 20.3749 9.50483 20.3849 9.52483 20.3899C9.53983 20.3899 9.55483 20.3899 9.56983 20.3949C10.3398 20.6199 11.1548 20.7449 11.9948 20.7449C13.1848 20.7449 14.3598 20.4949 15.4548 20.0249L15.9398 20.6899C16.2748 21.1449 16.9798 21.0699 17.2098 20.5499L18.3298 18.0049C18.5598 17.4849 18.1398 16.9149 17.5748 16.9749Z"/>
<path d="M11.9998 3.24994C10.8098 3.24994 9.63483 3.49994 8.53983 3.96994L8.05483 3.30494C7.71983 2.84994 7.01483 2.92494 6.78483 3.44494L5.66483 5.98994C5.43483 6.50994 5.85483 7.07994 6.41983 7.01994L9.18483 6.71494C9.74984 6.65494 10.0348 6.00494 9.69983 5.54494L9.45483 5.21494C10.2648 4.90994 11.1298 4.74494 11.9948 4.74494C15.9948 4.74494 19.2448 7.99494 19.2448 11.9949C19.2448 13.2799 18.8948 14.5549 18.2348 15.6699C18.0248 16.0249 18.1448 16.4849 18.4998 16.6949C18.6198 16.7649 18.7498 16.7999 18.8798 16.7999C19.1348 16.7999 19.3848 16.6699 19.5248 16.4299C20.3198 15.0799 20.7448 13.5449 20.7448 11.9899C20.7448 7.16494 16.8198 3.23994 11.9948 3.23994L11.9998 3.24994Z"/>
</svg>
