<svg width="24" height="25" viewBox="0 0 24 25" fill="none" xmlns="http://www.w3.org/2000/svg">
<path d="M15.6687 13.8332C15.2911 13.8335 14.9192 13.9258 14.5852 14.1021C14.2511 14.2784 13.965 14.5335 13.7514 14.8452L10.5006 13.3758C10.7315 12.8176 10.7324 12.1907 10.5031 11.6319L13.7494 10.1549C14.0659 10.6133 14.5361 10.9429 15.0747 11.0839C15.6132 11.2249 16.1843 11.1681 16.6846 10.9236C17.1848 10.6792 17.5809 10.2634 17.8011 9.75159C18.0214 9.2398 18.051 8.66595 17.8848 8.13413C17.7186 7.6023 17.3675 7.14774 16.8951 6.85288C16.4228 6.55803 15.8605 6.44241 15.3104 6.52701C14.7602 6.61161 14.2585 6.89081 13.8963 7.31398C13.5342 7.73715 13.3355 8.27625 13.3364 8.8335C13.3385 8.9654 13.3518 9.09687 13.3763 9.22648L9.92527 10.7964C9.59382 10.4855 9.17888 10.2783 8.73142 10.2003C8.28397 10.1223 7.82349 10.1768 7.40656 10.3572C6.98963 10.5375 6.63441 10.8359 6.38453 11.2156C6.13465 11.5953 6.001 12.0397 6.00001 12.4944C5.99901 12.9491 6.1307 13.3942 6.37891 13.775C6.62712 14.1558 6.98103 14.4557 7.39717 14.6379C7.8133 14.8201 8.27354 14.8766 8.72133 14.8006C9.16912 14.7245 9.58496 14.5191 9.91778 14.2097L13.3778 15.7736C13.3538 15.9031 13.3406 16.0344 13.3383 16.1661C13.3383 16.6277 13.4749 17.0789 13.731 17.4627C13.987 17.8465 14.3511 18.1456 14.777 18.3223C15.2029 18.499 15.6716 18.5452 16.1238 18.4552C16.576 18.3652 16.9913 18.1429 17.3173 17.8166C17.6433 17.4902 17.8653 17.0744 17.9552 16.6217C18.0452 16.169 17.999 15.6998 17.8225 15.2734C17.646 14.8471 17.3472 14.4826 16.9638 14.2263C16.5804 13.9699 16.1297 13.8331 15.6687 13.8332ZM15.6687 7.50007C15.9321 7.49997 16.1897 7.57809 16.4088 7.72455C16.6279 7.87101 16.7987 8.07923 16.8996 8.32287C17.0005 8.56652 17.027 8.83464 16.9756 9.09334C16.9243 9.35203 16.7975 9.58967 16.6112 9.7762C16.4249 9.96274 16.1876 10.0898 15.9292 10.1413C15.6708 10.1928 15.403 10.1664 15.1596 10.0655C14.9162 9.96457 14.7081 9.79366 14.5617 9.57437C14.4153 9.35508 14.3372 9.09725 14.3372 8.8335C14.3375 8.48002 14.4778 8.14109 14.7274 7.89109C14.9771 7.6411 15.3156 7.50047 15.6687 7.50007ZM8.34408 13.8332C8.08062 13.8333 7.82305 13.7552 7.60394 13.6088C7.38483 13.4623 7.21403 13.2541 7.11314 13.0104C7.01225 12.7668 6.98581 12.4987 7.03714 12.24C7.08848 11.9813 7.2153 11.7436 7.40156 11.5571C7.58782 11.3706 7.82515 11.2435 8.08354 11.192C8.34193 11.1405 8.60978 11.1669 8.85319 11.2678C9.09661 11.3687 9.30466 11.5397 9.45104 11.7589C9.59742 11.9782 9.67555 12.2361 9.67555 12.4998C9.67516 12.8533 9.53477 13.1921 9.28517 13.4421C9.03557 13.692 8.69713 13.8327 8.34408 13.8332ZM15.6687 17.4996C15.4052 17.4996 15.1477 17.4213 14.9287 17.2748C14.7096 17.1283 14.5389 16.9201 14.4381 16.6764C14.3373 16.4327 14.3109 16.1646 14.3623 15.906C14.4137 15.6473 14.5405 15.4097 14.7268 15.2232C14.9131 15.0368 15.1504 14.9098 15.4088 14.8583C15.6672 14.8069 15.935 14.8333 16.1784 14.9342C16.4218 15.0351 16.6298 15.206 16.7762 15.4253C16.9225 15.6446 17.0006 15.9024 17.0006 16.1661C17.0004 16.5197 16.86 16.8587 16.6102 17.1087C16.3605 17.3587 16.0219 17.4993 15.6687 17.4996Z" fill="#212B36"/>
</svg>
