<svg width="12" height="13" viewBox="0 0 12 13" stroke="none" xmlns="http://www.w3.org/2000/svg">
<path d="M8.9976 11.9375C8.52868 11.9375 8.104 11.8154 7.72355 11.5711C7.3431 11.3269 7.05191 11.0096 6.84999 10.6192C6.8096 10.5468 6.8042 10.4705 6.83376 10.3904C6.86333 10.3103 6.91425 10.2535 6.98652 10.2202C7.05896 10.1881 7.13348 10.1851 7.21007 10.211C7.28668 10.237 7.34518 10.2862 7.38556 10.3586C7.53415 10.6508 7.75048 10.8876 8.03455 11.0691C8.31862 11.2506 8.63984 11.3413 8.99821 11.3413C9.50517 11.3413 9.93669 11.163 10.2928 10.8063C10.6489 10.4496 10.8269 10.019 10.8269 9.51439C10.8269 9.00981 10.6486 8.57918 10.2919 8.22249C9.9352 7.86581 9.50457 7.68747 8.99999 7.68747C8.72627 7.68747 8.46761 7.74644 8.22401 7.86439C7.98042 7.98234 7.76824 8.14132 7.58748 8.34132H8.12499C8.2111 8.34132 8.2823 8.36945 8.3386 8.42572C8.39491 8.48198 8.42306 8.55313 8.42306 8.63917C8.42306 8.72521 8.39491 8.79644 8.3386 8.85286C8.2823 8.90926 8.2111 8.93747 8.12499 8.93747H7.02884C6.9008 8.93747 6.79346 8.89416 6.70684 8.80754C6.62022 8.72092 6.57691 8.61358 6.57691 8.48554V7.38939C6.57691 7.30328 6.60505 7.23208 6.66131 7.17578C6.71757 7.11947 6.78872 7.09132 6.87476 7.09132C6.9608 7.09132 7.03203 7.11947 7.08845 7.17578C7.14486 7.23208 7.17306 7.30328 7.17306 7.38939V7.90959C7.40447 7.66408 7.67819 7.46633 7.99421 7.31632C8.31024 7.16632 8.6455 7.09132 8.99999 7.09132C9.67037 7.09132 10.2418 7.32757 10.7143 7.80007C11.1868 8.27257 11.4231 8.84401 11.4231 9.51439C11.4231 10.1848 11.1866 10.7562 10.7136 11.2287C10.2406 11.7012 9.66864 11.9375 8.9976 11.9375ZM7.99999 4.94708C8.10624 4.94708 8.1953 4.91113 8.26718 4.83922C8.33904 4.76732 8.37498 4.67822 8.37498 4.57192C8.37498 4.46563 8.33904 4.37658 8.26718 4.30479C8.1953 4.23299 8.10624 4.19709 7.99999 4.19709H3.99999C3.89374 4.19709 3.80468 4.23305 3.73281 4.30495C3.66094 4.37686 3.625 4.46596 3.625 4.57225C3.625 4.67856 3.66094 4.7676 3.73281 4.83939C3.80468 4.91118 3.89374 4.94708 3.99999 4.94708H7.99999ZM7.00479 6.1394H3.99999C3.89374 6.1394 3.80468 6.17535 3.73281 6.24725C3.66094 6.31916 3.625 6.40826 3.625 6.51455C3.625 6.62085 3.66094 6.7099 3.73281 6.78169C3.80468 6.85348 3.89374 6.88938 3.99999 6.88938H6.10096C6.2284 6.74027 6.36699 6.60204 6.51673 6.47468C6.66647 6.34731 6.82915 6.23555 7.00479 6.1394ZM5.34519 8.0817H3.99999C3.89374 8.0817 3.80468 8.11766 3.73281 8.18957C3.66094 8.26147 3.625 8.35057 3.625 8.45687C3.625 8.56316 3.66094 8.6522 3.73281 8.72399C3.80468 8.79579 3.89374 8.83169 3.99999 8.83169H5.14037C5.15704 8.69836 5.18349 8.57 5.21971 8.4466C5.25593 8.3232 5.29775 8.20157 5.34519 8.0817ZM2.65385 10.7644C2.40529 10.7644 2.19251 10.6759 2.01551 10.4989C1.8385 10.3219 1.75 10.1091 1.75 9.86053V3.16825C1.75 2.9197 1.8385 2.70692 2.01551 2.52992C2.19251 2.35291 2.40529 2.2644 2.65385 2.2644H9.34612C9.59468 2.2644 9.80746 2.35291 9.98446 2.52992C10.1615 2.70692 10.25 2.9197 10.25 3.16825V5.8067C10.1309 5.76028 10.0086 5.72111 9.88324 5.68919C9.75786 5.65728 9.63011 5.63459 9.49999 5.62113V3.16825C9.49999 3.12979 9.48396 3.09453 9.45191 3.06247C9.41985 3.03042 9.38459 3.01439 9.34612 3.01439H2.65385C2.61538 3.01439 2.58012 3.03042 2.54806 3.06247C2.51601 3.09453 2.49999 3.12979 2.49999 3.16825V9.86053C2.49999 9.899 2.51601 9.93426 2.54806 9.96632C2.58012 9.99837 2.61538 10.0144 2.65385 10.0144H5.10672C5.12018 10.1445 5.14287 10.2723 5.17479 10.3976C5.2067 10.523 5.24588 10.6453 5.2923 10.7644H2.65385Z"/>
</svg>
