<svg width="24" height="24" viewBox="0 0 24 24" fill="none" xmlns="http://www.w3.org/2000/svg">
<path d="M12.25 3.25C7.4179 3.25 3.5 7.16698 3.5 11.999C3.5 16.831 7.41794 20.749 12.25 20.749C17.082 20.749 21 16.831 21 11.999C21 7.16698 17.0821 3.25 12.25 3.25ZM3 11.999C3 6.89076 7.14183 2.75 12.25 2.75C17.3581 2.75 21.5 6.89076 21.5 11.999C21.5 17.1072 17.3582 21.249 12.25 21.249C7.14179 21.249 3 17.1072 3 11.999Z" fill="black"/>
<path d="M10.0958 14.1272L10.0957 14.127C9.89636 13.9129 9.7734 13.5976 9.7734 13.2024V10.7953C9.7734 10.4005 9.89677 10.0849 10.097 9.87045M10.0958 14.1272L10.097 9.87045M10.0958 14.1272C10.2934 14.3393 10.5862 14.4742 10.9723 14.4742H13.5263C13.9118 14.4742 14.2046 14.3393 14.4024 14.1273L14.4027 14.127M10.0958 14.1272L14.4027 14.127M10.097 9.87045C10.2952 9.65809 10.5882 9.5234 10.9723 9.5234H13.5263C13.9118 9.5234 14.2047 9.65827 14.4025 9.87056M10.097 9.87045L14.4025 9.87056M14.4025 9.87056C14.4025 9.87056 14.4025 9.87056 14.4025 9.87056L14.0367 10.2114L14.4025 9.87056ZM14.4025 9.87056C14.6022 10.0849 14.7252 10.4003 14.7252 10.7953M14.4025 9.87056L14.7252 10.7953M14.4027 14.127C14.6021 13.9127 14.7252 13.5974 14.7252 13.2024M14.4027 14.127L14.7252 13.2024M10.9723 9.02344C10.4648 9.02344 10.034 9.20491 9.73118 9.52959C9.43019 9.8523 9.27344 10.2972 9.27344 10.7953V13.2024C9.27344 13.7 9.4292 14.1449 9.7299 14.4679L10.9723 9.02344ZM10.9723 9.02344H13.5263M10.9723 9.02344H13.5263M13.5263 9.02344C14.0346 9.02344 14.4656 9.20484 14.7683 9.52966L13.5263 9.02344ZM14.7252 13.2024V10.7953M14.7252 13.2024V10.7953M14.7683 9.52968C15.0691 9.85253 15.2252 10.2975 15.2252 10.7953V13.2024C15.2252 13.7001 15.0691 14.145 14.7683 14.4679C14.4656 14.7928 14.0346 14.9742 13.5263 14.9742H10.9723C10.4636 14.9742 10.0326 14.7928 9.72996 14.468L14.7683 9.52968Z" fill="black"/>
</svg>
