<svg width="64" height="64" viewBox="0 0 64 64" fill="none"
  xmlns="http://www.w3.org/2000/svg">
  <rect width="64" height="64" rx="32" fill="#FADCDC"/>
  <g clip-path="url(#clip0_108_9)">
    <path d="M41.25 25H39.625V21.75C39.625 17.265 35.985 13.625 31.5 13.625C27.015 13.625 23.375 17.265 23.375 21.75V25H21.75C19.9625 25 18.5 26.4625 18.5 28.25V44.5C18.5 46.2875 19.9625 47.75 21.75 47.75H41.25C43.0375 47.75 44.5 46.2875 44.5 44.5V28.25C44.5 26.4625 43.0375 25 41.25 25ZM26.625 21.75C26.625 19.0525 28.8025 16.875 31.5 16.875C34.1975 16.875 36.375 19.0525 36.375 21.75V25H26.625V21.75ZM39.625 44.5H23.375C22.4812 44.5 21.75 43.7688 21.75 42.875V29.875C21.75 28.9812 22.4812 28.25 23.375 28.25H39.625C40.5188 28.25 41.25 28.9812 41.25 29.875V42.875C41.25 43.7688 40.5188 44.5 39.625 44.5ZM31.5 39.625C33.2875 39.625 34.75 38.1625 34.75 36.375C34.75 34.5875 33.2875 33.125 31.5 33.125C29.7125 33.125 28.25 34.5875 28.25 36.375C28.25 38.1625 29.7125 39.625 31.5 39.625Z" fill="#FF0000"/>
  </g>
  <defs>
    <clipPath id="clip0_108_9">
      <rect x="12" y="12" width="39" height="39" rx="19.5" fill="white"/>
    </clipPath>
  </defs>
</svg>
