<svg width="60" height="47" viewBox="0 0 60 47" fill="none" xmlns="http://www.w3.org/2000/svg">
<path d="M9.22129 42.9487C9.06395 43.762 9.59574 44.5489 10.4091 44.7063C11.2224 44.8636 12.0093 44.3318 12.1667 43.5185L9.22129 42.9487ZM50.5848 4.29132C51.4058 4.18035 51.9813 3.42487 51.8704 2.60391C51.7594 1.78295 51.0039 1.20739 50.1829 1.31836L50.5848 4.29132ZM4.78798 32.8309C4.36111 32.1209 3.43951 31.8914 2.72953 32.3183C2.01955 32.7452 1.79004 33.6668 2.21692 34.3768L4.78798 32.8309ZM8.97744 42.71L7.6919 43.4829L7.69263 43.4841L8.97744 42.71ZM12.5939 43.7607L11.981 42.3917L11.9798 42.3922L12.5939 43.7607ZM23.513 40.5157C24.2691 40.1772 24.6077 39.2898 24.2692 38.5337C23.9306 37.7776 23.0433 37.439 22.2872 37.7776L23.513 40.5157ZM10.694 43.2336C12.1667 43.5185 12.1666 43.5188 12.1666 43.5191C12.1666 43.5191 12.1665 43.5193 12.1665 43.5193C12.1665 43.5193 12.1666 43.519 12.1667 43.5185C12.1669 43.5174 12.1673 43.5153 12.1679 43.5122C12.1692 43.5059 12.1713 43.4954 12.1742 43.4809C12.1801 43.4518 12.1894 43.4065 12.2023 43.3457C12.2281 43.2241 12.2683 43.0405 12.3241 42.8009C12.4357 42.3218 12.6096 41.6194 12.8559 40.7422C13.3489 38.9864 14.1299 36.5372 15.2781 33.7783C17.584 28.2376 21.3243 21.5616 27.0845 16.7003L25.1497 14.4077C18.877 19.7014 14.9058 26.8652 12.5084 32.6256C11.3049 35.5172 10.4863 38.0838 9.96757 39.9312C9.70803 40.8556 9.52308 41.6017 9.40225 42.1205C9.34183 42.38 9.2974 42.5828 9.26769 42.7229C9.25283 42.7929 9.24164 42.8472 9.23396 42.8851C9.23012 42.904 9.22716 42.9189 9.22506 42.9295C9.224 42.9348 9.22317 42.9391 9.22254 42.9423C9.22223 42.9439 9.22197 42.9452 9.22176 42.9463C9.22165 42.9468 9.22154 42.9474 9.22149 42.9477C9.22138 42.9482 9.22129 42.9487 10.694 43.2336ZM27.0845 16.7003C38.8971 6.73119 48.2855 4.60213 50.5848 4.29132L50.1829 1.31836C47.3244 1.70477 37.4028 4.06674 25.1497 14.4077L27.0845 16.7003ZM2.21692 34.3768L7.6919 43.4829L10.263 41.937L4.78798 32.8309L2.21692 34.3768ZM7.69263 43.4841C8.83488 45.3799 11.2212 46.021 13.2081 45.1292L11.9798 42.3922C11.2787 42.7069 10.5668 42.4414 10.2622 41.9358L7.69263 43.4841ZM13.2069 45.1298L23.513 40.5157L22.2872 37.7776L11.981 42.3917L13.2069 45.1298Z" fill="#111111"/>
</svg>
