<svg width="25" height="24" viewBox="0 0 25 24" fill="none" xmlns="http://www.w3.org/2000/svg">
<g clip-path="url(#clip0_60_13729)">
<path d="M22.043 7.10385C22.057 7.31485 22.057 7.52685 22.057 7.73985C22.057 14.2469 17.103 21.7499 8.047 21.7499V21.7459C5.372 21.7499 2.752 20.9839 0.5 19.5389C0.889 19.5859 1.28 19.6089 1.672 19.6099C3.89 19.6119 6.044 18.8679 7.787 17.4979C5.68 17.4579 3.832 16.0839 3.187 14.0779C3.925 14.2199 4.685 14.1909 5.41 13.9939C3.112 13.5299 1.46 11.5109 1.46 9.16685C1.46 9.14585 1.46 9.12485 1.46 9.10485C2.145 9.48685 2.911 9.69785 3.695 9.72085C1.531 8.27585 0.863 5.39785 2.17 3.14785C4.67 6.22385 8.359 8.09385 12.318 8.29285C11.921 6.58285 12.464 4.79085 13.742 3.58785C15.725 1.72285 18.844 1.81885 20.709 3.80185C21.812 3.58485 22.869 3.17985 23.836 2.60685C23.468 3.74685 22.699 4.71485 21.671 5.33085C22.648 5.21385 23.601 4.95285 24.5 4.55485C23.839 5.54385 23.007 6.40685 22.043 7.10385Z" fill="#637381"/>
</g>
<defs>
<clipPath id="clip0_60_13729">
<rect width="24" height="24" fill="white" transform="translate(0.5)"/>
</clipPath>
</defs>
</svg>
