<svg width="22" height="23" viewBox="0 0 22 23" fill="none" xmlns="http://www.w3.org/2000/svg">
<g id="upgrade_FILL0_wght400_GRAD0_opsz48 1">
<path id="Vector" d="M7.104 18.3477C6.90539 18.3477 6.74116 18.2828 6.6113 18.1529C6.48143 18.0231 6.4165 17.8588 6.4165 17.6602C6.4165 17.4616 6.48143 17.2974 6.6113 17.1675C6.74116 17.0377 6.90539 16.9727 7.104 16.9727H14.8957C15.0943 16.9727 15.2585 17.0377 15.3884 17.1675C15.5182 17.2974 15.5832 17.4616 15.5832 17.6602C15.5832 17.8588 15.5182 18.0231 15.3884 18.1529C15.2585 18.2828 15.0943 18.3477 14.8957 18.3477H7.104ZM10.9998 14.4519C10.8012 14.4519 10.637 14.387 10.5071 14.2571C10.3773 14.1272 10.3123 13.963 10.3123 13.7644V6.29355L8.02067 8.58522C7.88317 8.72272 7.72275 8.79147 7.53942 8.79147C7.35609 8.79147 7.19567 8.72272 7.05817 8.58522C6.92067 8.44772 6.85192 8.2873 6.85192 8.10397C6.85192 7.92064 6.92067 7.76022 7.05817 7.62272L10.5186 4.1623C10.595 4.08592 10.6714 4.03244 10.7478 4.00189C10.8241 3.97133 10.9082 3.95605 10.9998 3.95605C11.0915 3.95605 11.1755 3.97133 11.2519 4.00189C11.3283 4.03244 11.4047 4.08592 11.4811 4.1623L14.9415 7.62272C15.079 7.76022 15.1478 7.92064 15.1478 8.10397C15.1478 8.2873 15.079 8.44772 14.9415 8.58522C14.804 8.72272 14.6436 8.79147 14.4603 8.79147C14.2769 8.79147 14.1165 8.72272 13.979 8.58522L11.6873 6.29355V13.7644C11.6873 13.963 11.6224 14.1272 11.4925 14.2571C11.3627 14.387 11.1984 14.4519 10.9998 14.4519Z" fill="white"/>
</g>
</svg>
