<svg width="25" height="24" viewBox="0 0 25 24" fill="none" xmlns="http://www.w3.org/2000/svg">
<path d="M17.6401 7.43239C17.5859 7.37735 17.5215 7.33369 17.4507 7.30391C17.3799 7.27412 17.304 7.25879 17.2273 7.25879C17.1507 7.25879 17.0747 7.27412 17.0039 7.30391C16.9331 7.33369 16.8687 7.37735 16.8145 7.43239C16.7603 7.48743 16.7173 7.55277 16.688 7.62468C16.6587 7.69659 16.6436 7.77366 16.6436 7.8515C16.6436 7.92933 16.6587 8.00641 16.688 8.07832C16.7173 8.15023 16.7603 8.21557 16.8145 8.2706C17.7871 9.26041 18.3333 10.6015 18.3333 11.9996C18.3333 13.3978 17.7871 14.7388 16.8145 15.7287C16.7051 15.8398 16.6436 15.9906 16.6436 16.1478C16.6436 16.305 16.7051 16.4557 16.8145 16.5669C16.924 16.678 17.0725 16.7405 17.2273 16.7405C17.3821 16.7405 17.5306 16.678 17.6401 16.5669C18.8314 15.3546 19.5004 13.7121 19.5004 11.9996C19.5004 10.2872 18.8314 8.64465 17.6401 7.43239Z" fill="black"/>
<path d="M16.0606 9.21078C16.0064 9.15555 15.942 9.1117 15.8711 9.08173C15.8002 9.05177 15.7241 9.03627 15.6474 9.03613C15.5706 9.036 15.4945 9.05122 15.4235 9.08093C15.3525 9.11064 15.2879 9.15426 15.2335 9.2093C15.1791 9.26434 15.1359 9.32972 15.1064 9.4017C15.0769 9.47369 15.0617 9.55087 15.0615 9.62884C15.0614 9.70681 15.0764 9.78405 15.1056 9.85614C15.1349 9.92823 15.1779 9.99376 15.2321 10.049C15.7413 10.5668 16.0273 11.2686 16.0273 12.0003C16.0273 12.732 15.7413 13.4338 15.2321 13.9516C15.1779 14.0068 15.1349 14.0724 15.1056 14.1444C15.0764 14.2165 15.0614 14.2938 15.0615 14.3717C15.0617 14.4497 15.0769 14.5269 15.1064 14.5989C15.1359 14.6709 15.1791 14.7362 15.2335 14.7913C15.3434 14.9024 15.4923 14.9647 15.6474 14.9645C15.7241 14.9643 15.8002 14.9488 15.8711 14.9189C15.942 14.8889 16.0064 14.845 16.0606 14.7898C16.7883 14.0495 17.197 13.0463 17.197 12.0003C17.197 10.9543 16.7883 9.9511 16.0606 9.21078Z" fill="black"/>
<path d="M13.5631 5.00978C11.7891 5.34819 10.2111 6.36624 9.15583 7.8532H8.4172C7.64389 7.85446 6.9026 8.16691 6.35579 8.72211C5.80898 9.2773 5.50123 10.0299 5.5 10.8151V13.1846C5.50123 13.9698 5.80898 14.7224 6.35579 15.2776C6.9026 15.8328 7.64389 16.1453 8.4172 16.1465H9.15583C10.2113 17.6332 11.7892 18.6512 13.5631 18.9899C13.5979 18.9968 13.6333 19.0002 13.6687 19C13.8235 19 13.9719 18.9376 14.0813 18.8265C14.1907 18.7154 14.2522 18.5647 14.2522 18.4076V5.59387C14.2524 5.50687 14.2337 5.42089 14.1975 5.34204C14.1613 5.26319 14.1084 5.19341 14.0427 5.13765C13.9769 5.08189 13.8998 5.04153 13.8169 5.01943C13.7341 4.99733 13.6474 4.99404 13.5631 5.00978ZM13.0847 17.6482C11.7979 17.2317 10.6914 16.3783 9.95106 15.2313C9.89817 15.1487 9.82581 15.0807 9.74053 15.0337C9.65526 14.9866 9.55978 14.9619 9.46272 14.9617H8.4172C7.95298 14.9617 7.50778 14.7745 7.17954 14.4412C6.85129 14.108 6.66688 13.6559 6.66688 13.1846V10.8151C6.66688 10.3438 6.85129 9.89175 7.17954 9.55847C7.50778 9.22519 7.95298 9.03796 8.4172 9.03796H9.46739C9.56434 9.03795 9.65975 9.0134 9.74502 8.96655C9.83028 8.9197 9.9027 8.85201 9.95573 8.76961C10.6945 7.62291 11.7993 6.76912 13.0847 6.35152V17.6482Z" fill="black"/>
</svg>
