<svg width="25" height="24" viewBox="0 0 25 24" fill="none" xmlns="http://www.w3.org/2000/svg">
<g clip-path="url(#clip0_60_13715)">
<path fill-rule="evenodd" clip-rule="evenodd" d="M20.9626 3.488C18.7166 1.24 15.7306 0.001 12.5496 0C5.99464 0 0.659641 5.334 0.656641 11.892C0.655641 13.988 1.20364 16.034 2.24464 17.838L0.556641 24L6.86064 22.346C8.59764 23.294 10.5536 23.793 12.5436 23.794H12.5486C19.1026 23.794 24.4386 18.459 24.4416 11.901C24.4436 8.724 23.2076 5.735 20.9626 3.488ZM12.5496 21.785H12.5456C10.7716 21.785 9.03264 21.308 7.51464 20.407L7.15364 20.193L3.41264 21.174L4.41164 17.526L4.17664 17.152C3.18664 15.578 2.66464 13.759 2.66564 11.892C2.66764 6.442 7.10264 2.008 12.5546 2.008C15.1946 2.008 17.6766 3.038 19.5426 4.906C21.4086 6.775 22.4356 9.258 22.4346 11.899C22.4316 17.351 17.9976 21.785 12.5496 21.785ZM17.9716 14.382C17.6746 14.233 16.2136 13.514 15.9406 13.415C15.6686 13.316 15.4706 13.266 15.2716 13.563C15.0726 13.86 14.5046 14.53 14.3306 14.729C14.1576 14.927 13.9836 14.952 13.6866 14.803C13.3896 14.654 12.4316 14.341 11.2966 13.328C10.4136 12.54 9.81664 11.567 9.64364 11.269C9.47064 10.971 9.62564 10.811 9.77364 10.663C9.90764 10.53 10.0706 10.316 10.2196 10.142C10.3696 9.97 10.4186 9.846 10.5186 9.647C10.6176 9.449 10.5686 9.275 10.4936 9.126C10.4186 8.978 9.82464 7.515 9.57764 6.92C9.33664 6.34 9.09164 6.419 8.90864 6.41C8.73564 6.401 8.53764 6.4 8.33864 6.4C8.14064 6.4 7.81864 6.474 7.54664 6.772C7.27464 7.07 6.50664 7.789 6.50664 9.251C6.50664 10.714 7.57164 12.127 7.71964 12.325C7.86764 12.523 9.81464 15.525 12.7956 16.812C13.5046 17.118 14.0586 17.301 14.4896 17.438C15.2016 17.664 15.8496 17.632 16.3616 17.556C16.9326 17.471 18.1196 16.837 18.3676 16.143C18.6156 15.449 18.6156 14.853 18.5406 14.73C18.4666 14.605 18.2686 14.531 17.9716 14.382Z" fill="#637381"/>
</g>
<defs>
<clipPath id="clip0_60_13715">
<rect width="24" height="24" fill="white" transform="translate(0.5)"/>
</clipPath>
</defs>
</svg>
